<?xml version="1.0" encoding="UTF-8" standalone="no"?>
<svg width="177px" height="74px" viewBox="0 0 177 74" version="1.1" xmlns="http://www.w3.org/2000/svg" xmlns:xlink="http://www.w3.org/1999/xlink">
    <!-- Generator: Sketch 50.2 (55047) - http://www.bohemiancoding.com/sketch -->
    <title>ASI</title>
    <desc>Created with Sketch.</desc>
    <defs></defs>
    <g id="1440" stroke="none" stroke-width="1" fill="none" fill-rule="evenodd" opacity="0.7">
        <g id="Main_1440" transform="translate(-417.000000, -696.000000)" fill="#7EA8AD">
            <g id="1">
                <g id="Partners" transform="translate(136.000000, 696.000000)">
                    <g id="ASI" transform="translate(280.000000, 0.000000)">
                        <g id="Group-65" transform="translate(50.671233, 31.424658)">
                            <path d="M7.95836058,10.6103836 C7.78281296,10.6103836 7.68051107,10.6103836 7.60666,10.3889918 L6.87541336,8.2267726 L2.74641226,8.2267726 L2.01395494,10.3889918 C1.96916003,10.5361808 1.88199156,10.6103836 1.7058386,10.6103836 L0.710059858,10.6103836 C0.519984159,10.6103836 0.476399922,10.4771836 0.519984159,10.3299945 L3.82996481,0.869753425 C3.99037902,0.398991781 4.1223424,0.29620274 4.5769502,0.28099726 L5.01581926,0.28099726 C5.54185678,0.28099726 5.65989742,0.428186301 5.80578355,0.869753425 L9.10184146,10.3299945 C9.15934844,10.4625863 9.1157642,10.6103836 8.9256885,10.6103836 L7.95836058,10.6103836 Z M5.51340596,3.95950685 L4.82453288,1.79667945 L4.75189249,1.79667945 L4.09268091,3.88591233 L3.09690216,7.03466301 L6.49465663,7.03466301 L5.51340596,3.95950685 Z" id="Fill-1"></path>
                            <path d="M11.4741557,10.3299945 C11.4741557,10.5659836 11.4003046,10.6103836 11.1811728,10.6103836 L10.4487154,10.6103836 C10.2441117,10.6103836 10.1412044,10.5659836 10.1412044,10.3299945 L10.1412044,2.82639452 C10.1412044,1.47310685 10.726565,0.29620274 12.6158206,0.29620274 L16.5402179,0.29620274 C16.7744832,0.29620274 16.8186727,0.398991781 16.8186727,0.605178082 L16.8186727,1.20853151 C16.8186727,1.44391233 16.7744832,1.51750685 16.5402179,1.51750685 L12.630954,1.51750685 C11.8258563,1.51750685 11.4741557,1.85567671 11.4741557,2.62081644 L11.4741557,10.3299945" id="Fill-3"></path>
                            <path d="M24.6238831,10.6103836 L20.5529944,10.6103836 C18.6492107,10.6103836 18.0777729,9.44746849 18.0777729,8.09418082 L18.0777729,2.82639452 C18.0777729,1.47249863 18.766646,0.29620274 20.5529944,0.29620274 L24.5506374,0.29620274 C24.7703746,0.29620274 24.8145642,0.398991781 24.8145642,0.604569863 L24.8145642,1.22252055 C24.8145642,1.44330411 24.7703746,1.51689863 24.5506374,1.51689863 L20.5675224,1.51689863 C19.7624247,1.51689863 19.4113295,1.87027397 19.4113295,2.6354137 L19.4113295,4.54765479 L24.0675788,4.54765479 C24.2867106,4.54765479 24.3315056,4.63645479 24.3315056,4.85784658 L24.3315056,5.41619178 C24.3315056,5.6071726 24.2867106,5.70996164 24.0675788,5.70996164 L19.4113295,5.70996164 L19.4113295,8.2711726 C19.4113295,8.93291507 19.7333686,9.37387397 20.5675224,9.37387397 L24.6238831,9.37387397 C24.8581484,9.37387397 24.9017326,9.46267397 24.9017326,9.68284932 L24.9017326,10.3014082 C24.9017326,10.5075945 24.8581484,10.6103836 24.6238831,10.6103836" id="Fill-5"></path>
                            <path d="M33.0883051,0.560778082 C33.0883051,0.354591781 33.1760789,0.3108 33.3661546,0.3108 L34.1579349,0.3108 C34.3625387,0.3108 34.4357845,0.354591781 34.4357845,0.560778082 L34.4357845,10.359189 C34.4357845,10.5659836 34.3625387,10.6103836 34.1579349,10.6103836 L33.3661546,10.6103836 C33.1760789,10.6103836 33.0883051,10.5659836 33.0883051,10.359189 L33.0883051,5.7689589 L27.9193357,5.7689589 L27.9193357,10.359189 C27.9193357,10.5659836 27.8454846,10.6103836 27.6414862,10.6103836 L26.8357832,10.6103836 C26.6602355,10.6103836 26.5573283,10.5659836 26.5573283,10.359189 L26.5573283,0.560778082 C26.5573283,0.354591781 26.6602355,0.3108 26.8357832,0.3108 L27.6414862,0.3108 C27.8454846,0.3108 27.9193357,0.354591781 27.9193357,0.560778082 L27.9193357,4.59205479 L33.0883051,4.59205479 L33.0883051,0.560778082" id="Fill-7"></path>
                            <path d="M38.8141842,1.50230137 L35.9588114,1.50230137 C35.7832638,1.50230137 35.7542076,1.44330411 35.7542076,1.26692055 L35.7542076,0.545572603 C35.7542076,0.384394521 35.7832638,0.310191781 35.9588114,0.310191781 L43.1338664,0.310191781 C43.3088087,0.310191781 43.3384702,0.384394521 43.3384702,0.545572603 L43.3384702,1.26692055 C43.3384702,1.44330411 43.3088087,1.50230137 43.1338664,1.50230137 L40.1913251,1.50230137 L40.1913251,10.3597973 C40.1913251,10.5653753 40.1180793,10.6103836 39.926793,10.6103836 L39.0920338,10.6103836 C38.9025634,10.6103836 38.8141842,10.5653753 38.8141842,10.3597973 L38.8141842,1.50230137" id="Fill-9"></path>
                            <path d="M50.5443973,8.97670685 C50.7635292,8.88851507 50.8367749,9.00650959 50.8803592,9.09470137 L51.158814,9.71204384 C51.2768546,9.94742466 51.2175316,10.0064219 51.0855683,10.0958301 C50.1333738,10.6541753 48.9178578,10.7715616 47.9807967,10.7715616 C45.2434645,10.7715616 43.616925,9.16768767 43.616925,5.6071726 C43.616925,2.29663562 45.4196175,0.163610959 48.083704,0.163610959 C48.9178578,0.163610959 49.8258628,0.2664 50.8077188,0.766356164 C50.9245487,0.825353425 50.982661,0.913545205 50.8803592,1.10513425 L50.5443973,1.78208219 C50.4856797,1.89946849 50.4408848,1.95846575 50.2798652,1.88487123 C49.621259,1.59049315 48.8888017,1.42870685 48.1424216,1.42870685 C45.9159935,1.42870685 44.9940658,3.47353973 44.9940658,5.6071726 C44.9940658,7.75540274 45.754974,9.50646575 48.2156673,9.50646575 C49.0649546,9.50646575 49.8555242,9.28568219 50.5443973,8.97670685" id="Fill-11"></path>
                            <path d="M55.1425343,1.50230137 L52.2865561,1.50230137 C52.1110085,1.50230137 52.0825577,1.44330411 52.0825577,1.26692055 L52.0825577,0.545572603 C52.0825577,0.384394521 52.1110085,0.310191781 52.2865561,0.310191781 L59.4628218,0.310191781 C59.6377641,0.310191781 59.6674256,0.384394521 59.6674256,0.545572603 L59.6674256,1.26692055 C59.6674256,1.44330411 59.6377641,1.50230137 59.4628218,1.50230137 L56.5196751,1.50230137 L56.5196751,10.3597973 C56.5196751,10.5653753 56.4464294,10.6103836 56.255143,10.6103836 L55.4203838,10.6103836 C55.2309135,10.6103836 55.1425343,10.5653753 55.1425343,10.3597973 L55.1425343,1.50230137" id="Fill-13"></path>
                            <path d="M66.8285578,4.9600274 C68.0440738,5.37179178 68.511999,6.49030685 68.511999,7.54982466 C68.511999,9.37326575 67.0628231,10.6103836 65.1887009,10.6103836 L61.7177007,10.6103836 C61.1910578,10.6103836 60.9713207,10.3896 60.9713207,9.87504658 L60.9713207,1.04613699 C60.9713207,0.530975342 61.1613964,0.295594521 61.7177007,0.295594521 L64.9828865,0.28099726 C66.7692348,0.28099726 68.0731299,1.01694247 68.0731299,2.81179726 C68.0731299,3.69493151 67.5894659,4.48926575 66.8285578,4.85723836 L66.8285578,4.9600274 Z M62.3181946,4.44547397 L65.0125479,4.44547397 C65.6566261,4.44547397 66.6820664,4.16569315 66.6820664,2.89998904 C66.6820664,2.07646027 66.0815724,1.51689863 65.1293779,1.51689863 L62.3181946,1.51689863 L62.3181946,4.44547397 Z M65.0416041,5.57797808 L62.3181946,5.57797808 L62.3181946,9.37326575 L65.0416041,9.37326575 C66.7256506,9.37326575 67.1360688,8.22616438 67.1360688,7.4464274 C67.1360688,6.34311781 66.4036115,5.57797808 65.0416041,5.57797808 Z" id="Fill-15"></path>
                            <path d="M73.8571213,10.7715616 C70.9872204,10.7715616 69.5374392,8.87391781 69.5374392,5.47458082 C69.5374392,2.06125479 71.3825052,0.149013699 73.8867828,0.149013699 C76.7566838,0.149013699 78.2506545,2.13484932 78.2506545,5.41619178 C78.2506545,8.84411507 76.7421557,10.7715616 73.8571213,10.7715616 M73.9303671,1.35511233 C71.8359024,1.35511233 70.8843132,3.22356164 70.8843132,5.41619178 C70.8843132,7.84359452 71.5877143,9.56607123 73.8716494,9.56607123 C76.1561898,9.56607123 76.8735137,7.59422466 76.8735137,5.47458082 C76.8735137,3.3269589 76.3178147,1.35511233 73.9303671,1.35511233" id="Fill-17"></path>
                            <path d="M7.55641706,23.0277863 C7.83123989,22.9104 7.91840836,22.9833863 8.00557684,23.2023452 L8.49832085,24.2496986 C8.62786288,24.5252219 8.58488398,24.6274027 8.41115237,24.7295836 C7.36815737,25.3700384 6.18109225,25.5452055 5.06545686,25.5452055 C1.9074157,25.5452055 0.502429397,23.5812658 0.502429397,20.349189 C0.502429397,17.1767178 2.38623697,15.0522082 5.16654808,15.0522082 C6.15143076,15.0522082 7.10725729,15.1829753 8.00557684,15.6774575 C8.22349802,15.7942356 8.25194884,15.8672219 8.12180147,16.1871452 L7.67203636,17.1913151 C7.57094514,17.4540658 7.51343816,17.5112384 7.23801,17.4096658 C6.54308356,17.1621205 5.99162189,17.0313534 5.26763929,17.0313534 C3.6743933,17.0313534 2.82086866,18.4576274 2.82086866,20.349189 C2.82086866,22.2413589 3.44315471,23.5362575 5.32575161,23.5362575 C6.23859923,23.5362575 6.93352568,23.260126 7.55641706,23.0277863" id="Fill-19"></path>
                            <path d="M16.8834437,17.0891342 L14.2623362,17.0891342 L14.2623362,25.0793096 C14.2623362,25.3262466 14.2036185,25.3852438 13.9142676,25.3852438 L12.3640005,25.3852438 C12.1327619,25.3852438 12.0310654,25.3116493 12.0310654,25.0793096 L12.0310654,17.0891342 L9.46746478,17.0891342 C9.26467701,17.0891342 9.19264195,17.0015507 9.19264195,16.7977973 L9.19264195,15.5028986 C9.19264195,15.2559616 9.25014893,15.1975726 9.46746478,15.1975726 L16.8834437,15.1975726 C17.1146823,15.1975726 17.1734,15.2559616 17.1734,15.5028986 L17.1734,16.7977973 C17.1734,17.0015507 17.0868368,17.0891342 16.8834437,17.0891342" id="Fill-21"></path>
                            <path d="M20.618976,25.0793096 C20.618976,25.3414521 20.5614691,25.3852438 20.2721182,25.3852438 L18.7509072,25.3852438 C18.5190633,25.3852438 18.4179721,25.3116493 18.4179721,25.0793096 L18.4179721,16.0709753 C18.4179721,15.5327014 18.5917037,15.1823671 19.2866301,15.1823671 L22.8357188,15.1823671 C24.9350262,15.1823671 26.2243932,16.522274 26.2243932,18.3706521 C26.2243932,19.3590082 25.8042896,21.6878795 22.5457625,21.6878795 L20.618976,21.6878795 L20.618976,25.0793096 Z M22.5021783,17.132926 L20.618976,17.132926 L20.618976,19.8984986 L22.5167064,19.8984986 C23.501589,19.8984986 23.9507488,19.2866301 23.9507488,18.5160164 C23.9507488,17.9619288 23.6753207,17.132926 22.5021783,17.132926 Z" id="Fill-23"></path>
                            <path d="M31.7426418,23.260126 L28.4253971,23.260126 L27.8606181,25.1085041 C27.8025057,25.2976603 27.7298654,25.3846356 27.4550425,25.3846356 L25.7607053,25.3846356 C25.5579175,25.3846356 25.5143333,25.2392712 25.5579175,25.0932986 L28.5706779,15.9687945 C28.7728604,15.2991452 29.0337604,15.1823671 29.628201,15.1689863 L30.4962537,15.1689863 C31.1488066,15.1689863 31.3951786,15.2559616 31.6264172,15.9687945 L34.6391776,25.0932986 C34.6827618,25.2094685 34.6537056,25.3846356 34.4509179,25.3846356 L32.7275245,25.3846356 C32.5096033,25.3846356 32.3655332,25.3560493 32.3074209,25.1522959 L31.7426418,23.260126 Z M28.9471973,21.4555397 L31.221447,21.4555397 L30.6699853,19.6071616 L30.1342624,17.5264438 L30.0470939,17.5264438 L29.4974483,19.6071616 L28.9471973,21.4555397 Z" id="Fill-25"></path>
                            <path d="M41.9825161,17.0891342 L39.3601979,17.0891342 L39.3601979,25.0793096 C39.3601979,25.3262466 39.3026909,25.3852438 39.0127347,25.3852438 L37.4636782,25.3852438 C37.231229,25.3852438 37.1295324,25.3116493 37.1295324,25.0793096 L37.1295324,17.0891342 L34.5665372,17.0891342 C34.3643547,17.0891342 34.291109,17.0015507 34.291109,16.7977973 L34.291109,15.5028986 C34.291109,15.2559616 34.3492213,15.1975726 34.5665372,15.1975726 L41.9825161,15.1975726 C42.2137547,15.1975726 42.271867,15.2559616 42.271867,15.5028986 L42.271867,16.7977973 C42.271867,17.0015507 42.1846986,17.0891342 41.9825161,17.0891342" id="Fill-27"></path>
                            <path d="M50.4832583,25.3846356 L46.1962644,25.3846356 C44.0527674,25.3846356 43.5164391,24.0313479 43.5164391,22.7072548 L43.5164391,17.8755616 C43.5164391,16.4930795 44.226499,15.1829753 46.1817363,15.1829753 L50.3379775,15.1829753 C50.5710321,15.1829753 50.6134057,15.2559616 50.6134057,15.5320932 L50.6134057,16.7698192 C50.6134057,17.0167562 50.5565041,17.0891342 50.3379775,17.0891342 L46.6605576,17.0891342 C45.9063081,17.0891342 45.7186538,17.4826521 45.7186538,17.9917315 L45.7186538,19.1120712 L49.8755004,19.1120712 C50.1073443,19.1120712 50.1497178,19.1850575 50.1497178,19.461189 L50.1497178,20.5967342 C50.1497178,20.8296822 50.1073443,20.9312548 49.8755004,20.9312548 L45.7186538,20.9312548 L45.7186538,22.5904767 C45.7186538,23.260126 46.0509836,23.4632712 46.6605576,23.4632712 L50.4832583,23.4632712 C50.7296303,23.4632712 50.7726092,23.5216603 50.7726092,23.8129973 L50.7726092,25.0495068 C50.7726092,25.283063 50.7151023,25.3846356 50.4832583,25.3846356" id="Fill-29"></path>
                            <path d="M54.5959153,25.0793096 C54.5959153,25.3414521 54.5529364,25.3852438 54.2617695,25.3852438 L52.7278465,25.3852438 C52.4953973,25.3852438 52.3937007,25.3116493 52.3937007,25.0793096 L52.3937007,17.8755616 C52.3937007,16.4924712 53.0607817,15.1823671 55.0589979,15.1823671 L59.2297672,15.1823671 C59.4767445,15.1823671 59.5209341,15.2559616 59.5209341,15.5327014 L59.5209341,16.7698192 C59.5209341,17.0173644 59.4628218,17.0897425 59.2297672,17.0897425 L55.5378191,17.0897425 C54.784175,17.0897425 54.5959153,17.4680548 54.5959153,17.9917315 L54.5959153,25.0793096" id="Fill-31"></path>
                            <path d="M67.0803778,18.5737973 L65.7916162,20.7573041 L63.3430295,24.744789 C63.0100944,25.283063 62.8514962,25.3846356 62.2570556,25.3846356 L61.6771432,25.3846356 C60.9253151,25.3846356 60.73645,24.991726 60.73645,24.3804658 L60.73645,15.4591068 C60.73645,15.2559616 60.8236185,15.1829753 61.040329,15.1829753 L62.5912015,15.1829753 C62.8514962,15.1829753 62.8950804,15.2413644 62.8950804,15.4591068 L62.8950804,22.008411 L62.9810382,22.008411 L64.2128983,19.9708767 L66.7177812,15.8380274 C67.051927,15.2845479 67.2105252,15.1829753 67.7898324,15.1829753 L68.3836676,15.1829753 C69.0937275,15.1829753 69.3255714,15.4451178 69.3255714,16.2017425 L69.3255714,25.1085041 C69.3255714,25.3116493 69.2384029,25.3846356 69.0204817,25.3846356 L67.4714253,25.3846356 C67.2105252,25.3846356 67.1524129,25.3262466 67.1524129,25.1085041 L67.1524129,18.5737973 L67.0803778,18.5737973" id="Fill-33"></path>
                            <path d="M78.695577,25.3846356 L77.1168591,25.3846356 C76.8850151,25.3846356 76.8129801,25.3116493 76.8129801,25.1078959 L76.8129801,21.8052658 C76.2475957,21.8916329 75.6398377,21.9360329 75.0889814,21.9360329 C72.0768263,21.9360329 71.0035645,20.5389534 71.0035645,18.2970575 L71.0035645,15.4591068 C71.0035645,15.2559616 71.090733,15.1829753 71.3086542,15.1829753 L72.9019001,15.1829753 C73.1482722,15.1829753 73.2057791,15.2419726 73.2057791,15.4591068 L73.2057791,18.0799233 C73.2057791,19.4472 73.9013109,19.985474 75.3789376,19.985474 C75.8420201,19.985474 76.3486869,19.9422904 76.8129801,19.8547068 L76.8129801,15.4591068 C76.8129801,15.2559616 76.8850151,15.1829753 77.1168591,15.1829753 L78.695577,15.1829753 C78.956477,15.1829753 79.0145894,15.2419726 79.0145894,15.4591068 L79.0145894,25.1078959 C79.0145894,25.3262466 78.956477,25.3846356 78.695577,25.3846356" id="Fill-35"></path>
                            <path d="M88.1521457,25.3846356 L83.8651517,25.3846356 C81.7216547,25.3846356 81.1865372,24.0313479 81.1865372,22.7072548 L81.1865372,17.8755616 C81.1865372,16.4930795 81.8959917,15.1829753 83.851229,15.1829753 L88.0080756,15.1829753 C88.2399195,15.1829753 88.2828984,15.2559616 88.2828984,15.5320932 L88.2828984,16.7698192 C88.2828984,17.0167562 88.2253914,17.0891342 88.0080756,17.0891342 L84.3288396,17.0891342 C83.5758008,17.0891342 83.3869358,17.4826521 83.3869358,17.9917315 L83.3869358,19.1120712 L87.5449931,19.1120712 C87.7756263,19.1120712 87.8204212,19.1850575 87.8204212,19.461189 L87.8204212,20.5967342 C87.8204212,20.8296822 87.7756263,20.9312548 87.5449931,20.9312548 L83.3869358,20.9312548 L83.3869358,22.5904767 C83.3869358,23.260126 83.7198709,23.4632712 84.3288396,23.4632712 L88.1521457,23.4632712 C88.399123,23.4632712 88.4421019,23.5216603 88.4421019,23.8129973 L88.4421019,25.0495068 C88.4421019,25.283063 88.3839896,25.3846356 88.1521457,25.3846356" id="Fill-37"></path>
                            <path d="M96.5378739,23.0277863 C96.8133021,22.9104 96.9004706,22.9833863 96.9870337,23.2023452 L97.4797777,24.2496986 C97.6099251,24.5252219 97.5663408,24.6274027 97.3926092,24.7295836 C96.3496142,25.3700384 95.1625491,25.5452055 94.0475191,25.5452055 C90.8888726,25.5452055 89.4838863,23.5812658 89.4838863,20.349189 C89.4838863,17.1767178 91.3676938,15.0522082 94.1480049,15.0522082 C95.1328876,15.0522082 96.0893195,15.1829753 96.9870337,15.6774575 C97.2043495,15.7942356 97.2334057,15.8672219 97.1038637,16.1871452 L96.6528879,17.1913151 C96.552402,17.4540658 96.494895,17.5112384 96.2194669,17.4096658 C95.5245404,17.1621205 94.9736841,17.0313534 94.2497015,17.0313534 C92.6564555,17.0313534 91.8023255,18.4576274 91.8023255,20.349189 C91.8023255,22.2413589 92.4246116,23.5362575 94.3072085,23.5362575 C95.2200561,23.5362575 95.9155879,23.260126 96.5378739,23.0277863" id="Fill-39"></path>
                            <path d="M104.967186,19.9568877 C105.966597,20.2914082 106.212969,20.8582685 106.42968,21.717074 L107.327394,25.0945151 C107.357055,25.1954795 107.371583,25.3852438 107.125211,25.3852438 L105.444797,25.3852438 C105.344311,25.3852438 105.212953,25.3700384 105.155446,25.1814904 L104.271655,22.0522027 C103.982304,21.0480329 103.475032,20.8296822 102.461093,20.8296822 L101.273422,20.8296822 L101.28795,25.1516877 C101.28795,25.3560493 101.215915,25.3852438 101.027656,25.3852438 L99.3478465,25.3852438 C99.1741149,25.3852438 99.0863411,25.3560493 99.0863411,25.1516877 L99.0863411,15.4305205 C99.0863411,15.2261589 99.1741149,15.1975726 99.3478465,15.1975726 L101.041578,15.1975726 C101.229838,15.1975726 101.302478,15.2261589 101.273422,15.4305205 L101.273422,19.141874 L102.432037,19.141874 C103.011949,19.141874 103.778911,19.0250959 104.097923,17.8317699 L104.749871,15.3721315 C104.793455,15.1835836 104.937525,15.1689863 105.039221,15.1689863 L106.661524,15.1689863 C106.908501,15.1689863 106.892762,15.3575342 106.864917,15.4591068 L106.199046,18.0641096 C106.009576,18.8797315 105.576155,19.5195781 104.967186,19.8839014 L104.967186,19.9568877" id="Fill-41"></path>
                            <path d="M115.191322,18.5737973 L113.90256,20.7573041 L111.455184,24.744789 C111.121644,25.283063 110.96244,25.3846356 110.368605,25.3846356 L109.789298,25.3846356 C109.035654,25.3846356 108.847999,24.991726 108.847999,24.3804658 L108.847999,15.4591068 C108.847999,15.2559616 108.935168,15.1829753 109.152484,15.1829753 L110.700935,15.1829753 C110.96244,15.1829753 111.006025,15.2413644 111.006025,15.4591068 L111.006025,22.008411 L111.092588,22.008411 L112.323237,19.9708767 L114.829936,15.8380274 C115.163476,15.2845479 115.321469,15.1829753 115.900776,15.1829753 L116.495822,15.1829753 C117.205277,15.1829753 117.436515,15.4451178 117.436515,16.2017425 L117.436515,25.1085041 C117.436515,25.3116493 117.349952,25.3846356 117.132636,25.3846356 L115.582975,25.3846356 C115.321469,25.3846356 115.264568,25.3262466 115.264568,25.1085041 L115.264568,18.5737973 L115.191322,18.5737973" id="Fill-43"></path>
                            <path d="M122.983215,21.8916329 L121.230765,25.0495068 C121.056428,25.3116493 120.955337,25.3852438 120.593346,25.3852438 L118.81184,25.3852438 C118.638109,25.3852438 118.595735,25.2240658 118.66777,25.0945151 L121.75196,20.0876548 L118.92746,15.4591068 C118.841502,15.342937 118.884481,15.1835836 119.101191,15.1835836 L120.796739,15.1835836 C121.173258,15.1835836 121.27435,15.2419726 121.420236,15.5028986 L123.012876,18.3408493 L124.590989,15.5028986 C124.735664,15.2419726 124.837361,15.1835836 125.214486,15.1835836 L126.879161,15.1835836 C127.097083,15.1835836 127.125533,15.342937 127.039576,15.4743123 L124.244736,20.0730575 L127.328927,25.0945151 C127.400962,25.2240658 127.343455,25.3852438 127.183646,25.3852438 L125.373689,25.3852438 C125.026226,25.3852438 124.910001,25.3116493 124.750193,25.0495068 L122.983215,21.8916329" id="Fill-45"></path>
                            <path d="M7.71622593,33.3486575 L6.42685892,35.5321644 L3.97948296,39.5196493 C3.64594248,40.0579233 3.48673895,40.1594959 2.89290372,40.1594959 L2.31359657,40.1594959 C1.55995248,40.1594959 1.37229812,39.7665863 1.37229812,39.1559342 L1.37229812,30.2345753 C1.37229812,30.0308219 1.45886126,29.9578356 1.67678244,29.9578356 L3.22583886,29.9578356 C3.48673895,29.9578356 3.52971785,30.0162247 3.52971785,30.2345753 L3.52971785,36.7832712 L3.61688632,36.7832712 L4.84814101,34.745737 L7.35423463,30.6128877 C7.68777511,30.0594082 7.8463733,29.9578356 8.42568045,29.9578356 L9.02012102,29.9578356 C9.72957554,29.9578356 9.96081413,30.2199781 9.96081413,30.9766027 L9.96081413,39.8827562 C9.96081413,40.0859014 9.87364565,40.1594959 9.65693514,40.1594959 L8.10727339,40.1594959 C7.8463733,40.1594959 7.78886632,40.1011068 7.78886632,39.8827562 L7.78886632,33.3486575 L7.71622593,33.3486575" id="Fill-47"></path>
                            <path d="M20.1274427,40.1594959 L18.6074424,40.1594959 C18.3610704,40.1594959 18.273902,40.0865096 18.273902,39.8541699 L18.273902,35.7791014 L14.3488993,35.7791014 L14.3488993,39.8541699 C14.3488993,40.1011068 14.2901817,40.1594959 14.0008307,40.1594959 L12.4650917,40.1594959 C12.2338531,40.1594959 12.1327619,40.0865096 12.1327619,39.8541699 L12.1327619,30.2777589 C12.1327619,30.044811 12.2338531,29.9724329 12.4650917,29.9724329 L14.0008307,29.9724329 C14.2901817,29.9724329 14.3488993,30.0308219 14.3488993,30.2777589 L14.3488993,33.9015288 L18.273902,33.9015288 L18.273902,30.2777589 C18.273902,30.044811 18.3610704,29.9724329 18.6074424,29.9724329 L20.1274427,29.9724329 C20.4173989,29.9724329 20.4755113,30.0308219 20.4755113,30.2777589 L20.4755113,39.8541699 C20.4755113,40.1011068 20.4173989,40.1594959 20.1274427,40.1594959" id="Fill-49"></path>
                            <path d="M28.9907815,33.3486575 L27.7020199,35.5321644 L25.2540386,39.5196493 C24.9211034,40.0579233 24.7618999,40.1594959 24.1680647,40.1594959 L23.5881522,40.1594959 C22.8357188,40.1594959 22.6474591,39.7665863 22.6474591,39.1559342 L22.6474591,30.2345753 C22.6474591,30.0308219 22.7346275,29.9578356 22.9513381,29.9578356 L24.5016051,29.9578356 C24.7618999,29.9578356 24.8054841,30.0162247 24.8054841,30.2345753 L24.8054841,36.7832712 L24.8920473,36.7832712 L26.123302,34.745737 L28.6287902,30.6128877 C28.9623307,30.0594082 29.1215342,29.9578356 29.7002361,29.9578356 L30.2946766,29.9578356 C31.0041311,29.9578356 31.2359751,30.2199781 31.2359751,30.9766027 L31.2359751,39.8827562 C31.2359751,40.0859014 31.1494119,40.1594959 30.9314907,40.1594959 L29.3824343,40.1594959 C29.1215342,40.1594959 29.0634219,40.1011068 29.0634219,39.8827562 L29.0634219,33.3486575 L28.9907815,33.3486575" id="Fill-51"></path>
                            <path d="M41.7361441,38.208937 L42.4601267,38.2825315 C42.9819269,38.3257151 43.0255111,38.5732603 43.0109831,38.9217699 L42.8517795,42.2846137 C42.8372514,42.4737699 42.7640057,42.5753425 42.575746,42.5753425 L41.3596247,42.5753425 C41.1574423,42.5753425 41.0848019,42.4877589 41.0696685,42.2700164 L40.9831054,40.1594959 L34.3352986,40.1594959 C33.668823,40.1594959 33.4073175,39.8395726 33.4073175,39.1845205 L33.4073175,30.2345753 C33.4073175,30.0308219 33.4950913,29.9578356 33.7118019,29.9578356 L35.3056532,29.9578356 C35.5659479,29.9578356 35.6240602,30.0162247 35.6240602,30.2345753 L35.6240602,38.253337 L39.5339295,38.253337 L39.5339295,30.2345753 C39.5339295,30.0308219 39.6217033,29.9578356 39.8244911,29.9578356 L41.4171317,29.9578356 C41.6925599,29.9578356 41.7361441,30.0162247 41.7361441,30.2345753 L41.7361441,38.208937" id="Fill-53"></path>
                            <path d="M50.5268426,33.3486575 L49.2380809,35.5321644 L46.7894943,39.5196493 C46.4565591,40.0579233 46.2979609,40.1594959 45.7035204,40.1594959 L45.1236079,40.1594959 C44.3717798,40.1594959 44.1835201,39.7665863 44.1835201,39.1559342 L44.1835201,30.2345753 C44.1835201,30.0308219 44.2700832,29.9578356 44.4873991,29.9578356 L46.0376662,29.9578356 C46.2979609,29.9578356 46.3403345,30.0162247 46.3403345,30.2345753 L46.3403345,36.7832712 L46.4281083,36.7832712 L47.6587576,34.745737 L50.1648513,30.6128877 C50.4977864,30.0594082 50.6569899,29.9578356 51.2362971,29.9578356 L51.8307376,29.9578356 C52.5395868,29.9578356 52.7720361,30.2199781 52.7720361,30.9766027 L52.7720361,39.8827562 C52.7720361,40.0859014 52.685473,40.1594959 52.4669464,40.1594959 L50.9184954,40.1594959 C50.6569899,40.1594959 50.5988776,40.1011068 50.5988776,39.8827562 L50.5988776,33.3486575 L50.5268426,33.3486575" id="Fill-55"></path>
                            <path d="M59.9549605,38.0343781 L56.6383211,38.0343781 L56.0729367,39.8827562 C56.0154297,40.0725205 55.9433947,40.1594959 55.6679665,40.1594959 L53.9736293,40.1594959 C53.7702362,40.1594959 53.7272573,40.0135233 53.7702362,39.8687671 L56.7829966,30.744263 C56.985179,30.0733973 57.2460791,29.9578356 57.8405196,29.9438466 L58.709783,29.9438466 C59.3611252,29.9438466 59.6074972,30.0302137 59.8399465,30.744263 L62.8527069,39.8687671 C62.8950804,39.9843288 62.8666296,40.1594959 62.6644472,40.1594959 L60.9398431,40.1594959 C60.7231326,40.1594959 60.5778518,40.1309096 60.5209502,39.9271562 L59.9549605,38.0343781 Z M57.1595159,36.2304 L59.4337656,36.2304 L58.8835146,34.3814137 L58.3471864,32.3013041 L58.2606233,32.3013041 L57.7103723,34.3814137 L57.1595159,36.2304 Z" id="Fill-57"></path>
                            <path d="M70.1942294,31.8646027 L67.5731219,31.8646027 L67.5731219,39.8541699 C67.5731219,40.1011068 67.5150095,40.1594959 67.224448,40.1594959 L65.6759969,40.1594959 C65.4435476,40.1594959 65.3424564,40.0865096 65.3424564,39.8541699 L65.3424564,31.8646027 L62.7788558,31.8646027 C62.5766734,31.8646027 62.5034276,31.776411 62.5034276,31.5726575 L62.5034276,30.2777589 C62.5034276,30.0302137 62.56154,29.9718247 62.7788558,29.9718247 L70.1942294,29.9718247 C70.4260734,29.9718247 70.4841857,30.0302137 70.4841857,30.2777589 L70.4841857,31.5726575 C70.4841857,31.776411 70.3976225,31.8646027 70.1942294,31.8646027" id="Fill-59"></path>
                            <path d="M78.0732909,33.3486575 L76.7833186,35.5321644 L74.3359426,39.5196493 C74.0024021,40.0579233 73.8438039,40.1594959 73.2493634,40.1594959 L72.6700562,40.1594959 C71.9170175,40.1594959 71.7293631,39.7665863 71.7293631,39.1559342 L71.7293631,30.2345753 C71.7293631,30.0308219 71.8153209,29.9578356 72.0338474,29.9578356 L73.5829038,29.9578356 C73.8438039,29.9578356 73.8867828,30.0162247 73.8867828,30.2345753 L73.8867828,36.7832712 L73.9739513,36.7832712 L75.205206,34.745737 L77.7106943,30.6128877 C78.0448401,30.0594082 78.2034383,29.9578356 78.7827454,29.9578356 L79.377186,29.9578356 C80.0866405,29.9578356 80.3172738,30.2199781 80.3172738,30.9766027 L80.3172738,39.8827562 C80.3172738,40.0859014 80.231316,40.1594959 80.0133948,40.1594959 L78.4643384,40.1594959 C78.2034383,40.1594959 78.145326,40.1011068 78.145326,39.8827562 L78.145326,33.3486575 L78.0732909,33.3486575" id="Fill-61"></path>
                            <path d="M88.9070005,34.5851671 C90.0075024,35.0218685 90.4554515,36.0704384 90.4554515,37.060011 C90.4554515,38.908389 88.9348459,40.1594959 86.9941367,40.1594959 L83.3596956,40.1594959 C82.6641639,40.1594959 82.4904323,39.8979616 82.4904323,39.2721041 L82.4904323,30.8598247 C82.4904323,30.2491726 82.6641639,29.9578356 83.3596956,29.9578356 L86.9081789,29.9578356 C88.6606284,29.9578356 90.0214252,30.699863 90.0214252,32.5330356 C90.0214252,33.3340603 89.5583427,34.1204877 88.9070005,34.4835945 L88.9070005,34.5851671 Z M84.6920416,33.8285425 L86.6618069,33.8285425 C87.1400229,33.8285425 87.7483862,33.6399945 87.7483862,32.8249808 C87.7483862,32.2429151 87.3567334,31.8937973 86.733842,31.8937973 L84.6920416,31.8937973 L84.6920416,33.8285425 Z M86.7774262,35.6051507 L84.6920416,35.6051507 L84.6920416,38.208937 L86.7774262,38.208937 C87.8779282,38.208937 88.1830179,37.4675178 88.1830179,36.9146466 C88.1830179,36.1434247 87.6902738,35.6051507 86.7774262,35.6051507 Z" id="Fill-63"></path>
                        </g>
                        <g id="Group-81" transform="translate(0.232877, 0.068493)">
                            <polygon id="Fill-66" points="27.66414 5.07124049 45.4837058 15.7566941 54.3878362 10.3901172"></polygon>
                            <polygon id="Fill-69" points="0.767123288 0.258593607 18.9832877 10.9440472 28.0840712 5.57747032"></polygon>
                            <polygon id="Fill-72" points="18.5759571 21.2687367 36.3961179 31.9541903 45.2990584 26.5876134"></polygon>
                            <polygon id="Fill-75" points="54.3866625 10.3499524 45.4452423 26.3168026 45.4344738 15.675925"></polygon>
                            <polygon id="Fill-77" points="45.4482336 26.314958 36.5074116 42.2818082 36.4966432 31.6415455"></polygon>
                            <polygon id="Fill-79" points="27.5199263 5.07009477 18.5797027 21.036945 18.568336 10.3972971"></polygon>
                        </g>
                    </g>
                </g>
            </g>
        </g>
    </g>
</svg>