<?xml version="1.0" encoding="UTF-8" standalone="no"?>
<svg width="108px" height="74px" viewBox="0 0 108 74" version="1.1" xmlns="http://www.w3.org/2000/svg" xmlns:xlink="http://www.w3.org/1999/xlink">
    <!-- Generator: Sketch 50.2 (55047) - http://www.bohemiancoding.com/sketch -->
    <title>Bonduelle</title>
    <desc>Created with Sketch.</desc>
    <defs>
        <polygon id="path-1" points="8.66030302e-05 0.13903689 107.747333 0.13903689 107.747333 65.4790855 8.66030302e-05 65.4790855"></polygon>
    </defs>
    <g id="1440" stroke="none" stroke-width="1" fill="none" fill-rule="evenodd">
        <g id="Main_1440" transform="translate(-249.000000, -696.000000)">
            <g id="1">
                <g id="Partners" transform="translate(136.000000, 696.000000)">
                    <g id="Bonduelle" transform="translate(113.000000, 0.000000)">
                        <g id="bond">
                            <path d="M44.4363922,58.6415094 C44.2480824,58.6415094 44.1440977,58.6529505 43.9965695,58.6633967 L43.9965695,61.3913484 C44.1543337,61.412075 44.3956107,61.4339623 44.6776691,61.4339623 C45.6421271,61.4339623 46.3121784,61.0484476 46.3121784,60.1193986 C46.3121784,58.6415094 44.8671162,58.6415094 44.4363922,58.6415094" id="Fill-2" fill="#7EA8AD" opacity="0.7"></path>
                            <polygon id="Fill-4" fill="#7EA8AD" opacity="0.7" points="64.8370497 50.2641509 65.7632933 50.2641509 65.28624 48.8679245"></polygon>
                            <path d="M47.9368153,48.4025157 C47.648805,48.4025157 47.4531665,48.5435306 47.3494259,48.8262864 C47.2755285,49.0270103 47.238422,49.3431595 47.238422,49.77546 L47.238422,50.2986852 C47.238422,50.7326191 47.2818446,51.0551204 47.3693214,51.2651001 C47.4779568,51.5282553 47.6669636,51.6603774 47.9368153,51.6603774 C48.3975686,51.6603774 48.6277873,51.2086578 48.6277873,50.3043113 L48.6277873,49.7810861 C48.6277873,49.3529598 48.5906807,49.0371735 48.5167833,48.8348162 C48.4116217,48.5464344 48.2181937,48.4025157 47.9368153,48.4025157" id="Fill-6" fill="#7EA8AD" opacity="0.7"></path>
                            <path d="M75.7238851,51.6603774 C76.1850596,51.6603774 76.4150943,51.2088393 76.4150943,50.3044928 L76.4150943,49.7812676 C76.4150943,49.3529598 76.377992,49.037355 76.3037872,48.8348162 C76.1987954,48.5466159 76.0053894,48.4025157 75.7238851,48.4025157 C75.4359075,48.4025157 75.2404491,48.5437121 75.1370361,48.8262864 C75.0628314,49.0271918 75.025729,49.343341 75.025729,49.77546 L75.025729,50.2988667 C75.025729,50.7328006 75.0693045,51.0553018 75.1564556,51.2651001 C75.2652366,51.5284368 75.4542219,51.6603774 75.7238851,51.6603774" id="Fill-8" fill="#7EA8AD" opacity="0.7"></path>
                            <path d="M68.5641716,55.3836478 C68.3535862,55.3836478 68.2235087,55.4050047 68.0789022,55.4167937 L68.0789022,61.4231984 C68.232568,61.4339623 68.3327328,61.4339623 68.4200779,61.4339623 C69.3687377,61.4339623 70.2515895,61.1030163 70.7695065,60.4091744 C71.0554718,60.0225298 71.3207547,59.3725976 71.3207547,58.3917195 C71.3207547,57.2234136 70.9231723,56.6300344 70.746431,56.3752898 C70.2408209,55.7028048 69.4126666,55.3836478 68.5641716,55.3836478" id="Fill-10" fill="#7EA8AD" opacity="0.7"></path>
                            <path d="M53.0217573,55.3836478 C52.7159821,55.3836478 52.3989224,55.4606191 52.1406516,55.6016211 C50.9901725,56.2294919 50.9433962,57.7694222 50.9433962,58.35511 C50.9433962,58.7880316 50.978706,59.1449902 51.0369489,59.4505226 C51.3773057,61.2159889 52.5871197,61.4339623 53.0434163,61.4339623 C53.5726986,61.4339623 54.2184666,61.1959898 54.6536502,60.4901394 C55.0294988,59.860252 55.1225054,59.0271804 55.1104928,58.2781387 C55.1008463,57.7052234 55.0294988,56.8909746 54.5828486,56.2294919 C54.0062441,55.4056636 53.2567309,55.3836478 53.0217573,55.3836478" id="Fill-12" fill="#7EA8AD" opacity="0.7"></path>
                            <path d="M61.9451404,50.7062109 C62.0202676,50.5237106 62.058319,50.2202585 62.058319,49.7961845 C62.058319,48.866852 61.7267837,48.4025157 61.0639081,48.4025157 L60.6689537,48.4025157 L60.6689537,51.1949686 L61.1556218,51.1949686 C61.5470638,51.1949686 61.8104968,51.0319393 61.9451404,50.7062109" id="Fill-14" fill="#7EA8AD" opacity="0.7"></path>
                            <g id="Group-18">
                                <mask id="mask-2" fill="white">
                                    <use xlink:href="#path-1"></use>
                                </mask>
                                <g id="Clip-17"></g>
                                <path d="M103.985731,55.1017045 C103.995603,55.325237 103.918353,55.3479193 103.72852,55.3479193 L101.079679,55.3479193 L101.079679,57.6476552 L103.314904,57.6476552 C103.482567,57.6476552 103.550464,57.6703374 103.550464,57.8602795 L103.550464,58.4082892 C103.550464,58.6091395 103.482567,58.6307828 103.302952,58.6307828 L101.079679,58.6307828 L101.079679,61.22331 L103.72852,61.22331 C103.895144,61.22331 103.985731,61.2342183 103.985731,61.4458037 L103.985731,62.0947579 C103.961828,62.2053987 103.918353,62.2391624 103.72852,62.2391624 L99.8398704,62.2391624 C99.6498633,62.2391624 99.5717474,62.216307 99.5717474,61.9829051 L99.5717474,54.6546394 C99.5717474,54.4082515 99.6391245,54.3528445 99.8398704,54.3421094 L103.72852,54.3421094 C103.883712,54.3421094 103.995603,54.3421094 103.985731,54.5536948 L103.985731,55.1017045 Z M98.1072901,62.0154567 C98.0963782,62.2053987 98.0513446,62.2391624 97.8613375,62.2391624 L94.0412779,62.2391624 C93.8952652,62.2391624 93.8171492,62.216307 93.8171492,62.0154567 L93.8171492,54.5765502 C93.8171492,54.3866082 93.8843532,54.3528445 94.051497,54.3528445 L95.0915994,54.3528445 C95.2696553,54.3528445 95.3254276,54.3866082 95.3254276,54.5765502 L95.3254276,61.2113629 L97.88524,61.2113629 C98.0747274,61.2113629 98.1072901,61.2558616 98.1072901,61.4348954 L98.1072901,62.0154567 Z M92.352692,62.0154567 C92.3422996,62.2053987 92.2972661,62.2391624 92.107259,62.2391624 L88.2859869,62.2391624 C88.1411866,62.2391624 88.0623779,62.216307 88.0623779,62.0154567 L88.0623779,54.5765502 C88.0623779,54.3866082 88.129755,54.3528445 88.2958596,54.3528445 L89.3368281,54.3528445 C89.5138447,54.3528445 89.5713491,54.3866082 89.5713491,54.5765502 L89.5713491,61.2113629 L92.129083,61.2113629 C92.319956,61.2113629 92.352692,61.2558616 92.352692,61.4348954 L92.352692,62.0154567 Z M86.2516817,55.1017045 C86.2625937,55.325237 86.185517,55.3479193 85.99551,55.3479193 L83.3466697,55.3479193 L83.3466697,57.6476552 L85.5813743,57.6476552 C85.7490377,57.6476552 85.8157221,57.6703374 85.8157221,57.8602795 L85.8157221,58.4082892 C85.8157221,58.6091395 85.7490377,58.6307828 85.5704623,58.6307828 L83.3466697,58.6307828 L83.3466697,61.22331 L85.99551,61.22331 C86.1631734,61.22331 86.2516817,61.2342183 86.2516817,61.4458037 L86.2516817,62.0947579 C86.2288185,62.2053987 86.185517,62.2391624 85.99551,62.2391624 L82.1063411,62.2391624 C81.916334,62.2391624 81.8392573,62.216307 81.8392573,61.9829051 L81.8392573,54.6546394 C81.8392573,54.4082515 81.9038632,54.3528445 82.1063411,54.3421094 L85.99551,54.3421094 C86.1517418,54.3421094 86.2625937,54.3421094 86.2516817,54.5536948 L86.2516817,55.1017045 Z M81.6937642,51.8671489 L81.2895013,51.8671489 L79.2056592,49.2491691 L79.2056592,51.8671489 L78.5369106,51.8671489 L78.5369106,47.7000246 L79.0362637,47.7000246 L81.0336759,50.1661546 L81.0336759,47.7000246 L81.6937642,47.7000246 L81.6937642,51.8671489 Z M79.7723894,59.9266135 C79.7599186,60.272734 79.7599186,60.720838 79.5373488,61.1668642 C79.4363697,61.3784496 78.9326864,62.4181962 77.0894275,62.4181962 C76.0498448,62.4181962 75.0327788,62.0947579 74.5978584,61.1668642 C74.4068121,60.7642978 74.3622981,60.2846811 74.3622981,59.8376161 L74.3622981,54.565642 C74.3622981,54.374661 74.4187633,54.3528445 74.5762076,54.3528445 L75.6705235,54.3528445 C75.8496186,54.3528445 75.9050445,54.3647917 75.9050445,54.565642 L75.9050445,59.6693174 C75.9152636,60.1501461 75.9488656,61.2558616 77.2576106,61.2558616 C78.5537116,61.2558616 78.5635843,60.1163824 78.5635843,59.7811702 L78.5635843,54.5883242 C78.5635843,54.3866082 78.6096571,54.3528445 78.7871933,54.3528445 L79.5373488,54.3528445 C79.7044926,54.3528445 79.7723894,54.374661 79.7723894,54.565642 L79.7723894,59.9266135 Z M74.3742493,48.292533 C74.669046,47.8594928 75.1228459,47.6435787 75.7339169,47.6435787 C76.331651,47.6435787 76.7728069,47.863302 77.0589433,48.3034412 C77.2977944,48.6706856 77.4171334,49.1693484 77.4171334,49.7987371 C77.4171334,50.4250091 77.2934643,50.9219405 77.0454332,51.289358 C76.7539274,51.7239565 76.3098271,51.9410826 75.7122661,51.9410826 C75.1096823,51.9410826 74.6629838,51.7267268 74.371478,51.2974959 C74.123447,50.9318098 73.9997778,50.4341859 73.9997778,49.8042778 C73.9997778,49.1655392 74.1246594,48.6615088 74.3742493,48.292533 Z M71.7146703,61.1116303 C70.8103614,62.027577 69.4799657,62.3291987 68.1946035,62.3291987 C67.7359539,62.3291987 66.8995418,62.2956082 66.5858656,62.1827165 C66.4180289,62.1392566 66.3729954,62.0601286 66.362603,61.836596 L66.362603,54.8108179 C66.362603,54.5536948 66.4518041,54.510235 66.5526101,54.4766445 C66.8435962,54.3647917 67.7262543,54.2638471 68.4525073,54.2638471 C69.1119028,54.2638471 70.4852537,54.3192541 71.5478728,55.2796994 C71.9490181,55.637767 72.775211,56.5537137 72.775211,58.2966095 C72.775211,59.9167442 72.0283464,60.7871532 71.7146703,61.1116303 Z M65.9285486,50.8644557 L64.5541585,50.8644557 L64.2392699,51.8671489 L63.476124,51.8671489 L64.8770146,47.7000246 L65.7575942,47.7000246 L67.2017864,51.8671489 L66.2404927,51.8671489 L65.9285486,50.8644557 Z M64.1957952,62.0154567 C64.1957952,62.2053987 64.1291109,62.2391624 63.9602349,62.2391624 L63.3349611,62.2391624 C63.20038,62.216307 63.1678172,62.1827165 63.0451873,62.0047216 L59.2020913,56.5862653 L59.2020913,61.9927744 C59.2020913,62.1718082 59.16745,62.2391624 58.977443,62.2391624 L58.2740532,62.2391624 C58.0949581,62.2391624 58.027581,62.216307 58.027581,62.0154567 L58.027581,54.5883242 C58.027581,54.374661 58.1176481,54.3528445 58.2740532,54.3528445 L59.1229361,54.3528445 C59.3129431,54.3528445 59.3574571,54.374661 59.480087,54.5536948 L63.0451873,59.5467294 L63.0451873,54.5765502 C63.0451873,54.4082515 63.0886621,54.3528445 63.2687964,54.3528445 L63.9723594,54.3528445 C64.150242,54.3421094 64.1957952,54.3983821 64.1957952,54.5765502 L64.1957952,62.0154567 Z M55.7603136,49.2491691 L55.7603136,51.8671489 L55.091565,51.8671489 L55.091565,47.7000246 L55.5910913,47.7000246 L57.5885036,50.1661546 L57.5885036,47.7000246 L58.2485919,47.7000246 L58.2485919,51.8671489 L57.8441557,51.8671489 L55.7603136,49.2491691 Z M52.8081895,62.4181962 C50.8985927,62.4181962 49.2441284,61.0096468 49.2441284,58.3073446 C49.2441284,55.9947957 50.5521806,54.1629025 52.832092,54.1629025 C55.0558846,54.1629025 56.2728304,55.9840606 56.3628975,58.0848509 C56.4626642,60.5863029 54.9538662,62.4181962 52.8081895,62.4181962 Z M47.9606715,51.9410826 C47.3579144,51.9410826 46.911216,51.7267268 46.6197102,51.2974959 C46.3720255,50.9318098 46.24801,50.4341859 46.24801,49.8042778 C46.24801,49.1655392 46.3727184,48.6615088 46.6224815,48.292533 C46.9174514,47.8594928 47.3707317,47.6435787 47.9824955,47.6435787 C48.5795368,47.6435787 49.021039,47.863302 49.3071754,48.3034412 C49.5460266,48.6706856 49.6653656,49.1693484 49.6653656,49.7987371 C49.6653656,50.4250091 49.5416964,50.9219405 49.2934922,51.289358 C49.0021596,51.7239565 48.5577128,51.9410826 47.9606715,51.9410826 Z M46.8206292,61.9927744 C46.306034,62.2053987 45.646985,62.3172516 44.585405,62.3172516 C43.7472609,62.3172516 43.0102691,62.2272152 42.8202621,62.1718082 C42.619343,62.1165744 42.5737898,62.0492203 42.5737898,61.7583337 L42.5737898,54.7999096 C42.5737898,54.565642 42.619343,54.4873796 42.7973989,54.4201986 C43.0655218,54.3312012 43.937268,54.2638471 44.585405,54.2638471 C45.4126372,54.2638471 46.2279181,54.3421094 46.8097173,54.700177 C47.4013892,55.0572058 47.6575609,55.6041765 47.6575609,56.1966849 C47.6575609,57.213403 46.886794,57.7158751 46.4634783,57.9286725 C46.3734112,57.9612241 46.2940828,57.9948146 46.2060941,58.028405 C46.2940828,58.0512604 46.3734112,58.0621687 46.4515271,58.0848509 C47.602135,58.3854338 48.0826086,59.2449345 48.0826086,60.1283296 C48.0826086,61.0551845 47.5468822,61.6693362 46.8206292,61.9927744 Z M44.9685368,49.4449982 L44.9685368,50.0657295 L43.7299403,50.0657295 L43.7299403,51.8671489 L42.7920295,51.8671489 L42.7920295,47.7000246 L45.3241289,47.7000246 L45.3241289,48.3207559 L43.7299403,48.3207559 L43.7299403,49.4449982 L44.9685368,49.4449982 Z M41.8432067,44.6490046 C41.8432067,44.6490046 38.2943877,44.3158702 37.2641581,45.3054042 C36.0148227,46.504619 36.7007187,47.6776887 36.7007187,47.6776887 C36.7007187,47.6776887 38.7667206,51.045221 39.2584526,53.0180558 C40.612058,58.5819554 38.7601388,62.3172516 38.7601388,62.3172516 L36.3511889,62.3129229 C36.3511889,62.3129229 37.8667419,59.0323103 37.9252856,56.2574595 C37.9817508,53.4749902 37.3966607,52.3202741 36.4944303,50.1389706 C35.5923732,47.9576671 34.958439,46.5221068 36.0950172,44.3049619 C37.1425674,42.2604444 40.8379187,42.8648999 41.5903258,42.8648999 C42.3425598,42.8648999 43.1230263,42.6813643 43.2740619,41.7025654 C43.423712,40.7258442 42.3013367,40.3026734 42.3870737,39.302058 C42.4468298,38.6075661 43.1122875,37.8543775 43.6963383,37.4518111 C44.2152637,37.0937435 43.997024,36.5488505 43.997024,36.5488505 C43.997024,36.5488505 43.7169498,36.2200447 43.6963383,35.5700516 C43.676766,34.9178075 44.2227115,34.5933304 44.2227115,34.5933304 C44.2227115,34.5933304 44.5408911,34.4522158 44.5322308,34.0681761 C44.5256489,33.7371194 43.9601312,33.4962722 43.9601312,33.4962722 C43.9601312,33.4962722 42.7627577,32.9383932 42.8159319,31.7229026 C42.8973388,29.8194997 46.1030365,29.7793296 46.1030365,29.7793296 C46.1030365,29.7793296 47.1549169,29.8194997 47.2319936,28.9513416 C47.2874196,28.3349389 47.0061329,27.8987821 47.0061329,27.8987821 C47.0061329,27.8987821 46.0074268,26.4010622 43.9469675,23.0683324 C43.6778053,22.8361425 43.3412659,22.5637826 42.9179503,22.258871 C41.6630724,21.3569493 39.8935993,21.007539 38.5029278,21.2561778 C37.0351796,21.5209193 36.3274597,22.3478685 34.3917088,22.3087373 C32.4072869,22.2708182 31.3098533,20.2207599 30.9797226,19.7530904 C30.705191,19.3612591 30.7886763,19.2147769 30.7886763,19.2147769 C30.8375204,19.0975565 30.9298392,19.05098 30.9298392,19.05098 C31.1099735,18.9489966 31.5324231,19.4525075 31.5324231,19.4525075 C32.6949822,20.8002823 34.8422177,19.9539407 34.8422177,19.9539407 C34.8422177,19.9539407 36.999326,19.0011138 39.2052784,19.2017909 C40.8933446,19.3548527 42.2252992,20.2978102 42.760506,20.7341402 C41.6674025,17.8931473 41.8007712,15.300447 41.7399759,14.8144239 C41.7302763,14.7351226 41.7335672,14.701359 41.7432668,14.6927017 C41.6511212,14.4909856 41.4990462,14.1403633 41.2494563,13.5391976 C40.1854515,10.965024 42.0896789,9.34159945 42.0896789,9.34159945 C42.0896789,9.34159945 43.3196151,7.77444766 45.7263133,7.71921383 C48.1347436,7.66276797 49.1985752,6.20868105 49.1985752,6.20868105 C50.1331951,9.2060255 48.0445033,10.5744047 47.3276034,11.0420743 C46.6100107,11.509917 46.4525664,11.5424686 45.2986676,12.0406119 C44.1435564,12.5408331 43.6757268,13.0715281 43.6757268,13.0715281 C42.6758082,13.6628244 42.7182437,14.8144239 42.7182437,14.8144239 C42.7182437,14.8144239 42.8691062,19.0260469 44.5994347,22.1838985 C46.3288972,25.3419231 47.683715,27.0718329 47.683715,27.0718329 C47.683715,27.0718329 48.8544148,28.6095498 48.7371543,29.5525073 C48.5341568,31.1977483 46.0758432,30.9101515 46.0758432,30.9101515 C46.0758432,30.9101515 44.9044506,30.7636692 44.8763912,31.6664567 C44.8469462,32.5531415 45.4180066,32.8102646 45.4180066,32.8102646 C45.4180066,32.8102646 46.7629516,33.4105646 46.7629516,34.0399532 C46.7629516,34.7171304 45.7057018,34.898242 45.7057018,34.898242 C45.7057018,34.898242 45.1478051,35.0436853 45.0760978,35.5840765 C45.0185934,36.0138269 45.4180066,36.2136383 45.4180066,36.2136383 C45.4180066,36.2136383 46.2246272,36.6042575 46.1920644,37.2999614 C46.1529199,38.1279494 45.1043304,38.1864731 45.1043304,38.1864731 C45.1043304,38.1864731 44.0924606,38.1279494 43.997024,38.879926 C43.8993358,39.6590867 44.3737472,40.0824306 44.3737472,40.0824306 C44.3737472,40.0824306 45.5894806,41.3315117 45.3518418,42.564317 C44.6179678,45.1632507 41.8432067,44.6490046 41.8432067,44.6490046 Z M31.2597968,62.4181962 C29.4491006,62.4181962 28.7010236,61.2342183 28.7010236,60.5863029 C28.7010236,60.0937002 29.0909105,59.9037582 29.3600727,59.9037582 C29.8062515,59.9037582 29.9853466,60.2509175 30.1526636,60.5527124 C30.2979835,60.8543342 30.6106205,61.4577508 31.3597367,61.4577508 C31.9633598,61.4577508 32.4095386,61.0323291 32.4095386,60.4072691 C32.4095386,59.6151224 31.8287787,59.3133275 30.9352086,58.8423682 L30.3208467,58.5308771 C29.8963187,58.2966095 28.802176,57.70514 28.802176,56.3518245 C28.802176,55.0007599 29.8062515,54.1748496 31.1925928,54.1748496 C32.6667496,54.1748496 33.5504469,55.0234421 33.5504469,55.6606224 C33.5504469,56.0392945 33.271412,56.3083646 32.9121826,56.3083646 C32.5212565,56.3083646 32.3759366,56.0621499 32.232522,55.8168008 C32.0414757,55.5151791 31.7504895,55.0572058 31.1480789,55.0572058 C30.5780577,55.0572058 30.1753536,55.4923237 30.1753536,56.0512416 C30.1753536,56.7762073 30.7452016,57.067094 31.5040173,57.4358967 L32.0305637,57.6921539 C32.7341268,58.0621687 33.8402207,58.6307828 33.8402207,60.1163824 C33.8402207,61.5696036 32.7221755,62.4181962 31.2597968,62.4181962 Z M26.9803946,61.9927744 C26.9803946,62.2053987 26.8795887,62.2391624 26.7340956,62.2391624 L25.6952057,62.2391624 C25.5388006,62.2272152 25.4487334,62.1934516 25.4487334,61.9927744 L25.4487334,54.5883242 C25.4596454,54.4321458 25.4835479,54.3528445 25.6832544,54.3528445 L26.7448344,54.3528445 C26.9131907,54.3528445 26.9803946,54.3866082 26.9803946,54.5883242 L26.9803946,61.9927744 Z M23.3936435,59.9266135 C23.3829048,60.272734 23.3829048,60.720838 23.1580833,61.1668642 C23.0583166,61.3784496 22.5556726,62.4181962 20.7124137,62.4181962 C19.6723113,62.4181962 18.6562846,62.0947579 18.2208445,61.1668642 C18.0310107,60.7642978 17.9852843,60.2846811 17.9852843,59.8376161 L17.9852843,54.565642 C17.9852843,54.374661 18.0417495,54.3528445 18.1969421,54.3528445 L19.2924704,54.3528445 C19.4703531,54.3528445 19.5278575,54.3647917 19.5278575,54.565642 L19.5278575,59.6693174 C19.5387695,60.1501461 19.5725446,61.2558616 20.8783451,61.2558616 C22.1756585,61.2558616 22.1865705,60.1163824 22.1865705,59.7811702 L22.1865705,54.5883242 C22.1865705,54.3866082 22.2321237,54.3528445 22.4101795,54.3528445 L23.1580833,54.3528445 C23.3264396,54.3528445 23.3936435,54.374661 23.3936435,54.565642 L23.3936435,59.9266135 Z M12.845048,62.4181962 C10.9356244,62.4181962 9.28219938,61.0096468 9.28219938,58.3073446 C9.28219938,55.9947957 10.5892123,54.1629025 12.8689505,54.1629025 C15.0911842,54.1629025 16.3103817,55.9840606 16.3992364,58.0848509 C16.5002155,60.5863029 14.9912443,62.4181962 12.845048,62.4181962 Z M8.52026592,62.0154567 C8.5083147,62.2053987 8.46483998,62.2391624 8.2737937,62.2391624 L4.45252159,62.2391624 C4.3070285,62.2391624 4.2299518,62.216307 4.2299518,62.0154567 L4.2299518,54.5765502 C4.2299518,54.3866082 4.29611652,54.3528445 4.46447281,54.3528445 L5.50336276,54.3528445 C5.68141859,54.3528445 5.73788377,54.3866082 5.73788377,54.5765502 L5.73788377,61.2113629 L8.29648369,61.2113629 C8.48649074,61.2113629 8.52026592,61.2558616 8.52026592,61.4348954 L8.52026592,62.0154567 Z M50.8242873,47.7000246 L51.7708584,47.7000246 L51.7708584,50.6159901 C51.7708584,50.853028 51.8250719,51.025136 51.9341918,51.132487 C52.042792,51.2405306 52.2153052,51.2942061 52.4531171,51.2942061 C52.7049587,51.2942061 52.8824949,51.2405306 52.986765,51.132487 C53.0908618,51.025136 53.1429969,50.8461022 53.1429969,50.5943467 L53.1429969,47.7000246 L53.8420565,47.7000246 L53.8420565,50.6615277 C53.8420565,51.4971342 53.348246,51.9149374 52.3602787,51.9149374 C51.3361112,51.9149374 50.8242873,51.4429392 50.8242873,50.4987697 L50.8242873,47.7000246 Z M59.5647848,47.7000246 L60.9364035,47.7000246 C62.1001751,47.7000246 62.6824938,48.3945165 62.6824938,49.7836733 C62.6824938,50.5183353 62.5496448,51.0478182 62.2836003,51.3735074 C62.0986162,51.5996371 61.9129393,51.7435221 61.7267428,51.8048161 C61.6018612,51.8465444 61.390723,51.8671489 61.0938479,51.8671489 L59.5647848,51.8671489 L59.5647848,47.7000246 Z M67.7957099,47.7000246 L70.5692586,47.7000246 L70.5692586,48.3207559 L69.6628713,48.3207559 L69.6628713,51.8671489 L68.7249605,51.8671489 L68.7249605,48.3207559 L67.7957099,48.3207559 L67.7957099,47.7000246 Z M71.7221181,51.8673221 L72.660029,51.8673221 L72.660029,47.7000246 L71.7221181,47.7000246 L71.7221181,51.8673221 Z M8.66030302e-05,65.4790855 L107.74742,65.4790855 L107.74742,0.139019575 L8.66030302e-05,0.139019575 L8.66030302e-05,65.4790855 Z" id="Fill-16" fill="#7EA8AD" opacity="0.7" mask="url(#mask-2)"></path>
                            </g>
                            <path d="M44.8593858,58.1554499 C46.2140399,58.0126078 46.3121784,57.045321 46.3121784,56.7585254 C46.3121784,55.3836478 44.94435,55.3836478 44.6619634,55.3836478 C44.4154717,55.3836478 44.268264,55.3953197 43.9965695,55.4312618 L43.9965695,58.1695303 C44.3173332,58.1799053 44.5638249,58.1799053 44.8593858,58.1554499" id="Fill-19" fill="#7EA8AD" opacity="0.7"></path>
                            <path d="M12.7284963,55.3836478 C12.4240793,55.3836478 12.1058335,55.4606191 11.8492716,55.6016211 C10.6985644,56.2294919 10.651801,57.7694222 10.651801,58.35511 C10.651801,58.7880316 10.687101,59.1449902 10.7453278,59.4505226 C11.0863185,61.2159889 12.2939788,61.4339623 12.7525149,61.4339623 C13.281651,61.4339623 13.9270587,61.1959898 14.3604845,60.4901394 C14.7356834,59.860252 14.830302,59.0271804 14.8190205,58.2781387 C14.8064654,57.7052234 14.7356834,56.8909746 14.2897025,56.2294919 C13.7148948,55.4056636 12.9644969,55.3836478 12.7284963,55.3836478" id="Fill-21" fill="#7EA8AD" opacity="0.7"></path>
                            <path d="M7.94284421,69.3286112 C7.94284421,68.9963292 7.87293868,68.7537616 7.73329688,68.601265 C7.59348582,68.4487684 7.38884711,68.3504929 7.11938076,68.30626 L7.11938076,70.3666579 C7.38884711,70.3286676 7.59348582,70.2300353 7.73329688,70.0700477 C7.87293868,69.9102384 7.94284421,69.6630335 7.94284421,69.3286112 Z M5.49056499,69.3286112 C5.49056499,69.6630335 5.56080905,69.9102384 5.70163568,70.0700477 C5.84229306,70.2300353 6.05150186,70.3286676 6.32892356,70.3666579 L6.32892356,68.299839 C6.0553949,68.3378294 5.84737094,68.4355699 5.70451315,68.5934172 C5.56182462,68.7512645 5.49056499,68.9963292 5.49056499,69.3286112 Z M6.32892356,71.672956 L6.32892356,71.0797354 C5.75800019,71.0314003 5.33230429,70.8662402 5.05183586,70.5842554 C4.77136742,70.3024489 4.63121784,69.8838413 4.63121784,69.3286112 C4.63121784,68.7753429 4.77339858,68.3597675 5.05792932,68.0822416 C5.34229079,67.8045373 5.76595554,67.6425878 6.32892356,67.5963929 L6.32892356,67.0188679 L7.11938076,67.0188679 L7.11938076,67.5963929 C7.68031763,67.6425878 8.10059712,67.8045373 8.38004998,68.0822416 C8.65950283,68.3597675 8.79931389,68.7753429 8.79931389,69.3286112 C8.79931389,69.8797391 8.6610262,70.2967414 8.38445081,70.5796181 C8.10804468,70.8626731 7.68641109,71.02926 7.11938076,71.0797354 L7.11938076,71.672956 L6.32892356,71.672956 Z" id="Fill-23" fill="#7EA8AD" opacity="0.7"></path>
                            <path d="M12.0629092,69.3459119 C12.0629092,68.816831 11.9908724,68.4309668 11.8469746,68.1888666 C11.702901,67.9469489 11.4588545,67.8258076 11.114835,67.8258076 C10.7708154,67.8258076 10.5269446,67.9469489 10.3828711,68.1888666 C10.2389732,68.4309668 10.1669364,68.816831 10.1669364,69.3459119 C10.1669364,69.8751754 10.2400274,70.2610396 10.3860337,70.5031397 C10.5322156,70.7450574 10.7750322,70.8661987 11.114835,70.8661987 C11.4588545,70.8661987 11.702901,70.7450574 11.8469746,70.5031397 C11.9908724,70.2610396 12.0629092,69.8751754 12.0629092,69.3459119 M12.9674099,69.3459119 C12.9674099,70.1227488 12.8094561,70.7047378 12.4933728,71.0920616 C12.1772895,71.4792029 11.7180112,71.672956 11.114835,71.672956 C10.478803,71.672956 10.0109153,71.4691686 9.71152347,71.0614114 C9.41213161,70.6536541 9.26243568,70.0818818 9.26243568,69.3459119 C9.26243568,68.6057459 9.41213161,68.0330614 9.71152347,67.627311 C10.0109153,67.2217431 10.478803,67.0188679 11.114835,67.0188679 C11.7552595,67.0188679 12.2240256,67.2217431 12.521309,67.627311 C12.8187682,68.0330614 12.9674099,68.6057459 12.9674099,69.3459119" id="Fill-25" fill="#7EA8AD" opacity="0.7"></path>
                            <polygon id="Fill-27" fill="#7EA8AD" opacity="0.7" points="16.3090284 71.2075472 16.3090284 69.4279188 14.7171593 69.4279188 14.7171593 71.2075472 13.8936535 71.2075472 13.8936535 67.0188679 14.7171593 67.0188679 14.7171593 68.6470859 16.3090284 68.6470859 16.3090284 67.0188679 17.135506 67.0188679 17.135506 71.2075472"></polygon>
                            <path d="M20.8150815,67.7569206 L19.9196407,67.7569206 C19.8899188,68.4269737 19.8160643,69.0018629 19.6980772,69.4812332 C19.5802702,69.960781 19.4671468,70.3417916 19.3587067,70.6244425 L20.8150815,70.6244425 L20.8150815,67.7569206 Z M18.0617496,72.1383648 L18.0617496,70.6400664 L18.4665083,70.6400664 C18.689693,70.1523515 18.8516325,69.6101305 18.952507,69.0132258 C19.0533814,68.4164986 19.1038186,67.7517718 19.1038186,67.0188679 L21.70728,67.0188679 L21.70728,70.6400664 L22.2298456,70.6400664 L22.2298456,72.1383648 L21.3313425,72.1383648 L21.3313425,71.3656909 L18.9604328,71.3656909 L18.9604328,72.1383648 L18.0617496,72.1383648 Z" id="Fill-29" fill="#7EA8AD" opacity="0.7"></path>
                            <path d="M25.7794409,67.7144711 L25.7794409,68.0489698 C25.7794409,69.1383075 25.6734646,69.9369878 25.4616954,70.4451781 C25.2495594,70.9533684 24.9101785,71.2075472 24.443186,71.2075472 C24.1166396,71.2075472 23.8419813,71.1463033 23.619211,71.0238156 L23.904687,70.3697109 C24.0387158,70.4229228 24.1610103,70.4496961 24.2712037,70.4496961 C24.4226508,70.4496961 24.5420116,70.3677029 24.629653,70.2040513 C24.7171109,70.0400649 24.7825669,69.7723322 24.8258375,69.4001836 C24.8691081,69.0283697 24.8907434,68.5315581 24.8907434,67.9097487 L24.8907434,67.0188679 L27.787307,67.0188679 L27.787307,71.1156814 L26.8756907,71.1156814 L26.8756907,67.7144711 L25.7794409,67.7144711 Z" id="Fill-31" fill="#7EA8AD" opacity="0.7"></path>
                            <path d="M30.1825333,69.0197013 L31.0460349,67.0188679 L31.9554031,67.0188679 L30.3938653,70.3686718 C30.2959014,70.5781393 30.194822,70.7435348 30.0906272,70.8651935 C29.9866054,70.9866847 29.8727181,71.0741583 29.7493112,71.1274468 C29.6257313,71.1807353 29.4599196,71.2075472 29.251703,71.2075472 C29.1681049,71.2075472 29.0277361,71.1897843 28.8307698,71.1540911 C28.6336304,71.1185654 28.4780305,71.077007 28.3637969,71.0295836 L28.6147646,70.380402 C28.692478,70.4181061 28.7959805,70.4516209 28.9256182,70.4812815 C29.055256,70.5107746 29.1516622,70.5256886 29.2150099,70.5256886 C29.3129738,70.5256886 29.4043606,70.4856385 29.4889972,70.4055381 C29.5736339,70.3256053 29.6620784,70.1571935 29.7538114,69.9003025 L28.2504288,67.0188679 L29.1843745,67.0188679 L30.1825333,69.0197013 Z" id="Fill-33" fill="#7EA8AD" opacity="0.7"></path>
                            <polygon id="Fill-35" fill="#7EA8AD" opacity="0.7" points="32.8816467 71.2075472 32.8816467 67.0188679 33.6561224 67.0188679 33.6561224 69.936384 35.1581409 67.0188679 36.1234991 67.0188679 36.1234991 71.2075472 35.3488576 71.2075472 35.3488576 68.0961915 33.764748 71.2075472"></polygon>
                            <path d="M41.2439175,69.924237 C41.2439175,69.7789856 41.2134923,69.6640164 41.152642,69.5791581 C41.0917917,69.4944709 40.9994671,69.4340779 40.8758431,69.3976367 C40.7520442,69.3613666 40.5520075,69.3432316 40.2757332,69.3432316 L39.7745924,69.3432316 L39.7745924,70.5083219 L40.3313377,70.5083219 C40.6242236,70.5083219 40.8494396,70.4681169 41.0071608,70.3873647 C41.1650569,70.3066124 41.2439175,70.1522936 41.2439175,69.924237 Z M39.7745924,68.6409268 L40.3715549,68.6409268 C40.9613482,68.6409268 41.4042615,68.7545274 41.7001199,68.9813864 C41.9959783,69.2084165 42.1440823,69.5410061 42.1440823,69.9786421 C42.1440823,70.3883912 42.0062949,70.6956602 41.7310696,70.9002781 C41.4556695,71.1050671 41.0108328,71.2075472 40.3963846,71.2075472 L38.9022298,71.2075472 L38.9022298,67.0188679 L41.8160502,67.0188679 L41.8160502,67.7179221 L39.7745924,67.7179221 L39.7745924,68.6409268 Z" id="Fill-37" fill="#7EA8AD" opacity="0.7"></path>
                            <path d="M45.4076776,69.3459119 C45.4076776,68.816831 45.3356409,68.4309668 45.191743,68.1888666 C45.0476695,67.9469489 44.8036229,67.8258076 44.4597791,67.8258076 C44.1155839,67.8258076 43.871713,67.9469489 43.7276395,68.1888666 C43.5837417,68.4309668 43.5117049,68.816831 43.5117049,69.3459119 C43.5117049,69.8751754 43.5847958,70.2610396 43.7308021,70.5031397 C43.876984,70.7450574 44.1198007,70.8661987 44.4597791,70.8661987 C44.8036229,70.8661987 45.0476695,70.7450574 45.191743,70.5031397 C45.3356409,70.2610396 45.4076776,69.8751754 45.4076776,69.3459119 M46.3121784,69.3459119 C46.3121784,70.1227488 46.1542246,70.7047378 45.8381413,71.0920616 C45.522058,71.4792029 45.0627796,71.672956 44.4597791,71.672956 C43.8235714,71.672956 43.3556838,71.4691686 43.0562919,71.0614114 C42.7569,70.6536541 42.6072041,70.0818818 42.6072041,69.3459119 C42.6072041,68.6057459 42.7569,68.0330614 43.0562919,67.627311 C43.3556838,67.2217431 43.8235714,67.0188679 44.4597791,67.0188679 C45.1000279,67.0188679 45.568794,67.2217431 45.8660775,67.627311 C46.1635367,68.0330614 46.3121784,68.6057459 46.3121784,69.3459119" id="Fill-39" fill="#7EA8AD" opacity="0.7"></path>
                            <polygon id="Fill-41" fill="#7EA8AD" opacity="0.7" points="49.6537969 71.2075472 49.6537969 69.4279188 48.0619278 69.4279188 48.0619278 71.2075472 47.238422 71.2075472 47.238422 67.0188679 48.0619278 67.0188679 48.0619278 68.6470859 49.6537969 68.6470859 49.6537969 67.0188679 50.4802744 67.0188679 50.4802744 71.2075472"></polygon>
                            <path d="M54.159731,67.7569206 L53.2643288,67.7569206 C53.2346082,68.4269737 53.1607569,69.0018629 53.0427749,69.4812332 C52.9249731,69.960781 52.8118545,70.3417916 52.7034191,70.6244425 L54.159731,70.6244425 L54.159731,67.7569206 Z M51.406518,72.1383648 L51.406518,70.6400664 L51.8112592,70.6400664 C52.0344343,70.1523515 52.1963668,69.6101305 52.2972369,69.0132258 C52.398107,68.4164986 52.448542,67.7517718 52.448542,67.0188679 L55.0518909,67.0188679 L55.0518909,70.6400664 L55.5746141,70.6400664 L55.5746141,72.1383648 L54.6759697,72.1383648 L54.6759697,71.3656909 L52.3051624,71.3656909 L52.3051624,72.1383648 L51.406518,72.1383648 Z" id="Fill-43" fill="#7EA8AD" opacity="0.7"></path>
                            <path d="M60.2526099,69.3524799 C60.2526099,68.2895744 59.9565237,67.7581217 59.3641822,67.7581217 C59.0709706,67.7581217 58.8496246,67.887108 58.6999751,68.1454455 C58.5504947,68.4036005 58.4757545,68.8058845 58.4757545,69.3524799 C58.4757545,69.8839326 58.5494802,70.2798311 58.6971005,70.5401754 C58.8445518,70.8003373 59.0669123,70.9306007 59.3641822,70.9306007 C59.6633121,70.9306007 59.88618,70.7950465 60.0327857,70.5239381 C60.1792224,70.2530121 60.2526099,69.8624044 60.2526099,69.3524799 Z M56.8813532,71.5793634 L56.0377358,71.5793634 L56.0377358,67.112643 L56.8813532,67.112643 L56.8813532,68.981211 L57.605251,68.981211 C57.6470176,68.3423001 57.8150985,67.8553632 58.1093246,67.5207651 C58.4033817,67.1863494 58.8217239,67.0188679 59.3641822,67.0188679 C59.9445179,67.0188679 60.3841661,67.2153576 60.6832961,67.6077898 C60.982426,68.0007692 61.1320755,68.5820285 61.1320755,69.3524799 C61.1320755,70.1161809 60.9814114,70.6941562 60.6804214,71.0854937 C60.3792624,71.477196 59.9404596,71.672956 59.3641822,71.672956 C58.8296714,71.672956 58.4158947,71.5082111 58.1226832,71.1792687 C57.8296407,70.8499614 57.6569942,70.3670382 57.605251,69.7299518 L56.8813532,69.7299518 L56.8813532,71.5793634 Z" id="Fill-45" fill="#7EA8AD" opacity="0.7"></path>
                            <path d="M61.6580838,67.8194222 C61.8005554,67.5804235 62.005736,67.3875826 62.2739807,67.2399873 C62.5422253,67.0927568 62.8889893,67.0188679 63.3142726,67.0188679 C64.6382644,67.0188679 65.3001715,67.7946101 65.3001715,69.3459119 C65.3001715,70.8973963 64.6267175,71.672956 63.2796318,71.672956 C62.8879235,71.672956 62.5569699,71.6063648 62.2865935,71.4728174 C62.0163947,71.339635 61.7858109,71.1287324 61.5951973,70.8404744 L62.2960087,70.3110286 C62.4113006,70.478875 62.5411595,70.6133345 62.6857629,70.7144072 C62.8303663,70.8156624 63.0303951,70.8661987 63.286027,70.8661987 C63.6255075,70.8661987 63.8814947,70.7698695 64.0543437,70.5772111 C64.2270151,70.3849175 64.3314707,70.100126 64.3669998,69.7237487 L62.5537723,69.7237487 L62.5537723,68.916809 L64.3606045,68.916809 C64.3145944,68.5229174 64.2014342,68.2426869 64.0213017,68.0759352 C63.8411691,67.9091835 63.5979725,67.8258076 63.2922446,67.8258076 C63.1456871,67.8258076 63.0199141,67.8425923 62.9151032,67.8759791 C62.8102924,67.9091835 62.7166732,67.9593549 62.6338904,68.0259462 C62.5511076,68.0927198 62.4551791,68.2067459 62.34646,68.3682068 L61.6580838,67.8194222 Z" id="Fill-47" fill="#7EA8AD" opacity="0.7"></path>
                            <path d="M67.4604965,67.7144711 L67.4604965,68.0489698 C67.4604965,69.1383075 67.3545155,69.9369878 67.1425536,70.4451781 C66.9305916,70.9533684 66.5911958,71.2075472 66.1239994,71.2075472 C65.797622,71.2075472 65.5229516,71.1463033 65.3001715,71.0238156 L65.5854767,70.3697109 C65.7196948,70.4229228 65.8418113,70.4496961 65.9520095,70.4496961 C66.1034633,70.4496961 66.2230128,70.3677029 66.3104746,70.2040513 C66.3981198,70.0400649 66.4635786,69.7723322 66.5068511,69.4001836 C66.5499403,69.0283697 66.5715765,68.5315581 66.5715765,67.9097487 L66.5715765,67.0188679 L69.4682676,67.0188679 L69.4682676,71.1156814 L68.5567945,71.1156814 L68.5567945,67.7144711 L67.4604965,67.7144711 Z" id="Fill-49" fill="#7EA8AD" opacity="0.7"></path>
                            <path d="M71.0197671,68.2989275 C71.0197671,68.45855 71.0418839,68.5764277 71.0859511,68.6530739 C71.1301847,68.7298911 71.2023552,68.7863492 71.3021301,68.8226193 C71.4022375,68.8588894 71.5454145,68.8770244 71.731661,68.8770244 L72.3406204,68.8770244 L72.3406204,67.7603512 L71.6964072,67.7603512 C71.4551182,67.7603512 71.2820088,67.7966213 71.1772452,67.8691614 C71.0721489,67.9418726 71.0197671,68.085071 71.0197671,68.2989275 Z M69.9313894,71.2075472 L71.0197671,69.5216735 C70.7550311,69.4672684 70.5486634,69.3336508 70.4004976,69.1208208 C70.2524982,68.9079908 70.1783322,68.6219364 70.1783322,68.2626574 C70.1783322,67.8207443 70.298561,67.5030391 70.5388522,67.3093706 C70.7791434,67.1155311 71.1629441,67.0188679 71.690587,67.0188679 L73.1732419,67.0188679 L73.1732419,71.2075472 L72.3406204,71.2075472 L72.3406204,69.6215873 L71.9200692,69.6215873 L70.8815789,71.2075472 L69.9313894,71.2075472 Z" id="Fill-51" fill="#7EA8AD" opacity="0.7"></path>
                            <polygon id="Fill-1" fill="#7EA8AD" opacity="0.7" points="0 74 107.907376 74 107.907376 72.6037736 0 72.6037736"></polygon>
                        </g>
                    </g>
                </g>
            </g>
        </g>
    </g>
</svg>