<svg xmlns="http://www.w3.org/2000/svg" width="136" height="136" viewBox="0 0 136 136">
    <path fill="#72B98B" fill-rule="evenodd" d="M68 0c37.589 0 68 30.411 68 68 0 12.656-3.4 24.933-10.011 35.7-.567.756-1.7 1.133-2.645.567-.755-.567-1.133-1.7-.566-2.645 6.233-10.2 9.444-21.722 9.444-33.622 0-35.322-28.9-64.222-64.222-64.222-35.322 0-64.222 28.9-64.222 64.222 0 35.322 28.9 64.222 64.222 64.222 18.322 0 35.7-7.744 47.789-21.344.755-.756 1.889-.945 2.644-.19.756.756.945 1.89.19 2.645C105.777 127.69 87.266 136 68 136c-37.589 0-68-30.411-68-68S30.411 0 68 0zm30.778 44.572c.758-.763 1.895-.763 2.653 0 .759.763.759 1.907 0 2.67L55.95 93 35.672 74.696c-.758-.762-.947-1.906-.19-2.669.759-.762 1.896-.953 2.654-.19L55.76 87.852l43.018-43.28z"/>
</svg>
