<svg xmlns="http://www.w3.org/2000/svg" width="120" height="37" viewBox="0 0 120 37">
    <path fill="#7EA8AD" fill-opacity=".7" fill-rule="nonzero" d="M92.345 29.76l-8.637-7.22c2.735-.071 4.078-.406 5.446-1.147 1.943-1.028 3.023-3.228 3.023-5.523 0-2.821-.888-5.069-2.951-6.599-1.871-1.386-4.15-1.96-8.733-1.96H64.346v22.45h5.447V18.524L83.252 29.76h9.093zM69.793 18.477v-4.925h12.235c2.064 0 3.023.12 3.767.574.624.406.984 1.123.984 1.889 0 .717-.312 1.458-.984 1.912-.6.383-1.271.574-2.687.574H69.793v-.024zm-11.804-8.63c-2.16-1.89-4.655-2.798-12.836-2.798-8.181 0-10.677.908-12.836 2.797-1.92 1.674-2.855 4.447-2.855 8.679s.936 7.005 2.855 8.679C34.477 29.09 36.972 30 45.153 30c8.181 0 10.676-.909 12.836-2.797 1.919-1.674 2.855-4.447 2.855-8.68 0-4.23-.936-7.004-2.855-8.678zM53.526 22.42c-1.416.885-3.335 1.363-8.397 1.363s-6.958-.478-8.397-1.363c-1.512-.932-1.896-2.128-1.896-3.897 0-1.77.384-2.965 1.896-3.897 1.415-.885 3.335-1.363 8.397-1.363s6.957.478 8.397 1.363c1.511.932 1.895 2.128 1.895 3.897 0 1.77-.383 2.965-1.895 3.897zm-37.835 1.363c-5.039 0-6.958-.478-8.397-1.363-1.488-.932-1.896-2.128-1.896-3.897 0-1.77.408-2.965 1.896-3.897 1.415-.885 3.358-1.363 8.397-1.363 4.414 0 8.445.43 10.292.86l1.224-5.379C24.736 7.79 19.96 7 15.235 7 7.198 7 4.99 7.909 2.855 9.797.935 11.471 0 14.244 0 18.477c0 4.23.936 7.004 2.855 8.678 2.16 1.889 4.367 2.797 12.38 2.797 4.702 0 9.5-.789 11.972-1.745l-1.224-5.38c-1.871.503-5.902.957-10.292.957zm102.685-3.3v-3.897H101.03l4.702 3.897h12.644zm.624-6.957v-6.24H95.608V29.76H119v-6.24h-17.946v-9.994H119z"/>
</svg>
