<?xml version="1.0" encoding="UTF-8" standalone="no"?>
<svg width="53px" height="74px" viewBox="0 0 53 74" version="1.1" xmlns="http://www.w3.org/2000/svg" xmlns:xlink="http://www.w3.org/1999/xlink">
    <!-- Generator: Sketch 50.2 (55047) - http://www.bohemiancoding.com/sketch -->
    <title>Danone</title>
    <desc>Created with Sketch.</desc>
    <defs>
        <polygon id="path-1" points="0.0314225246 0.248187037 52.6719932 0.248187037 52.6719932 51.4073748 0.0314225246 51.4073748"></polygon>
    </defs>
    <g id="1440" stroke="none" stroke-width="1" fill="none" fill-rule="evenodd">
        <g id="Main_1440" transform="translate(-136.000000, -696.000000)">
            <g id="1">
                <g id="Partners" transform="translate(136.000000, 696.000000)">
                    <g id="Danone">
                        <g id="Group" transform="translate(0.277235, 0.000000)">
                            <path d="M25.5936518,57.4073522 L23.6229613,57.4073522 L23.6229613,62.0299655 C22.9887417,61.0156025 22.2928103,60.1618888 21.570484,59.4083401 C20.8146995,58.6139548 19.9596555,57.7875938 19.3808279,57.4073522 L17.7239014,57.4073522 L17.7239014,66.8929746 L19.7120645,66.8929746 L19.7120645,60.3976617 C21.3823743,61.8970543 23.0883729,64.184668 23.8240825,66.8929746 L23.8348635,66.8929746 L25.5936518,66.8929746 L25.5936518,57.4073522 Z M43.7350826,57.4073522 L41.7487783,57.4073522 L41.7487783,62.0299655 C41.1190198,61.0156025 40.3989241,60.1618888 39.6940705,59.4083401 C38.9230438,58.6139548 38.0966253,57.7875938 37.5133366,57.4073522 L35.8474878,57.4073522 L35.8474878,66.8929746 L37.8382533,66.8929746 L37.8382533,60.3976617 C39.514883,61.8970543 41.2272015,64.184668 41.9454384,66.8929746 L41.9718333,66.8929746 L43.7350826,66.8929746 L43.7350826,57.4073522 Z M48.5757468,65.4070659 C47.0225408,65.3569834 46.3355316,63.9785593 46.2228888,62.9206632 L52.6409233,62.9206632 C52.6873931,62.6163158 52.7539378,62.1902294 52.7405545,61.810373 C52.7316323,60.7798296 52.5725198,59.6556705 51.7992626,58.5657986 C50.8557402,57.2563343 49.5103471,57.1118655 48.5913607,57.1118655 C47.4136305,57.1118655 46.3842319,57.5491242 45.6329085,58.3415832 C44.7470086,59.2457646 44.2719015,60.6037704 44.2477373,62.1397617 C44.2365845,63.7266059 44.6165214,65.1643585 45.5355078,66.1101469 C46.3132261,66.8929746 47.4136305,67.3510367 48.706234,67.2616588 C49.6118371,67.1930843 51.2226656,66.9915986 52.5349722,65.086538 L50.6393769,64.6334841 C49.9765319,65.3361799 49.227439,65.4278694 48.5757468,65.4070659 Z M46.2912924,61.0614473 C46.5786615,59.4564963 47.8578816,58.8909495 48.6289082,58.8909495 C49.1371018,58.8909495 49.7557075,59.0901237 50.1534888,59.483849 C50.7189331,60.0220431 50.8204231,60.7501654 50.8516508,61.0822508 L50.8557402,61.2949087 L50.6393769,61.2949087 L46.4991052,61.2949087 L46.2381309,61.2949087 L46.2912924,61.0614473 Z M35.3634586,62.1397617 C35.3634586,64.9517005 33.2756643,67.234306 30.7306073,67.234306 C28.1699365,67.234306 26.0996148,64.9517005 26.0996148,62.1397617 C26.0996148,59.3351426 28.1699365,57.0798898 30.7306073,57.0798898 C33.2756643,57.0798898 35.3634586,59.3351426 35.3634586,62.1397617 Z M30.7306073,58.9460402 C29.1774013,58.9460402 27.9268066,60.3653007 27.9268066,62.1397617 C27.9268066,63.9188456 29.1774013,65.3569834 30.7306073,65.3569834 C32.2882744,65.3569834 33.5232553,63.9188456 33.5232553,62.1397617 C33.5232553,60.3653007 32.2882744,58.9460402 30.7306073,58.9460402 Z M3.39373613,57.1118655 C2.15429412,57.1118655 1.0717341,57.2563343 0.676183321,57.3341547 C0.784364972,57.7140111 0.839756951,58.6139548 0.839756951,62.1420732 C0.839756951,65.6886835 0.764290026,66.6891775 0.731203542,66.9915986 C0.965411239,67.0671076 2.01265423,67.234306 3.07774162,67.234306 C5.11460507,67.2181255 8.77568032,66.3093211 8.85969768,61.9933667 C8.91285911,57.5949689 5.13468001,57.1118655 3.39373613,57.1118655 Z M3.38035283,65.4070659 C3.17923162,65.4070659 2.96509887,65.4070659 2.79929469,65.3750901 L2.79929469,58.9460402 C3.02234964,58.9460402 3.28332393,58.9275482 3.54838756,58.9159907 C4.54469967,58.9159907 6.94848852,59.3258966 6.94848852,62.1397617 C6.94848852,64.9517005 4.61310319,65.4163119 3.38035283,65.4070659 Z M13.9014831,57.4073522 L11.9817235,57.4073522 C9.86939309,59.7747127 8.80207515,63.4357423 8.51284723,66.8929746 L10.5121631,66.8929746 C10.5787078,66.1879674 10.6560335,65.5010668 10.7686763,64.8187893 L14.9996569,64.8187893 C15.1234524,65.5010668 15.2052393,66.1879674 15.2691817,66.8929746 L17.3439645,66.8929746 C17.0521342,63.4357423 16.0182745,59.7747127 13.9014831,57.4073522 Z M11.1816997,63.0628204 C11.5638672,61.6385516 12.1319138,60.3263905 12.8806349,59.1039927 C13.6364194,60.3263905 14.2219387,61.6385516 14.5929534,63.0628204 L11.1816997,63.0628204 Z" id="Fill-7" fill="#7EA8AD" opacity="0.7"></path>
                            <g transform="translate(0.000000, 68.767677)" fill="#7EA8AD" fill-opacity="0.7">
                                <path d="M2.0227314,2.06359091 C2.0227314,1.14270202 1.78285537,0.959570707 1.49463223,0.959570707 C1.21905372,0.959570707 0.759012397,1.07542929 0.759012397,3.11865152 C0.759012397,3.4314697 0.790995868,4.17819697 1.41913636,4.17819697 C1.69025207,4.17819697 2.0227314,3.59255051 2.0227314,2.06359091 M1.33025207,0.60190404 C1.56157438,0.60190404 2.78029339,0.659833333 2.78029339,1.8935404 C2.78029339,3.15901515 2.4690124,3.80259091 2.17521074,4.12437879 C1.91302066,4.41963131 1.51248347,4.54034848 1.09892975,4.54034848 C0.609508264,4.54034848 -3.71900826e-05,4.31685354 -3.71900826e-05,3.18555051 C-3.71900826e-05,1.28135859 0.555954545,0.60190404 1.33025207,0.60190404" id="Fill-1"></path>
                                <path d="M3.5223843,0.546815152 C3.6157314,0.543451515 3.66221901,0.604370707 3.66221901,0.604370707 C3.77341736,0.600633333 4.84151653,3.46719899 4.84151653,3.46719899 C4.83556612,3.43169394 4.8303595,3.20259293 4.83259091,3.15774444 C4.87647521,2.32916869 5.01184711,1.39370404 4.99027686,0.772552525 C4.98097934,0.504582828 5.11597934,0.419370707 5.24502893,0.414885859 C5.35585537,0.410774747 5.46482231,0.469825253 5.46668182,0.523269697 C5.5473843,2.84193636 5.25432645,4.52973434 5.12378926,4.61494646 C5.07172314,4.65269394 5.00515289,4.66390606 4.94304545,4.66577475 C4.86754959,4.66876465 4.79577273,4.65306768 4.76378926,4.63213838 C4.50903719,4.47554242 3.60271488,2.23461313 3.60271488,2.23461313 C3.62688843,3.49971414 3.56366529,4.61195657 3.3903595,4.68483535 C3.34647521,4.7042697 3.30221901,4.71473434 3.26651653,4.71585556 C3.19102066,4.71847172 3.13672314,4.68894646 3.13077273,4.64447172 C3.10883058,4.52898687 3.09432645,4.36416869 3.08726033,4.16309798 C3.04635124,2.98806768 3.23750826,0.673138384 3.38180579,0.596522222 C3.43833471,0.563259596 3.48221901,0.548310101 3.5223843,0.546815152" id="Fill-4"></path>
                                <path d="M17.352595,0.546815152 C17.4459421,0.543451515 17.4924298,0.604370707 17.4924298,0.604370707 C17.6036281,0.600633333 18.6717273,3.46719899 18.6717273,3.46719899 C18.6657769,3.43169394 18.6605702,3.20259293 18.6628017,3.15774444 C18.706686,2.32916869 18.8420579,1.39370404 18.8204876,0.772552525 C18.8111901,0.504582828 18.9461901,0.419370707 19.0752397,0.414885859 C19.1860661,0.410774747 19.2950331,0.469825253 19.2968926,0.523269697 C19.377595,2.84193636 19.0845372,4.52973434 18.954,4.61494646 C18.9019339,4.65269394 18.8353636,4.66390606 18.7732562,4.66577475 C18.6977603,4.66876465 18.6259835,4.65306768 18.594,4.63213838 C18.3392479,4.47554242 17.4329256,2.23461313 17.4329256,2.23461313 C17.4570992,3.49971414 17.393876,4.61195657 17.2205702,4.68483535 C17.176686,4.7042697 17.1324298,4.71473434 17.0967273,4.71585556 C17.0212314,4.71847172 16.9669339,4.68894646 16.9609835,4.64447172 C16.9390413,4.52898687 16.9245372,4.36416869 16.9174711,4.16309798 C16.876562,2.98806768 17.067719,0.673138384 17.2120165,0.596522222 C17.2685455,0.563259596 17.3124298,0.548310101 17.352595,0.546815152" id="Fill-6"></path>
                                <path d="M6.76933884,2.72073333 L6.60272727,2.72073333 C6.63842975,3.44952121 6.77342975,4.11103636 7.20520661,4.11103636 C7.61466942,4.11103636 7.55665289,3.91445051 7.7835124,3.91445051 C7.90809917,3.91445051 7.96165289,3.99480404 7.96165289,4.08861212 C7.96165289,4.1424303 7.94380165,4.20484444 7.91256198,4.25417778 C7.83260331,4.3793798 7.65,4.46421818 7.27214876,4.46421818 C5.94632231,4.46421818 5.78194215,3.44952121 5.78194215,2.58656162 C5.78194215,2.20684444 5.8931405,1.14281414 6.27545455,0.820652525 C6.27545455,0.704420202 6.3022314,0.677884848 6.38665289,0.677884848 C6.82289256,0.677884848 7.25876033,0.744783838 7.76119835,0.811682828 C7.93041322,0.834107071 7.9661157,0.887925253 7.97057851,0.972763636 L7.97057851,0.977248485 C7.97057851,1.15178384 7.78797521,1.20522828 7.78797521,1.20522828 C7.78797521,1.20522828 7.39450413,1.29455152 6.71838843,1.31249091 C6.64289256,1.57186465 6.60272727,1.92056162 6.59826446,2.27822828 L6.74702479,2.27822828 C7.01404959,2.27822828 7.40119835,2.29168283 7.53880165,2.34512727 C7.57896694,2.35858182 7.60128099,2.40791515 7.60128099,2.4613596 C7.60128099,2.51517778 7.57896694,2.56862222 7.53433884,2.58656162 C7.17842975,2.71624848 6.90731405,2.72073333 6.76933884,2.72073333" id="Fill-8"></path>
                                <path d="M29.5984711,2.06359091 C29.5984711,1.14270202 29.358595,0.959570707 29.0703719,0.959570707 C28.7947934,0.959570707 28.3347521,1.07542929 28.3347521,3.11865152 C28.3347521,3.4314697 28.3667355,4.17819697 28.994876,4.17819697 C29.2659917,4.17819697 29.5984711,3.59255051 29.5984711,2.06359091 M28.9059917,0.60190404 C29.137314,0.60190404 30.3560331,0.659833333 30.3560331,1.8935404 C30.3560331,3.15901515 30.0447521,3.80259091 29.7509504,4.12437879 C29.4887603,4.41963131 29.0882231,4.54034848 28.6746694,4.54034848 C28.1852479,4.54034848 27.5757025,4.31685354 27.5757025,3.18555051 C27.5757025,1.28135859 28.1316942,0.60190404 28.9059917,0.60190404" id="Fill-10"></path>
                                <path d="M31.098124,0.546815152 C31.1914711,0.543451515 31.2379587,0.604370707 31.2379587,0.604370707 C31.349157,0.600633333 32.4172562,3.46719899 32.4172562,3.46719899 C32.4113058,3.43169394 32.4060992,3.20259293 32.4083306,3.15774444 C32.4522149,2.32916869 32.5875868,1.39370404 32.5660165,0.772552525 C32.556719,0.504582828 32.691719,0.419370707 32.8207686,0.414885859 C32.931595,0.410774747 33.040562,0.469825253 33.0424215,0.523269697 C33.123124,2.84193636 32.8300661,4.52973434 32.6995289,4.61494646 C32.6474628,4.65269394 32.5808926,4.66390606 32.5187851,4.66577475 C32.4432893,4.66876465 32.3715124,4.65306768 32.3395289,4.63213838 C32.0847769,4.47554242 31.1784545,2.23461313 31.1784545,2.23461313 C31.2026281,3.49971414 31.139405,4.61195657 30.9660992,4.68483535 C30.9222149,4.7042697 30.8779587,4.71473434 30.8422562,4.71585556 C30.7667603,4.71847172 30.7124628,4.68894646 30.7065124,4.64447172 C30.6845702,4.52898687 30.6700661,4.36416869 30.663,4.16309798 C30.6220909,2.98806768 30.8132479,0.673138384 30.9575455,0.596522222 C31.0140744,0.563259596 31.0579587,0.548310101 31.098124,0.546815152" id="Fill-12"></path>
                                <path d="M34.3450785,2.72073333 L34.1784669,2.72073333 C34.2141694,3.44952121 34.3491694,4.11103636 34.7809463,4.11103636 C35.1904091,4.11103636 35.1323926,3.91445051 35.3592521,3.91445051 C35.4838388,3.91445051 35.5373926,3.99480404 35.5373926,4.08861212 C35.5373926,4.1424303 35.5195413,4.20484444 35.4883017,4.25417778 C35.408343,4.3793798 35.2257397,4.46421818 34.8478884,4.46421818 C33.522062,4.46421818 33.3576818,3.44952121 33.3576818,2.58656162 C33.3576818,2.20684444 33.4688802,1.14281414 33.8511942,0.820652525 C33.8511942,0.704420202 33.8779711,0.677884848 33.9623926,0.677884848 C34.3986322,0.677884848 34.8345,0.744783838 35.336938,0.811682828 C35.5061529,0.834107071 35.5418554,0.887925253 35.5463182,0.972763636 L35.5463182,0.977248485 C35.5463182,1.15178384 35.3637149,1.20522828 35.3637149,1.20522828 C35.3637149,1.20522828 34.9702438,1.29455152 34.2941281,1.31249091 C34.2186322,1.57186465 34.1784669,1.92056162 34.1740041,2.27822828 L34.3227645,2.27822828 C34.5897893,2.27822828 34.976938,2.29168283 35.1145413,2.34512727 C35.1547066,2.35858182 35.1770207,2.40791515 35.1770207,2.4613596 C35.1770207,2.51517778 35.1547066,2.56862222 35.1100785,2.58656162 C34.7541694,2.71624848 34.4830537,2.72073333 34.3450785,2.72073333" id="Fill-14"></path>
                                <path d="M20.6553347,2.72073333 L20.4887231,2.72073333 C20.5244256,3.44952121 20.6594256,4.11103636 21.0912025,4.11103636 C21.5006653,4.11103636 21.4426488,3.91445051 21.6695083,3.91445051 C21.794095,3.91445051 21.8476488,3.99480404 21.8476488,4.08861212 C21.8476488,4.1424303 21.8297975,4.20484444 21.7985579,4.25417778 C21.7185992,4.3793798 21.5359959,4.46421818 21.1581446,4.46421818 C19.8323182,4.46421818 19.667938,3.44952121 19.667938,2.58656162 C19.667938,2.20684444 19.7791364,1.14281414 20.1614504,0.820652525 C20.1614504,0.704420202 20.1882273,0.677884848 20.2726488,0.677884848 C20.7088884,0.677884848 21.1447562,0.744783838 21.6471942,0.811682828 C21.8164091,0.834107071 21.8521116,0.887925253 21.8565744,0.972763636 L21.8565744,0.977248485 C21.8565744,1.15178384 21.6739711,1.20522828 21.6739711,1.20522828 C21.6739711,1.20522828 21.2805,1.29455152 20.6043843,1.31249091 C20.5288884,1.57186465 20.4887231,1.92056162 20.4842603,2.27822828 L20.6330207,2.27822828 C20.9000455,2.27822828 21.2871942,2.29168283 21.4247975,2.34512727 C21.4649628,2.35858182 21.4872769,2.40791515 21.4872769,2.4613596 C21.4872769,2.51517778 21.4649628,2.56862222 21.4203347,2.58656162 C21.0644256,2.71624848 20.7933099,2.72073333 20.6553347,2.72073333" id="Fill-16"></path>
                                <path d="M41.0545785,2.72073333 L40.8879669,2.72073333 C40.9236694,3.44952121 41.0586694,4.11103636 41.4904463,4.11103636 C41.8999091,4.11103636 41.8418926,3.91445051 42.0687521,3.91445051 C42.1933388,3.91445051 42.2468926,3.99480404 42.2468926,4.08861212 C42.2468926,4.1424303 42.2290413,4.20484444 42.1978017,4.25417778 C42.117843,4.3793798 41.9352397,4.46421818 41.5573884,4.46421818 C40.231562,4.46421818 40.0671818,3.44952121 40.0671818,2.58656162 C40.0671818,2.20684444 40.1783802,1.14281414 40.5606942,0.820652525 C40.5606942,0.704420202 40.5874711,0.677884848 40.6718926,0.677884848 C41.1081322,0.677884848 41.544,0.744783838 42.046438,0.811682828 C42.2156529,0.834107071 42.2513554,0.887925253 42.2558182,0.972763636 L42.2558182,0.977248485 C42.2558182,1.15178384 42.0732149,1.20522828 42.0732149,1.20522828 C42.0732149,1.20522828 41.6797438,1.29455152 41.0036281,1.31249091 C40.9281322,1.57186465 40.8879669,1.92056162 40.8835041,2.27822828 L41.0322645,2.27822828 C41.2992893,2.27822828 41.686438,2.29168283 41.8240413,2.34512727 C41.8642066,2.35858182 41.8865207,2.40791515 41.8865207,2.4613596 C41.8865207,2.51517778 41.8642066,2.56862222 41.8195785,2.58656162 C41.4636694,2.71624848 41.1925537,2.72073333 41.0545785,2.72073333" id="Fill-18"></path>
                                <path d="M10.516686,1.76441414 L10.5114793,2.51749495 C10.6658182,2.56645455 10.7465207,2.57916162 10.9644545,2.57131313 C11.1823884,2.56383838 11.450157,2.01855556 11.4334215,1.53606061 C11.4200331,1.15185859 11.1656529,0.806151515 10.9923471,0.812505051 C10.5345372,0.828575758 10.5854876,1.30733333 10.5445785,1.54577778 C10.5408595,1.56371717 10.5226364,1.6709798 10.516686,1.76441414 M10.5244959,2.88413131 L10.5713554,4.23332323 C10.5817686,4.53717172 10.6193306,4.68591919 10.250405,4.699 C9.89040496,4.71133333 9.8167686,4.38319192 9.79482645,3.75307071 C9.774,3.15434343 9.83238843,2.40537374 9.81528099,1.90493939 C9.80970248,1.75282828 9.78701653,1.60632323 9.77920661,1.38282828 C9.75726446,0.757191919 9.93577686,0.504919192 10.1444132,0.497818182 C10.3180909,0.491464646 10.4404463,0.558737374 10.4861901,0.593121212 C10.5947851,0.517626263 10.7357355,0.467919192 10.9268926,0.461191919 C11.5446198,0.439515152 12.0031736,0.696272727 12.0280909,1.41571717 C12.0474298,1.96959596 11.8793306,2.90169697 10.8659008,2.93720202 C10.7547025,2.94093939 10.5925537,2.92187879 10.5244959,2.88413131" id="Fill-20"></path>
                                <path d="M12.9735372,0.691115152 C13.098124,0.883216162 13.0404793,1.63629697 13.0181653,2.12738788 C12.9791157,2.98623636 12.9672149,3.69185253 12.963124,4.07269091 C13.1230413,4.06372121 13.345438,4.09698384 13.5455207,4.09698384 C13.8724215,4.09698384 14.1163884,4.10483232 14.1413058,4.24498384 C14.1863058,4.49725657 14.2309339,4.57910505 12.9318843,4.57910505 C12.2557686,4.57910505 12.2762231,4.0536303 12.2717603,3.4455596 C12.2672975,2.92718586 12.2888678,2.22343838 12.3227107,1.64788283 C12.3606446,1.0005697 12.4357686,0.481074747 12.6005207,0.481074747 C12.7518843,0.481074747 12.8668017,0.525549495 12.9735372,0.691115152" id="Fill-22"></path>
                                <path d="M45.693781,0.691115152 C45.8183678,0.883216162 45.7607231,1.63629697 45.7384091,2.12738788 C45.6993595,2.98623636 45.6874587,3.69185253 45.6833678,4.07269091 C45.8432851,4.06372121 46.0656818,4.09698384 46.2657645,4.09698384 C46.5926653,4.09698384 46.8366322,4.10483232 46.8615496,4.24498384 C46.9065496,4.49725657 46.9511777,4.57910505 45.6521281,4.57910505 C44.9760124,4.57910505 44.9964669,4.0536303 44.9920041,3.4455596 C44.9875413,2.92718586 45.0091116,2.22343838 45.0429545,1.64788283 C45.0808884,1.0005697 45.1560124,0.481074747 45.3207645,0.481074747 C45.4721281,0.481074747 45.5870455,0.525549495 45.693781,0.691115152" id="Fill-24"></path>
                                <path d="M22.0682231,1.04209192 C22.3750413,0.881011111 23.1943388,0.481485859 24.2929339,0.481485859 C24.8582231,0.481485859 24.8675207,0.70049596 24.8675207,0.803273737 L24.8675207,0.807758586 C24.851157,0.919506061 24.6916116,1.00098081 24.3107851,1.02228384 L24.3063223,1.02228384 C24.0530579,1.07161717 24.1397107,1.04321313 23.752562,1.11459697 C23.7666942,1.8729101 23.7432645,2.99150606 23.7109091,3.85259697 C23.6941736,4.08319293 23.6904545,4.11944545 23.6826446,4.24240505 C23.6636777,4.5399 23.5309091,4.66996061 23.31,4.6019404 C23.1088017,4.54027374 23.0764463,4.46403131 23.0522727,3.59247576 C23.0403719,3.17575859 23.0489256,2.73661717 23.0764463,2.36213232 C23.1177273,1.79517273 23.1630992,1.44423333 23.1720248,1.22073838 C22.7004545,1.30557677 22.4263636,1.31828384 22.2307438,1.31828384 L22.2218182,1.31828384 C22.1016942,1.31828384 22.0682231,1.2218596 22.0682231,1.08320303 L22.0682231,1.04209192 Z" id="Fill-26"></path>
                                <path d="M46.4044463,1.04209192 C46.7112645,0.881011111 47.530562,0.481485859 48.629157,0.481485859 C49.1944463,0.481485859 49.2037438,0.70049596 49.2037438,0.803273737 L49.2037438,0.807758586 C49.1873802,0.919506061 49.0278347,1.00098081 48.6470083,1.02228384 L48.6425455,1.02228384 C48.389281,1.07161717 48.4759339,1.04321313 48.0887851,1.11459697 C48.1029174,1.8729101 48.0794876,2.99150606 48.0471322,3.85259697 C48.0303967,4.08319293 48.0266777,4.11944545 48.0188678,4.24240505 C47.9999008,4.5399 47.8671322,4.66996061 47.6462231,4.6019404 C47.4450248,4.54027374 47.4126694,4.46403131 47.3884959,3.59247576 C47.376595,3.17575859 47.3851488,2.73661717 47.4126694,2.36213232 C47.4539504,1.79517273 47.4993223,1.44423333 47.5082479,1.22073838 C47.0366777,1.30557677 46.7625868,1.31828384 46.5669669,1.31828384 L46.5580413,1.31828384 C46.4379174,1.31828384 46.4044463,1.2218596 46.4044463,1.08320303 L46.4044463,1.04209192 Z" id="Fill-28"></path>
                                <path d="M39.371876,0.373737374 C39.4562975,0.373737374 39.5767934,0.418585859 39.5767934,0.628626263 C39.5767934,3.17676768 39.6333223,3.08744444 39.6333223,3.65066667 C39.6333223,4.20940404 39.5366281,4.50465657 39.3053058,4.50465657 C39.1003884,4.50465657 38.9672479,4.21837374 38.9672479,3.18125253 C38.9672479,3.10089899 38.9717107,3.01120202 38.9717107,2.92187879 C38.8069587,2.99363636 38.4313388,3.06950505 38.0843554,3.0829596 C38.0709669,3.99487879 38.0862149,4.76365657 37.5878678,4.76365657 C37.4234876,4.76365657 37.3788595,3.86519192 37.3788595,2.90393939 C37.3788595,1.79991919 37.436876,0.610686869 37.436876,0.610686869 C37.436876,0.610686869 37.5748512,0.489969697 37.7570826,0.489969697 C38.1974132,0.489969697 38.1163388,1.00647475 38.1163388,1.32377778 C38.1163388,1.61006061 38.0977438,2.02341414 38.0888182,2.54178788 C38.3201405,2.52833333 38.7444793,2.48834343 38.9847273,2.38108081 C39.0338182,1.19184848 39.1182397,0.588262626 39.1182397,0.588262626 C39.1182397,0.588262626 39.2115868,0.373737374 39.371876,0.373737374" id="Fill-32"></path>
                                <path d="M51.4669463,0.373737374 C51.5513678,0.373737374 51.6718636,0.418585859 51.6718636,0.628626263 C51.6718636,3.17676768 51.7283926,3.08744444 51.7283926,3.65066667 C51.7283926,4.20940404 51.6316983,4.50465657 51.400376,4.50465657 C51.1954587,4.50465657 51.0623182,4.21837374 51.0623182,3.18125253 C51.0623182,3.10089899 51.066781,3.01120202 51.066781,2.92187879 C50.9020289,2.99363636 50.5264091,3.06950505 50.1794256,3.0829596 C50.1660372,3.99487879 50.1812851,4.76365657 49.6833099,4.76365657 C49.5185579,4.76365657 49.4739298,3.86519192 49.4739298,2.90393939 C49.4739298,1.79991919 49.5319463,0.610686869 49.5319463,0.610686869 C49.5319463,0.610686869 49.6699215,0.489969697 49.8521529,0.489969697 C50.2924835,0.489969697 50.2114091,1.00647475 50.2114091,1.32377778 C50.2114091,1.61006061 50.192814,2.02341414 50.1838884,2.54178788 C50.4152107,2.52833333 50.8395496,2.48834343 51.0797975,2.38108081 C51.1288884,1.19184848 51.2133099,0.588262626 51.2133099,0.588262626 C51.2133099,0.588262626 51.306657,0.373737374 51.4669463,0.373737374" id="Fill-35"></path>
                                <path d="M15.0613512,2.83251818 C15.1904008,2.81009394 15.2971364,2.80560909 15.3681694,2.80560909 C15.4395744,2.80560909 15.6374256,2.80224545 15.6374256,2.80224545 C15.6017231,2.34180101 15.5202769,1.66496263 15.4157727,1.24675051 C15.3492025,1.50612424 15.234657,2.0727101 15.0613512,2.83251818 M14.6965165,2.14409394 C14.8612686,1.19181111 15.0345744,0.744821212 15.2171777,0.574770707 C15.2926736,0.503386869 15.3860207,0.480962626 15.5106074,0.480962626 C15.5816405,0.480962626 15.6887479,0.472740404 15.8177975,0.557578788 C16.1112273,0.758649495 16.2313512,3.22606364 16.4582107,3.97690202 C16.498376,4.11107374 16.5340785,4.24300303 16.5340785,4.33232626 C16.5340785,4.55133636 16.4269711,4.65635657 16.191186,4.65635657 C16.0134174,4.65635657 15.8821364,4.50349798 15.6906074,3.21597273 C15.557095,3.21597273 15.1770124,3.23017475 14.9769298,3.21709394 L14.8025083,4.1876899 C14.7582521,4.38464949 14.6916818,4.46986162 14.5626322,4.46425556 C14.3480455,4.45491212 14.3513926,4.28075051 14.3569711,4.21833636 C14.4175909,3.56392222 14.5719298,2.84597273 14.6965165,2.14409394" id="Fill-38"></path>
                                <path d="M43.1758264,2.83251818 C43.304876,2.81009394 43.4116116,2.80560909 43.4826446,2.80560909 C43.5540496,2.80560909 43.7515289,2.80224545 43.7515289,2.80224545 C43.7161983,2.34180101 43.6347521,1.66496263 43.5302479,1.24675051 C43.4636777,1.50612424 43.3491322,2.0727101 43.1758264,2.83251818 M42.8109917,2.14409394 C42.9757438,1.19181111 43.1490496,0.744821212 43.3316529,0.574770707 C43.4071488,0.503386869 43.5004959,0.480962626 43.6250826,0.480962626 C43.6961157,0.480962626 43.8032231,0.472740404 43.9322727,0.557578788 C44.2257025,0.758649495 44.3458264,3.22606364 44.572686,3.97690202 C44.6128512,4.11107374 44.6485537,4.24300303 44.6485537,4.33232626 C44.6485537,4.55133636 44.5414463,4.65635657 44.3056612,4.65635657 C44.1278926,4.65635657 43.9966116,4.50349798 43.8050826,3.21597273 C43.6715702,3.21597273 43.2914876,3.23017475 43.091405,3.21709394 L42.9169835,4.1876899 C42.8727273,4.38464949 42.806157,4.46986162 42.6771074,4.46425556 C42.4625207,4.45491212 42.4658678,4.28075051 42.4714463,4.21833636 C42.5320661,3.56392222 42.686405,2.84597273 42.8109917,2.14409394" id="Fill-40"></path>
                                <path d="M26.2402438,4.18705455 C26.2402438,4.37915556 25.9598306,4.6116202 25.7999132,4.6116202 C25.6217727,4.6116202 25.4797066,4.42624646 25.4797066,4.32571111 C25.4797066,4.21246869 25.639624,3.97701414 25.9423512,3.97701414 C25.9910702,3.97701414 26.0401612,3.98598384 26.093343,4.00392323 C26.2000785,4.04839798 26.2402438,4.11567071 26.2402438,4.18705455" id="Fill-30"></path>
                            </g>
                            <g id="Group-11">
                                <mask id="mask-2" fill="white">
                                    <use xlink:href="#path-1"></use>
                                </mask>
                                <g id="Clip-10"></g>
                                <path d="M25.8194353,0.248149883 C25.7161793,0.250379108 25.6147804,0.331374279 25.5126386,0.394164113 C25.4836675,0.398994101 25.4543249,0.403081013 25.4238681,0.4019664 C25.4116111,0.401594863 25.3989827,0.399737176 25.3867256,0.398251026 C25.3722401,0.390077201 25.3581259,0.384132601 25.3443832,0.384875676 C25.3391833,0.384875676 25.3347262,0.387476439 25.3298977,0.387847976 C25.2871838,0.378559539 25.2440986,0.366298802 25.202499,0.35775344 C25.1085286,0.338805029 25.0717575,0.338061954 24.9621873,0.348465003 C24.943616,0.350322691 24.9257877,0.349579616 24.9079593,0.349208078 C24.8767596,0.342520404 24.8455599,0.338061954 24.8147317,0.339919641 C24.7326469,0.344749628 24.647962,0.323571992 24.5632772,0.302022818 C24.4759924,0.280102107 24.3887076,0.258181395 24.3040228,0.264497533 C24.1376246,0.277501344 23.9686264,0.303880506 23.8014853,0.319856617 C23.7023149,0.329516592 23.6102016,0.414227137 23.516974,0.484819259 C23.450489,0.493736158 23.3836326,0.503024595 23.3171475,0.512313032 C23.2859479,0.480360809 23.2558625,0.454353185 23.2287485,0.457697023 C23.2008916,0.46104086 23.176749,0.494479233 23.1533493,0.534233744 C23.0861214,0.543150643 23.0188936,0.55243908 22.9512943,0.560612905 C22.8573238,0.572130567 22.8034673,0.601482028 22.7206396,0.635663476 C22.6593545,0.661299562 22.5898981,0.673931836 22.5193274,0.682477198 C22.4788421,0.665386474 22.4379854,0.6468096 22.4004715,0.652382662 C22.371129,0.656841112 22.3447578,0.678761824 22.3187581,0.703654835 C22.3065011,0.704769447 22.2935012,0.70588406 22.2816156,0.70737021 L22.1089032,0.730777071 C22.060618,0.688050261 22.0108471,0.636035013 21.9703618,0.642722688 C21.9584762,0.644580375 21.946962,0.651639588 21.9354479,0.657955725 C21.8901341,0.636778088 21.8466774,0.624888889 21.8065635,0.631948101 C21.6524223,0.6586988 21.5161095,0.785764618 21.3656825,0.828862966 C21.3634539,0.829234503 21.3612254,0.828862966 21.3593683,0.829234503 C21.2899119,0.842609853 21.2163698,0.834436028 21.1476562,0.848182915 C21.1131137,0.855242127 21.0755998,0.846325227 21.0377145,0.837408328 C20.9998292,0.828119891 20.9615725,0.819202991 20.92703,0.826262203 C20.8583164,0.840752165 20.79406,0.881621288 20.7253464,0.896482787 C20.7082609,0.900198162 20.692661,0.910229674 20.677804,0.923233486 C20.6737184,0.923976561 20.6692613,0.924348098 20.6648042,0.925091173 C20.535177,0.940695748 20.4612635,0.999027132 20.3368362,1.02875013 C20.2792654,1.04249702 20.2202089,1.05438622 20.1615238,1.06553234 C20.1425811,1.05438622 20.1247528,1.047327 20.1091529,1.05104238 C20.0905817,1.05587237 20.0738676,1.06887618 20.0578963,1.08522383 C19.8851839,1.11717605 19.7117286,1.1483852 19.5464446,1.20040045 C19.4703025,1.16064594 19.3975033,1.13203755 19.3369611,1.14875674 C19.2845902,1.1632467 19.2407621,1.20671658 19.199534,1.25947491 C19.1564487,1.26207567 19.112992,1.26319028 19.0728782,1.27433641 C19.0383357,1.28436792 19.0119645,1.3218932 18.985222,1.35904695 C18.9354511,1.37502306 18.8860516,1.39137071 18.8377664,1.4110622 C18.7460245,1.44784441 18.6951393,1.46493513 18.5937404,1.48574123 C18.5521408,1.49465813 18.5187126,1.51174886 18.4875129,1.5310688 L18.4867701,1.53144034 C18.4195422,1.55224644 18.3430288,1.54407262 18.2758009,1.56562179 C18.2442298,1.5756533 18.2238014,1.62135241 18.2041159,1.66853767 C18.1339167,1.68674301 18.0629746,1.70383373 17.999461,1.74395978 C17.9957467,1.74618901 17.991661,1.74916131 17.9875754,1.75176207 C17.9504329,1.73578596 17.9140333,1.72278214 17.8854336,1.73244212 C17.8393769,1.74804669 17.8122629,1.81975343 17.7777204,1.87028252 C17.7461494,1.88068557 17.7142068,1.89146016 17.6826357,1.90223475 L17.6737215,1.90000552 L17.6239506,1.91078011 C17.6157793,1.9185824 17.6061223,1.92415546 17.5975795,1.93121467 C17.5608085,1.94347541 17.523666,1.95573614 17.486895,1.96873996 C17.4709237,1.97468456 17.4553239,1.98211531 17.4400954,1.98991759 C17.3858675,1.96428151 17.3275538,1.92824237 17.2874399,1.94273233 C17.2213263,1.96688227 17.1830696,2.06571124 17.1173274,2.09023271 C17.0512138,2.11475419 16.9995858,2.17605787 16.9342151,2.20095088 C16.8681015,2.22621543 16.7856452,2.20652394 16.7202745,2.23216003 C16.6549038,2.25779612 16.60959,2.33358976 16.5445906,2.35959739 C16.5119053,2.37297274 16.4699343,2.36294122 16.4283347,2.35328125 C16.3863637,2.34324974 16.3440213,2.33321823 16.3117074,2.34659357 C16.2834791,2.35848277 16.2611936,2.38597655 16.2400224,2.41458493 C16.1739088,2.4112411 16.1100238,2.41347032 16.0546815,2.43687718 C15.9005403,2.50226778 15.7211422,2.51229929 15.5688581,2.58029065 C15.4942018,2.61372902 15.4485165,2.70884262 15.4035741,2.8058139 C15.3909457,2.80915774 15.3783173,2.8117585 15.3664317,2.81733156 C15.3344892,2.83219306 15.2854611,2.81027235 15.2368045,2.78872318 C15.1877764,2.76680247 15.1387484,2.74488175 15.1071773,2.75974325 C15.0432922,2.78983779 15.0117211,2.88866676 14.9482075,2.91950437 C14.9210935,2.93213664 14.8950938,2.94736968 14.8690941,2.96260272 C14.7714094,2.92247667 14.6781818,2.89163906 14.6150396,2.92284821 C14.4649841,2.9971557 14.3412997,3.12942305 14.1927298,3.20670284 C14.04416,3.2836111 13.9316183,3.43185456 13.7849056,3.51173511 C13.7109921,3.55186116 13.6634497,3.63917247 13.6159073,3.72611224 C13.5520223,3.70270538 13.4784802,3.66295087 13.4394806,3.68487158 C13.3781956,3.71942457 13.388224,3.87992876 13.3276818,3.91485328 C13.2663968,3.9497778 13.1917404,3.96018085 13.1311982,3.99584845 C13.0702845,4.03114451 12.9807712,4.01739763 12.920229,4.05343676 C12.8596868,4.0894759 12.7828019,4.0983928 12.7226311,4.13480347 C12.6624603,4.17121414 12.6227179,4.24143473 12.5629185,4.27821694 C12.5350616,4.29530766 12.5090619,4.31611376 12.4834336,4.33691986 C12.3374637,4.39822354 12.1064376,4.3283745 11.9756961,4.41308504 C11.8349262,4.50411173 11.7766125,4.7229473 11.6380711,4.81657475 C11.4995297,4.91020219 11.2896748,4.90462913 11.1529906,5.00085734 C11.0411917,5.07962328 10.9888209,5.24309977 10.8996789,5.35418948 C10.8562223,5.36867944 10.8109085,5.38019711 10.7759945,5.40583319 C10.7462806,5.4277539 10.7392235,5.47976915 10.7310522,5.53029825 C10.6976239,5.57636889 10.6675385,5.62652645 10.635596,5.67482633 C10.5921393,5.69971934 10.5475684,5.72238312 10.5078259,5.75247766 C10.4517408,5.79483293 10.3592561,5.79000295 10.3039138,5.83272976 C10.2482001,5.87619964 10.2378002,5.97651476 10.182458,6.01998465 C10.1456869,6.04933611 10.1148587,6.08574678 10.0825447,6.12104284 C9.94734617,6.20872569 9.70332018,6.16302658 9.5800072,6.26519938 C9.45075142,6.37183064 9.34898107,6.51338642 9.22195384,6.6222469 C9.15881165,6.67649138 9.12129776,6.76045885 9.08452672,6.84516939 C9.01804171,6.82139099 8.95192813,6.79872721 8.9259284,6.82139099 C8.87355753,6.86783318 8.88470027,6.98783978 8.83232939,7.03465351 C8.78627274,7.07589417 8.77847282,7.1594901 8.74170178,7.21150535 L8.67893102,7.21744995 L8.60056042,7.31256354 L8.59498905,7.33671348 C8.57938921,7.34971729 8.56304653,7.36160649 8.54781812,7.37535338 C8.52181839,7.39950331 8.49247585,7.41993787 8.46276188,7.4400009 C8.42599084,7.4429732 8.3907055,7.44780319 8.36990572,7.46749467 C8.31864911,7.51579454 8.24027852,7.53585757 8.18939334,7.58415744 C8.17639348,7.59678972 8.16747929,7.61388044 8.16079364,7.63282885 C8.1496509,7.64211729 8.13665104,7.64991958 8.12625115,7.65995109 C8.08093734,7.70342097 8.06050899,7.77178387 8.04602343,7.8464629 C8.01110951,7.87581436 7.97582417,7.90479429 7.9431388,7.93711805 C7.92382472,7.95606646 7.90748204,7.97910178 7.89113935,8.00139403 C7.83133999,8.04003393 7.77748341,8.08053152 7.72585539,8.12288679 C7.66011323,8.12214371 7.58099978,8.10802529 7.54905726,8.14072059 C7.52677178,8.16338437 7.53977164,8.21985807 7.5557429,8.2796756 C7.5316003,8.30456862 7.50931482,8.33243393 7.48628649,8.35881309 L7.45062973,8.3242601 C7.43502989,8.35732694 7.41088729,8.38482071 7.37448768,8.40042529 C7.36557349,8.42903367 7.3551736,8.45727052 7.34737368,8.48625044 C7.33474524,8.48885121 7.32323108,8.49293812 7.31617401,8.50036887 C7.29463138,8.52303265 7.3009456,8.57133253 7.31023121,8.6226047 C7.30763124,8.63263621 7.30503127,8.64229619 7.3024313,8.65195616 C7.21180368,8.66644612 7.12600459,8.68539453 7.07623369,8.73889593 C7.0643481,8.75189974 7.05394821,8.7663897 7.04429117,8.7812512 C7.03091988,8.78348043 7.0190343,8.7871958 7.01197723,8.79536963 C6.96406345,8.8466418 6.91094973,8.89457014 6.86415022,8.94658538 C6.81660787,8.99897217 6.8322077,9.10783265 6.78577962,9.16021943 C6.73898012,9.21297776 6.73935154,9.30697674 6.69292346,9.35973506 C6.68326642,9.37088119 6.67583793,9.38462807 6.66915228,9.39837496 C6.61455286,9.45670634 6.55995344,9.51540927 6.50758257,9.57634141 C6.47526862,9.61423824 6.44889747,9.65770812 6.42438345,9.70192108 L6.41806923,9.70229262 C6.40506936,9.71120952 6.38946953,9.71864027 6.37498397,9.72644256 C6.37052687,9.73275869 6.36532693,9.73796022 6.36049841,9.74390482 C6.30924181,9.7546794 6.25352811,9.76173862 6.22715696,9.79369084 C6.18221458,9.84756377 6.06484439,9.84236225 6.02027344,9.89697826 C5.980531,9.94490659 6.04553031,10.0786601 6.02955905,10.1462799 C5.98424525,10.1659714 5.93893144,10.1852913 5.89844615,10.2086982 C5.85016095,10.2142713 5.8026186,10.2205874 5.78107597,10.2477096 C5.76584756,10.2674011 5.76547613,10.2982387 5.76919038,10.3327917 C5.73353361,10.3933523 5.71199098,10.4646875 5.69081978,10.5360227 C5.62396334,10.5430819 5.5389071,10.5360227 5.5103074,10.5731765 C5.46759357,10.6289071 5.46685072,10.7177046 5.42450831,10.7734352 C5.39628004,10.8109605 5.40593708,10.8767226 5.40407996,10.9335678 C5.34465201,10.9777808 5.28782404,11.0238514 5.24065311,11.0773528 C5.21502481,11.0870128 5.19199649,11.0985305 5.17825378,11.1167358 C5.13665422,11.1739526 5.02968392,11.1836126 4.98845578,11.2404578 C4.98102729,11.2508608 4.98065587,11.2664654 4.98288441,11.2835561 C4.91342801,11.3266545 4.84620015,11.3708674 4.80274346,11.4325427 C4.70654448,11.5692685 4.58137438,11.6896466 4.48740394,11.8282301 C4.44283299,11.8943638 4.43391879,11.9846474 4.4264903,12.075674 C4.40717622,12.0838479 4.39083354,12.0938794 4.3811765,12.1083693 C4.34254833,12.1670723 4.34774828,12.2551266 4.30949154,12.3142011 C4.27086338,12.3732756 4.25229215,12.4453538 4.21477826,12.5047998 C4.17689294,12.5638743 4.23334949,12.6827663 4.19620702,12.7422123 C4.19063565,12.7511292 4.18692141,12.7611607 4.18246431,12.7711922 C4.13566481,12.8250651 4.08589391,12.8763373 4.02349457,12.927238 C4.00455191,12.9428425 3.98523783,12.9603048 3.96592375,12.977024 C3.83852509,13.001917 3.7074122,13.0245808 3.66246982,13.0996313 C3.6305273,13.1535043 3.64315573,13.2326418 3.66692691,13.3188385 C3.54732818,13.5042357 3.42735802,13.705609 3.32150199,13.9077254 C3.26764542,13.9307607 3.22307446,13.958626 3.20078899,13.9994951 C3.12093269,14.1462524 3.06930466,14.3112151 2.99204834,14.4594585 C2.96642004,14.5081299 2.9537916,14.563489 2.94487741,14.6207058 C2.92407763,14.6359388 2.90476355,14.6519149 2.89436366,14.672721 C2.86242114,14.7351393 2.8453356,14.8064745 2.81376451,14.8692644 C2.80039322,14.8956435 2.81339309,14.935398 2.82973577,14.9766387 C2.73465106,15.0966453 2.59425255,15.2263119 2.54968159,15.36601 C2.53891028,15.3998199 2.53296748,15.4354875 2.52888181,15.4726412 C2.50325351,15.5265142 2.47651094,15.5803871 2.45162549,15.63426 C2.44085417,15.6576669 2.44716839,15.688876 2.4579397,15.7219429 C2.44011132,15.7654128 2.42302579,15.8092542 2.40408313,15.851981 C2.38068338,15.9036247 2.3825405,15.9664145 2.39182612,16.0325482 C2.36582639,16.0793619 2.33685527,16.125061 2.30676988,16.1700171 C2.26554174,16.1833924 2.2287707,16.1982539 2.21725654,16.2246331 C2.20945662,16.2428384 2.21391372,16.2662453 2.22245648,16.2915098 C2.1789998,16.3520704 2.13517169,16.411888 2.08428652,16.4668755 C1.95837356,16.6028582 1.97508767,16.6385258 1.93757378,16.8060893 C1.91714543,16.8982305 1.88928858,16.9896288 1.85920318,17.0802839 C1.80497519,17.1181807 1.75854711,17.1594214 1.7388616,17.2110651 C1.67906223,17.3667393 1.62371996,17.527615 1.56689199,17.6847754 C1.54312081,17.7509091 1.5338352,17.8226158 1.5264067,17.8950656 C1.50932117,17.9233025 1.49297849,17.9519108 1.4825786,17.9823769 C1.45955027,18.0485106 1.42129353,18.1109289 1.39900805,18.1774341 C1.37635115,18.2439393 1.48332145,18.3542859 1.46140739,18.4211627 C1.43949334,18.4880394 1.32212315,18.5240786 1.30058052,18.5909553 C1.27940932,18.6582036 1.32360885,18.746258 1.30280907,18.8135063 C1.28163787,18.8807545 1.16426768,18.9186514 1.14383932,18.9858997 C1.12378239,19.0531479 1.24969535,19.1646092 1.22963842,19.232229 C1.20995291,19.2994773 1.05841166,19.3292003 1.03909758,19.3968201 C1.01978349,19.4644399 1.0108693,19.5357751 0.991926646,19.6037665 C0.98264103,19.6383195 0.994155194,19.6791886 1.00492651,19.7196862 C0.921727389,19.841922 0.83852827,19.9652724 0.793957313,20.1187174 C0.769443286,20.2023134 0.74975778,20.2836801 0.731557973,20.3654183 C0.690701262,20.4304374 0.652815949,20.496571 0.63610184,20.5671632 C0.623844827,20.6206646 0.637587539,20.6808536 0.659501593,20.7421573 C0.653930223,20.7763388 0.648358853,20.8094056 0.642787484,20.8447017 C0.613073512,21.0323281 0.608616417,21.1831723 0.614559211,21.3667118 C0.61530206,21.393091 0.61047354,21.4168694 0.60490217,21.4406478 C0.582245267,21.4863469 0.562931186,21.5327891 0.553274145,21.581089 C0.5480742,21.6082112 0.548445625,21.6360765 0.551045597,21.6646849 C0.550302748,21.6669141 0.548445625,21.6695149 0.547702776,21.6721156 C0.545845652,21.6828902 0.5480742,21.6944079 0.54881705,21.7059255 C0.5480742,21.7081548 0.547702776,21.7111271 0.546959926,21.7137278 C0.567759706,21.849339 0.583730966,21.9362788 0.535445762,22.0600008 C0.514645983,22.1127591 0.489017682,22.1748058 0.47601782,22.2297934 C0.441475328,22.2483703 0.413247056,22.2684333 0.409161385,22.2922117 C0.406189987,22.310417 0.412132782,22.3304801 0.422161247,22.3509146 C0.347133469,22.4151906 0.277677062,22.4802097 0.265791473,22.5548887 C0.240534598,22.7198513 0.251305912,22.8937309 0.229020434,23.0594366 C0.216391996,23.1534356 0.293648321,23.2589522 0.359761907,23.3629827 C0.355304812,23.4294879 0.382790235,23.4997085 0.374990318,23.5658422 C0.371276071,23.5985375 0.378333139,23.6319758 0.386504481,23.6657858 L0.382047386,23.6683865 C0.382790235,23.6947657 0.379447413,23.7192872 0.376476016,23.7434371 C0.339704977,23.7947093 0.295876869,23.8452384 0.257620131,23.896139 C0.219734818,23.9191743 0.188535148,23.9433243 0.185935175,23.970075 C0.184449477,23.9830788 0.187792298,23.9960826 0.190392271,24.0094579 C0.182963778,24.0287779 0.177763833,24.0484694 0.17590671,24.0681608 C0.15993545,24.2346096 0.244991693,24.4103469 0.232363255,24.5775387 C0.222706215,24.7053476 0.168849642,24.8305558 0.139507095,24.9576216 C0.10867885,24.9791708 0.0841648237,25.0007199 0.0830505497,25.0241268 C0.0815648512,25.0453044 0.0975361107,25.0683397 0.11907874,25.0910035 C0.106450302,25.2518793 0.0492509074,25.4123835 0.0433081131,25.5736307 C0.0373653189,25.7404511 0.0343939218,25.9102437 0.0314225246,26.0778071 C0.0314225246,26.0807794 0.0325367986,26.0841232 0.0325367986,26.0874671 C0.318905197,24.5816256 1.09481127,23.4161126 2.26554174,22.5868409 C2.5964811,22.3524008 2.63808066,22.3880684 2.58942403,22.2015565 C1.98548756,19.881305 4.23780658,16.4594448 7.33808806,14.602872 C9.69552026,13.190658 13.4309379,11.197731 16.432049,11.1884425 C17.1377558,11.1862133 16.7689311,11.4184242 16.3217359,11.8531231 C15.8949689,12.2681305 15.5606868,12.7355246 15.4507451,12.8915704 C15.3337463,13.0572761 15.1498911,13.239701 15.6572572,13.0773391 C16.1018525,12.9350402 16.858073,12.7381254 17.770292,12.5638743 C18.9198512,12.3442956 19.6485864,12.3732756 20.1169528,12.4082001 C20.6763183,12.4494408 20.9834865,12.5638743 20.8323167,12.7061732 C20.6807754,12.8481005 20.4746348,12.9811109 20.3186364,13.1096629 C20.1674666,13.2344994 19.9865828,13.4221259 19.9152693,13.4938326 C19.8372701,13.5718555 19.808299,13.6405899 19.8877838,13.6457914 C19.9015265,13.6469061 20.0010683,13.6391038 20.1670952,13.6313015 C20.7751173,13.6023216 22.2760443,13.5737132 23.7060291,13.9805467 C25.9550053,14.6210773 26.8750242,15.5053365 27.2991911,15.8987947 C27.4700465,16.0574412 27.8310712,16.3490981 27.8878992,16.5894829 C27.9198417,16.7254656 27.8782421,16.8049746 27.5762739,16.8982305 C27.2891627,16.987028 26.8943383,17.0375571 26.8397388,17.0449879 C26.7769681,17.0535332 26.8482816,17.1876582 26.9010239,17.2608511 C27.6799014,18.3409106 28.7577757,19.5272298 29.088715,21.492663 C29.4675682,23.7423225 30.3355876,24.6470162 31.7819151,25.1582518 C32.80259,25.5190147 34.0126915,25.6070691 34.5014863,25.9470259 C35.0025382,26.295528 35.1043085,26.7937598 34.5107719,27.4952226 C33.8555789,28.2691351 33.6386669,28.1376109 34.1898611,28.8338721 C34.6192279,29.3763168 34.7091127,29.3469654 35.1433081,29.6300769 C35.3891912,29.7905811 35.3969911,30.0878111 35.3728485,30.2561176 C35.3490774,30.4244241 35.3241919,30.4898147 34.9230533,30.8316291 C34.3484594,31.3216871 33.6026387,31.7838797 33.4986398,31.8377526 C33.3612127,31.9090878 33.3779268,31.9945415 33.4273263,32.0030868 C33.4889828,32.0134899 33.6836093,32.0123753 33.7887224,32.0053161 C33.9231782,31.9967707 34.0030345,31.9815377 34.4312871,31.9685338 C34.8045688,31.9573877 35.0378235,32.0554736 35.2859352,32.416608 C35.5853034,32.85205 35.4690475,32.8977491 35.3501916,33.1927498 C34.9464531,34.1944149 35.168565,34.6057069 35.572675,35.2391783 C36.2282395,36.266851 36.85929,37.8299091 33.9785204,38.9170278 C30.601899,40.1914014 29.4827966,39.6222059 27.9978409,43.5746217 C26.7245972,46.962672 26.072747,48.3518506 27.8358997,48.7954663 C30.3534159,49.4278231 32.5325643,50.1668112 33.441069,50.5922216 C34.1906039,50.942953 34.5219147,51.2320091 34.7094841,51.4073748 L34.7109698,51.4070033 C34.7269411,51.3936279 34.7451409,51.3817387 34.7681692,51.3757941 C34.7874833,51.3479288 34.8168259,51.3286089 34.8543397,51.3193205 C34.8573111,51.3141189 34.860654,51.3085459 34.8636254,51.3040874 C34.8955679,51.2936844 34.927139,51.2825382 34.9590815,51.2721352 L34.9676243,51.2739929 L35.0177666,51.2632183 C35.0255665,51.255416 35.0352235,51.2502145 35.0437663,51.2427837 C35.0805373,51.230523 35.1176798,51.2182623 35.1544509,51.2052584 C35.1707935,51.1993138 35.1860219,51.1918831 35.2016218,51.1840808 C35.2558498,51.2097169 35.313792,51.2461276 35.3539059,51.2316376 C35.4200195,51.2071161 35.4586476,51.1086587 35.5243898,51.0837657 C35.590132,51.0592442 35.64176,50.9983121 35.7075021,50.9730475 C35.7732443,50.9481545 35.8557006,50.967846 35.9210713,50.9418384 C35.9868135,50.9162023 36.0317559,50.8407802 36.0967552,50.814401 C36.1294405,50.8013972 36.1714115,50.8114287 36.2130111,50.8210887 C36.2549821,50.8311202 36.2973245,50.8411517 36.3296384,50.8274048 C36.3582381,50.8158872 36.3801522,50.7883934 36.4013234,50.7594135 C36.4678084,50.7631288 36.5316934,50.7608996 36.5866643,50.7374928 C36.7408055,50.6717306 36.9202036,50.6620706 37.0728591,50.5937078 C37.1471441,50.5606409 37.1928293,50.4651558 37.2377717,50.3681845 C37.2504001,50.3652122 37.2630285,50.3622399 37.2749141,50.3570384 C37.3068566,50.3421769 37.3558847,50.3640976 37.4045413,50.3856468 C37.4535694,50.4075675 37.5025974,50.4294882 37.53454,50.4142551 C37.598425,50.3841606 37.6299961,50.2853316 37.6931383,50.2548656 C37.7202523,50.2418618 37.746252,50.2266287 37.7722517,50.2113957 C37.8699364,50.2515217 37.963164,50.2823593 38.0266776,50.2511502 C38.1763617,50.1768427 38.3004176,50.0445754 38.448616,49.9676671 C38.5971858,49.8903873 38.7097275,49.7421438 38.8564402,49.6626348 C38.9307252,49.6221372 38.9782675,49.5351975 39.0254385,49.4478862 C39.0896949,49.471293 39.1628656,49.5110475 39.2018652,49.4891268 C39.2631502,49.4545738 39.2531218,49.2944412 39.3140354,49.2595167 C39.3753205,49.2245921 39.4496054,49.2138175 39.510519,49.1785215 C39.5710613,49.1428539 39.660946,49.1569723 39.7211168,49.1209332 C39.781659,49.084894 39.8589154,49.0759771 39.9187147,49.0395665 C39.9788855,49.0027843 40.018628,48.9329352 40.0787987,48.896153 C40.1066556,48.8786907 40.1322839,48.8578846 40.1582836,48.8374501 C40.3042535,48.7757749 40.5352796,48.8456239 40.6656497,48.7612849 C40.8064196,48.6698867 40.8647333,48.4510511 41.0032747,48.3577952 C41.1421875,48.2637962 41.351671,48.2697408 41.4883553,48.1735126 C41.6001541,48.0947467 41.6528964,47.9312702 41.7416669,47.8198089 C41.7851235,47.805319 41.8308088,47.7938013 41.8657227,47.7681652 C41.8950652,47.7462445 41.9024937,47.6946008 41.9102936,47.6437002 C41.9437219,47.5976295 41.9738073,47.5474719 42.0057498,47.4991721 C42.0492065,47.4746506 42.0941488,47.4519868 42.1338913,47.4218923 C42.189605,47.3791655 42.2820897,47.384367 42.337432,47.3412686 C42.3931457,47.2981703 42.4035456,47.1974836 42.4588878,47.1540138 C42.4960303,47.1250338 42.5264871,47.0882516 42.5588011,47.0533271 C42.6943711,46.9652727 42.9380256,47.0109718 43.06171,46.908799 C43.1905944,46.8025393 43.2927362,46.6609835 43.419392,46.552123 C43.4829056,46.4978786 43.520048,46.4135396 43.5568191,46.3292005 C43.6236755,46.3526074 43.6894177,46.3756427 43.7154174,46.3526074 C43.7681597,46.3061652 43.7566455,46.1865302 43.8090164,46.1397164 C43.8550731,46.0981042 43.8632444,46.0145083 43.899644,45.9624931 L43.9624148,45.95692 L44.0407854,45.8614349 L44.0467282,45.8372849 C44.062328,45.8246526 44.0786707,45.8123919 44.0935277,45.798645 C44.1195274,45.7744951 44.14887,45.7540605 44.1789554,45.7339975 C44.215355,45.7313967 44.2506403,45.7265668 44.2718115,45.7068753 C44.3226967,45.6585754 44.4010673,45.6385124 44.4519525,45.589841 C44.4649523,45.5775802 44.4738665,45.560118 44.4805522,45.5411696 C44.4920663,45.5318811 44.5046948,45.5244504 44.5150947,45.5140473 C44.5604085,45.4705774 44.5812082,45.4022145 44.5956938,45.327907 C44.6306077,45.298184 44.6655216,45.2692041 44.698207,45.2372519 C44.7175211,45.2179319 44.7338638,45.1952682 44.7502065,45.1729759 C44.8100058,45.134336 44.8642338,45.0934669 44.9158618,45.0514832 C44.9812326,45.0522262 45.060346,45.0659731 45.0922885,45.0332778 C45.114574,45.0109856 45.1019456,44.9545119 45.0859743,44.8946943 C45.1097455,44.8694298 45.1324024,44.841936 45.1554307,44.8155569 L45.1769734,44.8363629 C45.1977731,44.8162999 45.2252586,44.8032961 45.2590582,44.7980946 C45.2709438,44.7613124 45.2843151,44.7249017 45.2943436,44.687748 C45.306972,44.6851472 45.3181147,44.6814318 45.3255432,44.6736295 C45.3467144,44.6513373 45.3404002,44.6026659 45.3311146,44.5513937 C45.3337146,44.5417337 45.336686,44.5317022 45.3389145,44.5220422 C45.4295421,44.5075523 45.5157126,44.4889754 45.5651121,44.435474 C45.5773691,44.4224702 45.5873976,44.4076087 45.5970546,44.3927472 C45.6107973,44.390518 45.6223115,44.3868026 45.62974,44.3790003 C45.6772824,44.3273566 45.7303961,44.2794283 45.777567,44.227413 C45.8247379,44.1753978 45.8091381,44.0661658 45.8559376,44.013779 C45.9027371,43.9613922 45.9019943,43.8673932 45.9484223,43.8142633 C45.9584508,43.8031172 45.9655079,43.7897419 45.9721935,43.7756234 C46.0267929,43.7172921 46.0813924,43.6589607 46.1337632,43.597657 C46.1664486,43.5597602 46.1928198,43.5166618 46.2169624,43.4720773 L46.223648,43.4720773 C46.2362764,43.4627889 46.2518763,43.4557297 46.2663618,43.4475558 C46.2708189,43.4416112 46.2763903,43.4364097 46.2808474,43.4304651 C46.332104,43.419319 46.3878177,43.4122598 46.4141888,43.3806791 C46.4595027,43.3268062 46.5765014,43.3316362 46.6210724,43.2773917 C46.6608148,43.2290918 46.5961869,43.0957099 46.6121582,43.02809 C46.6571006,43.0083985 46.7024144,42.9887071 46.7432711,42.9656717 C46.7911849,42.9597271 46.8387272,42.953411 46.8602698,42.9262888 C46.8754982,42.9069688 46.8758697,42.8757597 46.8725269,42.8415782 C46.9078122,42.7806461 46.9293548,42.7096824 46.9508975,42.6379757 C47.0177539,42.6309165 47.1028101,42.6379757 47.1310384,42.6008219 C47.1741237,42.5450913 47.1744951,42.4566654 47.2172089,42.4005632 C47.2450658,42.3634095 47.2354087,42.2976473 47.2372658,42.2408021 C47.2966938,42.1965891 47.3538932,42.150147 47.4006927,42.0966456 C47.426321,42.0869856 47.4493493,42.0758395 47.463092,42.0572626 C47.5046916,42.0004174 47.6120333,41.9907574 47.65289,41.9335406 C47.6603185,41.9231376 47.6606899,41.907533 47.6584614,41.8904423 C47.7282892,41.8477155 47.7955171,41.803131 47.8386023,41.7414557 C47.9351727,41.6051015 48.0603429,41.4843518 48.1539419,41.3457683 C48.1985128,41.2800062 48.2077984,41.1897226 48.2148555,41.0983244 C48.234541,41.0905221 48.2505123,41.080119 48.2601693,41.0660006 C48.2987975,41.0072977 48.293969,40.9188718 48.3322257,40.8597973 C48.3704824,40.8007228 48.3890537,40.7286446 48.426939,40.6691986 C48.4644529,40.6101241 48.4079963,40.4912321 48.4455102,40.4317861 C48.4510816,40.4228692 48.4547958,40.4128377 48.4588815,40.4028062 C48.5060524,40.3489333 48.5558233,40.2976611 48.6178512,40.247132 C48.6371653,40.2315274 48.656108,40.2140652 48.6754221,40.197346 C48.8031921,40.172453 48.934305,40.1494176 48.978876,40.0743671 C49.0108185,40.0208657 48.9985615,39.9413566 48.9747903,39.8551599 C49.0940176,39.6701343 49.2139878,39.468761 49.3202152,39.266273 C49.3737004,39.2432377 49.4186428,39.2153724 49.4405568,39.1748748 C49.5204131,39.0281175 49.5720411,38.8627833 49.6496689,38.7145399 C49.6749258,38.66624 49.6875542,38.6108809 49.6964684,38.5536641 C49.7176396,38.5384311 49.7369537,38.522455 49.7473536,38.5016489 C49.7792961,38.4388591 49.7963816,38.3678954 49.8275813,38.3051056 C49.8409526,38.2783549 49.8283241,38.2389719 49.81161,38.1973597 C49.9066947,38.0777246 50.0470933,37.9476865 50.0920356,37.8079884 C50.1024355,37.7745501 50.1083783,37.7388825 50.112464,37.7013572 C50.1384637,37.6478558 50.1652063,37.5939828 50.1897203,37.5397384 C50.2008631,37.5163315 50.1945488,37.4851224 50.1834061,37.4520555 C50.2016059,37.4085856 50.21832,37.3647442 50.2376341,37.3220174 C50.2610339,37.2703737 50.2588053,37.2075839 50.2498911,37.1418217 C50.2758908,37.0946365 50.304862,37.0489374 50.3345759,37.0043529 C50.3758041,36.9909775 50.4129465,36.9757445 50.4240893,36.9493653 C50.4318892,36.93116 50.4278035,36.9077531 50.4192607,36.8828601 C50.462346,36.8222995 50.5065455,36.762482 50.5574307,36.7074944 C50.6829722,36.5715117 50.6662581,36.5354726 50.703772,36.3679092 C50.7245718,36.2757679 50.7520572,36.1847412 50.782514,36.0937145 C50.836742,36.0558177 50.8827987,36.014577 50.9028556,35.9633048 C50.9622836,35.8072591 51.0176258,35.6463834 51.0744538,35.489223 C51.098225,35.4230893 51.1075106,35.3513826 51.1153105,35.2789328 C51.1320246,35.2506959 51.1483673,35.2224591 51.1587672,35.191993 C51.182167,35.1254878 51.2200523,35.0634411 51.2427092,34.9965643 C51.2649947,34.9300591 51.1580244,34.8197125 51.1799384,34.7528357 C51.2022239,34.685959 51.3192227,34.6499198 51.3407653,34.5830431 C51.3619365,34.5157948 51.3181084,34.4277404 51.3389082,34.3608637 C51.3597079,34.2936154 51.4770781,34.255347 51.4975065,34.1880988 C51.5179348,34.1208505 51.3920219,34.0093892 51.4117074,33.9421409 C51.4317643,33.8745211 51.5833056,33.8451697 51.6022482,33.7771783 C51.6215623,33.7095585 51.6304765,33.6382233 51.6494192,33.5706035 C51.6590762,33.5356789 51.647562,33.4951813 51.6364193,33.4546838 C51.7196184,33.3324479 51.803189,33.2090975 51.8477599,33.0556525 C51.8719025,32.971685 51.891588,32.8903183 51.9097878,32.8085801 C51.9506445,32.743561 51.9885299,32.6774274 52.005244,32.6068352 C52.0178724,32.5533338 52.0037583,32.4935163 51.9818442,32.4318411 C51.9874156,32.3976596 51.992987,32.3649643 51.9989297,32.3296683 C52.0286437,32.1420418 52.0327294,31.9911976 52.027158,31.8072866 C52.0260437,31.7809074 52.0308723,31.757129 52.0368151,31.7337222 C52.059472,31.688023 52.078786,31.6415809 52.0880717,31.5929094 C52.0932716,31.5661587 52.0929002,31.5382934 52.0906716,31.5096851 C52.0914145,31.5070843 52.0932716,31.5044835 52.093643,31.5018828 C52.0958716,31.4911082 52.093643,31.4795905 52.0925288,31.4684444 C52.093643,31.4658436 52.093643,31.4628713 52.0947573,31.4602706 C52.0735861,31.3250309 52.0576148,31.2377196 52.1062715,31.1143692 C52.1266998,31.0612393 52.1523281,30.9991926 52.1656994,30.944205 C52.2002419,30.9256281 52.2284702,30.9059366 52.2321844,30.8817867 C52.2355272,30.8635814 52.229213,30.8435183 52.2191846,30.8234553 C52.2945838,30.7591793 52.3640402,30.6941603 52.3755543,30.6194812 C52.4011826,30.4541471 52.3904113,30.2802675 52.4126968,30.1145618 C52.4253252,30.0205628 52.3480689,29.9154177 52.2815839,29.8113872 C52.286041,29.744882 52.258927,29.6742899 52.2663555,29.6081562 C52.2704412,29.5758325 52.2630127,29.5420226 52.2552127,29.5085842 L52.2596698,29.5059834 C52.2585556,29.4792327 52.2618984,29.4547112 52.2648698,29.4305613 C52.3016408,29.3792891 52.3454689,29.3291316 52.3837257,29.2778594 C52.421611,29.2548241 52.4528107,29.2310457 52.4557821,29.2039234 C52.4568963,29.1912912 52.4539249,29.1779158 52.451325,29.1645405 C52.458382,29.1452205 52.4639534,29.1259006 52.4658105,29.1058376 C52.4814104,28.9397603 52.3963541,28.7636515 52.4089826,28.5968312 C52.419011,28.4690223 52.4728676,28.3434426 52.5018387,28.2163768 C52.5330384,28.1951992 52.557181,28.17365 52.5586667,28.1502432 C52.5601524,28.128694 52.5438097,28.1060302 52.5222671,28.0829949 C52.5348955,27.9224907 52.5920949,27.7616149 52.5980377,27.6003677 C52.6043519,27.4335474 52.6069519,27.2637547 52.6102947,27.0961913 C52.6125233,26.9799001 52.5315527,26.8621227 52.4817818,26.7447169 C52.500353,26.7190808 52.51521,26.6934447 52.51521,26.6678086 C52.5155814,26.597588 52.5542096,26.5269959 52.5538382,26.4567753 C52.5538382,26.4370838 52.539724,26.4181354 52.5200385,26.3988155 C52.5872664,26.294785 52.6741797,26.1903829 52.6719512,26.0870955 C52.6700941,25.9968119 52.6147518,25.9072714 52.5631238,25.8181024 C52.5594095,25.7489964 52.5103815,25.6810051 52.5077815,25.6118991 C52.5074101,25.6018676 52.5036958,25.5918361 52.4984959,25.581433 C52.4988673,25.566943 52.4984959,25.55171 52.4958959,25.5349908 C52.4914388,25.5074971 52.4903245,25.4852048 52.490696,25.4643987 C52.5226385,25.3365898 52.5920949,25.2061802 52.5846664,25.0802289 C52.5802093,24.9992338 52.5516096,24.9197248 52.5218956,24.8394727 C52.5419526,24.8130935 52.5575524,24.7867143 52.5556953,24.7614498 C52.5508668,24.6916007 52.4520678,24.6276963 52.4464964,24.5574757 C52.4409251,24.4876267 52.5122386,24.4103469 52.5062958,24.3401263 C52.5010959,24.2795657 52.4238395,24.2253212 52.3989541,24.1666183 C52.4008112,24.0811647 52.4063826,23.995711 52.4156682,23.9061705 C52.397097,23.8158869 52.3788972,23.7256033 52.3610688,23.6353197 C52.3629259,23.6178574 52.3644116,23.6003952 52.3625545,23.583676 C52.362183,23.5807037 52.3625545,23.5781029 52.362183,23.5751306 C52.3788972,23.5494945 52.3911542,23.52423 52.3885542,23.5004516 C52.3859542,23.4792739 52.3807543,23.4584678 52.3748115,23.4380333 C52.4030398,23.3131967 52.4624677,23.1839016 52.4464964,23.0650097 C52.4360965,22.989216 52.3439832,22.9253116 52.24407,22.8625217 C52.2392415,22.8090203 52.2332987,22.7551474 52.2303273,22.7009029 C52.2306987,22.6897568 52.2321844,22.6782391 52.2306987,22.6674645 C52.2306987,22.6674645 52.229213,22.6644922 52.2288416,22.6633776 C52.2228988,22.5262803 52.2214131,22.3914122 52.2199274,22.2580302 C52.2128703,22.2301649 52.2028419,22.2008135 52.1935563,22.1718335 C52.2043276,22.1402529 52.2110132,22.1097868 52.2058133,22.0808069 C52.1987562,22.0391947 52.1720136,22.0012978 52.1359854,21.9652587 C52.1229856,21.9020973 52.1133285,21.8378214 52.1036715,21.7668577 C52.1010715,21.7482808 52.0984716,21.7297039 52.0958716,21.7111271 C52.1062715,21.6780602 52.1155571,21.6449934 52.1096143,21.6148989 C52.1062715,21.5966935 52.0932716,21.5807174 52.0758146,21.5651128 C52.0591005,21.4443632 52.0427579,21.3236135 52.027158,21.2028638 C52.0457293,21.1608801 52.0561291,21.1211256 52.0487006,21.0843433 C52.0137867,20.9204953 51.987787,20.7521888 51.9502731,20.5894554 C51.9123878,20.4263505 51.741161,20.2940831 51.7003043,20.1320928 C51.6694761,20.0098569 51.5833056,19.9028542 51.5235062,19.7887921 C51.5205348,19.7204292 51.6360479,19.6201141 51.6182195,19.5558381 C51.5996483,19.4878468 51.4510784,19.4562661 51.4317643,19.3886463 C51.4124502,19.3210265 51.4109645,19.2485766 51.3909076,19.1813284 C51.3712221,19.1137085 51.3288797,19.0535195 51.3084513,18.9858997 C51.288023,18.9186514 51.3901648,18.8138778 51.369365,18.7466295 C51.3485652,18.6793812 51.3626793,18.6002437 51.3411367,18.533367 C51.3207084,18.4687195 51.1847669,18.4408542 51.1557958,18.3788074 C51.1643386,18.3163891 51.16731,18.255457 51.1491102,18.2012125 C51.095625,18.0421944 51.1814241,17.8333904 51.125339,17.67623 C51.1052821,17.6201279 51.0517969,17.5759149 50.9890261,17.5354173 L50.9890261,17.5346743 C50.9648835,17.4685406 50.9448266,17.4001777 50.9199412,17.334044 C50.9087984,17.3039495 50.8593989,17.2876018 50.8070281,17.2731119 C50.7969996,17.235215 50.7862283,17.1984328 50.7732284,17.1627652 C50.7542858,17.1118646 50.7320003,17.0613355 50.708972,17.0104349 C50.728286,16.9175505 50.7450002,16.8257807 50.7156576,16.7522163 C50.6859436,16.6775373 50.6042302,16.624779 50.5202883,16.5727637 C50.4556604,16.4170895 50.3865754,16.2666168 50.317119,16.1172588 C50.3230618,16.0938519 50.3286331,16.0708166 50.3345759,16.0474097 C50.3490615,16.0173152 50.3576043,15.9898214 50.3501758,15.9693868 C50.3594614,15.9129131 50.3605757,15.8597833 50.3412616,15.8155703 C50.2729194,15.6628684 50.124721,15.544348 50.0537789,15.3935037 C50.0400362,15.3648954 50.0196078,15.3392593 49.9965795,15.3147378 C49.9947224,15.2764694 49.9928653,15.2378295 49.9776369,15.2055058 C49.9468086,15.1419729 49.9018662,15.0851276 49.871038,15.0219663 C49.8402097,14.9588049 49.7458679,14.9268527 49.7142968,14.8640628 C49.7053826,14.8466006 49.6986969,14.8287668 49.690897,14.8105614 C49.6905256,14.8072176 49.6890399,14.8046168 49.6882971,14.801273 C49.6790114,14.7470285 49.656726,14.712104 49.6359262,14.671978 C49.6325834,14.6091881 49.6240406,14.5486275 49.597298,14.4973553 C49.5204131,14.3487404 49.5556985,14.1384501 49.4758422,13.9916928 C49.4290427,13.9051246 49.2756443,13.8772593 49.1408171,13.839734 C49.0843606,13.7412766 49.0353325,13.6387322 48.9907616,13.5387886 C48.9807331,13.5164964 48.969219,13.4945757 48.9580762,13.472655 C48.966619,13.4276989 48.9740475,13.383486 48.9569619,13.353763 C48.9213052,13.2928308 48.8919626,13.2281833 48.8559344,13.1676227 C48.8199062,13.1070621 48.7797924,13.0487307 48.7433928,12.9889132 C48.7069932,12.9287241 48.7155359,12.8402982 48.6783935,12.7804806 C48.6416224,12.7202916 48.5866516,12.6712486 48.5491377,12.6114311 C48.535395,12.5891388 48.4997382,12.5802219 48.4592529,12.5750204 C48.4232247,12.5088867 48.3600825,12.4591007 48.303626,12.4044847 C48.3277686,12.3428095 48.3563683,12.278162 48.3351971,12.2458382 C48.3207115,12.223546 48.2813405,12.2176014 48.2360267,12.2153721 C48.2211697,12.0823617 48.2415981,11.9255729 48.1754845,11.8271155 C48.0993424,11.7149112 47.9778866,11.6320583 47.8824305,11.5321147 C47.882059,11.5313716 47.882059,11.530257 47.8816876,11.5298855 C47.8798305,11.5269132 47.8764877,11.5250555 47.8742591,11.5224547 C47.8553165,11.5020202 47.8352595,11.4819572 47.8196597,11.4596649 C47.8114883,11.4481472 47.8022027,11.4377442 47.79366,11.4262265 C47.7769459,11.4017051 47.7617174,11.3775551 47.7531747,11.3578636 C47.7312606,11.3080776 47.7427748,11.2467739 47.7238321,11.2007033 C47.6521472,11.0257091 47.4649492,10.910161 47.3847214,10.7333091 C47.3163793,10.583208 47.2246374,10.4405376 47.1444097,10.3015826 C47.1410669,10.2967526 47.140324,10.2922941 47.137724,10.2878357 C47.1098672,10.2651719 47.0823818,10.241022 47.0552678,10.2135282 C47.0411536,10.1994098 47.0314966,10.1852913 47.0207253,10.1682006 C47.0080968,10.1485091 46.9984398,10.1284461 46.9884113,10.1080115 C46.9222978,10.0641701 46.8632412,10.0273879 46.7997276,9.96013963 C46.7139285,9.86948449 46.6121582,9.81895539 46.5126164,9.74539097 C46.4056461,9.66551041 46.3558752,9.55404916 46.2797331,9.45039021 C46.1504773,9.2739099 45.9863077,9.08739809 45.8113667,8.95513074 C45.6694824,8.84775641 45.553598,8.75858742 45.4351135,8.62334777 C45.3370574,8.51114346 45.2026017,8.43534981 45.1621164,8.28413405 C45.1450308,8.22171576 45.146888,8.1804751 45.1372309,8.13923444 C45.0525461,8.09910839 44.9812326,8.03111703 44.939633,7.93303114 C44.8735194,7.896992 44.8022059,7.86689746 44.734978,7.83197294 C44.7334923,7.82900064 44.7327495,7.82491373 44.7305209,7.8226845 C44.6970927,7.78998921 44.6506646,7.77066926 44.6083222,7.7472624 C44.5964367,7.73648781 44.5830654,7.72794245 44.572294,7.71605325 C44.5225231,7.66218031 44.5013519,7.6164812 44.4482382,7.57263978 C44.3572392,7.49833228 44.2476689,7.4459455 44.1592698,7.36309264 C44.1540699,7.35789112 44.14887,7.35268959 44.14367,7.3478596 C44.1481271,7.29695897 44.1503557,7.24903063 44.1273273,7.227853 C44.0753279,7.17992466 43.9884145,7.17026469 43.9360436,7.12307943 C43.9167296,7.10524563 43.8937012,7.09075567 43.8706729,7.0762657 C43.8171878,7.02276431 43.7625883,6.97186367 43.7068746,6.9235638 C43.6270183,6.80950179 43.5787331,6.65754296 43.4765914,6.56948858 C43.3495641,6.4606281 43.2021085,6.3714591 43.0732242,6.26519938 C43.0052535,6.20872569 42.891969,6.20872569 42.7805416,6.20575339 C42.7523133,6.18457575 42.7244565,6.16339811 42.6962282,6.1414774 C42.6843426,6.09800752 42.6728284,6.0541661 42.6442287,6.03150231 C42.6219433,6.01366851 42.5840579,6.01626927 42.5432012,6.02221387 C42.52723,6.00995314 42.5105159,5.99657779 42.4952875,5.98506012 C42.4210025,5.92858643 42.3456033,5.87397042 42.2702041,5.81972594 C42.2163476,5.77588452 42.1996334,5.68300015 42.1442912,5.64101642 C42.0882061,5.59866114 42.0328638,5.55481972 41.9764072,5.51283599 C41.9745501,5.51134984 41.9723216,5.51060676 41.9704644,5.50949215 C41.948179,5.44038618 41.9203221,5.37908249 41.8727798,5.34415797 C41.7379526,5.245329 41.6023826,5.14278465 41.4653269,5.04655645 C41.4300416,5.02166344 41.3862135,5.00903116 41.3379283,5.00234349 C41.334214,4.99045429 41.3286427,4.98042278 41.3204713,4.97484971 C41.2629005,4.93435213 41.1967869,4.90500067 41.1388447,4.86524616 C41.1095021,4.84518313 41.0615883,4.85298542 41.0136746,4.86115924 C40.9657608,4.86896153 40.9182184,4.87676382 40.8888759,4.85707233 C40.8305622,4.8180609 40.7644486,4.7913102 40.7057635,4.75229876 C40.6470784,4.71365886 40.6667639,4.55501236 40.6077074,4.516744 C40.5609079,4.48664946 40.4491091,4.5583562 40.3744528,4.57136001 C40.3647957,4.56615848 40.3555101,4.56021389 40.3458531,4.55464082 C40.3016535,4.43537729 40.2682253,4.29976611 40.1820548,4.24626471 C40.1319125,4.21505557 40.0646846,4.21134019 39.9926282,4.21505557 C39.9569715,4.16824184 39.9343146,4.09950741 39.8875151,4.07089902 C39.8574297,4.05306522 39.8095159,4.06421135 39.7616021,4.07535747 C39.7140597,4.0865036 39.666146,4.09764972 39.6360606,4.07981592 C39.584804,4.04934985 39.5465472,3.99621999 39.4990049,3.9586947 C39.4652052,3.83645887 39.4351198,3.70753537 39.3563778,3.66220779 C39.2126365,3.58046955 38.9879246,3.63991555 38.8408404,3.56337882 C38.8204121,3.52585354 38.8003551,3.48832825 38.768784,3.47123753 C38.7067561,3.43779916 38.638414,3.41587844 38.5763861,3.38281161 C38.5507578,3.36943626 38.5184438,3.36943626 38.485387,3.37092241 C38.4549302,3.3549463 38.4252162,3.33785557 38.3951308,3.322251 C38.246561,3.24459967 38.1150767,3.13276688 37.9653925,3.05808785 C37.881822,3.01684719 37.7778231,3.01833334 37.6756813,3.01536104 C37.6537673,2.99492648 37.6318532,2.97597807 37.6062249,2.96334579 C37.5427113,2.93325126 37.4535694,2.95777273 37.3900558,2.92767819 C37.3889415,2.92693512 37.3881986,2.92582051 37.3870844,2.92507743 C37.3711131,2.90612902 37.3562561,2.88383677 37.3428848,2.8593153 C37.3209708,2.80172699 37.3064852,2.7285341 37.2693428,2.70438417 C37.228486,2.61224287 37.1854008,2.52567464 37.1166872,2.49483703 C36.9644031,2.4261026 36.7794337,2.4231303 36.6260353,2.35699662 C36.4718941,2.29160603 36.3322384,2.1842317 36.1773543,2.12144186 C36.0224702,2.05865203 35.8727861,1.97282687 35.7164163,1.91300933 C35.6053604,1.87028252 35.4549334,1.93121467 35.3204777,1.94979155 C35.3126777,1.94161772 35.304135,1.93493005 35.2948494,1.93158621 C35.2707068,1.92266931 35.2395071,1.93381543 35.2064503,1.94979155 C35.1934504,1.94756232 35.1804506,1.94644771 35.168565,1.9423608 C35.0114524,1.88551556 34.9052249,1.67819765 34.746998,1.62469625 C34.6389135,1.58791404 34.5137433,1.60017478 34.3941446,1.59534479 C34.370002,1.56710794 34.3451166,1.53961417 34.3150312,1.52995419 C34.2697174,1.51546423 34.2143751,1.53144034 34.1627471,1.5370134 C34.0383198,1.46010515 33.9354352,1.30963247 33.8002366,1.26950642 C33.6613238,1.22826576 33.4700401,1.36424848 33.3166417,1.37205076 C33.3017847,1.3575608 33.2865563,1.34641468 33.2690994,1.34158469 C33.2479282,1.33564009 33.2245284,1.33898393 33.2003858,1.34418545 C33.0655587,1.26876334 32.9649026,1.06144543 32.820047,1.02429168 C32.6581058,0.982679483 32.4887362,0.958901084 32.3256808,0.920632724 C32.2432245,0.901312775 32.1529683,0.915431199 32.0627121,0.929921161 C31.9743131,0.944039585 31.885914,0.957786472 31.8053149,0.94032421 C31.7265728,0.923233486 31.6385452,0.951470334 31.5505176,0.981193333 C31.5107751,0.942553435 31.4740041,0.890909725 31.4283189,0.881621288 C31.3592339,0.867874401 31.3031487,0.787622305 31.2340638,0.774618494 C31.1724073,0.762729294 31.1010937,0.802483805 31.0372087,0.802855342 C30.9759236,0.721860171 30.9138957,0.6468096 30.8399822,0.633805788 C30.7779543,0.623031201 30.7122121,0.634920401 30.6457271,0.652382662 C30.6353272,0.6468096 30.6245559,0.640493463 30.6134132,0.638264238 C30.587042,0.634177326 30.5562138,0.65721265 30.5246427,0.686564111 C30.4533292,0.70588406 30.3835013,0.720745559 30.3177592,0.710342509 C30.1528466,0.685077961 29.9994483,0.573245179 29.8334214,0.55095293 C29.7732507,0.542779106 29.709737,0.560984442 29.6451092,0.585877453 C29.6191094,0.550209855 29.5927383,0.518629169 29.5630243,0.514913795 C29.4931965,0.505996895 29.4211401,0.511569957 29.3513123,0.503396133 C29.3163983,0.49930922 29.2796273,0.508969195 29.2428563,0.518629169 C29.2068281,0.527917606 29.1704285,0.537577581 29.135886,0.533490669 C29.1006006,0.530146831 29.064201,0.536834506 29.0278014,0.543522181 C28.9921446,0.550209855 28.9564879,0.55689753 28.9219454,0.553182155 C28.8521175,0.54649448 28.7830326,0.530889906 28.7132047,0.524202232 C28.6430055,0.517886094 28.5835775,0.388591051 28.5133783,0.382646451 C28.4435504,0.376701852 28.3726083,0.373358014 28.3024091,0.36815649 C28.2366669,0.363326502 28.1586677,0.527546069 28.0914399,0.543893718 C28.0825257,0.543150643 28.0736115,0.542779106 28.0646973,0.541664493 C28.0008123,0.514542257 27.9458414,0.338805029 27.8804707,0.334718116 C27.8102714,0.330631204 27.740815,0.291991306 27.6706158,0.288275931 C27.634959,0.286418244 27.5989308,0.288647469 27.5629026,0.290505156 C27.5279887,0.292362844 27.4927034,0.294220531 27.4581609,0.292734381 C27.4410753,0.291991306 27.4228755,0.303508968 27.4050471,0.321714305 C27.3801617,0.313168943 27.3552762,0.306852805 27.3303908,0.30610973 C27.2494202,0.303137431 27.1677068,0.328401979 27.0852505,0.355152678 C27.068165,0.340662716 27.0510795,0.330631204 27.0336225,0.330259667 C26.9946229,0.329145054 26.9552519,0.367413415 26.9155095,0.401594863 C26.8854241,0.407167925 26.8549672,0.411626375 26.8248819,0.4108833 C26.7695396,0.409768688 26.7141973,0.426859412 26.658855,0.44915166 C26.6421409,0.448780123 26.6257982,0.447665511 26.6094556,0.447665511 C26.5392563,0.446922436 26.4694285,0.333603504 26.3992292,0.333603504 C26.3487155,0.333231966 26.2985731,0.422772499 26.2480594,0.473301597 C26.2042313,0.46401316 26.1604032,0.454353185 26.1158322,0.445064748 C26.1124894,0.442092448 26.1091466,0.438748611 26.1058037,0.435776311 C26.0627185,0.374472627 26.0188904,0.296449756 25.9761765,0.297192831 C25.9683766,0.297192831 25.9609481,0.299422056 25.9531482,0.302022818 C25.9093201,0.270070595 25.865492,0.248149883 25.8216639,0.248149883 L25.8194353,0.248149883 M40.8740189,19.6725009 C40.8205338,19.083614 40.6229358,17.1152084 40.2622825,15.6442915 C40.242597,15.564411 40.173512,15.5064511 40.0917986,15.4979058 C38.5143582,15.3355439 37.1932007,15.316967 36.7218628,15.316224 C36.6687491,15.316224 36.6498065,15.2467464 36.6947488,15.2185096 C37.2288575,14.8833828 38.970839,13.7776872 39.5751469,13.2434163 C39.6264035,13.1980888 39.648689,13.1297259 39.6330892,13.0632207 C39.3129211,11.7130535 38.4270734,10.0307318 38.1511049,9.52544078 C38.125848,9.47974167 38.1756189,9.42958411 38.222047,9.45373404 C38.6514138,9.67739961 39.9213147,10.3762616 41.3264141,11.5038779 C41.393642,11.5577508 41.4909552,11.5532923 41.551126,11.4908741 C41.9834643,11.0413137 42.470402,10.5062997 42.9896537,9.78551701 C43.0178819,9.74650558 43.079167,9.75988093 43.0854812,9.80780926 C43.1449092,10.271488 43.3633068,11.6030784 43.2425938,13.1527612 C43.2373939,13.2174087 43.2607936,13.2820562 43.305736,13.3284984 C44.9244046,15.009334 45.6887965,16.283336 45.90348,16.6708496 C45.9272511,16.7135764 45.8852802,16.7622478 45.8392235,16.7455286 C45.467056,16.6121467 44.3226967,16.2231469 42.763456,15.9021386 C42.6958568,15.8883917 42.6286289,15.9277746 42.6048577,15.9924222 C41.6339537,18.6269944 41.149616,19.4098239 40.9728179,19.6929355 C40.9613037,19.7115124 40.9445896,19.7208008 40.9271326,19.7208008 C40.9018757,19.7208008 40.8769903,19.7033385 40.8740189,19.6725009 M25.2240417,22.6336546 C24.9595873,23.0412313 24.593734,23.7423225 24.4496213,24.460876 C24.3601079,24.9093217 24.325194,25.1641964 24.3385653,25.3886051 C24.3437653,25.4774025 24.4043075,25.5257024 24.4592783,25.4153558 C24.5283633,25.2775153 24.584077,25.1341019 24.6724761,24.961337 C24.8704454,24.5734518 25.1345283,24.0975123 25.5598095,23.4855901 C26.3364585,22.3683769 26.9192237,22.0369654 27.2724485,21.8578844 C27.6033879,21.690321 27.8841849,21.7397355 28.0505832,21.9158442 C28.2169814,22.0923245 28.2218099,21.9154727 28.2292384,21.8374498 C28.2470668,21.6587403 28.2470668,21.5584252 28.2147529,21.3158112 C28.144925,20.7867418 27.743415,20.7800541 27.598188,20.7982595 C27.5164745,20.8086625 27.1899923,20.927183 27.0183941,21.0089212 C26.6027699,21.2076938 25.7124651,21.8809197 25.2240417,22.6336546 M28.1100111,22.879984 C28.0743543,22.9126793 27.9239274,23.0612943 27.8240141,23.1266849 C27.7482435,23.1760994 27.6888156,23.2169685 27.3924187,23.351465 C26.9611947,23.5476368 26.7264543,23.9552135 26.5125137,24.5708511 C26.3197443,25.1248134 26.1826886,25.6171006 26.1429462,25.8199601 C26.1206607,25.9343936 26.2517736,25.889066 26.3576297,25.8712322 C26.4638571,25.8530269 26.8378817,25.7898655 27.2598201,25.6668866 C27.5811024,25.5732592 27.7211295,25.5152993 28.0877256,25.3276729 C28.3187518,25.209524 28.5858061,25.0174391 28.7005763,24.9271555 C28.7470044,24.8903733 28.7184047,24.8353857 28.6838622,24.8171804 C28.6344627,24.7911728 28.5304638,24.782999 28.4769787,24.7659082 C28.4231221,24.7488175 28.3763226,24.7313553 28.3677798,24.66485 C28.3532943,24.5489303 28.3180089,24.3386401 28.2296098,24.1264922 C28.1386108,23.9072851 27.9892981,23.7787332 27.9142703,23.7125995 C27.8871563,23.6888211 27.8893849,23.6550112 27.9127846,23.6208297 C27.935813,23.5866483 28.1092683,23.2909044 28.1709248,23.0505197 C28.2047244,22.9197385 28.204353,22.8822132 28.1839246,22.8680948 L28.1835532,22.8680948 C28.1761247,22.8636363 28.1560678,22.8380003 28.1100111,22.879984 M0.421418398,30.9159682 C0.428475466,30.944205 0.438503931,30.9731849 0.447789547,31.0021649 C0.437389657,31.0337455 0.430704014,31.0642116 0.435532534,31.0931915 C0.442961027,31.1348037 0.469332176,31.1727006 0.505360367,31.2087397 C0.518360229,31.2719011 0.528388694,31.336177 0.538045735,31.4075122 C0.540274283,31.4257176 0.542874255,31.4442945 0.545474228,31.4628713 C0.535074338,31.4959382 0.526160146,31.529005 0.531731516,31.5590995 C0.535074338,31.5773049 0.548445625,31.5936525 0.565902583,31.6088856 C0.582616692,31.7296352 0.598959376,31.8507565 0.614187786,31.9715061 C0.595616554,32.0131183 0.585216664,32.0532444 0.593016582,32.0896551 C0.627930498,32.2535031 0.653558798,32.4218096 0.691444112,32.584543 C0.729329425,32.7476479 0.900556185,32.8799153 0.94104147,33.0419056 C0.971869716,33.1641415 1.05841166,33.2711442 1.11821102,33.3852063 C1.12118242,33.4535692 1.00529793,33.5542558 1.02312632,33.6181603 C1.04206897,33.6861516 1.1902674,33.7177323 1.20958149,33.7853521 C1.22889557,33.8529719 1.23075269,33.9254218 1.2504382,33.9930416 C1.27049513,34.0602899 1.31246611,34.1208505 1.33326589,34.1880988 C1.35332282,34.255347 1.25155247,34.3601206 1.27235225,34.4273689 C1.29315203,34.4949887 1.27866647,34.5737547 1.3002091,34.6406314 C1.32100888,34.7056505 1.45657887,34.7331442 1.48554999,34.795191 C1.47700723,34.8579808 1.47440725,34.918913 1.49260706,34.9731574 C1.54572079,35.131804 1.45992169,35.340608 1.51600681,35.4977684 C1.53643517,35.5542421 1.58992032,35.5980835 1.65231966,35.6389526 L1.65231966,35.6396957 C1.67646226,35.7058294 1.69689061,35.7741923 1.72140464,35.8399544 C1.73254738,35.8704205 1.78231828,35.8863966 1.83431773,35.9008865 C1.8443462,35.9387834 1.85511751,35.9759371 1.8684888,36.0116047 C1.88743146,36.0621338 1.90934551,36.1126629 1.93237384,36.1639351 C1.91305976,36.2564479 1.89634565,36.3482177 1.92605962,36.4217821 C1.95577359,36.4964611 2.03748701,36.549591 2.12105755,36.6016062 C2.18568544,36.7569089 2.25477043,36.9077531 2.32422683,37.0567396 C2.31828404,37.0801465 2.31271267,37.1031818 2.30676988,37.1265887 C2.29265574,37.1566832 2.28411297,37.184177 2.29117004,37.2049831 C2.28225585,37.2614568 2.28077015,37.3145867 2.30045566,37.3584281 C2.36879779,37.5115015 2.5166248,37.6296504 2.58793833,37.7808662 C2.60130962,37.8094746 2.6221094,37.8351107 2.6447663,37.8592606 C2.64699485,37.8979005 2.64848055,37.9365404 2.66408038,37.9688642 C2.6945372,38.0320255 2.73947958,38.0888708 2.77067925,38.1520321 C2.8015075,38.2151935 2.89584936,38.2471457 2.92704903,38.3103071 C2.93596322,38.3273978 2.94264886,38.3456032 2.95044878,38.363437 C2.9508202,38.3667808 2.9523059,38.3693816 2.95304875,38.3730969 C2.96270579,38.4269699 2.98461985,38.4622659 3.00541963,38.5020204 C3.00876245,38.5648103 3.01730521,38.6253709 3.04404779,38.6766431 C3.12093269,38.825258 3.08601877,39.0359198 3.16587507,39.1826771 C3.21267457,39.2692453 3.36570153,39.2967391 3.5009001,39.3342644 C3.55698522,39.4327218 3.60601327,39.5352662 3.65058423,39.6352098 C3.66061269,39.6578735 3.67249828,39.6794227 3.6832696,39.701715 C3.67509825,39.7462995 3.66729834,39.7905124 3.68475529,39.820607 C3.72004063,39.8811676 3.74938318,39.9461866 3.78541137,40.0063757 C3.82143956,40.0669363 3.86155342,40.1252677 3.89795304,40.1854568 C3.93435265,40.2456458 3.92580989,40.3340718 3.96295235,40.3938893 C3.99972339,40.4537068 4.05469424,40.5031213 4.09220812,40.5625673 C4.10632226,40.5848596 4.1416076,40.5937765 4.18246431,40.5993495 C4.2184925,40.6651117 4.28126327,40.7152692 4.33771981,40.7698852 C4.31394864,40.8311889 4.28497751,40.8958364 4.30614872,40.9281602 C4.32063428,40.950824 4.36037672,40.9567686 4.40569052,40.9586263 C4.42017608,41.0920082 4.39974773,41.248797 4.46623274,41.3468829 C4.54200337,41.4594588 4.66383065,41.5423116 4.75891536,41.6418837 C4.75891536,41.6418837 4.75928678,41.6437414 4.7596582,41.6444845 C4.76188675,41.6470852 4.76522957,41.6489429 4.7670867,41.6515437 C4.78602935,41.6719782 4.80608628,41.6920412 4.82168612,41.7143335 C4.82985746,41.7258512 4.83914308,41.7366257 4.84768584,41.7477719 C4.86477138,41.7726649 4.87962836,41.7968148 4.88854256,41.8161348 C4.91008518,41.8659208 4.89857102,41.9272245 4.91751368,41.9732951 C4.98919863,42.1482893 5.17676808,42.2638374 5.2569958,42.4410608 C5.32533793,42.5907904 5.41670839,42.7334608 5.49730754,42.8724158 C5.50027894,42.8776174 5.50139321,42.8817043 5.50362176,42.8865343 C5.53185003,42.9088265 5.55896403,42.9329764 5.58644946,42.9604702 C5.60019217,42.9749602 5.61022063,42.9887071 5.62099195,43.0057978 C5.63324896,43.0254893 5.64327743,43.0459238 5.65330589,43.0659869 C5.71904805,43.1098283 5.77810457,43.1466105 5.84198961,43.2138588 C5.9277887,43.3045139 6.02955905,43.355043 6.12872943,43.4286074 C6.23607115,43.508488 6.28547063,43.6199492 6.36161268,43.7239797 C6.49123988,43.9000885 6.65503815,44.0869719 6.82997915,44.2192392 C6.97186337,44.326242 7.08811928,44.415411 7.20623232,44.5506506 C7.30428842,44.6628549 7.43911556,44.7386486 7.47960085,44.8898643 C7.49631496,44.9522826 7.49445784,44.9935233 7.50411488,45.034764 C7.58917112,45.07489 7.66011323,45.1428814 7.70171279,45.2409673 C7.76782637,45.2773779 7.83951133,45.3071009 7.90636776,45.3420255 C7.90822489,45.3449978 7.90859631,45.3490847 7.91082486,45.3513139 C7.94425308,45.3840092 7.99068116,45.4037007 8.03302357,45.4271075 C8.04490915,45.4375106 8.05865187,45.446056 8.06905176,45.4579452 C8.11882266,45.5121896 8.13999386,45.5578887 8.19347901,45.6013586 C8.28410662,45.6760377 8.39367689,45.7284244 8.48207596,45.8112773 C8.4872759,45.8161073 8.49247585,45.8213088 8.49767579,45.8265103 C8.4932187,45.877411 8.49136157,45.9253393 8.5143899,45.9465169 C8.56601793,45.9940737 8.65330272,46.0041053 8.70530217,46.0512905 C8.72498767,46.0691243 8.748016,46.0832427 8.7706729,46.0977327 C8.82415805,46.1516056 8.8791289,46.2021347 8.93447117,46.2504346 C8.94524248,46.2660392 8.9545281,46.2827584 8.96418514,46.2994775 C9.04181289,46.344062 9.22121099,46.4945347 9.40060909,46.601166 C9.46746553,46.640549 9.51835071,46.6186282 9.58409287,46.6669281 C9.85300431,46.863843 10.4881404,47.0956824 10.5713396,47.1525276 C10.9104503,47.3836239 11.4716729,45.5322527 11.8962113,44.351135 C12.2304934,43.4219198 12.4232628,43.2030842 10.9323643,41.9784966 C10.5761681,41.6860966 10.6894526,42.6799594 10.6482245,42.9548971 C10.6170248,43.1618435 10.4959404,43.1101998 10.325085,42.9898217 C8.78850129,41.9049322 3.18853197,37.521533 1.12266812,32.6064637 C0.832585475,31.9165186 0.598959376,31.2592688 0.415104179,30.631742 C0.417704151,30.7272271 0.420304124,30.8223407 0.421418398,30.9159682" id="Fill-9" fill="#7EA8AD" opacity="0.7" mask="url(#mask-2)"></path>
                            </g>
                        </g>
                    </g>
                </g>
            </g>
        </g>
    </g>
</svg>