<?xml version="1.0" encoding="UTF-8" standalone="no"?>
<svg width="38px" height="35px" viewBox="0 0 38 35" version="1.1" xmlns="http://www.w3.org/2000/svg" xmlns:xlink="http://www.w3.org/1999/xlink">
    <!-- Generator: Sketch 50.2 (55047) - http://www.bohemiancoding.com/sketch -->
    <title>ico / btn / list</title>
    <desc>Created with Sketch.</desc>
    <defs></defs>
    <g id="Symbols" stroke="none" stroke-width="1" fill="none" fill-rule="evenodd">
        <g id="ico-/-btn-/-pic" transform="translate(0.000000, -7.000000)">
            <g id="ico-/-btn-/-list" transform="translate(0.000000, 7.000000)">
                <g id="ico-/-btn-/-list-copy">
                    <path d="M35,6.81818182 C35,4.51048951 33.0909091,2.62237762 30.7575758,2.62237762 L7.42424242,2.62237762 C5.09090909,2.62237762 3.18181818,4.51048951 3.18181818,6.81818182 L3.18181818,22.5524476 C3.18181818,24.8601399 5.09090909,26.7482517 7.42424242,26.7482517 L30.7575758,26.7482517 C33.0909091,26.7482517 35,24.8601399 35,22.5524476 L35,6.81818182 L35,6.81818182 Z" id="Shape" fill="#FAFBE8"></path>
                    <ellipse id="Oval" fill="#EDC951" cx="26.8863636" cy="9.80769231" rx="2.49242424" ry="2.46503497"></ellipse>
                    <path d="M3.21561239,15.8916084 L9.79136996,12.5874126 L13.6095518,14.527972 L19.7080366,8.91608392 L22.8898548,20.0874126 L27.4504609,15.6293706 L31.2156124,25.9615385 L31.3747033,26.5384615 L8.57167299,26.5909091 C8.57167299,26.5909091 2.68530936,26.5909091 3.21561239,21.5034965 L3.21561239,15.8916084 L3.21561239,15.8916084 Z" id="Shape" fill="#AFD698"></path>
                    <path d="M28.3712121,25.6993007 L5.03787879,25.6993007 C2.28030303,25.6993007 0,23.4440559 0,20.7167832 L0,4.98251748 C0,2.25524476 2.28030303,0 5.03787879,0 L28.3712121,0 C31.1287879,0 33.4090909,2.25524476 33.4090909,4.98251748 L33.4090909,20.7167832 C33.4090909,23.4440559 31.1287879,25.6993007 28.3712121,25.6993007 L28.3712121,25.6993007 Z M5.03787879,1.57342657 C3.12878788,1.57342657 1.59090909,3.09440559 1.59090909,4.98251748 L1.59090909,20.7167832 C1.59090909,22.6048951 3.12878788,24.1258741 5.03787879,24.1258741 L28.3712121,24.1258741 C30.280303,24.1258741 31.8181818,22.6048951 31.8181818,20.7167832 L31.8181818,4.98251748 C31.8181818,3.09440559 30.280303,1.57342657 28.3712121,1.57342657 L5.03787879,1.57342657 L5.03787879,1.57342657 Z" id="Shape" fill="#256D77"></path>
                    <path d="M5.99242424,25.5608748 C4.13636364,25.5608748 0.477272727,24.3545811 0,19.7391965 L0,19.6343014 L0,14.0748608 C0,13.7601755 0.159090909,13.4979378 0.424242424,13.3930426 L6.89393939,10.0888468 C7.10606061,9.98395174 7.37121212,9.98395174 7.63636364,10.0888468 L10.9242424,11.7671685 L16.5984848,6.52241327 C16.8106061,6.31262307 17.0757576,6.26017551 17.3409091,6.31262307 C17.6060606,6.36507062 17.8181818,6.57486083 17.8712121,6.83709859 L20.6287879,16.749686 L24.1818182,13.2357 C24.3939394,13.0259098 24.6590909,12.9734622 24.9242424,13.0259098 C25.1893939,13.0783573 25.4015152,13.2881475 25.5075758,13.5503853 L29.2727273,23.8825531 L29.2727273,23.9874482 L29.4318182,24.5643713 C29.4848485,24.7741615 29.4318182,25.0363993 29.2727273,25.2461895 C29.1136364,25.4559797 28.9015152,25.5608748 28.6363636,25.5608748 L5.99242424,25.5608748 L5.99242424,25.5608748 L5.99242424,25.5608748 Z M1.64393939,19.4055944 C2.12121212,23.7062937 5.88636364,23.7587413 6.04545455,23.7587413 L27.6287879,23.7062937 L24.4469697,15 L20.7878788,18.6188811 C20.5757576,18.8286713 20.3106061,18.8811189 20.0454545,18.8286713 C19.780303,18.7762238 19.5681818,18.5664336 19.4621212,18.3041958 L16.6515152,8.39160839 L11.5606061,13.1118881 C11.2954545,13.3216783 10.9242424,13.3741259 10.6590909,13.2167832 L7.26515152,11.486014 L1.59090909,14.3706294 L1.59090909,19.4055944 L1.64393939,19.4055944 Z" id="Shape" fill="#256D77"></path>
                    <path d="M24.6060606,11.958042 C22.744868,11.958042 21.2121212,10.4421385 21.2121212,8.6013986 C21.2121212,6.7606587 22.744868,5.24475524 24.6060606,5.24475524 C26.4672532,5.24475524 28,6.7606587 28,8.6013986 C28,10.4421385 26.4672532,11.958042 24.6060606,11.958042 L24.6060606,11.958042 Z M24.6060606,6.86893751 C23.6207234,6.86893751 22.85435,7.62688924 22.85435,8.6013986 C22.85435,9.57590796 23.6207234,10.3338597 24.6060606,10.3338597 C25.5913978,10.3338597 26.3577713,9.57590796 26.3577713,8.6013986 C26.3577713,7.62688924 25.5366569,6.86893751 24.6060606,6.86893751 L24.6060606,6.86893751 Z" id="Shape" fill="#256D77"></path>
                </g>
                <g id="ico-/-btn-/-list-copy-2" transform="translate(3.000000, 8.000000)">
                    <path d="M35,5.51839465 C35,3.06020067 32.9954545,1.04895105 30.5454545,1.04895105 L6.04545455,1.04895105 C3.59545455,1.04895105 1.59090909,3.06020067 1.59090909,5.51839465 L1.59090909,22.2788081 C1.59090909,24.7370021 3.59545455,26.7482517 6.04545455,26.7482517 L30.5454545,26.7482517 C32.9954545,26.7482517 35,24.7370021 35,22.2788081 L35,5.51839465 L35,5.51839465 Z" id="Shape" fill="#FAFBE8"></path>
                    <ellipse id="Oval" fill="#EDC951" cx="26.8863636" cy="9.80769231" rx="2.49242424" ry="2.46503497"></ellipse>
                    <path d="M3.21561239,15.8916084 L9.79136996,12.5874126 L13.6095518,14.527972 L19.7080366,8.91608392 L22.8898548,20.0874126 L27.4504609,15.6293706 L31.2156124,25.9615385 L31.3747033,26.5384615 L8.57167299,26.5909091 C8.57167299,26.5909091 2.68530936,26.5909091 3.21561239,21.5034965 L3.21561239,15.8916084 L3.21561239,15.8916084 Z" id="Shape" fill="#AFD698"></path>
                    <path d="M28.3712121,25.6993007 L5.03787879,25.6993007 C2.28030303,25.6993007 0,23.4440559 0,20.7167832 L0,4.98251748 C0,2.25524476 2.28030303,0 5.03787879,0 L28.3712121,0 C31.1287879,0 33.4090909,2.25524476 33.4090909,4.98251748 L33.4090909,20.7167832 C33.4090909,23.4440559 31.1287879,25.6993007 28.3712121,25.6993007 L28.3712121,25.6993007 Z M5.03787879,1.57342657 C3.12878788,1.57342657 1.59090909,3.09440559 1.59090909,4.98251748 L1.59090909,20.7167832 C1.59090909,22.6048951 3.12878788,24.1258741 5.03787879,24.1258741 L28.3712121,24.1258741 C30.280303,24.1258741 31.8181818,22.6048951 31.8181818,20.7167832 L31.8181818,4.98251748 C31.8181818,3.09440559 30.280303,1.57342657 28.3712121,1.57342657 L5.03787879,1.57342657 L5.03787879,1.57342657 Z" id="Shape" fill="#256D77"></path>
                    <path d="M5.99242424,25.5608748 C4.13636364,25.5608748 0.477272727,24.3545811 0,19.7391965 L0,19.6343014 L0,14.0748608 C0,13.7601755 0.159090909,13.4979378 0.424242424,13.3930426 L6.89393939,10.0888468 C7.10606061,9.98395174 7.37121212,9.98395174 7.63636364,10.0888468 L10.9242424,11.7671685 L16.5984848,6.52241327 C16.8106061,6.31262307 17.0757576,6.26017551 17.3409091,6.31262307 C17.6060606,6.36507062 17.8181818,6.57486083 17.8712121,6.83709859 L20.6287879,16.749686 L24.1818182,13.2357 C24.3939394,13.0259098 24.6590909,12.9734622 24.9242424,13.0259098 C25.1893939,13.0783573 25.4015152,13.2881475 25.5075758,13.5503853 L29.2727273,23.8825531 L29.2727273,23.9874482 L29.4318182,24.5643713 C29.4848485,24.7741615 29.4318182,25.0363993 29.2727273,25.2461895 C29.1136364,25.4559797 28.9015152,25.5608748 28.6363636,25.5608748 L5.99242424,25.5608748 L5.99242424,25.5608748 L5.99242424,25.5608748 Z M1.64393939,19.4055944 C2.12121212,23.7062937 5.88636364,23.7587413 6.04545455,23.7587413 L27.6287879,23.7062937 L24.4469697,15 L20.7878788,18.6188811 C20.5757576,18.8286713 20.3106061,18.8811189 20.0454545,18.8286713 C19.780303,18.7762238 19.5681818,18.5664336 19.4621212,18.3041958 L16.6515152,8.39160839 L11.5606061,13.1118881 C11.2954545,13.3216783 10.9242424,13.3741259 10.6590909,13.2167832 L7.26515152,11.486014 L1.59090909,14.3706294 L1.59090909,19.4055944 L1.64393939,19.4055944 Z" id="Shape" fill="#256D77"></path>
                    <path d="M24.6060606,11.958042 C22.744868,11.958042 21.2121212,10.4421385 21.2121212,8.6013986 C21.2121212,6.7606587 22.744868,5.24475524 24.6060606,5.24475524 C26.4672532,5.24475524 28,6.7606587 28,8.6013986 C28,10.4421385 26.4672532,11.958042 24.6060606,11.958042 L24.6060606,11.958042 Z M24.6060606,6.86893751 C23.6207234,6.86893751 22.85435,7.62688924 22.85435,8.6013986 C22.85435,9.57590796 23.6207234,10.3338597 24.6060606,10.3338597 C25.5913978,10.3338597 26.3577713,9.57590796 26.3577713,8.6013986 C26.3577713,7.62688924 25.5366569,6.86893751 24.6060606,6.86893751 L24.6060606,6.86893751 Z" id="Shape" fill="#256D77"></path>
                </g>
            </g>
        </g>
    </g>
</svg>