<?xml version="1.0" encoding="UTF-8" standalone="no"?>
<svg width="38px" height="35px" viewBox="0 0 38 35" version="1.1" xmlns="http://www.w3.org/2000/svg" xmlns:xlink="http://www.w3.org/1999/xlink">
    <!-- Generator: Sketch 50.2 (55047) - http://www.bohemiancoding.com/sketch -->
    <title>Ico_inter</title>
    <desc>Created with Sketch.</desc>
    <defs></defs>
    <g id="Symbols" stroke="none" stroke-width="1" fill="none" fill-rule="evenodd">
        <g id="Btn-/-Red-+-Ico-/-Normal" transform="translate(-40.000000, -35.000000)">
            <g id="Ico_inter">
                <g transform="translate(40.000000, 35.000000)">
                    <path d="M33.4300654,31.2408511 L8.29542484,31.2408511 C5.78196078,31.2408511 3.7254902,29.1931314 3.7254902,26.690363 L3.7254902,6.78197747 C3.7254902,4.27920901 5.78196078,2.23148936 8.29542484,2.23148936 L33.4300654,2.23148936 C35.9435294,2.23148936 38,4.27920901 38,6.78197747 L38,26.690363 C38,29.1931314 35.9435294,31.2408511 33.4300654,31.2408511 Z" id="Shape" fill="#D0E6BB"></path>
                    <path d="M30.3716153,30.4970213 L5.39309057,30.4970213 C2.4410831,30.4970213 0,28.0685548 0,25.1318046 L0,5.36521671 C0,2.42846651 2.4410831,0 5.39309057,0 L30.3716153,0 C33.3236228,0 35.7647059,2.42846651 35.7647059,5.36521671 L35.7647059,25.1318046 C35.7647059,28.0685548 33.3236228,30.4970213 30.3716153,30.4970213 L30.3716153,30.4970213 Z M5.39309057,1.69427896 C3.34939309,1.69427896 1.70308123,3.33208195 1.70308123,5.36521671 L1.70308123,25.1318046 C1.70308123,27.1649393 3.34939309,28.8027423 5.39309057,28.8027423 L30.3716153,28.8027423 C32.4153128,28.8027423 34.0616246,27.1649393 34.0616246,25.1318046 L34.0616246,5.36521671 C34.0616246,3.33208195 32.4153128,1.69427896 30.3716153,1.69427896 L5.39309057,1.69427896 L5.39309057,1.69427896 Z" id="Shape" fill="#256D77"></path>
                    <path d="M22.2745098,34.96 L13.4901961,34.96 C13.0509804,34.96 12.6666667,34.581323 12.6666667,34.1485493 L12.6666667,29.8208124 C12.6666667,29.3880387 13.0509804,29.0093617 13.4901961,29.0093617 L22.2745098,29.0093617 C22.7137255,29.0093617 23.0980392,29.3880387 23.0980392,29.8208124 L23.0980392,34.1485493 C23.0980392,34.581323 22.7137255,34.96 22.2745098,34.96 L22.2745098,34.96 Z M14.3137255,33.3370986 L21.4509804,33.3370986 L21.4509804,30.6322631 L14.3137255,30.6322631 L14.3137255,33.3370986 L14.3137255,33.3370986 Z" id="Shape" fill="#256D77"></path>
                    <path d="M27.4754902,34.96 L9.03431373,34.96 C8.5872549,34.96 8.19607843,34.6128794 8.19607843,34.2161702 C8.19607843,33.819461 8.5872549,33.4723404 9.03431373,33.4723404 L27.4754902,33.4723404 C27.922549,33.4723404 28.3137255,33.819461 28.3137255,34.2161702 C28.3137255,34.6128794 27.922549,34.96 27.4754902,34.96 L27.4754902,34.96 Z" id="Shape" fill="#256D77"></path>
                    <path d="M9.07445457,25.2902128 C8.84777686,25.2902128 8.62109914,25.23356 8.45109086,25.0636017 C8.11107429,24.7236851 8.11107429,24.2138103 8.45109086,23.8738937 L26.8686551,5.46174594 C27.2086716,5.12182937 27.7186965,5.12182937 28.0587131,5.46174594 C28.3987296,5.80166252 28.3987296,6.31153738 28.0587131,6.65145395 L9.64114885,25.0636017 C9.52781,25.23356 9.30113228,25.2902128 9.07445457,25.2902128 L9.07445457,25.2902128 Z" id="Shape" fill="#256D77"></path>
                    <path d="M18.7205882,23.8025532 C18.5042694,23.8025532 18.2879507,23.748347 18.1257116,23.5857283 C17.8012334,23.260491 17.8012334,22.772635 18.1257116,22.4473977 L23.209203,17.3520131 C23.5336812,17.0267758 24.0203985,17.0267758 24.3448767,17.3520131 C24.6693548,17.6772504 24.6693548,18.1651064 24.3448767,18.4903437 L19.2613852,23.5857283 C19.1532258,23.748347 18.936907,23.8025532 18.7205882,23.8025532 L18.7205882,23.8025532 Z" id="Shape" fill="#256D77"></path>
                </g>
            </g>
        </g>
    </g>
</svg>