<?xml version="1.0" encoding="UTF-8" standalone="no"?>
<svg width="48px" height="60px" viewBox="0 0 48 60" version="1.1" xmlns="http://www.w3.org/2000/svg" xmlns:xlink="http://www.w3.org/1999/xlink">
    <!-- Generator: Sketch 50.2 (55047) - http://www.bohemiancoding.com/sketch -->
    <title>ico_tech-card</title>
    <desc>Created with Sketch.</desc>
    <defs></defs>
    <g id="1440" stroke="none" stroke-width="1" fill="none" fill-rule="evenodd">
        <g id="Main_1440" transform="translate(-135.000000, -1816.000000)">
            <g id="2" transform="translate(135.000000, 968.000000)">
                <g id="Techn_card" transform="translate(0.000000, 848.000000)">
                    <g id="ico_tech-card">
                        <path d="M21.3230769,4.48717949 L43.9384615,4.48717949 C45.9692308,4.48717949 48,5.86080586 48,7.87545788 L48,55.4945055 C48,57.5091575 45.9692308,59.4322344 43.9384615,59.4322344 L9.78461538,59.4322344 C7.75384615,59.4322344 6.46153846,57.5091575 6.46153846,55.4945055 L6.46153846,22.6190476 L21.3230769,4.48717949 L21.3230769,4.48717949 Z" id="Shape" fill="#D0E6BB"></path>
                        <path d="M7.2,20.970696 L17.6307692,20.970696 C19.6615385,20.970696 21.2307692,19.5054945 21.2307692,17.4908425 L21.2307692,4.21245421 L7.2,20.970696 L7.2,20.970696 Z" id="Shape" fill="#256D77"></path>
                        <path d="M39.3230769,57.6007326 L5.16923077,57.6007326 C2.30769231,57.6007326 0,55.4945055 0,52.7472527 L0,19.8717949 C0,19.5970696 0.0923076923,19.2307692 0.276923077,19.047619 L15.1384615,0.549450549 C15.4153846,0.183150183 15.7846154,-1.13686838e-13 16.2461538,-1.13686838e-13 L39.3230769,-1.13686838e-13 C42,-1.13686838e-13 44.3076923,2.38095238 44.3076923,5.21978022 L44.3076923,52.8388278 C44.3076923,55.4945055 42.0923077,57.6007326 39.3230769,57.6007326 L39.3230769,57.6007326 Z M2.76923077,20.3296703 L2.76923077,52.7472527 C2.76923077,53.9377289 3.78461538,54.8534799 5.16923077,54.8534799 L39.3230769,54.8534799 C40.6153846,54.8534799 41.5384615,53.9377289 41.5384615,52.7472527 L41.5384615,5.12820513 C41.5384615,3.75457875 40.5230769,2.65567766 39.3230769,2.65567766 L16.8923077,2.65567766 L2.76923077,20.3296703 L2.76923077,20.3296703 Z" id="Shape" fill="#256D77"></path>
                        <path d="M12.1846154,20.0549451 L2.21538462,20.0549451 C1.66153846,20.0549451 1.2,19.7802198 0.923076923,19.2307692 C0.738461538,18.7728938 0.738461538,18.2234432 1.10769231,17.7655678 L15.0461538,0.732600733 C15.4153846,0.274725275 16.0615385,0.0915750916 16.6153846,0.274725275 C17.1692308,0.457875458 17.5384615,1.00732601 17.5384615,1.55677656 L17.5384615,14.6520147 C17.5384615,17.4908425 14.9538462,20.0549451 12.1846154,20.0549451 L12.1846154,20.0549451 Z M5.16923077,17.3076923 L12.1846154,17.3076923 C13.4769231,17.3076923 14.7692308,16.025641 14.7692308,14.7435897 L14.7692308,5.49450549 L5.16923077,17.3076923 L5.16923077,17.3076923 Z" id="Shape" fill="#256D77"></path>
                        <path d="M20.3076923,40.2014652 L5.53846154,40.2014652 C4.8,40.2014652 4.15384615,39.5604396 4.15384615,38.8278388 C4.15384615,38.0952381 4.8,37.4542125 5.53846154,37.4542125 L20.3076923,37.4542125 C21.0461538,37.4542125 21.6923077,38.0952381 21.6923077,38.8278388 C21.6923077,39.5604396 21.0461538,40.2014652 20.3076923,40.2014652 L20.3076923,40.2014652 Z" id="Shape" fill="#256D77"></path>
                        <path d="M20.3076923,33.7912088 L5.53846154,33.7912088 C4.8,33.7912088 4.15384615,33.1501832 4.15384615,32.4175824 C4.15384615,31.6849817 4.8,31.043956 5.53846154,31.043956 L20.3076923,31.043956 C21.0461538,31.043956 21.6923077,31.6849817 21.6923077,32.4175824 C21.6923077,33.1501832 21.0461538,33.7912088 20.3076923,33.7912088 L20.3076923,33.7912088 Z" id="Shape" fill="#256D77"></path>
                        <path d="M20.3076923,27.3809524 L5.53846154,27.3809524 C4.8,27.3809524 4.15384615,26.7399267 4.15384615,26.007326 C4.15384615,25.2747253 4.8,24.6336996 5.53846154,24.6336996 L20.3076923,24.6336996 C21.0461538,24.6336996 21.6923077,25.2747253 21.6923077,26.007326 C21.6923077,26.7399267 21.0461538,27.3809524 20.3076923,27.3809524 L20.3076923,27.3809524 Z" id="Shape" fill="#256D77"></path>
                    </g>
                </g>
            </g>
        </g>
    </g>
</svg>