<?xml version="1.0" encoding="UTF-8" standalone="no"?>
<svg width="177px" height="33px" viewBox="0 0 177 33" version="1.1" xmlns="http://www.w3.org/2000/svg" xmlns:xlink="http://www.w3.org/1999/xlink">
    <!-- Generator: Sketch 50.2 (55047) - http://www.bohemiancoding.com/sketch -->
    <title>logo/color</title>
    <desc>Created with Sketch.</desc>
    <defs></defs>
    <g id="1440" stroke="none" stroke-width="1" fill="none" fill-rule="evenodd">
        <g id="Main_1440" transform="translate(-136.000000, -48.000000)" fill="#ED7454">
            <g id="1">
                <g id="Menu" transform="translate(135.000000, 39.000000)">
                    <g id="Left" transform="translate(0.000000, 7.000000)">
                        <g id="oldshit/logo/color">
                            <g id="Group-20" stroke-width="1">
                                <path d="M14.991746,29.1567556 L10.6672039,29.1567556 L5.4200928,22.8481188 L5.4200928,29.1567556 L1.70098657,29.1567556 L1.70098657,15.2610797 L5.4200928,15.2610797 L5.4200928,21.3751771 L10.3789011,15.2610797 L14.8187644,15.2610797 L9.02387791,22.1255436 L14.991746,29.1567556 Z M22.3739963,29.5458345 C20.2405448,29.5458345 18.4386703,28.8371622 16.9683186,27.4197961 C15.497967,26.0024301 14.7628021,24.265488 14.7628021,22.2089177 C14.7628021,20.1523473 15.497967,18.4154052 16.9683186,16.9980392 C18.4386703,15.5806732 20.2405448,14.8720008 22.3739963,14.8720008 C24.5074477,14.8720008 26.3141273,15.5806732 27.7940891,16.9980392 C29.2740509,18.4154052 30.0140207,20.1523473 30.0140207,22.2089177 C30.0140207,24.265488 29.2740509,26.0024301 27.7940891,27.4197961 C26.3141273,28.8371622 24.5074477,29.5458345 22.3739963,29.5458345 Z M22.3739963,26.0441242 C23.4887727,26.0441242 24.4209425,25.6828403 25.1705335,24.9602615 C25.9201246,24.2376827 26.2949145,23.3205773 26.2949145,22.2089177 C26.2949145,21.097258 25.9201246,20.1801526 25.1705335,19.4575738 C24.4209425,18.7349951 23.4887727,18.3737111 22.3739963,18.3737111 C21.2592199,18.3737111 20.3318551,18.7349951 19.5918742,19.4575738 C18.8518933,20.1801526 18.4819084,21.097258 18.4819084,22.2089177 C18.4819084,23.3205773 18.8518933,24.2376827 19.5918742,24.9602615 C20.3318551,25.6828403 21.2592199,26.0441242 22.3739963,26.0441242 Z M41.8073039,15.2610797 L45.5264102,15.2610797 L45.5264102,29.1567556 L41.8073039,29.1567556 L41.8073039,23.8763988 L36.070078,23.8763988 L36.070078,29.1567556 L32.3509718,29.1567556 L32.3509718,15.2610797 L36.070078,15.2610797 L36.070078,20.5136452 L41.8073039,20.5136452 L41.8073039,15.2610797 Z M55.5033857,29.5458345 C53.3314937,29.5458345 51.5200091,28.841794 50.0688777,27.4336918 C48.6177463,26.0255896 47.8921915,24.2840156 47.8921915,22.2089177 C47.8921915,20.1338197 48.6177463,18.3922457 50.0688777,16.9841435 C51.5200091,15.5760413 53.3314937,14.8720008 55.5033857,14.8720008 C56.9064664,14.8720008 58.184596,15.19623 59.337813,15.8446981 C60.49103,16.4931662 61.3655398,17.3639532 61.9613686,18.4570852 L58.7612074,20.263523 C58.4729032,19.6891656 58.0356483,19.2352447 57.4494296,18.9017468 C56.863211,18.5682489 56.2049262,18.4015025 55.4745554,18.4015025 C54.359779,18.4015025 53.4372192,18.7581546 52.7068484,19.4714695 C51.9764777,20.1847844 51.6112978,21.097258 51.6112978,22.2089177 C51.6112978,23.3020496 51.9764777,24.2052595 52.7068484,24.9185745 C53.4372192,25.6318894 54.359779,25.9885415 55.4745554,25.9885415 C56.2241465,25.9885415 56.8920413,25.8264269 57.4782599,25.5021929 C58.0644786,25.1779588 58.5017334,24.7286698 58.7900377,24.1543123 L62.0190292,25.9329588 C61.3847598,27.0260908 60.49103,27.9015096 59.337813,28.5592416 C58.184596,29.2169735 56.9064664,29.5458345 55.5033857,29.5458345 Z M74.9655236,15.2610797 L74.9655236,18.7072073 L70.4679998,18.7072073 L70.4679998,29.1567556 L66.7488936,29.1567556 L66.7488936,18.7072073 L62.1937092,18.7072073 L62.1937092,15.2610797 L74.9655236,15.2610797 Z M85.0578202,14.8720008 C86.9990689,14.8720008 88.6567934,15.5806732 90.0310437,16.9980392 C91.405294,18.4154052 92.0924088,20.1523473 92.0924088,22.2089177 C92.0924088,24.265488 91.405294,26.0024301 90.0310437,27.4197961 C88.6567934,28.8371622 86.9990689,29.5458345 85.0578202,29.5458345 C83.0396905,29.5458345 81.4828709,28.8695851 80.3873147,27.5170659 L80.3873147,34.715026 L76.6682085,34.715026 L76.6682085,15.2610797 L80.3873147,15.2610797 L80.3873147,16.9007695 C81.4828709,15.5482503 83.0396905,14.8720008 85.0578202,14.8720008 Z M84.3658935,26.1274983 C85.5191105,26.1274983 86.4753053,25.7615825 87.2345065,25.0297399 C87.9937076,24.2978973 88.3733025,23.3576326 88.3733025,22.2089177 C88.3733025,21.0602027 87.9937076,20.119938 87.2345065,19.3880955 C86.4753053,18.6562529 85.5191105,18.2903371 84.3658935,18.2903371 C83.2126765,18.2903371 82.2612868,18.6562529 81.5116957,19.3880955 C80.7621047,20.119938 80.3873147,21.0602027 80.3873147,22.2089177 C80.3873147,23.3576326 80.7621047,24.2978973 81.5116957,25.0297399 C82.2612868,25.7615825 83.2126765,26.1274983 84.3658935,26.1274983 Z M103.251426,15.2610797 L107.230005,15.2610797 L101.982893,29.1567556 C100.522152,33.066092 97.9851126,34.9188302 94.3716993,34.715026 L94.3716993,31.3800638 C95.3519338,31.3985914 96.1255386,31.2225813 96.6925369,30.8520281 C97.2595353,30.4814749 97.7160102,29.8608076 98.0619753,28.9900075 L92.2382585,15.2610797 L96.188007,15.2610797 L100.051265,24.5989739 L103.251426,15.2610797 Z M121.992807,29.1567556 L117.668265,29.1567556 L112.421153,22.8481188 L112.421153,29.1567556 L108.702047,29.1567556 L108.702047,15.2610797 L112.421153,15.2610797 L112.421153,21.3751771 L117.379962,15.2610797 L121.819825,15.2610797 L116.024939,22.1255436 L121.992807,29.1567556 Z M134.910471,15.2610797 L134.910471,18.7072073 L130.412947,18.7072073 L130.412947,29.1567556 L126.693841,29.1567556 L126.693841,18.7072073 L122.138656,18.7072073 L122.138656,15.2610797 L134.910471,15.2610797 Z M142.898157,29.5458345 C140.764706,29.5458345 138.962831,28.8371622 137.492479,27.4197961 C136.022128,26.0024301 135.286963,24.265488 135.286963,22.2089177 C135.286963,20.1523473 136.022128,18.4154052 137.492479,16.9980392 C138.962831,15.5806732 140.764706,14.8720008 142.898157,14.8720008 C145.031608,14.8720008 146.838288,15.5806732 148.31825,16.9980392 C149.798212,18.4154052 150.538181,20.1523473 150.538181,22.2089177 C150.538181,24.265488 149.798212,26.0024301 148.31825,27.4197961 C146.838288,28.8371622 145.031608,29.5458345 142.898157,29.5458345 Z M142.898157,26.0441242 C144.012933,26.0441242 144.945103,25.6828403 145.694694,24.9602615 C146.444285,24.2376827 146.819075,23.3205773 146.819075,22.2089177 C146.819075,21.097258 146.444285,20.1801526 145.694694,19.4575738 C144.945103,18.7349951 144.012933,18.3737111 142.898157,18.3737111 C141.783381,18.3737111 140.856016,18.7349951 140.116035,19.4575738 C139.376054,20.1801526 139.006069,21.097258 139.006069,22.2089177 C139.006069,23.3205773 139.376054,24.2376827 140.116035,24.9602615 C140.856016,25.6828403 141.783381,26.0441242 142.898157,26.0441242 Z M161.264744,14.8720008 C163.205993,14.8720008 164.863717,15.5806732 166.237968,16.9980392 C167.612218,18.4154052 168.299333,20.1523473 168.299333,22.2089177 C168.299333,24.265488 167.612218,26.0024301 166.237968,27.4197961 C164.863717,28.8371622 163.205993,29.5458345 161.264744,29.5458345 C159.246615,29.5458345 157.689795,28.8695851 156.594239,27.5170659 L156.594239,34.715026 L152.875133,34.715026 L152.875133,15.2610797 L156.594239,15.2610797 L156.594239,16.9007695 C157.689795,15.5482503 159.246615,14.8720008 161.264744,14.8720008 Z M160.572818,26.1274983 C161.726035,26.1274983 162.682229,25.7615825 163.44143,25.0297399 C164.200632,24.2978973 164.580227,23.3576326 164.580227,22.2089177 C164.580227,21.0602027 164.200632,20.119938 163.44143,19.3880955 C162.682229,18.6562529 161.726035,18.2903371 160.572818,18.2903371 C159.419601,18.2903371 158.468211,18.6562529 157.71862,19.3880955 C156.969029,20.119938 156.594239,21.0602027 156.594239,22.2089177 C156.594239,23.3576326 156.969029,24.2978973 157.71862,25.0297399 C158.468211,25.7615825 159.419601,26.1274983 160.572818,26.1274983 Z" id="конструктор"></path>
                            </g>
                            <path d="M170.985946,14.0545681 L170.985946,18.5198364 L169.456126,18.5198364 L169.456126,6.87883262 C169.456126,5.95062339 169.585746,5.22426936 169.844991,4.69974876 C170.104235,4.17522816 170.550072,3.74133804 171.182515,3.39806539 C171.814958,3.05479275 172.518612,2.883159 173.293497,2.883159 C174.438731,2.883159 175.306191,3.20033817 175.895901,3.83470602 C176.485611,4.46907387 176.780462,5.16247421 176.780462,5.91492785 C176.780462,6.6509044 176.542587,7.24407064 176.066831,7.69444435 C175.591074,8.14481806 175.045529,8.4221782 174.430179,8.52653309 C175.421576,8.61990325 176.186479,8.96317074 176.72491,9.55634588 C177.263341,10.149521 177.532553,10.8799942 177.532553,11.7477875 C177.532553,12.6814891 177.214912,13.5176887 176.57962,14.2564114 C175.944328,14.9951342 175.02559,15.36449 173.823379,15.36449 C172.592679,15.36449 171.646878,14.9278538 170.985946,14.0545681 Z M172.344837,8.04869995 C173.393211,8.04869995 174.156689,7.87294699 174.635295,7.5214358 C175.1139,7.16992461 175.353199,6.66188872 175.353199,5.99731287 C175.353199,5.45906136 175.14951,5.00869441 174.742126,4.64619849 C174.334741,4.28370258 173.826231,4.10245734 173.216578,4.10245734 C172.686694,4.10245734 172.226613,4.2370182 171.836321,4.50614395 C171.44603,4.77526971 171.206731,5.07459897 171.118417,5.40414071 C171.030103,5.73368245 170.985946,6.31037184 170.985946,7.13422619 L170.985946,10.4543426 C170.985946,11.399029 171.054317,12.0938024 171.191062,12.5386837 C171.327806,12.9835651 171.621233,13.3845015 172.07135,13.7415051 C172.521467,14.0985086 173.039948,14.2770077 173.62681,14.2770077 C174.33902,14.2770077 174.901658,14.0422127 175.31474,13.5726158 C175.727822,13.1030188 175.93436,12.5222102 175.93436,11.8301725 C175.93436,11.2589668 175.78195,10.7468117 175.477123,10.2936918 C175.172297,9.84057194 174.796256,9.53300426 174.348988,9.37097957 C173.901719,9.20895488 173.307745,9.12794376 172.567046,9.12794376 L172.344837,9.12794376 L172.344837,8.04869995 Z" id="text--head--dark"></path>
                        </g>
                    </g>
                </g>
            </g>
        </g>
    </g>
</svg>