<?xml version="1.0" encoding="UTF-8"?>
<svg width="118px" height="31px" viewBox="0 0 118 31" version="1.1" xmlns="http://www.w3.org/2000/svg" xmlns:xlink="http://www.w3.org/1999/xlink">
    <!-- Generator: Sketch 52.5 (67469) - http://www.bohemiancoding.com/sketch -->
    <title>Combined Shape</title>
    <desc>Created with Sketch.</desc>
    <g id="Symbols" stroke="none" stroke-width="1" fill="none" fill-rule="evenodd" opacity="0.7">
        <g id="Partners-/-Header-/-1440" transform="translate(-854.000000, -15.000000)" fill="#7EA8AD">
            <g id="Partners">
                <path d="M854,15 L885,15 L885,46 L854,46 L854,15 Z M878.91622,24.340513 C876.994117,22.7369063 873.845121,20.4880419 871.699934,19.1866079 C869.135345,17.6311489 868.944246,17.5780023 866.292404,19.1866079 C864.147083,20.488305 860.997954,22.7371694 859.076118,24.3407761 C856.77864,26.2574741 856.668236,26.419545 857.405201,29.3958863 C858.001383,31.8039274 859.204053,35.4428911 860.161558,37.7352988 C861.306149,40.4757693 861.428865,40.6286315 864.536241,40.8598982 C867.050111,41.0467006 870.942495,41.0467006 873.456097,40.8598982 C876.460831,40.636393 876.647381,40.5690389 877.830914,37.7352988 C878.788419,35.442628 879.990955,31.8039274 880.587271,29.3958863 C881.299613,26.5178136 881.291985,26.3227234 878.91622,24.340513 Z M878.007025,28.7009024 C877.440551,30.9884427 876.284184,34.4874362 875.37432,36.6656577 C874.849733,37.9210489 874.746823,38.0677282 873.25563,38.1784942 C870.867152,38.356088 867.124785,38.356088 864.736173,38.1784942 C863.359265,38.076279 863.185697,38.0251057 862.617617,36.6653946 C861.707886,34.4874362 860.551519,30.9884427 859.985046,28.7003762 C859.658651,27.3815774 859.654368,27.2034574 860.794409,26.2523436 C862.620561,24.72872 865.648179,22.5662846 867.686842,21.3297052 C868.861944,20.6169619 869.032837,20.5581586 870.30563,21.3299683 C872.343892,22.5662846 875.37151,24.72872 877.19793,26.2526067 C878.25045,27.1311043 878.360452,27.2723901 878.007025,28.7009024 Z M923,15 L972,15 L972,29 L923,29 L923,15 Z M924.693768,16.5361842 L924.693768,19.4067982 L925.351841,19.4067982 L925.351841,18.3775585 L926.043447,18.3775585 C926.230671,18.3775585 926.389948,18.3514257 926.521284,18.2991594 C926.65262,18.246893 926.759504,18.1778757 926.841938,18.0921053 C926.924372,18.0063349 926.984451,17.9085045 927.022175,17.7986111 C927.059899,17.6887178 927.078761,17.5748057 927.078761,17.4568713 C927.078761,17.3416174 927.059899,17.2283753 927.022175,17.1171418 C926.984451,17.0059083 926.924372,16.9074078 926.841938,16.8216374 C926.759504,16.735867 926.65262,16.6668497 926.521284,16.6145833 C926.389948,16.562317 926.230671,16.5361842 926.043447,16.5361842 L924.693768,16.5361842 Z M925.863211,17.8870614 L925.351841,17.8870614 L925.351841,17.0266813 L925.863211,17.0266813 C925.938659,17.0266813 926.011312,17.0320419 926.081171,17.0427632 C926.151031,17.0534845 926.212506,17.0742567 926.2656,17.1050804 C926.318693,17.1359042 926.361307,17.1794588 926.393442,17.2357456 C926.425577,17.2920324 926.441645,17.3657403 926.441645,17.4568713 C926.441645,17.5480024 926.425577,17.6217102 926.393442,17.6779971 C926.361307,17.7342839 926.318693,17.7778385 926.2656,17.8086623 C926.212506,17.839486 926.151031,17.8602582 926.081171,17.8709795 C926.011312,17.8817008 925.938659,17.8870614 925.863211,17.8870614 Z M929.723503,19.4590643 C929.89396,19.4590643 930.048347,19.4336016 930.186669,19.3826754 C930.324991,19.3317493 930.443052,19.2587115 930.540855,19.1635599 C930.638659,19.0684084 930.714106,18.9538262 930.767199,18.8198099 C930.820292,18.6857937 930.846839,18.5356977 930.846839,18.3695175 C930.846839,18.2033374 930.820292,18.0525713 930.767199,17.9172149 C930.714106,17.7818585 930.638659,17.6666062 930.540855,17.5714547 C930.443052,17.4763031 930.324991,17.4025953 930.186669,17.3503289 C930.048347,17.2980626 929.89396,17.2719298 929.723503,17.2719298 C929.553045,17.2719298 929.399357,17.2980626 929.262432,17.3503289 C929.125507,17.4025953 929.008145,17.4763031 928.910342,17.5714547 C928.812538,17.6666062 928.737091,17.7818585 928.683998,17.9172149 C928.630905,18.0525713 928.604359,18.2033374 928.604359,18.3695175 C928.604359,18.5356977 928.630905,18.6857937 928.683998,18.8198099 C928.737091,18.9538262 928.812538,19.0684084 928.910342,19.1635599 C929.008145,19.2587115 929.125507,19.3317493 929.262432,19.3826754 C929.399357,19.4336016 929.553045,19.4590643 929.723503,19.4590643 Z M929.723503,19.0328947 C929.622905,19.0328947 929.539075,19.0141327 929.47201,18.9766082 C929.404945,18.9390836 929.351154,18.8888283 929.310635,18.8258406 C929.270116,18.762853 929.241474,18.6918254 929.224708,18.6127558 C929.207942,18.5336863 929.199559,18.4526076 929.199559,18.3695175 C929.199559,18.2864275 929.207942,18.2046788 929.224708,18.124269 C929.241474,18.0438592 929.270116,17.9728317 929.310635,17.9111842 C929.351154,17.8495367 929.404945,17.7992814 929.47201,17.7604167 C929.539075,17.721552 929.622905,17.7021199 929.723503,17.7021199 C929.824101,17.7021199 929.908629,17.721552 929.977092,17.7604167 C930.045554,17.7992814 930.100044,17.8495367 930.140562,17.9111842 C930.181081,17.9728317 930.209723,18.0438592 930.226489,18.124269 C930.243255,18.2046788 930.251638,18.2864275 930.251638,18.3695175 C930.251638,18.4526076 930.243255,18.5336863 930.226489,18.6127558 C930.209723,18.6918254 930.181081,18.762853 930.140562,18.8258406 C930.100044,18.8888283 930.045554,18.9390836 929.977092,18.9766082 C929.908629,19.0141327 929.824101,19.0328947 929.723503,19.0328947 Z M933.504155,19.4590643 C933.791977,19.4590643 934.028098,19.3866966 934.212528,19.2419591 C934.396957,19.0972215 934.50873,18.8868191 934.547852,18.6107456 L933.973609,18.6107456 C933.954048,18.7394012 933.905846,18.8419221 933.829001,18.9183114 C933.752155,18.9947007 933.642477,19.0328947 933.499964,19.0328947 C933.407749,19.0328947 933.329508,19.0127926 933.265237,18.9725877 C933.200966,18.9323828 933.149969,18.8807873 933.112245,18.8177997 C933.074521,18.7548121 933.047276,18.6844546 933.03051,18.6067251 C933.013744,18.5289957 933.005361,18.4526076 933.005361,18.3775585 C933.005361,18.3025094 933.013744,18.2247811 933.03051,18.1443713 C933.047276,18.0639616 933.075918,17.9909238 933.116437,17.9252558 C933.156955,17.8595879 933.209349,17.8059822 933.27362,17.7644371 C933.337891,17.7228921 933.417529,17.7021199 933.512538,17.7021199 C933.766827,17.7021199 933.91353,17.8213926 933.952651,18.0599415 L934.535277,18.0599415 C934.526894,17.9286056 934.493362,17.8133533 934.43468,17.7141813 C934.375998,17.6150092 934.299852,17.5325905 934.20624,17.4669225 C934.112628,17.4012545 934.006443,17.3523393 933.887682,17.3201754 C933.768921,17.2880115 933.645272,17.2719298 933.51673,17.2719298 C933.340684,17.2719298 933.184201,17.3000728 933.047276,17.3563597 C932.910351,17.4126465 932.794386,17.4910448 932.699377,17.591557 C932.604368,17.6920692 932.532414,17.8113419 932.483512,17.9493787 C932.434611,18.0874154 932.41016,18.2368413 932.41016,18.3976608 C932.41016,18.5531197 932.436707,18.6958449 932.4898,18.8258406 C932.542893,18.9558364 932.616943,19.0677383 932.711952,19.1615497 C932.806961,19.2553611 932.921529,19.3283989 933.055659,19.3806652 C933.18979,19.4329315 933.339287,19.4590643 933.504155,19.4590643 Z M937.15487,19.4590643 C937.442691,19.4590643 937.678813,19.3866966 937.863242,19.2419591 C938.047671,19.0972215 938.159445,18.8868191 938.198566,18.6107456 L937.624324,18.6107456 C937.604763,18.7394012 937.55656,18.8419221 937.479715,18.9183114 C937.402869,18.9947007 937.293192,19.0328947 937.150678,19.0328947 C937.058464,19.0328947 936.980222,19.0127926 936.915951,18.9725877 C936.851681,18.9323828 936.800684,18.8807873 936.76296,18.8177997 C936.725235,18.7548121 936.697991,18.6844546 936.681224,18.6067251 C936.664458,18.5289957 936.656075,18.4526076 936.656075,18.3775585 C936.656075,18.3025094 936.664458,18.2247811 936.681224,18.1443713 C936.697991,18.0639616 936.726633,17.9909238 936.767151,17.9252558 C936.80767,17.8595879 936.860064,17.8059822 936.924334,17.7644371 C936.988605,17.7228921 937.068244,17.7021199 937.163253,17.7021199 C937.417542,17.7021199 937.564244,17.8213926 937.603366,18.0599415 L938.185991,18.0599415 C938.177608,17.9286056 938.144076,17.8133533 938.085394,17.7141813 C938.026712,17.6150092 937.950566,17.5325905 937.856955,17.4669225 C937.763343,17.4012545 937.657158,17.3523393 937.538397,17.3201754 C937.419636,17.2880115 937.295986,17.2719298 937.167444,17.2719298 C936.991398,17.2719298 936.834915,17.3000728 936.697991,17.3563597 C936.561066,17.4126465 936.445101,17.4910448 936.350092,17.591557 C936.255083,17.6920692 936.183129,17.8113419 936.134227,17.9493787 C936.085325,18.0874154 936.060875,18.2368413 936.060875,18.3976608 C936.060875,18.5531197 936.087421,18.6958449 936.140514,18.8258406 C936.193607,18.9558364 936.267657,19.0677383 936.362667,19.1615497 C936.457675,19.2553611 936.572243,19.3283989 936.706374,19.3806652 C936.840504,19.4329315 936.990001,19.4590643 937.15487,19.4590643 Z M939.778654,17.3282164 L939.778654,19.4067982 L940.453494,19.4067982 L941.270846,17.9996345 L941.270846,19.4067982 L941.840897,19.4067982 L941.840897,17.3282164 L941.166058,17.3282164 L940.348705,18.7353801 L940.348705,17.3282164 L939.778654,17.3282164 Z M943.538349,17.3282164 L943.538349,19.4067982 L944.213189,19.4067982 L945.030541,17.9996345 L945.030541,19.4067982 L945.600592,19.4067982 L945.600592,17.3282164 L944.925752,17.3282164 L944.1084,18.7353801 L944.1084,17.3282164 L943.538349,17.3282164 Z M944.565279,17.0789474 C944.660288,17.0789474 944.751104,17.0682262 944.83773,17.0467836 C944.924356,17.025341 944.999803,16.9911674 945.064074,16.9442617 C945.128344,16.897356 945.179341,16.8377197 945.217065,16.7653509 C945.254789,16.6929821 945.273651,16.6045327 945.273651,16.5 L944.829347,16.5 C944.826552,16.5938114 944.804198,16.6614886 944.762282,16.7030336 C944.720366,16.7445787 944.654699,16.7653509 944.565279,16.7653509 C944.473064,16.7653509 944.407397,16.7439086 944.368276,16.7010234 C944.329155,16.6581382 944.3068,16.5911311 944.301211,16.5 L943.856907,16.5 C943.856907,16.6045327 943.875769,16.6929821 943.913493,16.7653509 C943.951217,16.8377197 944.002214,16.897356 944.066484,16.9442617 C944.130755,16.9911674 944.205504,17.025341 944.290732,17.0467836 C944.375961,17.0682262 944.467476,17.0789474 944.565279,17.0789474 Z M948.324974,19.4590643 C948.612795,19.4590643 948.848917,19.3866966 949.033346,19.2419591 C949.217775,19.0972215 949.329549,18.8868191 949.36867,18.6107456 L948.794427,18.6107456 C948.774867,18.7394012 948.726664,18.8419221 948.649819,18.9183114 C948.572973,18.9947007 948.463296,19.0328947 948.320782,19.0328947 C948.228568,19.0328947 948.150326,19.0127926 948.086055,18.9725877 C948.021784,18.9323828 947.970788,18.8807873 947.933064,18.8177997 C947.895339,18.7548121 947.868095,18.6844546 947.851328,18.6067251 C947.834562,18.5289957 947.826179,18.4526076 947.826179,18.3775585 C947.826179,18.3025094 947.834562,18.2247811 947.851328,18.1443713 C947.868095,18.0639616 947.896737,17.9909238 947.937255,17.9252558 C947.977774,17.8595879 948.030168,17.8059822 948.094438,17.7644371 C948.158709,17.7228921 948.238348,17.7021199 948.333357,17.7021199 C948.587646,17.7021199 948.734348,17.8213926 948.77347,18.0599415 L949.356095,18.0599415 C949.347712,17.9286056 949.31418,17.8133533 949.255498,17.7141813 C949.196816,17.6150092 949.12067,17.5325905 949.027059,17.4669225 C948.933447,17.4012545 948.827262,17.3523393 948.708501,17.3201754 C948.589739,17.2880115 948.46609,17.2719298 948.337548,17.2719298 C948.161502,17.2719298 948.005019,17.3000728 947.868095,17.3563597 C947.73117,17.4126465 947.615205,17.4910448 947.520196,17.591557 C947.425187,17.6920692 947.353233,17.8113419 947.304331,17.9493787 C947.255429,18.0874154 947.230979,18.2368413 947.230979,18.3976608 C947.230979,18.5531197 947.257525,18.6958449 947.310618,18.8258406 C947.363711,18.9558364 947.437762,19.0677383 947.53277,19.1615497 C947.627779,19.2553611 947.742347,19.3283989 947.876478,19.3806652 C948.010608,19.4329315 948.160105,19.4590643 948.324974,19.4590643 Z M950.948758,17.3282164 L950.948758,19.4067982 L951.543958,19.4067982 L951.543958,18.6750731 L951.669705,18.5423977 L952.436759,19.4067982 L953.157706,19.4067982 L952.134967,18.244883 L953.040342,17.3282164 L952.340353,17.3282164 L951.543958,18.1765351 L951.543958,17.3282164 L950.948758,17.3282164 Z M955.244971,19.4590643 C955.379102,19.4590643 955.510436,19.4403023 955.638977,19.4027778 C955.767519,19.3652532 955.879292,19.2995862 955.974301,19.2057749 C955.977096,19.2406191 955.981986,19.2747927 955.988972,19.3082968 C955.995958,19.3418008 956.005039,19.3746343 956.016217,19.4067982 L956.6198,19.4067982 C956.591856,19.363913 956.572296,19.2995862 956.561119,19.2138158 C956.549941,19.1280454 956.544352,19.0382558 956.544352,18.9444444 L956.544352,17.8629386 C956.544352,17.7396436 956.515012,17.6391329 956.45633,17.5614035 C956.397648,17.4836741 956.322201,17.4233677 956.229986,17.3804825 C956.137771,17.3375973 956.035778,17.3087842 955.924003,17.2940424 C955.812227,17.2793006 955.701851,17.2719298 955.59287,17.2719298 C955.469917,17.2719298 955.349761,17.283321 955.232397,17.3061038 C955.115033,17.3288866 955.008848,17.3670806 954.913839,17.4206871 C954.81883,17.4742936 954.740588,17.5459913 954.679112,17.6357822 C954.617635,17.7255731 954.582706,17.8361348 954.574323,17.9674708 L955.169523,17.9674708 C955.180701,17.8548971 955.219822,17.7744885 955.286887,17.7262427 C955.353952,17.6779968 955.446165,17.6538743 955.563529,17.6538743 C955.616623,17.6538743 955.666222,17.6572246 955.712329,17.6639254 C955.758437,17.6706263 955.798955,17.6840277 955.833884,17.7041301 C955.868814,17.7242326 955.896758,17.7530456 955.917715,17.7905702 C955.938673,17.8280947 955.949152,17.8763399 955.949152,17.935307 C955.951946,17.9942742 955.933783,18.039169 955.894662,18.0699927 C955.855541,18.1008164 955.802448,18.1242689 955.735383,18.1403509 C955.668318,18.1564328 955.591473,18.1684941 955.504848,18.1765351 C955.418222,18.1845761 955.3302,18.1952972 955.24078,18.2086988 C955.15136,18.2221005 955.062639,18.2401924 954.974616,18.2629751 C954.886593,18.2857579 954.808352,18.3199315 954.739889,18.3654971 C954.671427,18.4110626 954.61554,18.4720391 954.572227,18.5484284 C954.528914,18.6248176 954.507258,18.721978 954.507258,18.8399123 C954.507258,18.9471253 954.52612,19.0395951 954.563844,19.1173246 C954.601568,19.195054 954.653962,19.2593808 954.721027,19.310307 C954.788093,19.3612332 954.866334,19.3987572 954.955754,19.4228801 C955.045175,19.447003 955.141579,19.4590643 955.244971,19.4590643 Z M955.467124,19.0811404 C955.419619,19.0811404 955.373513,19.0771199 955.328802,19.0690789 C955.284092,19.061038 955.244972,19.0469665 955.211439,19.026864 C955.177906,19.0067616 955.15136,18.9799587 955.131799,18.9464547 C955.112239,18.9129506 955.102459,18.869396 955.102459,18.8157895 C955.102459,18.762183 955.112239,18.7179583 955.131799,18.683114 C955.15136,18.6482698 955.177208,18.6194567 955.209343,18.596674 C955.241479,18.5738912 955.278504,18.5557993 955.320419,18.5423977 C955.362335,18.528996 955.407044,18.5182749 955.454549,18.5102339 C955.502053,18.5021929 955.549557,18.4954922 955.597062,18.4901316 C955.644566,18.4847709 955.690673,18.4780702 955.735383,18.4700292 C955.780093,18.4619883 955.820611,18.4519372 955.856938,18.4398757 C955.893265,18.4278143 955.924003,18.4110625 955.949152,18.3896199 L955.949152,18.6027047 C955.949152,18.6348686 955.945659,18.6777531 955.938673,18.7313597 C955.931687,18.7849662 955.912825,18.8379018 955.882087,18.8901681 C955.851349,18.9424345 955.803845,18.9873292 955.739574,19.0248538 C955.675304,19.0623784 955.584488,19.0811404 955.467124,19.0811404 Z M958.711258,18.6268275 L958.023843,19.4067982 L958.753173,19.4067982 L959.344182,18.6750731 L959.625016,18.6750731 L959.625016,19.4067982 L960.220216,19.4067982 L960.220216,17.3282164 L958.90826,17.3282164 C958.802074,17.3282164 958.705669,17.3449682 958.619043,17.3784722 C958.532418,17.4119763 958.45697,17.4582112 958.3927,17.5171784 C958.328429,17.5761455 958.278829,17.6451629 958.2439,17.7242325 C958.20897,17.803302 958.191505,17.8884011 958.191505,17.9795322 C958.191505,18.151073 958.239708,18.2958084 958.336114,18.4137427 C958.43252,18.531677 958.557567,18.6027046 958.711258,18.6268275 Z M959.625016,17.7423246 L959.625016,18.2649854 L959.15137,18.2649854 C959.011651,18.2649854 958.917342,18.2408628 958.868441,18.192617 C958.819539,18.1443711 958.795089,18.0800443 958.795089,17.9996345 C958.795089,17.9219051 958.820238,17.8595884 958.870536,17.8126828 C958.920835,17.7657771 959.014446,17.7423246 959.15137,17.7423246 L959.625016,17.7423246 Z M925.657825,23.4795322 C925.945646,23.4795322 926.181768,23.4071644 926.366197,23.2624269 C926.550626,23.1176893 926.6624,22.9072869 926.701521,22.6312135 L926.127279,22.6312135 C926.107718,22.759869 926.059515,22.86239 925.98267,22.9387792 C925.905824,23.0151685 925.796147,23.0533625 925.653633,23.0533625 C925.561419,23.0533625 925.483177,23.0332605 925.418906,22.9930556 C925.354636,22.9528507 925.303639,22.9012552 925.265915,22.8382676 C925.228191,22.7752799 925.200946,22.7049224 925.184179,22.627193 C925.167413,22.5494635 925.15903,22.4730754 925.15903,22.3980263 C925.15903,22.3229772 925.167413,22.245249 925.184179,22.1648392 C925.200946,22.0844294 925.229588,22.0113917 925.270106,21.9457237 C925.310625,21.8800557 925.363019,21.82645 925.427289,21.784905 C925.49156,21.74336 925.571199,21.7225877 925.666208,21.7225877 C925.920497,21.7225877 926.067199,21.8418604 926.106321,22.0804094 L926.688946,22.0804094 C926.680563,21.9490734 926.647031,21.8338212 926.588349,21.7346491 C926.529667,21.6354771 926.453521,21.5530583 926.35991,21.4873904 C926.266298,21.4217224 926.160113,21.3728072 926.041352,21.3406432 C925.92259,21.3084793 925.798941,21.2923977 925.670399,21.2923977 C925.494353,21.2923977 925.33787,21.3205407 925.200946,21.3768275 C925.064021,21.4331143 924.948056,21.5115127 924.853047,21.6120249 C924.758038,21.7125371 924.686084,21.8318098 924.637182,21.9698465 C924.58828,22.1078833 924.56383,22.2573092 924.56383,22.4181286 C924.56383,22.5735875 924.590376,22.7163127 924.643469,22.8463085 C924.696563,22.9763042 924.770613,23.0882061 924.865622,23.1820175 C924.96063,23.2758289 925.075198,23.3488667 925.209329,23.401133 C925.343459,23.4533994 925.492956,23.4795322 925.657825,23.4795322 Z M928.281609,21.3486842 L928.281609,23.4272661 L928.956449,23.4272661 L929.773801,22.0201024 L929.773801,23.4272661 L930.343852,23.4272661 L930.343852,21.3486842 L929.669013,21.3486842 L928.85166,22.7558479 L928.85166,21.3486842 L928.281609,21.3486842 Z M933.068234,23.4795322 C933.356055,23.4795322 933.592177,23.4071644 933.776606,23.2624269 C933.961035,23.1176893 934.072809,22.9072869 934.11193,22.6312135 L933.537688,22.6312135 C933.518127,22.759869 933.469925,22.86239 933.393079,22.9387792 C933.316234,23.0151685 933.206556,23.0533625 933.064042,23.0533625 C932.971828,23.0533625 932.893586,23.0332605 932.829316,22.9930556 C932.765045,22.9528507 932.714048,22.9012552 932.676324,22.8382676 C932.6386,22.7752799 932.611355,22.7049224 932.594589,22.627193 C932.577822,22.5494635 932.569439,22.4730754 932.569439,22.3980263 C932.569439,22.3229772 932.577822,22.245249 932.594589,22.1648392 C932.611355,22.0844294 932.639997,22.0113917 932.680515,21.9457237 C932.721034,21.8800557 932.773428,21.82645 932.837699,21.784905 C932.901969,21.74336 932.981608,21.7225877 933.076617,21.7225877 C933.330906,21.7225877 933.477609,21.8418604 933.51673,22.0804094 L934.099356,22.0804094 C934.090973,21.9490734 934.05744,21.8338212 933.998758,21.7346491 C933.940076,21.6354771 933.863931,21.5530583 933.770319,21.4873904 C933.676707,21.4217224 933.570522,21.3728072 933.451761,21.3406432 C933.333,21.3084793 933.20935,21.2923977 933.080809,21.2923977 C932.904763,21.2923977 932.74828,21.3205407 932.611355,21.3768275 C932.47443,21.4331143 932.358465,21.5115127 932.263456,21.6120249 C932.168447,21.7125371 932.096493,21.8318098 932.047591,21.9698465 C931.998689,22.1078833 931.974239,22.2573092 931.974239,22.4181286 C931.974239,22.5735875 932.000785,22.7163127 932.053878,22.8463085 C932.106972,22.9763042 932.181022,23.0882061 932.276031,23.1820175 C932.37104,23.2758289 932.485608,23.3488667 932.619738,23.401133 C932.753868,23.4533994 932.903365,23.4795322 933.068234,23.4795322 Z M936.220154,21.7788743 L936.220154,23.4272661 L936.815354,23.4272661 L936.815354,21.7788743 L937.527918,21.7788743 L937.527918,21.3486842 L935.50759,21.3486842 L935.50759,21.7788743 L936.220154,21.7788743 Z M940.042722,23.4795322 C940.288627,23.4795322 940.498203,23.4259264 940.671455,23.3187135 C940.844706,23.2115005 940.973246,23.0332615 941.057077,22.7839912 L940.533133,22.7839912 C940.513573,22.8483191 940.46048,22.9092955 940.373854,22.9669225 C940.287229,23.0245495 940.183838,23.0533625 940.06368,23.0533625 C939.896017,23.0533625 939.767477,23.0118181 939.678057,22.9287281 C939.588637,22.845638 939.539736,22.7116238 939.531352,22.5266813 L941.094801,22.5266813 C941.097596,22.507919 941.098993,22.4898271 941.098993,22.472405 L941.098993,22.4181286 C941.098993,22.2707107 941.076638,22.1286556 941.031928,21.9919591 C940.987218,21.8552625 940.920852,21.7353197 940.832829,21.6321272 C940.744806,21.5289347 940.63443,21.4465159 940.501697,21.3848684 C940.368964,21.3232209 940.215973,21.2923977 940.042722,21.2923977 C939.877853,21.2923977 939.727657,21.3205407 939.59213,21.3768275 C939.456602,21.4331143 939.339939,21.5101725 939.242135,21.6080044 C939.144332,21.7058363 939.068885,21.8217586 939.015792,21.9557749 C938.962698,22.0897911 938.936152,22.2345265 938.936152,22.3899854 C938.936152,22.5508049 938.962,22.6982206 939.013696,22.8322369 C939.065392,22.9662531 939.138743,23.0815054 939.233752,23.1779971 C939.328761,23.2744888 939.444726,23.3488667 939.581651,23.401133 C939.718576,23.4533994 939.872265,23.4795322 940.042722,23.4795322 Z M940.499601,22.1648392 L939.531352,22.1648392 C939.534147,22.1246343 939.543228,22.0790694 939.558598,22.0281432 C939.573967,21.9772171 939.600513,21.9289719 939.638237,21.8834064 C939.675961,21.8378409 939.725561,21.7996468 939.787037,21.7688231 C939.848514,21.7379993 939.928152,21.7225877 940.025956,21.7225877 C940.171263,21.7225877 940.279544,21.7601117 940.350801,21.8351608 C940.422058,21.9102099 940.471657,22.0201016 940.499601,22.1648392 Z M942.691655,21.3486842 L942.691655,23.4272661 L943.253323,23.4272661 L943.253323,21.8472222 L943.265898,21.8472222 L943.73116,23.4272661 L944.292828,23.4272661 L944.75809,21.8472222 L944.770665,21.8472222 L944.770665,23.4272661 L945.332333,23.4272661 L945.332333,21.3486842 L944.468873,21.3486842 L944.020377,22.8603801 L944.003611,22.8603801 L943.555115,21.3486842 L942.691655,21.3486842 Z M947.675283,23.4795322 C947.809414,23.4795322 947.940747,23.4607702 948.069289,23.4232456 C948.197831,23.3857211 948.309604,23.3200541 948.404613,23.2262427 C948.407408,23.2610869 948.412298,23.2952606 948.419284,23.3287646 C948.42627,23.3622687 948.435351,23.3951022 948.446529,23.4272661 L949.050112,23.4272661 C949.022168,23.3843809 949.002608,23.320054 948.99143,23.2342837 C948.980253,23.1485132 948.974664,23.0587236 948.974664,22.9649123 L948.974664,21.8834065 C948.974664,21.7601115 948.945324,21.6596008 948.886642,21.5818714 C948.82796,21.5041419 948.752512,21.4438355 948.660298,21.4009503 C948.568083,21.3580651 948.46609,21.329252 948.354315,21.3145103 C948.242539,21.2997685 948.132163,21.2923977 948.023182,21.2923977 C947.900229,21.2923977 947.780073,21.3037889 947.662709,21.3265717 C947.545345,21.3493544 947.43916,21.3875485 947.344151,21.441155 C947.249142,21.4947615 947.1709,21.5664591 947.109424,21.65625 C947.047947,21.7460409 947.013018,21.8566026 947.004635,21.9879386 L947.599835,21.9879386 C947.611013,21.875365 947.650134,21.7949564 947.717199,21.7467106 C947.784264,21.6984647 947.876477,21.6743421 947.993841,21.6743421 C948.046934,21.6743421 948.096534,21.6776925 948.142641,21.6843932 C948.188749,21.6910941 948.229266,21.7044955 948.264196,21.7245979 C948.299126,21.7447004 948.327069,21.7735135 948.348027,21.811038 C948.368985,21.8485626 948.379464,21.8968077 948.379464,21.9557749 C948.382258,22.014742 948.364095,22.0596368 948.324974,22.0904606 C948.285852,22.1212843 948.23276,22.1447367 948.165695,22.1608187 C948.09863,22.1769007 948.021785,22.1889619 947.935159,22.1970029 C947.848534,22.2050439 947.760512,22.2157651 947.671092,22.2291666 C947.581671,22.2425683 947.492951,22.2606602 947.404928,22.283443 C947.316905,22.3062257 947.238664,22.3403994 947.170201,22.3859649 C947.101739,22.4315305 947.045852,22.4925069 947.002539,22.5688962 C946.959226,22.6452854 946.93757,22.7424458 946.93757,22.8603801 C946.93757,22.9675931 946.956432,23.060063 946.994156,23.1377924 C947.03188,23.2155219 947.084274,23.2798486 947.151339,23.3307748 C947.218404,23.3817011 947.296646,23.4192251 947.386066,23.4433479 C947.475486,23.4674709 947.571891,23.4795322 947.675283,23.4795322 Z M947.897435,23.1016082 C947.849931,23.1016082 947.803824,23.0975878 947.759114,23.0895468 C947.714404,23.0815058 947.675283,23.0674343 947.641751,23.0473318 C947.608218,23.0272295 947.581672,23.0004266 947.562111,22.9669225 C947.542551,22.9334184 947.53277,22.8898638 947.53277,22.8362573 C947.53277,22.7826508 947.542551,22.7384261 947.562111,22.7035818 C947.581672,22.6687377 947.60752,22.6399246 947.639655,22.6171418 C947.67179,22.5943591 947.708815,22.5762671 947.750731,22.5628655 C947.792647,22.5494639 947.837356,22.5387428 947.884861,22.5307018 C947.932365,22.5226608 947.979869,22.5159601 948.027374,22.5105994 C948.074878,22.5052388 948.120985,22.4985381 948.165695,22.4904971 C948.210405,22.4824561 948.250923,22.472405 948.28725,22.4603436 C948.323577,22.4482821 948.354314,22.4315303 948.379464,22.4100877 L948.379464,22.6231725 C948.379464,22.6553364 948.375971,22.698221 948.368985,22.7518275 C948.361999,22.805434 948.343137,22.8583696 948.312399,22.9106359 C948.281661,22.9629023 948.234157,23.0077971 948.169886,23.0453216 C948.105616,23.0828462 948.014799,23.1016082 947.897435,23.1016082 Z M924.630895,25.3691521 L924.630895,27.4477339 L925.226095,27.4477339 L925.226095,26.7160088 L925.351841,26.5833334 L926.118895,27.4477339 L926.839842,27.4477339 L925.817104,26.2858187 L926.722479,25.3691521 L926.02249,25.3691521 L925.226095,26.2174708 L925.226095,25.3691521 L924.630895,25.3691521 Z M928.927108,27.5 C929.061238,27.5 929.192572,27.481238 929.321114,27.4437135 C929.449655,27.4061889 929.561429,27.3405219 929.656438,27.2467105 C929.659232,27.2815547 929.664122,27.3157284 929.671108,27.3492324 C929.678094,27.3827365 929.687176,27.41557 929.698353,27.4477339 L930.301937,27.4477339 C930.273993,27.4048487 930.254433,27.3405218 930.243255,27.2547515 C930.232078,27.168981 930.226489,27.0791915 930.226489,26.9853801 L930.226489,25.9038743 C930.226489,25.7805793 930.197148,25.6800686 930.138466,25.6023392 C930.079784,25.5246097 930.004337,25.4643034 929.912123,25.4214182 C929.819908,25.3785329 929.717915,25.3497198 929.606139,25.3349781 C929.494364,25.3202363 929.383988,25.3128655 929.275007,25.3128655 C929.152054,25.3128655 929.031897,25.3242567 928.914533,25.3470395 C928.797169,25.3698223 928.690984,25.4080163 928.595975,25.4616228 C928.500966,25.5152293 928.422725,25.586927 928.361249,25.6767178 C928.299772,25.7665087 928.264843,25.8770705 928.25646,26.0084065 L928.85166,26.0084065 C928.862838,25.8958328 928.901958,25.8154242 928.969024,25.7671784 C929.036089,25.7189325 929.128302,25.6948099 929.245666,25.6948099 C929.298759,25.6948099 929.348359,25.6981603 929.394466,25.7048611 C929.440573,25.7115619 929.481091,25.7249633 929.516021,25.7450658 C929.550951,25.7651683 929.578894,25.7939813 929.599852,25.8315058 C929.62081,25.8690304 929.631289,25.9172755 929.631289,25.9762427 C929.634083,26.0352099 929.61592,26.0801046 929.576798,26.1109284 C929.537677,26.1417521 929.484585,26.1652046 929.41752,26.1812865 C929.350454,26.1973685 929.27361,26.2094298 929.186984,26.2174708 C929.100358,26.2255118 929.012337,26.2362329 928.922916,26.2496345 C928.833496,26.2630362 928.744776,26.281128 928.656753,26.3039108 C928.56873,26.3266936 928.490488,26.3608672 928.422026,26.4064328 C928.353564,26.4519983 928.297677,26.5129747 928.254364,26.5893641 C928.211051,26.6657533 928.189395,26.7629136 928.189395,26.8808479 C928.189395,26.9880609 928.208257,27.0805308 928.245981,27.1582602 C928.283705,27.2359897 928.336099,27.3003165 928.403164,27.3512427 C928.470229,27.4021688 928.548471,27.4396929 928.637891,27.4638158 C928.727311,27.4879387 928.823716,27.5 928.927108,27.5 Z M929.14926,27.122076 C929.101756,27.122076 929.055649,27.1180556 929.010939,27.1100146 C928.966229,27.1019736 928.927108,27.0879021 928.893576,27.0677997 C928.860043,27.0476972 928.833497,27.0208944 928.813936,26.9873903 C928.794375,26.9538863 928.784595,26.9103316 928.784595,26.8567251 C928.784595,26.8031186 928.794375,26.7588939 928.813936,26.7240497 C928.833497,26.6892055 928.859344,26.6603924 928.89148,26.6376096 C928.923615,26.6148269 928.96064,26.5967349 929.002556,26.5833334 C929.044472,26.5699317 929.089181,26.5592105 929.136686,26.5511696 C929.18419,26.5431286 929.231694,26.5364279 929.279198,26.5310672 C929.326703,26.5257066 929.372809,26.5190059 929.41752,26.5109649 C929.46223,26.5029239 929.502748,26.4928728 929.539075,26.4808114 C929.575401,26.4687499 929.606139,26.4519981 929.631289,26.4305555 L929.631289,26.6436403 C929.631289,26.6758042 929.627796,26.7186888 929.62081,26.7722953 C929.613824,26.8259018 929.594962,26.8788374 929.564224,26.9311038 C929.533486,26.9833701 929.485982,27.0282649 929.421711,27.0657895 C929.35744,27.103314 929.266624,27.122076 929.14926,27.122076 Z M933.290386,26.683845 L933.290386,27.4477339 L933.885587,27.4477339 L933.885587,25.3691521 L933.290386,25.3691521 L933.290386,26.2737573 C933.240087,26.287159 933.177215,26.3005604 933.101766,26.313962 C933.026318,26.3273636 932.945282,26.3340643 932.858656,26.3340643 C932.718937,26.3340643 932.618341,26.3045812 932.556865,26.2456141 C932.495388,26.1866469 932.464651,26.0807756 932.464651,25.9279971 L932.464651,25.3691521 L931.873642,25.3691521 L931.873642,26.0445906 C931.873642,26.2697379 931.937912,26.4479769 932.066453,26.5793129 C932.194995,26.7106488 932.407365,26.7763158 932.703569,26.7763158 C932.820933,26.7763158 932.934104,26.7649246 933.043085,26.7421418 C933.152066,26.719359 933.234499,26.699927 933.290386,26.683845 Z M936.584819,27.5 C936.830724,27.5 937.0403,27.4463943 937.213551,27.3391813 C937.386803,27.2319682 937.515343,27.0537293 937.599174,26.804459 L937.07523,26.804459 C937.05567,26.8687868 937.002577,26.9297633 936.915951,26.9873903 C936.829325,27.0450173 936.725935,27.0738304 936.605776,27.0738304 C936.438114,27.0738304 936.309574,27.032286 936.220154,26.9491959 C936.130734,26.8661058 936.081833,26.7320915 936.073449,26.5471491 L937.636898,26.5471491 C937.639693,26.5283869 937.64109,26.5102949 937.64109,26.4928728 L937.64109,26.4385965 C937.64109,26.2911786 937.618735,26.1491235 937.574025,26.0124269 C937.529315,25.8757303 937.462949,25.7557876 937.374926,25.6525951 C937.286903,25.5494025 937.176527,25.4669838 937.043794,25.4053363 C936.91106,25.3436888 936.75807,25.3128655 936.584819,25.3128655 C936.41995,25.3128655 936.269754,25.3410085 936.134227,25.3972953 C935.998699,25.4535822 935.882036,25.5306404 935.784232,25.6284722 C935.686429,25.7263041 935.610982,25.8422265 935.557889,25.9762427 C935.504795,26.110259 935.478249,26.2549944 935.478249,26.4104532 C935.478249,26.5712727 935.504097,26.7186884 935.555793,26.8527047 C935.607489,26.9867209 935.68084,27.1019732 935.775849,27.1984649 C935.870858,27.2949566 935.986823,27.3693345 936.123748,27.4216009 C936.260673,27.4738672 936.414361,27.5 936.584819,27.5 Z M937.041698,26.185307 L936.073449,26.185307 C936.076244,26.1451021 936.085325,26.0995373 936.100695,26.0486111 C936.116064,25.997685 936.14261,25.9494398 936.180334,25.9038742 C936.218058,25.8583087 936.267658,25.8201147 936.329134,25.7892909 C936.39061,25.7584672 936.470249,25.7430555 936.568053,25.7430555 C936.71336,25.7430555 936.821641,25.7805795 936.892898,25.8556286 C936.964154,25.9306777 937.013754,26.0405694 937.041698,26.185307 Z M940.260682,27.5 C940.548504,27.5 940.784625,27.4276323 940.969055,27.2828948 C941.153484,27.1381571 941.265257,26.9277548 941.304379,26.6516813 L940.730136,26.6516813 C940.710576,26.7803369 940.662373,26.8828578 940.585528,26.9592471 C940.508682,27.0356364 940.399004,27.0738304 940.256491,27.0738304 C940.164276,27.0738304 940.086035,27.0537282 940.021764,27.0135234 C939.957493,26.9733185 939.906497,26.921723 939.868772,26.8587354 C939.831048,26.7957478 939.803803,26.7253903 939.787037,26.6476608 C939.770271,26.5699314 939.761888,26.4935432 939.761888,26.4184942 C939.761888,26.343445 939.770271,26.2657168 939.787037,26.185307 C939.803803,26.1048973 939.832445,26.0318595 939.872964,25.9661915 C939.913482,25.9005236 939.965876,25.8469179 940.030147,25.8053728 C940.094418,25.7638278 940.174057,25.7430556 940.269066,25.7430556 C940.523354,25.7430556 940.670057,25.8623283 940.709178,26.1008772 L941.291804,26.1008772 C941.283421,25.9695413 941.249889,25.854289 941.191207,25.755117 C941.132525,25.6559449 941.056379,25.5735261 940.962767,25.5078582 C940.869156,25.4421902 940.762971,25.393275 940.644209,25.3611111 C940.525448,25.3289472 940.401799,25.3128655 940.273257,25.3128655 C940.097211,25.3128655 939.940728,25.3410085 939.803803,25.3972953 C939.666879,25.4535822 939.550914,25.5319805 939.455905,25.6324927 C939.360896,25.7330049 939.288941,25.8522776 939.24004,25.9903144 C939.191138,26.1283511 939.166687,26.2777769 939.166687,26.4385965 C939.166687,26.5940553 939.193234,26.7367805 939.246327,26.8667763 C939.29942,26.9967721 939.37347,27.108674 939.468479,27.2024854 C939.563488,27.2962967 939.678056,27.3693345 939.812186,27.4216009 C939.946317,27.4738672 940.095814,27.5 940.260682,27.5 Z M943.412602,25.7993421 L943.412602,27.4477339 L944.007803,27.4477339 L944.007803,25.7993421 L944.720366,25.7993421 L944.720366,25.3691521 L942.700039,25.3691521 L942.700039,25.7993421 L943.412602,25.7993421 Z M946.250156,25.3691521 L946.250156,27.4477339 L947.553728,27.4477339 C947.654326,27.4477339 947.749334,27.4343325 947.838754,27.4075292 C947.928174,27.380726 948.006415,27.3411918 948.073481,27.2889255 C948.140546,27.2366591 948.19294,27.1723323 948.230664,27.095943 C948.268388,27.0195537 948.28725,26.9304342 948.28725,26.8285818 C948.28725,26.6838443 948.249526,26.5706023 948.174078,26.4888523 C948.09863,26.4071024 948.005019,26.3514865 947.893244,26.3220029 C947.982664,26.2844784 948.05392,26.2288625 948.107013,26.1551535 C948.160106,26.0814446 948.186652,25.9936652 948.186652,25.8918129 C948.186652,25.8006818 948.168489,25.7216134 948.132162,25.6546052 C948.095835,25.5875972 948.046236,25.5333214 947.983362,25.4917763 C947.920489,25.4502313 947.847137,25.419408 947.763306,25.3993056 C947.679474,25.3792031 947.590055,25.3691521 947.495047,25.3691521 L946.250156,25.3691521 Z M947.277086,27.0778509 L946.836973,27.0778509 L946.836973,26.5270468 L947.251937,26.5270468 C947.30503,26.5270468 947.356725,26.5303972 947.407024,26.5370979 C947.457323,26.5437988 947.502032,26.5565301 947.541154,26.5752924 C947.580275,26.5940547 947.611711,26.6221977 947.635463,26.6597222 C947.659216,26.6972468 947.671092,26.7454919 947.671092,26.804459 C947.671092,26.8634262 947.659914,26.9110013 947.637559,26.9471856 C947.615204,26.98337 947.585864,27.010843 947.549537,27.0296052 C947.51321,27.0483675 947.471295,27.0610989 947.42379,27.0677997 C947.376286,27.0745005 947.327385,27.0778509 947.277086,27.0778509 Z M947.230979,26.2054094 L946.836973,26.2054094 L946.836973,25.7309942 L947.230979,25.7309942 C947.275689,25.7309942 947.3197,25.7336744 947.363013,25.7390351 C947.406326,25.7443957 947.444049,25.7551169 947.476184,25.7711988 C947.50832,25.7872808 947.534168,25.8107333 947.553728,25.841557 C947.573289,25.8723807 947.583069,25.9132551 947.583069,25.9641813 C947.583069,26.0177878 947.573289,26.0600023 947.553728,26.090826 C947.534168,26.1216497 947.507621,26.1457724 947.474089,26.1631945 C947.440556,26.1806165 947.402833,26.1920078 947.360917,26.1973684 C947.319001,26.2027291 947.275689,26.2054094 947.230979,26.2054094 Z M950.558944,27.5 C950.693074,27.5 950.824408,27.481238 950.95295,27.4437135 C951.081491,27.4061889 951.193265,27.3405219 951.288274,27.2467105 C951.291068,27.2815547 951.295958,27.3157284 951.302944,27.3492324 C951.30993,27.3827365 951.319012,27.41557 951.330189,27.4477339 L951.933773,27.4477339 C951.905829,27.4048487 951.886268,27.3405218 951.875091,27.2547515 C951.863913,27.168981 951.858325,27.0791915 951.858325,26.9853801 L951.858325,25.9038743 C951.858325,25.7805793 951.828984,25.6800686 951.770302,25.6023392 C951.71162,25.5246097 951.636173,25.4643034 951.543958,25.4214182 C951.451744,25.3785329 951.34975,25.3497198 951.237975,25.3349781 C951.1262,25.3202363 951.015823,25.3128655 950.906842,25.3128655 C950.78389,25.3128655 950.663733,25.3242567 950.546369,25.3470395 C950.429005,25.3698223 950.32282,25.4080163 950.227811,25.4616228 C950.132802,25.5152293 950.054561,25.586927 949.993084,25.6767178 C949.931608,25.7665087 949.896679,25.8770705 949.888295,26.0084065 L950.483496,26.0084065 C950.494673,25.8958328 950.533794,25.8154242 950.600859,25.7671784 C950.667924,25.7189325 950.760138,25.6948099 950.877502,25.6948099 C950.930595,25.6948099 950.980194,25.6981603 951.026302,25.7048611 C951.072409,25.7115619 951.112927,25.7249633 951.147857,25.7450658 C951.182786,25.7651683 951.21073,25.7939813 951.231688,25.8315058 C951.252646,25.8690304 951.263124,25.9172755 951.263124,25.9762427 C951.265919,26.0352099 951.247756,26.0801046 951.208634,26.1109284 C951.169513,26.1417521 951.11642,26.1652046 951.049355,26.1812865 C950.98229,26.1973685 950.905446,26.2094298 950.81882,26.2174708 C950.732194,26.2255118 950.644172,26.2362329 950.554752,26.2496345 C950.465332,26.2630362 950.376612,26.281128 950.288589,26.3039108 C950.200566,26.3266936 950.122324,26.3608672 950.053862,26.4064328 C949.985399,26.4519983 949.929513,26.5129747 949.8862,26.5893641 C949.842887,26.6657533 949.821231,26.7629136 949.821231,26.8808479 C949.821231,26.9880609 949.840092,27.0805308 949.877817,27.1582602 C949.915541,27.2359897 949.967935,27.3003165 950.035,27.3512427 C950.102065,27.4021688 950.180306,27.4396929 950.269727,27.4638158 C950.359147,27.4879387 950.455552,27.5 950.558944,27.5 Z M950.781096,27.122076 C950.733591,27.122076 950.687485,27.1180556 950.642775,27.1100146 C950.598065,27.1019736 950.558944,27.0879021 950.525411,27.0677997 C950.491879,27.0476972 950.465332,27.0208944 950.445772,26.9873903 C950.426211,26.9538863 950.416431,26.9103316 950.416431,26.8567251 C950.416431,26.8031186 950.426211,26.7588939 950.445772,26.7240497 C950.465332,26.6892055 950.49118,26.6603924 950.523316,26.6376096 C950.555451,26.6148269 950.592476,26.5967349 950.634392,26.5833334 C950.676307,26.5699317 950.721017,26.5592105 950.768521,26.5511696 C950.816026,26.5431286 950.86353,26.5364279 950.911034,26.5310672 C950.958539,26.5257066 951.004645,26.5190059 951.049355,26.5109649 C951.094065,26.5029239 951.134583,26.4928728 951.17091,26.4808114 C951.207237,26.4687499 951.237975,26.4519981 951.263124,26.4305555 L951.263124,26.6436403 C951.263124,26.6758042 951.259631,26.7186888 951.252646,26.7722953 C951.24566,26.8259018 951.226798,26.8788374 951.19606,26.9311038 C951.165321,26.9833701 951.117818,27.0282649 951.053547,27.0657895 C950.989276,27.103314 950.89846,27.122076 950.781096,27.122076 Z M887,32 L972,32 L972,46 L887,46 L887,32 Z M898.27786,44.17284 L898.149691,44.5 L900.614162,44.5 L901.487646,42.1060924 L905.652289,42.1060924 L906.494577,44.5 L909.037037,44.5 L904.872393,33.75 L902.361129,33.75 L898.27786,44.17284 L893.47544,38.2517507 L898.134763,33.75 L895.169739,33.75 L890.949119,38.0560224 L890.949119,33.75 L888.574074,33.75 L888.574074,44.5 L890.949119,44.5 L890.949119,40.5854341 L891.750885,39.7272409 L895.563059,44.5 L898.54321,44.5 L898.27786,44.17284 Z M905.012775,40.3445378 L902.12716,40.3445378 L903.577766,36.3998599 L903.608962,36.3998599 L905.012775,40.3445378 Z M914.727617,40.4198179 L914.727617,44.5 L917.169753,44.5 L917.169753,33.75 L914.727617,33.75 L914.727617,38.5227591 C914.551326,38.5629087 914.292078,38.613095 913.949866,38.6733193 C913.607654,38.7335437 913.239523,38.7636555 912.845461,38.7636555 C912.243997,38.7636555 911.754019,38.6331713 911.375512,38.3721989 C910.997005,38.1112265 910.807754,37.6545318 910.807754,37.0021009 L910.807754,33.75 L908.381173,33.75 L908.381173,36.9719888 C908.381173,37.6645693 908.471909,38.249239 908.653385,38.7260154 C908.834861,39.2027918 909.101887,39.5892259 909.454468,39.8853292 C909.80705,40.1814324 910.242586,40.3947239 910.761089,40.5252101 C911.279592,40.6556962 911.875862,40.7209384 912.549915,40.7209384 C912.964718,40.7209384 913.363959,40.685808 913.747651,40.6155462 C914.131343,40.5452844 914.457995,40.4800423 914.727617,40.4198179 Z M919.003025,33.75 L919.003025,44.5 L927.532407,44.5 L927.532407,42.512605 L921.473713,42.512605 L921.473713,39.8778011 L926.91867,39.8778011 L926.91867,38.0409664 L921.473713,38.0409664 L921.473713,35.737395 L927.406512,35.737395 L927.406512,33.75 L919.003025,33.75 Z M931.705084,44.3207831 C932.371801,44.6069291 933.13082,44.75 933.982166,44.75 C934.65914,44.75 935.279689,44.6495994 935.843834,44.4487952 C936.407979,44.247991 936.900316,43.9568292 937.32086,43.5753012 C937.741404,43.1937732 938.079886,42.7344404 938.336315,42.1972892 C938.592745,41.6601379 938.751729,41.0502042 938.813272,40.3674699 L936.474647,40.3674699 C936.382333,41.0903651 936.128471,41.6726886 935.713056,42.1144579 C935.29764,42.5562271 934.720683,42.7771085 933.982166,42.7771085 C933.438536,42.7771085 932.97697,42.6741978 932.597454,42.4683735 C932.217939,42.2625491 931.910228,41.9889575 931.674313,41.6475904 C931.438398,41.3062232 931.266593,40.9221909 931.158893,40.4954819 C931.051192,40.0687729 930.997343,39.6295203 930.997343,39.1777108 C930.997343,38.705821 931.051192,38.2489982 931.158893,37.8072289 C931.266593,37.3654597 931.438398,36.9713873 931.674313,36.625 C931.910228,36.2786127 932.217939,36.0025111 932.597454,35.7966867 C932.97697,35.5908624 933.438536,35.4879518 933.982166,35.4879518 C934.279624,35.4879518 934.564257,35.5356421 934.836072,35.6310241 C935.107887,35.7264061 935.351491,35.8594369 935.566892,36.0301205 C935.782292,36.2008041 935.96179,36.3990953 936.105391,36.625 C936.248991,36.8509047 936.341304,37.0993962 936.382333,37.3704819 L938.720958,37.3704819 C938.649157,36.7479889 938.474788,36.1957855 938.197844,35.7138554 C937.9209,35.2319253 937.569597,34.8278129 937.143925,34.501506 C936.718252,34.1751992 936.233608,33.9267077 935.689977,33.7560241 C935.146347,33.5853405 934.577082,33.5 933.982166,33.5 C933.13082,33.5 932.371801,33.6455809 931.705084,33.936747 C931.038368,34.2279131 930.474232,34.6295155 930.012659,35.1415663 C929.551086,35.653617 929.197219,36.2560206 928.951047,36.9487952 C928.704874,37.6415698 928.58179,38.3845342 928.58179,39.1777108 C928.58179,39.9608473 928.704874,40.6912617 928.951047,41.3689759 C929.197219,42.0466902 929.551086,42.6365436 930.012659,43.1385542 C930.474232,43.6405647 931.038368,44.0346371 931.705084,44.3207831 Z M942.517727,35.737395 L942.517727,44.5 L944.946779,44.5 L944.946779,35.737395 L948.257716,35.737395 L948.257716,33.75 L939.20679,33.75 L939.20679,35.737395 L942.517727,35.737395 Z M949.175926,33.75 L949.175926,44.5 L954.564541,44.5 C955.062913,44.5 955.548299,44.4397765 956.020714,44.3193277 C956.493128,44.1988789 956.913623,44.0131898 957.28221,43.7622549 C957.650797,43.51132 957.944105,43.1876187 958.162143,42.7911414 C958.38018,42.3946642 958.489198,41.9254229 958.489198,41.3834033 C958.489198,40.7108976 958.32048,40.1362652 957.983041,39.6594888 C957.645602,39.1827124 957.13426,38.8489739 956.448999,38.6582633 C956.947371,38.4274032 957.323739,38.1313044 957.578117,37.769958 C957.832494,37.4086116 957.959681,36.9569355 957.959681,36.414916 C957.959681,35.913046 957.874024,35.4914816 957.702709,35.1502101 C957.531394,34.8089385 957.289999,34.5354235 956.978516,34.3296569 C956.667034,34.1238902 956.293261,33.9758408 955.857186,33.8855042 C955.421111,33.7951676 954.938321,33.75 954.408801,33.75 L949.175926,33.75 Z M954.237487,42.6631653 L951.621049,42.6631653 L951.621049,39.7121848 L954.284209,39.7121848 C954.813728,39.7121848 955.239415,39.8301225 955.561279,40.0660014 C955.883144,40.3018803 956.044074,40.6958422 956.044074,41.2478992 C956.044074,41.5289463 955.994757,41.759803 955.896121,41.9404762 C955.797485,42.1211494 955.665107,42.2641802 955.498983,42.3695729 C955.332859,42.4749655 955.140782,42.5502448 954.922744,42.5954131 C954.704706,42.6405814 954.47629,42.6631653 954.237487,42.6631653 Z M954.09732,38.1011905 L951.621049,38.1011905 L951.621049,35.5868347 L953.910432,35.5868347 C954.128469,35.5868347 954.338717,35.6043999 954.54118,35.6395308 C954.743644,35.6746617 954.922743,35.7373945 955.078484,35.8277311 C955.234225,35.9180677 955.358816,36.0435333 955.452261,36.2041317 C955.545706,36.36473 955.592427,36.5704936 955.592427,36.8214286 C955.592427,37.2731115 955.452262,37.599322 955.171929,37.8000701 C954.891595,38.000818 954.533395,38.1011905 954.09732,38.1011905 Z M964.689241,44.75 C965.532297,44.75 966.290522,44.6069291 966.963938,44.3207831 C967.637354,44.0346371 968.20538,43.6405647 968.668033,43.1385542 C969.130685,42.6365436 969.48538,42.0466902 969.732128,41.3689759 C969.978876,40.6912617 970.102248,39.9608473 970.102248,39.1777108 C970.102248,38.3845342 969.978876,37.6415698 969.732128,36.9487952 C969.48538,36.2560206 969.130685,35.653617 968.668033,35.1415663 C968.20538,34.6295155 967.637354,34.2279131 966.963938,33.936747 C966.290522,33.6455809 965.532297,33.5 964.689241,33.5 C963.835905,33.5 963.07511,33.6455809 962.406834,33.936747 C961.738558,34.2279131 961.173102,34.6295155 960.71045,35.1415663 C960.247798,35.653617 959.893103,36.2560206 959.646354,36.9487952 C959.399607,37.6415698 959.276235,38.3845342 959.276235,39.1777108 C959.276235,39.9608473 959.399607,40.6912617 959.646354,41.3689759 C959.893103,42.0466902 960.247798,42.6365436 960.71045,43.1385542 C961.173102,43.6405647 961.738558,44.0346371 962.406834,44.3207831 C963.07511,44.6069291 963.835905,44.75 964.689241,44.75 Z M964.689241,42.7771085 C964.144339,42.7771085 963.681694,42.6741978 963.301291,42.4683735 C962.920888,42.2625491 962.612457,41.9889576 962.37599,41.6475904 C962.139524,41.3062232 961.967317,40.9221909 961.859365,40.4954819 C961.751413,40.068773 961.697437,39.6295203 961.697437,39.1777109 C961.697437,38.705821 961.751413,38.2489982 961.859365,37.8072289 C961.967317,37.3654597 962.139524,36.9713873 962.37599,36.625 C962.612457,36.2786127 962.920888,36.0025111 963.301291,35.7966867 C963.681694,35.5908624 964.144339,35.4879518 964.689241,35.4879518 C965.234143,35.4879518 965.696789,35.5908624 966.077192,35.7966867 C966.457595,36.0025111 966.766025,36.2786127 967.002492,36.625 C967.238959,36.9713873 967.411166,37.3654597 967.519118,37.8072289 C967.62707,38.2489982 967.681046,38.705821 967.681046,39.1777109 C967.681046,39.6295203 967.62707,40.068773 967.519118,40.4954819 C967.411166,40.9221909 967.238959,41.3062232 967.002492,41.6475904 C966.766025,41.9889576 966.457595,42.2625491 966.077192,42.4683735 C965.696789,42.6741978 965.234143,42.7771085 964.689241,42.7771085 Z M887,15 L922,15 L922,29 L887,29 L887,15 Z M888.662365,16.7550201 L888.662365,27.4658632 L891.098287,27.4658632 L891.098287,23.6255609 L893.658332,23.6255609 C894.351358,23.6255609 894.940938,23.5280542 895.42709,23.3330379 C895.913243,23.1380215 896.308882,22.8805038 896.61402,22.5604771 C896.919159,22.2404503 897.141544,21.8754252 897.281184,21.4653909 C897.420823,21.0553565 897.490642,20.6303273 897.490642,20.1902905 C897.490642,19.7602545 897.420823,19.3377254 897.281184,18.9226907 C897.141544,18.507656 896.919159,18.1401307 896.61402,17.8201039 C896.308882,17.5000771 895.913243,17.2425594 895.42709,17.0475431 C894.940938,16.8525268 894.351358,16.7550201 893.658332,16.7550201 L888.662365,16.7550201 Z M892.991169,21.7954168 L891.098287,21.7954168 L891.098287,18.5851641 L892.991169,18.5851641 C893.270448,18.5851641 893.539379,18.6051655 893.797971,18.6451689 C894.056563,18.6851722 894.28412,18.7626775 894.48065,18.8776872 C894.677179,18.9926968 894.834918,19.1552079 894.95387,19.3652255 C895.072822,19.5752431 895.132297,19.850262 895.132297,20.1902905 C895.132297,20.530319 895.072822,20.8053379 894.95387,21.0153554 C894.834918,21.225373 894.677179,21.3878842 894.48065,21.5028938 C894.28412,21.6179034 894.056563,21.6954088 893.797971,21.7354121 C893.539379,21.7754155 893.270448,21.7954168 892.991169,21.7954168 Z M903.648426,27.7058821 C904.508472,27.7058821 905.281977,27.5633723 905.968965,27.2783484 C906.655953,26.9933246 907.235427,26.6007976 907.707403,26.1007557 C908.17938,25.6007139 908.541223,25.0131735 908.792944,24.338117 C909.044664,23.6630605 909.170523,22.9355105 909.170523,22.1554452 C909.170523,21.365379 909.044664,20.6253282 908.792944,19.9352704 C908.541223,19.2452126 908.17938,18.6451714 907.707403,18.1351287 C907.235427,17.625086 906.655953,17.2250585 905.968965,16.9350342 C905.281977,16.64501 904.508472,16.5 903.648426,16.5 C902.777892,16.5 902.001764,16.64501 901.320021,16.9350342 C900.638277,17.2250585 900.061425,17.625086 899.589449,18.1351287 C899.117472,18.6451714 898.755629,19.2452126 898.503909,19.9352704 C898.252188,20.6253282 898.126329,21.365379 898.126329,22.1554452 C898.126329,22.9355105 898.252188,23.6630605 898.503909,24.338117 C898.755629,25.0131735 899.117472,25.6007139 899.589449,26.1007557 C900.061425,26.6007976 900.638277,26.9933246 901.320021,27.2783484 C902.001764,27.5633723 902.777892,27.7058821 903.648426,27.7058821 Z M903.648426,25.7407274 C903.092543,25.7407274 902.620573,25.6382203 902.232504,25.4332032 C901.844434,25.228186 901.529788,24.9556673 901.288556,24.6156388 C901.047323,24.2756104 900.871646,23.8930841 900.761518,23.4680485 C900.65139,23.0430129 900.596327,22.6054828 900.596327,22.1554452 C900.596327,21.6854058 900.65139,21.2303746 900.761518,20.7903377 C900.871646,20.3503009 901.047323,19.9577739 901.288556,19.612745 C901.529788,19.2677161 901.844434,18.9926972 902.232504,18.7876801 C902.620573,18.5826629 903.092543,18.4801559 903.648426,18.4801559 C904.204309,18.4801559 904.676279,18.5826629 905.064348,18.7876801 C905.452418,18.9926972 905.767064,19.2677161 906.008296,19.612745 C906.249529,19.9577739 906.425206,20.3503009 906.535334,20.7903377 C906.645462,21.2303746 906.700525,21.6854058 906.700525,22.1554452 C906.700525,22.6054828 906.645462,23.0430129 906.535334,23.4680485 C906.425206,23.8930841 906.249529,24.2756104 906.008296,24.6156388 C905.767064,24.9556673 905.452418,25.228186 905.064348,25.4332032 C904.676279,25.6382203 904.204309,25.7407274 903.648426,25.7407274 Z M915.374013,27.7058821 C916.056695,27.7058821 916.682477,27.6058752 917.251379,27.4058584 C917.820281,27.2058417 918.31677,26.9158218 918.74086,26.53579 C919.16495,26.1557581 919.506286,25.6982267 919.764878,25.1631819 C920.02347,24.6281371 920.183794,24.0205954 920.245856,23.3405385 L917.887512,23.3405385 C917.794419,24.0605987 917.538417,24.6406386 917.119498,25.0806754 C916.70058,25.5207123 916.118757,25.7407274 915.374013,25.7407274 C914.825798,25.7407274 914.36034,25.6382203 913.977625,25.4332032 C913.594909,25.228186 913.284604,24.9556673 913.046699,24.6156388 C912.808795,24.2756104 912.635541,23.8930841 912.526932,23.4680485 C912.418324,23.0430129 912.36402,22.6054828 912.36402,22.1554452 C912.36402,21.6854058 912.418324,21.2303746 912.526932,20.7903377 C912.635541,20.3503009 912.808795,19.9577739 913.046699,19.612745 C913.284604,19.2677161 913.594909,18.9926972 913.977625,18.7876801 C914.36034,18.5826629 914.825798,18.4801559 915.374013,18.4801559 C915.673979,18.4801559 915.961012,18.5276591 916.235119,18.6226671 C916.509226,18.717675 916.754885,18.8501841 916.972102,19.0201984 C917.189319,19.1902126 917.37033,19.3877262 917.515141,19.612745 C917.659953,19.8377638 917.753044,20.0852809 917.794419,20.3553035 L920.152764,20.3553035 C920.080358,19.7352516 919.904518,19.1852138 919.625239,18.7051736 C919.34596,18.2251334 918.991695,17.8226057 918.562433,17.4975785 C918.13317,17.1725513 917.644439,16.9250343 917.096225,16.7550201 C916.548011,16.5850058 915.973946,16.5 915.374013,16.5 C914.515488,16.5 913.750068,16.64501 913.07773,16.9350342 C912.405392,17.2250585 911.836498,17.625086 911.371033,18.1351287 C910.905568,18.6451714 910.548717,19.2452126 910.300469,19.9352704 C910.052221,20.6253282 909.928099,21.365379 909.928099,22.1554452 C909.928099,22.9355105 910.052221,23.6630605 910.300469,24.338117 C910.548717,25.0131735 910.905568,25.6007139 911.371033,26.1007557 C911.836498,26.6007976 912.405392,26.9933246 913.07773,27.2783484 C913.750068,27.5633723 914.515488,27.7058821 915.374013,27.7058821 Z" id="Combined-Shape"></path>
            </g>
        </g>
    </g>
</svg>