<?xml version="1.0" encoding="UTF-8" standalone="no"?>
<svg width="192px" height="75px" viewBox="0 0 192 75" version="1.1" xmlns="http://www.w3.org/2000/svg" xmlns:xlink="http://www.w3.org/1999/xlink">
    <!-- Generator: Sketch 50.2 (55047) - http://www.bohemiancoding.com/sketch -->
    <title>Rybakov</title>
    <desc>Created with Sketch.</desc>
    <defs></defs>
    <g id="1440" stroke="none" stroke-width="1" fill="none" fill-rule="evenodd" opacity="0.7">
        <g id="Main_1440" transform="translate(-654.000000, -696.000000)" fill="#7EA8AD">
            <g id="1">
                <g id="Partners" transform="translate(136.000000, 696.000000)">
                    <g id="Rybakov" transform="translate(518.000000, 0.000000)">
                        <path d="M36.7560465,14.7576926 L36.7560465,14.7889589 C36.7560465,16.0122528 37.2460242,17.1182981 38.0388622,17.9175428 C38.8336293,18.7167876 39.9293275,19.21314 41.1388395,19.21314 C42.3502805,19.21314 43.4479078,18.7167876 44.2407458,17.9175428 C45.0355128,17.1182981 45.5254906,16.0122528 45.5254906,14.7889589 C45.5254906,13.5676191 45.0355128,12.463528 44.2407458,11.6623291 C43.4479078,10.8611302 42.3502805,10.3667319 41.1388395,10.3667319 C39.9293275,10.3667319 38.8336293,10.8611302 38.0388622,11.6623291 C37.2518114,12.4557114 36.7637627,13.5480777 36.7560465,14.7576926 Z M30.598531,22.9103798 C30.0757595,22.3808069 29.6648726,21.7535268 29.3832319,21.0676223 C29.1015911,20.3836721 28.9530546,19.6489141 28.9530546,18.9063395 L28.9530546,10.6969822 L23.5671576,13.8333827 C23.6809713,13.9252274 23.7870688,14.0248887 23.8912373,14.1304125 C24.6570687,14.9003451 25.1277559,15.9653534 25.1277559,17.1397937 C25.1277559,18.3161881 24.6570687,19.3831505 23.8912373,20.1530831 C23.127335,20.9230157 22.0721467,21.3998268 20.9050738,21.3998268 L17.8417484,21.3998268 L17.199376,21.3998268 L15.6889328,21.3998268 L15.6889328,8.20935734 L17.8417484,8.20935734 L17.8417484,19.2287732 L20.9050738,19.2287732 C21.4760715,19.2287732 21.9949849,18.9923218 22.3672908,18.6151721 C22.7415258,18.2380224 22.9730113,17.7182202 22.9730113,17.1397937 C22.9730113,16.5652754 22.7415258,16.0435191 22.3672908,15.6644152 C21.9949849,15.2872655 21.4760715,15.0547224 20.9050738,15.0547224 L20.9050738,12.8817147 L20.9108609,12.8817147 L28.9530546,8.19567833 L28.9530546,8.19372419 L31.1077992,8.19372419 L31.1077992,18.9063395 C31.1077992,19.3733798 31.1965353,19.8286953 31.3682204,20.2449279 C31.5379765,20.6572522 31.7926106,21.0422185 32.1224775,21.3724687 L30.598531,22.9103798 Z M61.0658868,14.8202252 L61.0658868,14.7576926 C61.0581707,13.5480777 60.570122,12.4557114 59.7811421,11.6623291 C58.9883041,10.8611302 57.8926058,10.3667319 56.6811648,10.3667319 C55.4697238,10.3667319 54.3740255,10.8611302 53.5792585,11.6623291 C52.7864205,12.463528 52.2964428,13.5676191 52.2964428,14.7889589 C52.2964428,16.0122528 52.7864205,17.1182981 53.5792585,17.9175428 C54.3740255,18.7167876 55.4697238,19.21314 56.6811648,19.21314 C57.8926058,19.21314 58.9883041,18.7167876 59.7811421,17.9175428 C60.570122,17.1241605 61.0581707,16.0298401 61.0658868,14.8202252 Z M62.7152214,21.3841936 C62.1885917,20.8546207 61.7757759,20.2253864 61.4960642,19.5453445 C61.4671285,19.4769494 61.4401218,19.4085544 61.4150442,19.3401594 C61.3803214,19.3772881 61.3417405,19.416371 61.3050886,19.4534997 C60.1206542,20.6474815 58.4867521,21.3841936 56.6811648,21.3841936 C54.8755776,21.3841936 53.2397464,20.6474815 52.057241,19.4534997 C50.8728067,18.259518 50.1416982,16.6102208 50.1416982,14.7889589 C50.1416982,12.9696512 50.8728067,11.3183998 52.0591701,10.1244181 C53.2397464,8.93239048 54.8755776,8.19372419 56.6811648,8.19372419 C58.3671512,8.19372419 59.9065301,8.83663744 61.0658868,9.89578328 L61.0658868,8.20935734 L63.2206315,8.20935734 L63.2206315,14.7557385 L63.2206315,14.7889589 L63.2206315,14.8221793 L63.2206315,17.4075113 C63.2225605,17.8686892 63.3132257,18.3122798 63.4810527,18.7187417 C63.6508088,19.1388826 63.9035138,19.5238489 64.2275936,19.8482367 L62.7152214,21.3841936 Z M86.3633989,21.3841936 C84.5578116,21.3841936 82.9258385,20.6474815 81.7394751,19.4534997 C80.5569698,18.259518 79.8239322,16.6102208 79.8239322,14.7889589 C79.8239322,12.9696512 80.5569698,11.3183998 81.7394751,10.1244181 C82.9258385,8.93239048 84.5578116,8.19372419 86.3633989,8.19372419 C88.1689861,8.19372419 89.8048173,8.93239048 90.9873226,10.1244181 C92.171757,11.3183998 92.9028655,12.9696512 92.9028655,14.7889589 C92.9028655,16.6102208 92.171757,18.259518 90.9873226,19.4534997 C89.8048173,20.6474815 88.1689861,21.3841936 86.3633989,21.3841936 Z M86.3633989,10.3667319 C85.1538869,10.3667319 84.0562596,10.8611302 83.2634216,11.6623291 C82.4705836,12.463528 81.9767478,13.5676191 81.9767478,14.7889589 C81.9767478,16.0122528 82.4705836,17.1182981 83.2614925,17.9175428 C84.0562596,18.7167876 85.1538869,19.21314 86.3633989,19.21314 C87.5748399,19.21314 88.6705381,18.7167876 89.4653052,17.9175428 C90.2581432,17.1182981 90.7500499,16.0122528 90.7500499,14.7889589 C90.7500499,13.5676191 90.2581432,12.463528 89.4653052,11.6623291 C88.6705381,10.8611302 87.5748399,10.3667319 86.3633989,10.3667319 Z M2.15474462,2.39382593 L6.53946665,2.39382593 L6.57418949,2.39382593 L6.77481029,2.39382593 L6.77481029,2.39773422 C8.48780333,2.46026681 10.0310403,3.1852541 11.1633904,4.32647397 C12.3478248,5.51850158 13.0808624,7.16779879 13.0808624,8.98906064 C13.0808624,10.8103225 12.3478248,12.4615739 11.1633904,13.6536015 C10.0310403,14.7948213 8.48780333,15.5217628 6.77481029,15.5803871 L6.77481029,15.5842954 L6.55296998,15.5842954 L6.53946665,15.5842954 L2.15474462,15.5842954 L2.15474462,21.3841936 L0,21.3841936 L0,2.39382593 L1.07833683,2.39382593 L2.15474462,2.39382593 Z M6.57226044,4.56878778 L2.15474462,4.56878778 L2.15474462,13.4132418 L6.55296998,13.4132418 C7.75862386,13.4093335 8.84853497,12.9149352 9.64137296,12.1176446 C10.434211,11.3164457 10.9241887,10.2104004 10.9241887,8.98906064 C10.9241887,7.76967502 10.434211,6.66167559 9.64137296,5.86243085 C8.85432211,5.06904854 7.77019814,4.57660435 6.57226044,4.56878778 Z M95.3662575,6.20636013 C95.3662575,5.05732368 95.8292286,4.01576513 96.5757695,3.26537399 C97.3223104,2.51107455 98.3543501,2.04598837 99.4905583,2.04598837 C100.630625,2.04598837 101.660735,2.51107455 102.407276,3.26537399 C103.155746,4.01576513 103.616788,5.05732368 103.616788,6.20636013 C103.616788,6.96847614 103.414238,7.68173856 103.059294,8.2972938 C104.40191,8.53765347 105.605635,9.19033743 106.531577,10.1244181 C107.712153,11.3183998 108.44712,12.9696512 108.44712,14.7889589 C108.44712,16.6102208 107.712153,18.259518 106.531577,19.4534997 C105.347143,20.6474815 103.71324,21.3841936 101.905724,21.3841936 C100.102066,21.3841936 98.4662348,20.6474815 97.2818004,19.4534997 C96.1012241,18.259518 95.3662575,16.6102208 95.3662575,14.7889589 L95.3662575,6.20636013 Z M101.925015,10.3667319 L99.5310683,10.3667319 L99.4905583,10.3667319 L97.5210021,10.3667319 L97.5210021,14.7889589 C97.5210021,16.0122528 98.0129089,17.1182981 98.8057469,17.9175428 C99.5985849,18.7167876 100.696212,19.21314 101.905724,19.21314 C103.115236,19.21314 104.214792,18.7167876 105.00763,17.9175428 C105.800468,17.1182981 106.292375,16.0122528 106.292375,14.7889589 C106.292375,13.5676191 105.800468,12.463528 105.00763,11.6623291 C104.22058,10.8669927 103.128739,10.3706402 101.925015,10.3667319 Z M97.5210021,8.19372419 L99.519494,8.19372419 C100.05384,8.18590761 100.536101,7.96508939 100.885259,7.61334353 C101.242132,7.25182697 101.463973,6.75547449 101.463973,6.20636013 C101.463973,5.65724577 101.242132,5.16089329 100.885259,4.80133087 C100.530314,4.44176844 100.036478,4.21704193 99.4905583,4.21704193 C98.9484963,4.21704193 98.4527315,4.44176844 98.099716,4.80133087 C97.7409134,5.16089329 97.5210021,5.65724577 97.5210021,6.20636013 L97.5210021,8.19372419 Z M155.110748,21.3685605 C153.30516,21.3685605 151.6674,20.6298942 150.484895,19.4378666 C149.300461,18.2438848 148.569352,16.5945876 148.569352,14.7733258 C148.569352,12.9520639 149.300461,11.3027667 150.484895,10.1087849 C151.6674,8.91480318 153.30516,8.17809104 155.110748,8.17809104 C156.914406,8.17809104 158.550237,8.91480318 159.730813,10.1087849 C160.915248,11.3027667 161.646356,12.9520639 161.646356,14.7733258 C161.646356,16.5945876 160.915248,18.2438848 159.730813,19.4378666 C158.550237,20.6298942 156.914406,21.3685605 155.110748,21.3685605 Z M155.110748,10.3491446 C153.897378,10.3491446 152.79975,10.8454971 152.008841,11.6447418 C151.214074,12.4459407 150.724097,13.551986 150.724097,14.7733258 C150.724097,15.9966197 151.214074,17.1007108 152.008841,17.9019097 C152.79975,18.7031086 153.897378,19.1955528 155.110748,19.1955528 C156.318331,19.1955528 157.415958,18.7031086 158.210725,17.9019097 C159.003563,17.1007108 159.493541,15.9966197 159.493541,14.7733258 C159.493541,13.551986 159.003563,12.4459407 158.210725,11.6447418 C157.415958,10.8454971 156.318331,10.3491446 155.110748,10.3491446 Z M133.295164,14.7928672 L133.295164,14.7733258 C133.295164,13.551986 132.805186,12.4459407 132.010419,11.6447418 C131.21951,10.8454971 130.121883,10.3491446 128.910442,10.3491446 C127.70093,10.3491446 126.603303,10.8454971 125.808536,11.6447418 C125.015698,12.4459407 124.52572,13.551986 124.52572,14.7733258 C124.52572,15.9966197 125.015698,17.1007108 125.808536,17.9019097 C126.603303,18.7031086 127.70093,19.1955528 128.910442,19.1955528 C130.121883,19.1955528 131.21951,18.7031086 132.010419,17.9019097 C132.801328,17.1046191 133.291306,16.0063904 133.295164,14.7928672 Z M139.838489,19.1955528 C141.046072,19.1955528 142.143699,18.7031086 142.936537,17.9019097 C143.729375,17.1007108 144.221282,15.9966197 144.221282,14.7733258 C144.221282,13.551986 143.729375,12.4459407 142.936537,11.6447418 C142.143699,10.8454971 141.046072,10.3491446 139.838489,10.3491446 C138.625119,10.3491446 137.529421,10.8454971 136.734654,11.6447418 C135.941816,12.4459407 135.449909,13.551986 135.449909,14.7733258 C135.449909,15.9966197 135.941816,17.1007108 136.734654,17.8999555 C137.529421,18.7031086 138.625119,19.1955528 139.838489,19.1955528 Z M139.838489,8.17809104 C141.640218,8.17809104 143.277978,8.91480318 144.458555,10.1087849 C145.64106,11.3027667 146.374097,12.9520639 146.374097,14.7733258 C146.374097,16.5945876 145.64106,18.2438848 144.458555,19.4378666 C143.277978,20.6298942 141.640218,21.3685605 139.838489,21.3685605 C138.150573,21.3685605 136.611195,20.7256472 135.449909,19.6665014 L135.449909,28.9994913 L133.295164,28.9994913 L133.295164,19.6665014 C132.135807,20.7256472 130.596428,21.3685605 128.910442,21.3685605 C127.104855,21.3685605 125.470953,20.6298942 124.288447,19.4378666 C123.104013,18.2438848 122.372904,16.5945876 122.372904,14.7733258 C122.372904,12.9520639 123.104013,11.3027667 124.288447,10.1087849 C125.470953,8.91480318 127.104855,8.17809104 128.910442,8.17809104 C130.717958,8.17809104 132.351861,8.91480318 133.534366,10.1087849 C133.846871,10.4253562 134.130441,10.7712396 134.373501,11.1464352 C134.61849,10.7712396 134.898202,10.4253562 135.210707,10.1087849 C136.395141,8.91480318 138.030973,8.17809104 139.838489,8.17809104 Z M174.931698,21.3841936 C174.408926,20.858529 173.999968,20.2312489 173.716398,19.5453445 C173.436687,18.8613942 173.284292,18.1246821 173.284292,17.3801533 L173.284292,15.8578755 L166.611721,15.8578755 L166.611721,21.3685605 L164.456977,21.3685605 L164.456977,8.20935734 L166.611721,8.20935734 L166.611721,13.6868219 L173.284292,13.6868219 L173.284292,8.20935734 L175.442895,8.20935734 L175.442895,17.3860158 C175.442895,17.8530561 175.531631,18.3064174 175.701387,18.7187417 C175.871143,19.1330202 176.127706,19.5179865 176.455644,19.8482367 L174.931698,21.3841936 Z M185.109345,19.1955528 C186.320786,19.1955528 187.418414,18.7031086 188.209323,17.9019097 C189.00409,17.1007108 189.494067,15.9966197 189.494067,14.7733258 C189.494067,13.551986 189.00409,12.4459407 188.209323,11.6447418 C187.418414,10.8454971 186.320786,10.3491446 185.109345,10.3491446 C183.897904,10.3491446 182.802206,10.8454971 182.007439,11.6447418 C181.214601,12.4459407 180.724623,13.551986 180.724623,14.7733258 C180.724623,15.9966197 181.214601,17.1007108 182.007439,17.9019097 C182.802206,18.7031086 183.897904,19.1955528 185.109345,19.1955528 Z M189.494067,9.88015013 L189.494067,8.35200982 C189.494067,6.64604244 188.807327,5.10031484 187.701983,3.98254469 C186.592782,2.86672869 185.061119,2.17496185 183.369346,2.17496185 C183.081918,2.17496185 182.815709,2.190595 182.568791,2.22186129 C182.314157,2.25899002 182.051807,2.30979776 181.781741,2.38210107 L181.228104,0.285304968 C181.565687,0.195414362 181.920632,0.125065192 182.28908,0.0762116011 C182.665244,0.025403867 183.025975,0 183.369346,0 C185.655265,0 187.725132,0.936034793 189.224001,2.44854195 C190.720941,3.95909497 191.648812,6.04612035 191.648812,8.35200982 L191.648812,14.3512307 L191.635309,14.3512307 C191.643025,14.4938832 191.648812,14.6326274 191.648812,14.7733258 C191.648812,16.5945876 190.917703,18.2438848 189.733269,19.4378666 C188.548835,20.6298942 186.914933,21.3685605 185.109345,21.3685605 C183.303758,21.3685605 181.667927,20.6298942 180.485422,19.4378666 C179.302916,18.2438848 178.569879,16.5945876 178.569879,14.7733258 C178.569879,12.9520639 179.302916,11.3027667 180.485422,10.1087849 C181.667927,8.91480318 183.303758,8.17809104 185.109345,8.17809104 C186.797261,8.17809104 188.334711,8.82100429 189.494067,9.88015013 Z M69.4514507,8.20935734 L69.4514507,13.7083175 L71.1837342,13.7083175 L76.6352188,8.20935734 L78.1591653,9.74531422 L73.595042,14.3492766 L73.595042,15.0859887 C73.6683457,16.1900799 74.1409621,17.1808307 74.8682125,17.9175428 C75.6629795,18.7167876 76.7586778,19.21314 77.9701188,19.21314 L77.9701188,21.3841936 C76.1645315,21.3841936 74.5287004,20.6474815 73.3481241,19.4534997 C72.4028914,18.5018318 71.7508738,17.266813 71.5193883,15.8832793 L69.4514507,15.8832793 L69.4514507,21.3998268 L67.2986352,21.3998268 L67.2986352,8.20935734 L69.4514507,8.20935734 Z M41.1388395,8.19372419 C42.9463558,8.19372419 44.582187,8.93239048 45.7627633,10.1244181 C46.9471976,11.3183998 47.6783061,12.9696512 47.6783061,14.7889589 C47.6783061,16.6102208 46.9471976,18.259518 45.7627633,19.4534997 C44.582187,20.6474815 42.9463558,21.3841936 41.1388395,21.3841936 C39.3351813,21.3841936 37.6993501,20.6474815 36.5168448,19.4534997 C35.3343394,18.259518 34.6013019,16.6102208 34.6013019,14.7889589 L34.6013019,14.7557385 L34.6013019,9.8430214 L34.6013019,9.79025952 L34.6013019,9.73358936 L34.6032309,9.73358936 C34.6205923,8.44580872 34.9697497,7.20297338 35.5928316,6.11842367 C36.2294169,5.00847009 37.151501,4.06071044 38.2973544,3.39434746 L43.3186617,0.468994468 L44.3873533,2.34497234 L39.3679751,5.27032534 C38.5597047,5.73931981 37.9076871,6.41154521 37.4524322,7.20297338 C37.0106806,7.97681425 36.7637627,8.86594959 36.7560465,9.79416781 L36.7560465,9.89578328 C37.9154033,8.83663744 39.4528531,8.19372419 41.1388395,8.19372419 Z" id="Fill-1"></path>
                        <path d="M83.7817575,66.243488 C85.2925232,67.7604645 87.0640303,68.9416218 88.9812457,69.74064 C90.3827302,70.3254287 91.8704893,70.7094978 93.4004272,70.8735474 L93.4042617,64.6222917 L82.3668525,64.6222917 C82.7943915,65.1877804 83.2660265,65.7281791 83.7817575,66.243488 Z M103.768728,45.2432059 C102.988422,44.4634876 101.721142,44.4634876 100.940836,45.2432059 C100.162446,46.0267841 100.162446,47.2947912 100.940836,48.0764394 C101.721142,48.8600176 102.988422,48.8600176 103.768728,48.0764394 C104.547118,47.2947912 104.547118,46.0267841 103.768728,45.2432059 Z M93.4023445,38.8279005 C89.8880886,39.2138996 86.4754451,40.7540361 83.7817575,43.4540999 C81.5156088,45.7257048 80.0681112,48.5029684 79.4354301,51.4249818 L93.4023445,51.4442817 L93.4023445,38.8279005 Z M96.8226568,51.4481417 L110.875846,51.4674417 C110.617022,50.2611944 110.22591,49.0954771 109.706344,47.9915196 C108.929872,46.3317234 107.856232,44.7935169 106.518015,43.4540999 C103.807073,40.7328061 100.361836,39.1888097 96.8226568,38.8221105 L96.8226568,51.4481417 Z M79.0730764,54.843004 L79.0730764,54.848794 C79.0730764,57.010389 79.5044498,59.1739141 80.3671968,61.1946195 L96.8207396,61.1946195 L96.8092363,74.3899994 L95.0971629,74.3880694 C92.5242598,74.3842094 90.0012043,73.8689006 87.6679531,72.8942528 C85.3270331,71.917675 83.181669,70.4933383 81.3622316,68.6694924 C77.5546418,64.8519611 75.6508468,59.8494125 75.6508468,54.848794 C75.6508468,49.8462454 77.5546418,44.8456268 81.3622316,41.0280955 C85.1698214,37.2124942 90.158416,35.3037285 95.1508449,35.3037285 C100.139439,35.3037285 105.131868,37.2124942 108.939458,41.0280955 C110.538416,42.6319218 111.834454,44.4982276 112.791144,46.5324429 C113.747835,48.5743783 114.351757,50.7687833 114.564568,53.0191581 L114.737118,54.8931839 L79.0730764,54.843004 Z" id="Fill-3"></path>
                    </g>
                </g>
            </g>
        </g>
    </g>
</svg>