<?xml version="1.0" encoding="UTF-8" standalone="no"?>
<svg width="22px" height="23px" viewBox="0 0 22 23" version="1.1" xmlns="http://www.w3.org/2000/svg" xmlns:xlink="http://www.w3.org/1999/xlink">
    <!-- Generator: Sketch 50.2 (55047) - http://www.bohemiancoding.com/sketch -->
    <title>tomato</title>
    <desc>Created with Sketch.</desc>
    <defs>
        <polygon id="path-1" points="0 0.026646592 20.9932705 0.026646592 20.9932705 16 0 16"></polygon>
    </defs>
    <g id="1440" stroke="none" stroke-width="1" fill="none" fill-rule="evenodd">
        <g id="Main_1440" transform="translate(-536.000000, -2856.000000)">
            <g id="3" transform="translate(0.000000, 2262.000000)">
                <g id="Childrens" transform="translate(532.000000, 532.000000)">
                    <g id="tomato" transform="translate(14.468913, 73.079103) rotate(-29.000000) translate(-14.468913, -73.079103) translate(3.468913, 63.079103)">
                        <path d="M14.0472438,4.81844476 C14.4224751,4.56417316 15.7774362,3.95360422 17,2.26964402 C15.3243184,2.59676054 13.4844214,3.40932415 12.6563164,3.97468639 C12.4649187,3.11768739 11.8600297,1.70055384 11.1578315,1 C10.8438943,1.74824583 10.4402121,3.20535839 10.5246867,4.20479062 C9.00502207,3.12660018 7.65689315,2.8044971 6,2.18141598 L6.04484816,2.37835435 C6.26913777,3.12660018 7.96599898,4.67819687 9.67510925,5" id="Fill-1" fill="#78BF96"></path>
                        <g id="Group-5" transform="translate(0.000000, 4.000000)">
                            <mask id="mask-2" fill="white">
                                <use xlink:href="#path-1"></use>
                            </mask>
                            <g id="Clip-4"></g>
                            <path d="M12.7294189,15.9638742 C10.0248154,15.9893333 6.96185546,16.2389434 4.34260824,14.9602013 C1.54422962,13.5940126 -0.523405122,9.67577358 0.117118263,6.38832704 C1.00337439,1.83954717 3.59773964,-0.0811069182 7.51052138,0.283522013 C9.49139666,0.468125786 11.5872341,0.223194969 13.6508465,0.0499119497 C15.3134479,-0.0896603774 17.4392185,0.387522013 18.6540849,1.78601258 C23.8962274,7.82072956 19.6323388,15.8989182 12.7294189,15.9638742" id="Fill-3" fill="#F47A62" mask="url(#mask-2)"></path>
                        </g>
                        <path d="M13.3050657,19.6742816 C10.8975479,19.700029 8.43033837,19.8756874 6.07994649,19.2189315 C5.02636094,18.9245271 4.03677576,18.4629638 3.19407192,17.7427342 C2.41836998,17.0797154 1.77207273,16.2620137 1.28016064,15.3582224 C0.791976259,14.4612905 0.447090744,13.4675327 0.326884296,12.4447968 C0.206338966,11.4190288 0.35719007,10.4312356 0.646014745,9.44801532 C1.12742148,7.80893378 2.02086086,6.2671752 3.48885124,5.38127787 C4.18181745,4.96310729 4.95747098,4.71199619 5.75060116,4.59205733 C6.72227398,4.4451285 7.67385591,4.55224339 8.64756202,4.59305143 C9.98905243,4.64926811 11.3317047,4.55547424 12.6683539,4.4451285 C13.8351262,4.34879966 14.9938622,4.19476297 16.1585527,4.39467764 C17.174958,4.56914319 18.2034663,4.94133638 19.0009051,5.63010254 C19.7493028,6.27651979 20.3581294,7.16445504 20.8162984,8.04568007 C21.6139793,9.58003256 21.9220719,11.3590345 21.5937432,13.0728728 C20.9315669,16.5294281 17.9865331,19.0269697 14.6706651,19.561053 C14.218838,19.6338215 13.7622181,19.6681679 13.3050657,19.6742816 C13.1256032,19.6766675 13.1250707,19.9632682 13.3050657,19.9608823 C16.8470651,19.9135629 20.274377,17.8180874 21.5368109,14.3332497 C22.1354226,12.6808472 22.1514469,10.8468215 21.5986328,9.17906002 C21.293106,8.25732518 20.8289823,7.39762254 20.2547702,6.62420827 C19.5995652,5.7415915 18.8555246,5.03125324 17.8504476,4.59409525 C16.8739336,4.16936357 15.7939636,3.98301845 14.7357306,4.00121059 C14.0777176,4.01249369 13.4184945,4.09614768 12.7628537,4.15067438 C12.0566711,4.20942603 11.349956,4.26360479 10.6420305,4.29501854 C9.94717624,4.32588552 9.25096644,4.33498159 8.55606376,4.30237492 C8.00310442,4.27642876 7.45401802,4.21315393 6.89975156,4.2185221 C6.03129265,4.22692229 5.15431327,4.35257726 4.33596056,4.65901035 C2.76509514,5.24732212 1.58254061,6.48036117 0.877374637,8.02112565 C0.459919865,8.93326737 0.150520185,9.94442202 0.038592151,10.947425 C-0.0775961191,11.9887508 0.0755303385,13.0560724 0.404294731,14.0442632 C1.05562681,16.0018562 2.40989792,17.8091901 4.20592652,18.7867937 C6.42371853,19.9939363 9.07436027,20.0292271 11.5218178,19.9913516 C12.116266,19.9821562 12.7106174,19.9672446 13.3050657,19.9608823 C13.4845765,19.9589438 13.4850122,19.6723431 13.3050657,19.6742816" id="Fill-6" fill="#256D77"></path>
                        <path d="M12.1324238,4.29173304 C13.3111743,4.22628725 14.4282643,4.59644033 15.2791603,5.45664829 C15.9478883,6.13269142 16.4029266,7.00413556 16.7256309,7.90362085 C16.7866238,8.07359262 17.052484,8.00006467 16.9907758,7.82807236 C16.6453244,6.86526039 16.1592889,5.93221442 15.4343845,5.21659828 C14.5378512,4.3314539 13.362105,3.93932128 12.1324238,4.00757611 C11.9564076,4.01738312 11.9553108,4.30158933 12.1324238,4.29173304" id="Fill-8" fill="#256D77"></path>
                        <path d="M8.87182774,4.01356536 C8.40850476,4.35007295 8.1477326,5.10685105 8.00410248,5.83860492 C7.97234008,6.00035242 8.13444485,6.06951028 8.16609068,5.90830877 C8.29789004,5.23702253 8.5313582,4.5489473 8.95662458,4.24010285 C9.05456349,4.16894305 8.96935868,3.94272405 8.87182774,4.01356536" id="Fill-10" fill="#256D77"></path>
                        <path d="M14.0510944,3.81400662 C14.4317485,3.56874107 14.8401904,3.36144769 15.2085684,3.10048482 C15.9039283,2.60785537 16.489517,2.0170067 16.9792761,1.3720043 C17.047318,1.28238028 16.9353106,1.1797626 16.8243499,1.20110934 C15.9879101,1.36219852 15.1780209,1.6137995 14.3995833,1.91769796 C13.7578956,2.1682094 13.1183015,2.45249631 12.5564561,2.81849804 C12.623594,2.84170102 12.6907794,2.86486364 12.7579649,2.88802626 C12.6358225,2.37380795 12.4346944,1.87230083 12.1932645,1.3900421 C11.9524056,0.909034303 11.6661537,0.433353107 11.2616612,0.0353514407 C11.1888135,-0.0362751392 11.0647678,0.011179992 11.0323646,0.0866804602 C10.6253502,1.0353392 10.3317232,2.12172274 10.4101379,3.13567264 C10.4882196,3.1082326 10.5662537,3.08083291 10.6443354,3.05339287 C9.98261579,2.60410254 9.26484489,2.2340655 8.49444857,1.93476728 C7.74308495,1.64289401 6.96488522,1.40452882 6.2049093,1.12976523 C6.09413896,1.0896947 5.97842011,1.15510691 6.00344812,1.26115461 C6.14186347,1.84816974 6.61311325,2.31852434 7.11048541,2.72641249 C7.82326022,3.31100644 8.70485512,3.81001167 9.68251761,3.99672501 C9.8544781,4.02957236 9.92789676,3.80529037 9.75546045,3.77236232 C8.82209659,3.59412311 7.98518096,3.11969285 7.30447626,2.5618933 C6.83874596,2.1802346 6.39752028,1.74853817 6.26795514,1.19929345 C6.20081727,1.24307646 6.13363182,1.28685947 6.06644637,1.33064248 C7.59153704,1.88206626 9.13851531,2.32720023 10.4503445,3.21791206 C10.5339933,3.27472909 10.6930591,3.24640128 10.6844944,3.13567264 C10.6074595,2.14008336 10.8971373,1.08029245 11.2969192,0.148541613 C11.2205029,0.165651287 11.1440866,0.18276096 11.0676703,0.199870633 C11.4664055,0.592182526 11.7455677,1.07476409 11.9773385,1.55044528 C12.1972138,2.00179362 12.3795947,2.47069551 12.4934103,2.94988742 C12.5094453,3.01735764 12.6266868,3.06388465 12.694919,3.01941564 C13.2364471,2.66660934 13.8504421,2.39075621 14.4674349,2.14637843 C15.2457773,1.83808149 16.0589021,1.5869244 16.8972927,1.42547203 C16.8456665,1.36849359 16.7940403,1.31151515 16.7423665,1.25457707 C16.2647408,1.88359967 15.6925225,2.45568419 15.0145775,2.93596563 C14.6641854,3.1842173 14.2746811,3.37984866 13.9126315,3.61308902 C13.7738355,3.70251127 13.9103952,3.90467982 14.0510944,3.81400662" id="Fill-12" fill="#256D77"></path>
                    </g>
                </g>
            </g>
        </g>
    </g>
</svg>