<?xml version="1.0" encoding="UTF-8" standalone="no"?>
<svg width="65px" height="57px" viewBox="0 0 65 57" version="1.1" xmlns="http://www.w3.org/2000/svg" xmlns:xlink="http://www.w3.org/1999/xlink">
    <!-- Generator: Sketch 50.2 (55047) - http://www.bohemiancoding.com/sketch -->
    <title>Group 12</title>
    <desc>Created with Sketch.</desc>
    <defs></defs>
    <g id="1440" stroke="none" stroke-width="1" fill="none" fill-rule="evenodd">
        <g id="Main/KPK_1440" transform="translate(-134.000000, -2510.000000)">
            <g id="Techn_card" transform="translate(134.000000, 2510.000000)">
                <g id="Group-12">
                    <path d="M65,49 C65,53.4 61.4,57 57,57 L15,57 C10.6,57 7,53.4 7,49 L7,13 C7,8.6 10.6,5 15,5 L57,5 C61.4,5 65,8.6 65,13 L65,49 L65,49 Z" id="Shape" fill="#D0E6BB"></path>
                    <path d="M32.5,39 L24.5,39 C22.6,39 21,37.4 21,35.5 L21,29.5 C21,27.6 22.6,26 24.5,26 L32.5,26 C34.4,26 36,27.6 36,29.5 L36,35.5 C36,37.4 34.4,39 32.5,39 L32.5,39 Z M24.5,29 C24.2,29 24,29.2 24,29.5 L24,35.5 C24,35.8 24.2,36 24.5,36 L32.5,36 C32.8,36 33,35.8 33,35.5 L33,29.5 C33,29.2 32.8,29 32.5,29 L24.5,29 L24.5,29 Z" id="Shape" fill="#256D77"></path>
                    <path d="M40.5,39.3 C40.2,39.3 39.9,39.2 39.7,39 L33.8,35 C33.4,34.8 33.2,34.4 33.1,33.9 L32.8,31.9 C32.7,31.3 33,30.7 33.5,30.4 L39.7,26.9 C40.2,26.6 40.7,26.6 41.2,26.9 C41.7,27.2 41.9,27.7 41.9,28.2 L41.9,37.7 C41.9,38.3 41.6,38.8 41.1,39 C41,39.2 40.7,39.3 40.5,39.3 L40.5,39.3 Z M36,32.9 L39,34.9 L39,30.8 L35.9,32.5 L36,32.9 L36,32.9 Z" id="Shape" fill="#256D77"></path>
                    <path d="M65,18 L65,12.2 C65,8 61.5,5 57.2,5 L14.9,5 C10.7,5 7,7.9 7,12.2 L7,18 L65,18 L65,18 Z" id="Shape" fill="#EDC951"></path>
                    <path d="M51.5,55 L9.5,55 C4.3,55 0,50.7 0,45.5 L0,9.5 C0,4.3 4.3,0 9.5,0 L51.5,0 C56.7,0 61,4.3 61,9.5 L61,45.5 C61,50.7 56.7,55 51.5,55 L51.5,55 Z M9.5,3 C5.9,3 3,5.9 3,9.5 L3,45.5 C3,49.1 5.9,52 9.5,52 L51.5,52 C55.1,52 58,49.1 58,45.5 L58,9.5 C58,5.9 55.1,3 51.5,3 L9.5,3 L9.5,3 Z" id="Shape" fill="#256D77"></path>
                    <path d="M59.5,17 L1.5,17 C0.7,17 0,16.3 0,15.5 L0,9.3 C0,4.3 4.4,0 9.6,0 L51.9,0 C56.9,0 61,4.2 61,9.3 L61,15.5 C61,16.3 60.3,17 59.5,17 L59.5,17 Z M3,14 L58,14 L58,9.3 C58,5.8 55.3,3 51.9,3 L9.6,3 C6.1,3 3,5.9 3,9.3 L3,14 L3,14 Z" id="Shape" fill="#256D77"></path>
                    <circle id="Oval" fill="#256D77" cx="11.7" cy="8.7" r="1.7"></circle>
                    <circle id="Oval" fill="#256D77" cx="16.7" cy="8.7" r="1.7"></circle>
                    <circle id="Oval" fill="#256D77" cx="22.7" cy="8.7" r="1.7"></circle>
                </g>
            </g>
        </g>
    </g>
</svg>