<?xml version="1.0" encoding="UTF-8" standalone="no"?>
<svg width="60px" height="65px" viewBox="0 0 60 65" version="1.1" xmlns="http://www.w3.org/2000/svg" xmlns:xlink="http://www.w3.org/1999/xlink">
    <!-- Generator: Sketch 50.2 (55047) - http://www.bohemiancoding.com/sketch -->
    <title>Group 14</title>
    <desc>Created with Sketch.</desc>
    <defs></defs>
    <g id="1440" stroke="none" stroke-width="1" fill="none" fill-rule="evenodd">
        <g id="Main/KPK_1440" transform="translate(-440.000000, -2507.000000)">
            <g id="Work_list" transform="translate(436.000000, 2507.000000)">
                <g id="Group-14" transform="translate(4.000000, 0.000000)">
                    <path d="M23.1,12.4 C23.1,8.2 26.9,5 31.1,5 L52,5 C56.4,5 60,8.6 60,13.1 L60,53.2 L51.8,41 L46,41" id="Shape" fill="#EDC951"></path>
                    <path d="M37,13 L14,13 C9.6,13 6,16.6 6,21.1 L6,64.7 L14.9,52.1 L37,52.1 C41.4,52.1 45,48.6 45,44.2 L45,21.2 C45,16.6 41.4,13 37,13 L37,13 Z" id="Shape" fill="#AFD698"></path>
                    <path d="M1.5,62.1 C1.4,62.1 1.2,62.1 1.1,62 C0.5,61.8 0,61.2 0,60.6 L0,17 C0,11.8 3.8,7.9 9,7.9 L32,7.9 C37.5,7.9 42,12 42,17 L42,40 C42,45.2 37.2,49.9 32,49.9 L10.7,49.9 L2.7,61.4 C2.4,61.9 2,62.1 1.5,62.1 L1.5,62.1 Z M9,11 C5.4,11 3,13.4 3,17.1 L3,55.9 L8.7,47.7 C9,47.3 9.4,47.1 9.9,47.1 L32,47.1 C35.6,47.1 39,43.7 39,40.2 L39,17.2 C39,13.5 35.4,11.1 32,11.1 L9,11.1 L9,11 Z" id="Shape" fill="#256D77"></path>
                    <path d="M55.5,50.7 C55,50.7 54.6,50.5 54.3,50.1 L46,39 L41,39 C40.2,39 39.5,38.3 39.5,37.5 C39.5,36.7 40.2,36 41,36 L46.8,36 C47.3,36 47.7,36.2 48,36.6 L54,44.7 L54,9.1 C54,5.4 50.4,3 47,3 L26.1,3 C22.6,3 19.6,5.7 19.6,8.9 C19.6,9.7 18.9,10.4 18.1,10.4 C17.3,10.4 16.6,9.7 16.6,8.9 C16.6,4.1 20.9,0 26.1,0 L47,0 C52.5,0 57,4.1 57,9.1 L57,49.2 C57,49.8 56.6,50.4 56,50.6 C55.8,50.7 55.7,50.7 55.5,50.7 L55.5,50.7 Z" id="Shape" fill="#256D77"></path>
                    <path d="M27.5,32.5 C26.7,32.5 26,31.8 26,31 L26,28 C26,27.2 26.7,26.5 27.5,26.5 C28.3,26.5 29,27.2 29,28 L29,31 C29,31.8 28.3,32.5 27.5,32.5 L27.5,32.5 Z" id="Shape" fill="#256D77"></path>
                    <path d="M21.5,32.5 C20.7,32.5 20,31.8 20,31 L20,28 C20,27.2 20.7,26.5 21.5,26.5 C22.3,26.5 23,27.2 23,28 L23,31 C23,31.8 22.3,32.5 21.5,32.5 L21.5,32.5 Z" id="Shape" fill="#256D77"></path>
                    <path d="M15.5,32.5 C14.7,32.5 14,31.8 14,31 L14,28 C14,27.2 14.7,26.5 15.5,26.5 C16.3,26.5 17,27.2 17,28 L17,31 C17,31.8 16.3,32.5 15.5,32.5 L15.5,32.5 Z" id="Shape" fill="#256D77"></path>
                </g>
            </g>
        </g>
    </g>
</svg>