<?xml version="1.0" encoding="UTF-8" standalone="no"?>
<svg width="53px" height="65px" viewBox="0 0 53 65" version="1.1" xmlns="http://www.w3.org/2000/svg" xmlns:xlink="http://www.w3.org/1999/xlink">
    <!-- Generator: Sketch 50.2 (55047) - http://www.bohemiancoding.com/sketch -->
    <title>ico_tech-card</title>
    <desc>Created with Sketch.</desc>
    <defs></defs>
    <g id="1440" stroke="none" stroke-width="1" fill="none" fill-rule="evenodd">
        <g id="Main/KPK_1440" transform="translate(-136.000000, -2698.000000)">
            <g id="Inter_lesson" transform="translate(136.000000, 2698.000000)">
                <g id="ico_tech-card">
                    <path d="M23.593501,4.90566038 L48.2989518,4.90566038 C50.5174004,4.90566038 52.7358491,6.40801887 52.7358491,8.61147799 L52.7358491,60.693239 C52.7358491,62.8966981 50.5174004,65 48.2989518,65 L10.9886792,65 C8.77023061,65 7.35849057,62.8966981 7.35849057,60.693239 L7.35849057,24.7367925 L23.593501,4.90566038 L23.593501,4.90566038 Z" id="Shape" fill="#D0E6BB"></path>
                    <path d="M8.58490566,23.3018868 L19.5258193,23.3018868 C21.6559086,23.3018868 23.3018868,21.6934736 23.3018868,19.4819054 L23.3018868,4.90566038 L8.58490566,23.3018868 L8.58490566,23.3018868 Z" id="Shape" fill="#256D77"></path>
                    <path d="M43.5377358,63.7735849 L5.72327044,63.7735849 C2.55503145,63.7735849 0,61.4416414 0,58.399976 L0,22.0013798 C0,21.6972133 0.102201258,21.2916579 0.306603774,21.0888802 L16.7610063,0.608333083 C17.0676101,0.202777694 17.4764151,-1.13686838e-13 17.9874214,-1.13686838e-13 L43.5377358,-1.13686838e-13 C46.5015723,-1.13686838e-13 49.0566038,2.63611003 49.0566038,5.77916429 L49.0566038,58.5013648 C49.0566038,61.4416414 46.6037736,63.7735849 43.5377358,63.7735849 L43.5377358,63.7735849 Z M3.06603774,22.5083241 L3.06603774,58.399976 C3.06603774,59.718031 4.19025157,60.7319195 5.72327044,60.7319195 L43.5377358,60.7319195 C44.9685535,60.7319195 45.990566,59.718031 45.990566,58.399976 L45.990566,5.67777544 C45.990566,4.15694274 44.8663522,2.94027657 43.5377358,2.94027657 L18.7028302,2.94027657 L3.06603774,22.5083241 L3.06603774,22.5083241 Z" id="Shape" fill="#256D77"></path>
                    <path d="M13.7379175,22.0754717 L2.78015558,22.0754717 C2.17139102,22.0754717 1.66408723,21.769952 1.35970496,21.1589125 C1.15678344,20.6497129 1.15678344,20.0386735 1.56262647,19.5294739 L16.883201,0.587250361 C17.2890441,0.0780508037 17.9992694,-0.125629019 18.6080339,0.0780508037 C19.2167985,0.281730627 19.6226415,0.892770096 19.6226415,1.50380957 L19.6226415,16.0669169 C19.6226415,19.2239542 16.7817403,22.0754717 13.7379175,22.0754717 L13.7379175,22.0754717 Z M6.02689985,19.0202744 L13.7379175,19.0202744 C15.1583681,19.0202744 16.5788188,17.5945156 16.5788188,16.1687568 L16.5788188,5.88292576 L6.02689985,19.0202744 L6.02689985,19.0202744 Z" id="Shape" fill="#256D77"></path>
                    <path d="M21.8495531,45.3773585 L6.35799404,45.3773585 C5.58341609,45.3773585 4.90566038,44.5188679 4.90566038,43.5377358 C4.90566038,42.5566038 5.58341609,41.6981132 6.35799404,41.6981132 L21.8495531,41.6981132 C22.6241311,41.6981132 23.3018868,42.5566038 23.3018868,43.5377358 C23.3018868,44.5188679 22.6241311,45.3773585 21.8495531,45.3773585 L21.8495531,45.3773585 Z" id="Shape" fill="#256D77"></path>
                    <path d="M21.8495531,38.0188679 L6.35799404,38.0188679 C5.58341609,38.0188679 4.90566038,37.1603774 4.90566038,36.1792453 C4.90566038,35.1981132 5.58341609,34.3396226 6.35799404,34.3396226 L21.8495531,34.3396226 C22.6241311,34.3396226 23.3018868,35.1981132 23.3018868,36.1792453 C23.3018868,37.1603774 22.6241311,38.0188679 21.8495531,38.0188679 L21.8495531,38.0188679 Z" id="Shape" fill="#256D77"></path>
                    <path d="M21.8495531,30.6603774 L6.35799404,30.6603774 C5.58341609,30.6603774 4.90566038,29.8018868 4.90566038,28.8207547 C4.90566038,27.8396226 5.58341609,26.9811321 6.35799404,26.9811321 L21.8495531,26.9811321 C22.6241311,26.9811321 23.3018868,27.8396226 23.3018868,28.8207547 C23.3018868,29.8018868 22.6241311,30.6603774 21.8495531,30.6603774 L21.8495531,30.6603774 Z" id="Shape" fill="#256D77"></path>
                </g>
            </g>
        </g>
    </g>
</svg>