<?xml version="1.0" encoding="UTF-8" standalone="no"?>
<svg width="65px" height="63px" viewBox="0 0 65 63" version="1.1" xmlns="http://www.w3.org/2000/svg" xmlns:xlink="http://www.w3.org/1999/xlink">
    <!-- Generator: Sketch 50.2 (55047) - http://www.bohemiancoding.com/sketch -->
    <title>Group 11</title>
    <desc>Created with Sketch.</desc>
    <defs></defs>
    <g id="1440" stroke="none" stroke-width="1" fill="none" fill-rule="evenodd">
        <g id="Main/KPK_1440" transform="translate(-435.000000, -2701.000000)">
            <g id="Inter_lesson-Copy" transform="translate(435.000000, 2701.000000)">
                <g id="Group-11">
                    <path d="M65,54.3283582 C65,58.5970149 61.5074627,62.0895522 57.238806,62.0895522 L14.5522388,62.0895522 C10.2835821,62.0895522 6.79104478,58.5970149 6.79104478,54.3283582 L6.79104478,11.641791 C6.79104478,7.37313433 10.2835821,3.88059701 14.5522388,3.88059701 L57.238806,3.88059701 C61.5074627,3.88059701 65,7.37313433 65,11.641791 L65,54.3283582 L65,54.3283582 Z" id="Shape" fill="#D0E6BB"></path>
                    <path d="M51.9029851,61.119403 L9.21641791,61.119403 C4.17164179,61.119403 0,56.9477612 0,51.9029851 L0,9.21641791 C0,4.17164179 4.17164179,0 9.21641791,0 L51.9029851,0 C56.9477612,0 61.119403,4.17164179 61.119403,9.21641791 L61.119403,51.9029851 C61.119403,56.9477612 56.9477612,61.119403 51.9029851,61.119403 L51.9029851,61.119403 Z M9.21641791,2.91044776 C5.7238806,2.91044776 2.91044776,5.7238806 2.91044776,9.21641791 L2.91044776,51.9029851 C2.91044776,55.3955224 5.7238806,58.2089552 9.21641791,58.2089552 L51.9029851,58.2089552 C55.3955224,58.2089552 58.2089552,55.3955224 58.2089552,51.9029851 L58.2089552,9.21641791 C58.2089552,5.7238806 55.3955224,2.91044776 51.9029851,2.91044776 L9.21641791,2.91044776 L9.21641791,2.91044776 Z" id="Shape" fill="#256D77"></path>
                    <path d="M46.4701493,31.238806 L31.4328358,22.7985075 C30.1716418,22.0223881 28.1343284,22.9925373 28.1343284,24.4477612 L28.1343284,37.738806 C28.1343284,39.1940299 30.1716418,40.1641791 31.4328358,39.3880597 L46.4701493,31.238806 L46.4701493,31.238806 Z" id="Shape" fill="#EDC951"></path>
                    <path d="M25.9029851,39.1940299 L25.9029851,39.1940299 C23.9626866,39.1940299 22.3134328,37.641791 22.3134328,35.7985075 L22.3134328,22.5074627 C22.3134328,20.6641791 23.8656716,19.1119403 25.9029851,19.1119403 C26.4850746,19.1119403 27.0671642,19.3059701 27.6492537,19.5970149 L42.3955224,28.0373134 C42.880597,28.3283582 43.1716418,28.8134328 43.1716418,29.2985075 C43.1716418,29.7835821 42.880597,30.2686567 42.3955224,30.5597015 L27.5522388,38.7089552 C27.0671642,39 26.4850746,39.1940299 25.9029851,39.1940299 L25.9029851,39.1940299 Z M25.9029851,22.0223881 C25.6119403,22.0223881 25.2238806,22.2164179 25.2238806,22.5074627 L25.2238806,35.7985075 C25.2238806,36.0895522 25.6119403,36.2835821 25.9029851,36.2835821 L25.9029851,36.2835821 C26,36.2835821 26.0970149,36.2835821 26.1940299,36.1865672 L38.7089552,29.2985075 L26.1940299,22.119403 C26.0970149,22.119403 26,22.0223881 25.9029851,22.0223881 L25.9029851,22.0223881 Z" id="Shape" fill="#256D77"></path>
                </g>
            </g>
        </g>
    </g>
</svg>