<svg xmlns="http://www.w3.org/2000/svg" width="43" height="53" viewBox="0 0 43 53">
    <g fill="none" fill-rule="evenodd">
        <path fill="#D0E6BB" d="M19.238 4h20.144C41.192 4 43 5.225 43 7.022v42.466C43 51.285 41.191 53 39.382 53H8.96C7.151 53 6 51.285 6 49.488V20.17L19.238 4z"/>
        <path fill="#256D77" d="M7 19h8.921C17.658 19 19 17.689 19 15.885V4L7 19z"/>
        <path fill="#256D77" d="M35.5 52H4.667C2.083 52 0 50.099 0 47.618V17.94c0-.248.083-.58.25-.744L13.667.496c.25-.33.583-.496 1-.496H35.5C37.917 0 40 2.15 40 4.712v42.99C40 50.098 38 52 35.5 52zm-33-33.647v29.265c0 1.075.917 1.902 2.167 1.902H35.5c1.167 0 2-.827 2-1.902V4.63c0-1.24-.917-2.233-2-2.233H15.25L2.5 18.353z"/>
        <path fill="#256D77" d="M11.202 18H2.267c-.496 0-.91-.25-1.158-.747-.166-.416-.166-.914.165-1.329L13.766.479c.331-.415.91-.581 1.407-.415.496.166.827.664.827 1.162v11.875C16 15.675 13.684 18 11.202 18zm-6.288-2.491h6.288c1.158 0 2.316-1.163 2.316-2.325V4.797L4.914 15.509zM17.816 37H5.184C4.553 37 4 36.3 4 35.5S4.553 34 5.184 34h12.632c.631 0 1.184.7 1.184 1.5s-.553 1.5-1.184 1.5zM17.816 31H5.184C4.553 31 4 30.3 4 29.5S4.553 28 5.184 28h12.632c.631 0 1.184.7 1.184 1.5s-.553 1.5-1.184 1.5zM17.816 25H5.184C4.553 25 4 24.3 4 23.5S4.553 22 5.184 22h12.632c.631 0 1.184.7 1.184 1.5s-.553 1.5-1.184 1.5z"/>
    </g>
</svg>
