<svg xmlns="http://www.w3.org/2000/svg" width="50" height="46" viewBox="0 0 50 46">
    <g fill="none" fill-rule="evenodd">
        <path fill="#D0E6BB" d="M43.987 41.106H10.915c-3.307 0-6.013-2.694-6.013-5.987V8.924c0-3.293 2.706-5.988 6.013-5.988h33.072C47.294 2.936 50 5.631 50 8.924v26.195c0 3.293-2.706 5.987-6.013 5.987z"/>
        <path fill="#256D77" d="M39.963 40.128H7.096C3.212 40.128 0 36.932 0 33.068V7.06C0 3.195 3.212 0 7.096 0h32.867c3.884 0 7.096 3.195 7.096 7.06v26.008c0 3.864-3.212 7.06-7.096 7.06zM7.096 2.229c-2.689 0-4.855 2.155-4.855 4.83v26.01c0 2.674 2.166 4.83 4.855 4.83h32.867c2.689 0 4.855-2.156 4.855-4.83V7.058c0-2.675-2.166-4.83-4.855-4.83H7.096z"/>
        <path fill="#256D77" d="M29.309 46H17.75c-.578 0-1.083-.498-1.083-1.068v-5.694c0-.57.505-1.068 1.083-1.068H29.31c.577 0 1.083.498 1.083 1.068v5.694c0 .57-.506 1.068-1.083 1.068zm-10.475-2.135h9.391v-3.56h-9.391v3.56z"/>
        <path fill="#256D77" d="M36.152 46H11.887c-.588 0-1.103-.457-1.103-.979s.515-.978 1.103-.978h24.265c.588 0 1.103.456 1.103.978S36.74 46 36.152 46zM11.94 33.277c-.298 0-.596-.075-.82-.299a1.08 1.08 0 0 1 0-1.565L35.353 7.187a1.081 1.081 0 0 1 1.566 0 1.08 1.08 0 0 1 0 1.565L12.686 32.978c-.15.224-.448.299-.746.299zM24.632 31.32c-.284 0-.569-.072-.782-.286a1.036 1.036 0 0 1 0-1.498l6.688-6.704a1.03 1.03 0 0 1 1.495 0c.427.428.427 1.07 0 1.497l-6.69 6.705c-.141.214-.426.285-.71.285z"/>
    </g>
</svg>
