<svg xmlns="http://www.w3.org/2000/svg" width="50" height="45" viewBox="0 0 50 45">
    <g fill="none" fill-rule="evenodd">
        <g>
            <path fill="#FAFBE8" d="M45 8.838C45 5.847 42.545 3.4 39.545 3.4h-30c-3 0-5.454 2.448-5.454 5.44v20.396c0 2.991 2.454 5.439 5.454 5.439h30c3 0 5.455-2.448 5.455-5.44V8.839z"/>
            <ellipse cx="34.568" cy="12.714" fill="#EDC951" rx="3.205" ry="3.195"/>
            <path fill="#AFD698" d="M4.134 20.6l8.455-4.283 4.909 2.516 7.84-7.275 4.092 14.481 5.863-5.779 4.841 13.394.205.748-29.318.068s-7.568 0-6.887-6.595V20.6z"/>
            <path fill="#256D77" d="M36.477 33.314h-30C2.932 33.314 0 30.39 0 26.855V6.46C0 2.923 2.932 0 6.477 0h30c3.546 0 6.478 2.923 6.478 6.459v20.396c0 3.535-2.932 6.459-6.478 6.459zm-30-31.274a4.417 4.417 0 0 0-4.432 4.419v20.396a4.417 4.417 0 0 0 4.432 4.42h30a4.417 4.417 0 0 0 4.432-4.42V6.46a4.417 4.417 0 0 0-4.432-4.42h-30z"/>
            <path fill="#256D77" d="M7.705 33.134c-2.387 0-7.091-1.563-7.705-7.546v-7.343c0-.408.205-.748.545-.884l8.319-4.283c.272-.136.613-.136.954 0l4.227 2.176 7.296-6.799c.273-.272.614-.34.954-.272.341.068.614.34.682.68l3.546 12.85 4.568-4.556c.273-.272.614-.34.954-.272.341.068.614.34.75.68l4.841 13.394v.136l.205.748c.068.272 0 .612-.205.884a.973.973 0 0 1-.818.407H7.705zm-5.591-7.979c.613 5.575 5.454 5.643 5.659 5.643l27.75-.068-4.091-11.286-4.705 4.692c-.272.272-.613.34-.954.272-.341-.068-.614-.34-.75-.68l-3.614-12.85-6.545 6.119c-.341.272-.819.34-1.16.136l-4.363-2.244-7.296 3.74v6.526h.069z"/>
            <path fill="#256D77" d="M31.636 15.501c-2.393 0-4.363-1.965-4.363-4.351s1.97-4.351 4.363-4.351C34.03 6.799 36 8.764 36 11.15s-1.97 4.351-4.364 4.351zm0-6.597a2.22 2.22 0 0 0-2.252 2.246 2.22 2.22 0 0 0 2.252 2.246 2.22 2.22 0 0 0 2.253-2.246c0-1.263-1.056-2.246-2.253-2.246z"/>
        </g>
        <g transform="translate(5 10)">
            <path fill="#FAFBE8" d="M45 7.153c0-3.186-2.577-5.793-5.727-5.793h-31.5c-3.15 0-5.728 2.607-5.728 5.793V28.88c0 3.186 2.578 5.794 5.728 5.794h31.5c3.15 0 5.727-2.608 5.727-5.794V7.153z"/>
            <ellipse cx="34.568" cy="12.714" fill="#EDC951" rx="3.205" ry="3.195"/>
            <path fill="#AFD698" d="M4.134 20.6l8.455-4.283 4.909 2.516 7.84-7.275 4.092 14.481 5.863-5.779 4.841 13.394.205.748-29.318.068s-7.568 0-6.887-6.595V20.6z"/>
            <path fill="#256D77" d="M36.477 33.314h-30C2.932 33.314 0 30.39 0 26.855V6.46C0 2.923 2.932 0 6.477 0h30c3.546 0 6.478 2.923 6.478 6.459v20.396c0 3.535-2.932 6.459-6.478 6.459zm-30-31.274a4.417 4.417 0 0 0-4.432 4.419v20.396a4.417 4.417 0 0 0 4.432 4.42h30a4.417 4.417 0 0 0 4.432-4.42V6.46a4.417 4.417 0 0 0-4.432-4.42h-30z"/>
            <path fill="#256D77" d="M7.705 33.134c-2.387 0-7.091-1.563-7.705-7.546v-7.343c0-.408.205-.748.545-.884l8.319-4.283c.272-.136.613-.136.954 0l4.227 2.176 7.296-6.799c.273-.272.614-.34.954-.272.341.068.614.34.682.68l3.546 12.85 4.568-4.556c.273-.272.614-.34.954-.272.341.068.614.34.75.68l4.841 13.394v.136l.205.748c.068.272 0 .612-.205.884a.973.973 0 0 1-.818.407H7.705zm-5.591-7.979c.613 5.575 5.454 5.643 5.659 5.643l27.75-.068-4.091-11.286-4.705 4.692c-.272.272-.613.34-.954.272-.341-.068-.614-.34-.75-.68l-3.614-12.85-6.545 6.119c-.341.272-.819.34-1.16.136l-4.363-2.244-7.296 3.74v6.526h.069z"/>
            <path fill="#256D77" d="M31.636 15.501c-2.393 0-4.363-1.965-4.363-4.351s1.97-4.351 4.363-4.351C34.03 6.799 36 8.764 36 11.15s-1.97 4.351-4.364 4.351zm0-6.597a2.22 2.22 0 0 0-2.252 2.246 2.22 2.22 0 0 0 2.252 2.246 2.22 2.22 0 0 0 2.253-2.246c0-1.263-1.056-2.246-2.253-2.246z"/>
        </g>
    </g>
</svg>
