<svg xmlns="http://www.w3.org/2000/svg" width="142" height="75" viewBox="0 0 142 75">
    <g fill="none" fill-rule="evenodd">
        <g fill="#7EA8AD" opacity=".7">
            <path d="M46.355 49.473c-.14 0-.221 0-.28-.177l-.584-1.726h-3.298l-.585 1.726c-.035.118-.105.177-.246.177h-.795c-.152 0-.187-.106-.152-.224l2.644-7.554c.128-.376.233-.458.596-.47h.35c.42 0 .515.117.631.47l2.633 7.554c.046.106.01.224-.141.224h-.773zm-1.952-5.311l-.55-1.727h-.058l-.527 1.668-.795 2.515h2.714l-.784-2.456zM49.163 49.25c0 .188-.059.223-.234.223h-.585c-.163 0-.245-.035-.245-.224v-5.992c0-1.08.467-2.02 1.976-2.02h3.134c.187 0 .222.082.222.246v.482c0 .188-.035.247-.222.247h-3.122c-.643 0-.924.27-.924.88v6.157M59.664 49.473h-3.25c-1.521 0-1.977-.928-1.977-2.01v-4.206c0-1.081.55-2.02 1.976-2.02h3.193c.175 0 .21.082.21.246v.493c0 .177-.035.235-.21.235h-3.181c-.643 0-.923.283-.923.894v1.527h3.718c.175 0 .21.07.21.247v.446c0 .153-.035.235-.21.235h-3.718v2.045c0 .529.257.88.923.88h3.24c.186 0 .221.072.221.248v.494c0 .164-.035.246-.222.246M66.424 41.448c0-.165.07-.2.222-.2h.632c.163 0 .222.035.222.2v7.825c0 .165-.059.2-.222.2h-.632c-.152 0-.222-.035-.222-.2v-3.666h-4.128v3.666c0 .165-.059.2-.222.2h-.643c-.14 0-.223-.035-.223-.2v-7.825c0-.165.082-.2.223-.2h.643c.163 0 .222.035.222.2v3.22h4.128v-3.22M70.996 42.2h-2.28c-.14 0-.163-.047-.163-.188v-.576c0-.129.023-.188.163-.188h5.73c.14 0 .163.059.163.188v.576c0 .14-.023.188-.163.188h-2.35v7.073c0 .164-.058.2-.211.2h-.667c-.151 0-.222-.036-.222-.2V42.2M80.364 48.169c.175-.07.233.023.268.094l.223.493c.094.188.047.235-.059.306-.76.446-1.731.54-2.48.54-2.185 0-3.484-1.28-3.484-4.124 0-2.644 1.44-4.347 3.567-4.347.666 0 1.391.082 2.175.481.094.047.14.118.058.27l-.268.541c-.047.094-.083.141-.211.082a4.198 4.198 0 0 0-1.707-.364c-1.778 0-2.514 1.633-2.514 3.337 0 1.715.607 3.114 2.572 3.114.679 0 1.31-.177 1.86-.423M84.036 42.2h-2.28c-.141 0-.164-.047-.164-.188v-.576c0-.129.023-.188.163-.188h5.731c.14 0 .163.059.163.188v.576c0 .14-.023.188-.163.188h-2.35v7.073c0 .164-.059.2-.212.2h-.666c-.151 0-.222-.036-.222-.2V42.2M93.368 44.961c.97.329 1.345 1.222 1.345 2.068 0 1.456-1.158 2.444-2.654 2.444h-2.772c-.42 0-.596-.176-.596-.587v-7.05c0-.412.152-.6.596-.6l2.607-.012c1.427 0 2.468.588 2.468 2.021 0 .706-.386 1.34-.994 1.634v.082zm-3.602-.41h2.152c.514 0 1.333-.224 1.333-1.235 0-.658-.48-1.105-1.24-1.105h-2.245v2.34zm2.175.903h-2.175v3.031h2.175c1.345 0 1.673-.916 1.673-1.538 0-.881-.585-1.493-1.673-1.493zM98.981 49.602c-2.292 0-3.45-1.515-3.45-4.23 0-2.726 1.474-4.253 3.474-4.253 2.292 0 3.485 1.586 3.485 4.206 0 2.738-1.205 4.277-3.509 4.277m.059-7.52c-1.673 0-2.433 1.492-2.433 3.243 0 1.939.562 3.314 2.386 3.314s2.397-1.574 2.397-3.267c0-1.715-.444-3.29-2.35-3.29M46.034 59.39c.22-.094.29-.036.36.139l.393.836c.103.22.069.302-.07.384-.833.511-1.78.651-2.672.651-2.522 0-3.644-1.568-3.644-4.15 0-2.533 1.505-4.23 3.725-4.23.786 0 1.55.105 2.267.5.174.093.197.151.093.407l-.36.802c-.08.21-.126.255-.346.174-.555-.198-.995-.302-1.573-.302-1.273 0-1.954 1.139-1.954 2.65 0 1.51.497 2.545 2 2.545.729 0 1.284-.22 1.781-.406M53.483 54.647H51.39v6.38c0 .198-.047.245-.278.245h-1.238c-.185 0-.266-.059-.266-.244v-6.38H47.56c-.162 0-.22-.07-.22-.234V53.38c0-.197.046-.243.22-.243h5.922c.185 0 .231.046.231.243v1.034c0 .163-.069.233-.231.233M56.466 61.028c0 .21-.046.244-.277.244h-1.215c-.185 0-.266-.059-.266-.244v-7.194c0-.43.139-.71.694-.71h2.834c1.677 0 2.706 1.07 2.706 2.547 0 .789-.335 2.649-2.937 2.649h-1.539v2.708zm1.504-6.346h-1.504v2.209h1.515c.787 0 1.146-.489 1.146-1.104 0-.443-.22-1.105-1.157-1.105zM65.35 59.575H62.7l-.45 1.476c-.047.151-.105.22-.325.22h-1.353c-.162 0-.197-.115-.162-.232l2.406-7.287c.162-.534.37-.628.845-.638h.693c.52 0 .718.07.902.638l2.406 7.287c.035.093.012.233-.15.233h-1.376c-.174 0-.29-.023-.336-.186l-.45-1.51zm-2.233-1.44h1.816l-.44-1.477-.428-1.662h-.07l-.439 1.662-.44 1.476zM73.527 54.647h-2.095v6.38c0 .198-.045.245-.277.245h-1.237c-.186 0-.267-.059-.267-.244v-6.38h-2.047c-.161 0-.22-.07-.22-.234V53.38c0-.197.047-.243.22-.243h5.923c.184 0 .23.046.23.243v1.034c0 .163-.069.233-.23.233M80.315 61.272h-3.423c-1.712 0-2.14-1.08-2.14-2.138v-3.859c0-1.104.567-2.15 2.128-2.15h3.32c.185 0 .22.058.22.279v.988c0 .197-.046.255-.22.255h-2.938c-.602 0-.752.314-.752.72v.896h3.32c.185 0 .219.058.219.278v.907c0 .186-.034.267-.22.267H76.51v1.325c0 .535.266.697.752.697h3.053c.197 0 .231.047.231.28v.987c0 .187-.046.268-.23.268M83.6 61.028c0 .21-.035.244-.267.244h-1.225c-.186 0-.267-.059-.267-.244v-5.753c0-1.104.533-2.15 2.128-2.15H87.3c.197 0 .232.058.232.28v.987c0 .198-.046.256-.232.256h-2.948c-.602 0-.753.302-.753.72v5.66M93.57 55.833l-1.03 1.743-1.955 3.185c-.266.43-.393.51-.867.51h-.464c-.6 0-.75-.313-.75-.801v-7.125c0-.162.069-.22.242-.22h1.238c.208 0 .243.047.243.22v5.23h.069l.983-1.627 2-3.3c.268-.442.394-.523.857-.523h.474c.567 0 .752.21.752.813v7.113c0 .162-.07.22-.243.22h-1.237c-.209 0-.255-.046-.255-.22v-5.218h-.058M102.845 61.272h-1.26c-.186 0-.243-.059-.243-.221v-2.638a9.371 9.371 0 0 1-1.377.105c-2.406 0-3.263-1.116-3.263-2.906v-2.267c0-.162.07-.22.244-.22h1.272c.197 0 .243.047.243.22v2.093c0 1.092.555 1.522 1.735 1.522.37 0 .775-.034 1.146-.104v-3.51c0-.163.057-.221.242-.221h1.261c.208 0 .255.047.255.22v7.706c0 .174-.047.22-.255.22M110.397 61.272h-3.424c-1.711 0-2.139-1.08-2.139-2.138v-3.859c0-1.104.567-2.15 2.128-2.15h3.32c.185 0 .22.058.22.279v.988c0 .197-.047.255-.22.255h-2.938c-.602 0-.753.314-.753.72v.896h3.321c.184 0 .22.058.22.278v.907c0 .186-.036.267-.22.267h-3.32v1.325c0 .535.265.697.752.697h3.053c.197 0 .231.047.231.28v.987c0 .187-.046.268-.231.268M117.094 59.39c.22-.094.29-.036.358.139l.394.836c.104.22.069.302-.07.384-.833.511-1.78.651-2.671.651-2.523 0-3.645-1.568-3.645-4.15 0-2.533 1.505-4.23 3.725-4.23.787 0 1.55.105 2.267.5.174.093.197.151.094.407l-.36.802c-.08.21-.127.255-.347.174-.555-.198-.995-.302-1.573-.302-1.272 0-1.954 1.139-1.954 2.65 0 1.51.497 2.545 2 2.545.73 0 1.285-.22 1.782-.406M123.825 56.937c.798.267.995.72 1.168 1.406l.717 2.697c.024.08.035.232-.161.232h-1.342c-.08 0-.186-.012-.232-.162l-.705-2.5c-.231-.801-.636-.976-1.446-.976h-.949l.012 3.452c0 .163-.058.186-.208.186h-1.341c-.14 0-.21-.023-.21-.186v-7.763c0-.164.07-.186.21-.186h1.352c.15 0 .209.022.185.186v2.963h.926c.463 0 1.075-.093 1.33-1.046l.52-1.964c.035-.15.15-.162.232-.162h1.295c.197 0 .185.15.163.231l-.532 2.08c-.151.652-.498 1.163-.984 1.454v.058M131.99 55.833l-1.03 1.743-1.954 3.185c-.266.43-.393.51-.867.51h-.463c-.602 0-.752-.313-.752-.801v-7.125c0-.162.07-.22.243-.22h1.237c.209 0 .244.047.244.22v5.23h.069l.983-1.627 2.001-3.3c.267-.442.393-.523.856-.523h.475c.566 0 .751.21.751.813v7.113c0 .162-.07.22-.243.22h-1.237c-.21 0-.255-.046-.255-.22v-5.218h-.058M138.212 58.482l-1.399 2.522c-.14.21-.22.268-.509.268h-1.423c-.138 0-.172-.128-.115-.232l2.463-3.998-2.255-3.697c-.069-.092-.035-.22.138-.22h1.354c.301 0 .382.047.498.255l1.272 2.267 1.26-2.267c.116-.208.197-.255.498-.255h1.33c.174 0 .196.128.128.233l-2.232 3.672 2.463 4.01c.057.104.011.232-.116.232h-1.446c-.277 0-.37-.059-.497-.268l-1.412-2.522M46.162 67.632l-1.03 1.743-1.954 3.185c-.266.43-.394.51-.868.51h-.462c-.602 0-.752-.313-.752-.8v-7.125c0-.163.069-.221.243-.221h1.237c.208 0 .243.046.243.22v5.23h.07l.983-1.627 2.001-3.3c.266-.442.393-.523.856-.523h.474c.567 0 .752.21.752.813v7.113c0 .162-.07.22-.243.22h-1.238c-.208 0-.254-.046-.254-.22v-5.218h-.058M56.073 73.07H54.86c-.197 0-.267-.058-.267-.243v-3.254H51.46v3.254c0 .197-.047.244-.278.244h-1.227c-.184 0-.265-.059-.265-.244v-7.648c0-.186.08-.243.265-.243h1.227c.23 0 .278.046.278.243v2.894h3.134V65.18c0-.186.07-.243.267-.243h1.213c.232 0 .278.046.278.243v7.648c0 .197-.046.244-.278.244M63.152 67.632l-1.03 1.743-1.955 3.185c-.265.43-.393.51-.867.51h-.463c-.6 0-.751-.313-.751-.8v-7.125c0-.163.07-.221.243-.221h1.238c.207 0 .242.046.242.22v5.23h.07l.983-1.627 2-3.3c.267-.442.394-.523.856-.523h.475c.566 0 .752.21.752.813v7.113c0 .162-.07.22-.244.22h-1.237c-.208 0-.254-.046-.254-.22v-5.218h-.058M73.33 71.513l.578.059c.417.034.451.232.44.51l-.127 2.686c-.012.15-.07.232-.22.232h-.972c-.161 0-.22-.07-.231-.244l-.07-1.685H67.42c-.533 0-.741-.256-.741-.779v-7.147c0-.163.07-.221.243-.221h1.273c.207 0 .254.046.254.22v6.405h3.122v-6.404c0-.163.07-.221.232-.221h1.272c.22 0 .255.046.255.22v6.37M80.35 67.632l-1.03 1.743-1.955 3.185c-.266.43-.392.51-.867.51h-.463c-.6 0-.75-.313-.75-.8v-7.125c0-.163.068-.221.242-.221h1.238c.208 0 .242.046.242.22v5.23h.07l.983-1.627 2-3.3c.267-.442.394-.523.857-.523h.474c.566 0 .752.21.752.813v7.113c0 .162-.07.22-.244.22h-1.236c-.21 0-.256-.046-.256-.22v-5.218h-.057M87.88 71.374h-2.65l-.451 1.476c-.046.151-.103.22-.323.22h-1.354c-.162 0-.196-.116-.162-.231l2.406-7.287c.161-.536.37-.628.845-.64h.694c.52 0 .717.07.902.64l2.406 7.287c.034.092.011.232-.15.232h-1.377c-.173 0-.29-.023-.335-.186l-.452-1.511zm-2.233-1.441h1.816l-.44-1.477-.428-1.66h-.069l-.44 1.66-.44 1.477zM96.056 66.447h-2.093v6.38c0 .197-.047.244-.279.244h-1.236c-.186 0-.267-.059-.267-.244v-6.38h-2.047c-.161 0-.22-.07-.22-.234V65.18c0-.197.047-.244.22-.244h5.922c.185 0 .232.047.232.244v1.034c0 .163-.07.234-.232.234M102.348 67.632l-1.03 1.743-1.954 3.185c-.267.43-.393.51-.868.51h-.463c-.601 0-.751-.313-.751-.8v-7.125c0-.163.069-.221.243-.221h1.237c.209 0 .243.046.243.22v5.23h.07l.983-1.627 2-3.3c.267-.442.394-.523.857-.523h.474c.567 0 .751.21.751.813v7.113c0 .162-.069.22-.243.22h-1.237c-.208 0-.254-.046-.254-.22v-5.218h-.058M111 68.62c.879.348 1.236 1.185 1.236 1.976 0 1.476-1.214 2.475-2.764 2.475h-2.902c-.556 0-.694-.21-.694-.709v-6.718c0-.487.138-.72.694-.72h2.834c1.399 0 2.486.592 2.486 2.056 0 .64-.37 1.268-.89 1.558v.081zm-3.366-.605h1.573c.382 0 .867-.15.867-.801 0-.465-.312-.744-.81-.744h-1.63v1.545zm1.665 1.419h-1.665v2.08h1.665c.879 0 1.123-.593 1.123-1.035 0-.615-.394-1.045-1.123-1.045z"/>
        </g>
        <g fill="#7EA8AD" opacity=".7">
            <path d="M22.131 20.01l14.256 8.449 7.123-4.244zM.614 16.204l14.573 8.45 7.28-4.244zM14.86 32.817l14.257 8.45 7.122-4.244z"/>
            <path d="M43.51 24.184l-7.154 12.625-.008-8.414z"/>
            <path d="M36.359 36.807l-7.153 12.625-.009-8.413zM22.016 20.009l-7.152 12.625-.01-8.413z"/>
        </g>
        <path fill="#A1C0C0" d="M40.47 1h4.66c.113 0 .212.042.295.125a.403.403 0 0 1 .125.295v6.23a.403.403 0 0 1-.125.295.403.403 0 0 1-.295.125.415.415 0 0 1-.305-.125.403.403 0 0 1-.125-.295V1.8h-3.8v5.85a.403.403 0 0 1-.125.295.403.403 0 0 1-.295.125.415.415 0 0 1-.305-.125.403.403 0 0 1-.125-.295V1.42c0-.113.042-.212.125-.295A.403.403 0 0 1 40.47 1zm8.6 0a69.87 69.87 0 0 1 1.41-.02c.92 0 1.582.205 1.985.615.403.41.605.928.605 1.555 0 .613-.218 1.133-.655 1.56-.437.427-1.058.64-1.865.64-.387 0-.737-.013-1.05-.04v2.34a.403.403 0 0 1-.125.295.403.403 0 0 1-.295.125.415.415 0 0 1-.305-.125.403.403 0 0 1-.125-.295V1.42c0-.113.042-.212.125-.295A.403.403 0 0 1 49.07 1zm.43.8v2.7c.38.033.72.05 1.02.05.513 0 .917-.125 1.21-.375.293-.25.44-.595.44-1.035 0-.427-.133-.76-.4-1s-.67-.36-1.21-.36c-.267 0-.62.007-1.06.02zm11.97-.4v6.25a.403.403 0 0 1-.125.295.403.403 0 0 1-.295.125.415.415 0 0 1-.305-.125.403.403 0 0 1-.125-.295V2.41l-4.07 5.35c-.153.207-.32.31-.5.31-.287 0-.43-.153-.43-.46V1.36c0-.113.042-.21.125-.29a.424.424 0 0 1 .305-.12c.113 0 .212.04.295.12.083.08.125.177.125.29V6.6l4.07-5.35c.153-.2.313-.3.48-.3.14 0 .25.04.33.12.08.08.12.19.12.33zm6.77-.4h4.66c.113 0 .212.042.295.125a.403.403 0 0 1 .125.295v6.23a.403.403 0 0 1-.125.295.403.403 0 0 1-.295.125.415.415 0 0 1-.305-.125.403.403 0 0 1-.125-.295V1.8h-3.8v5.85a.403.403 0 0 1-.125.295.403.403 0 0 1-.295.125.415.415 0 0 1-.305-.125.403.403 0 0 1-.125-.295V1.42c0-.113.042-.212.125-.295A.403.403 0 0 1 68.24 1zm11.2 7.1c-1.027 0-1.878-.337-2.555-1.01-.677-.673-1.015-1.537-1.015-2.59 0-1.02.337-1.875 1.01-2.565S78.407.9 79.44.9c1.027 0 1.878.337 2.555 1.01.677.673 1.015 1.537 1.015 2.59 0 1.033-.34 1.892-1.02 2.575-.68.683-1.53 1.025-2.55 1.025zm0-6.4c-.767 0-1.403.263-1.91.79-.507.527-.76 1.197-.76 2.01 0 .793.257 1.458.77 1.995a2.525 2.525 0 0 0 1.9.805c.787 0 1.428-.267 1.925-.8.497-.533.745-1.2.745-2 0-.807-.257-1.475-.77-2.005-.513-.53-1.147-.795-1.9-.795zM90.57 8h-5.44v.91c0 .107-.04.198-.12.275a.392.392 0 0 1-.28.115.392.392 0 0 1-.28-.115.368.368 0 0 1-.12-.275V7.62c0-.113.042-.212.125-.295a.403.403 0 0 1 .295-.125h.33c.213-.267.442-.812.685-1.635.243-.823.398-1.878.465-3.165l.05-.98a.434.434 0 0 1 .44-.42H90c.113 0 .212.042.295.125a.403.403 0 0 1 .125.295V7.2h.53c.113 0 .212.042.295.125a.403.403 0 0 1 .125.295v1.29c0 .107-.04.198-.12.275a.392.392 0 0 1-.28.115.392.392 0 0 1-.28-.115.368.368 0 0 1-.12-.275V8zm-4.55-.8h3.55V1.8h-2.45l-.09 1.25c-.073 1.067-.217 1.972-.43 2.715-.213.743-.407 1.222-.58 1.435zm13.04.8h-5.44v.91c0 .107-.04.198-.12.275a.392.392 0 0 1-.28.115.392.392 0 0 1-.28-.115.368.368 0 0 1-.12-.275V7.62c0-.113.042-.212.125-.295a.403.403 0 0 1 .295-.125h.33c.213-.267.442-.812.685-1.635.243-.823.398-1.878.465-3.165l.05-.98a.434.434 0 0 1 .44-.42h3.28c.113 0 .212.042.295.125a.403.403 0 0 1 .125.295V7.2h.53c.113 0 .212.042.295.125a.403.403 0 0 1 .125.295v1.29c0 .107-.04.198-.12.275a.392.392 0 0 1-.28.115.392.392 0 0 1-.28-.115.368.368 0 0 1-.12-.275V8zm-4.55-.8h3.55V1.8h-2.45l-.09 1.25c-.073 1.067-.217 1.972-.43 2.715-.213.743-.407 1.222-.58 1.435zm8.55 0h2.81c.107 0 .198.04.275.12.077.08.115.173.115.28 0 .107-.038.2-.115.28a.368.368 0 0 1-.275.12h-3.24a.403.403 0 0 1-.295-.125.403.403 0 0 1-.125-.295V1.42c0-.113.042-.212.125-.295A.403.403 0 0 1 102.63 1h3.14c.107 0 .198.04.275.12.077.08.115.173.115.28 0 .107-.038.2-.115.28a.368.368 0 0 1-.275.12h-2.71v2.26h2.41c.107 0 .198.04.275.12.077.08.115.173.115.28 0 .107-.038.2-.115.28a.368.368 0 0 1-.275.12h-2.41V7.2zm6.32-6.2a69.87 69.87 0 0 1 1.41-.02c.92 0 1.582.205 1.985.615.403.41.605.928.605 1.555 0 .613-.218 1.133-.655 1.56-.437.427-1.058.64-1.865.64-.387 0-.737-.013-1.05-.04v2.34a.403.403 0 0 1-.125.295.403.403 0 0 1-.295.125.415.415 0 0 1-.305-.125.403.403 0 0 1-.125-.295V1.42c0-.113.042-.212.125-.295A.403.403 0 0 1 109.38 1zm.43.8v2.7c.38.033.72.05 1.02.05.513 0 .917-.125 1.21-.375.293-.25.44-.595.44-1.035 0-.427-.133-.76-.4-1s-.67-.36-1.21-.36c-.267 0-.62.007-1.06.02zm13.35 5.91c0 .1-.033.185-.1.255a.343.343 0 0 1-.26.105.383.383 0 0 1-.23-.065 1.517 1.517 0 0 1-.24-.245l-2.5-3.17a.4.4 0 0 1-.08-.24c0-.087.027-.163.08-.23l2.42-2.93c.127-.16.26-.24.4-.24.107 0 .195.033.265.1a.33.33 0 0 1 .105.25.438.438 0 0 1-.1.27l-2.35 2.77 2.48 3.08c.073.093.11.19.11.29zm-4.55-6.35c0-.113.042-.21.125-.29a.424.424 0 0 1 .305-.12c.113 0 .212.04.295.12.083.08.125.177.125.29v6.29a.403.403 0 0 1-.125.295.403.403 0 0 1-.295.125.415.415 0 0 1-.305-.125.403.403 0 0 1-.125-.295V1.36zm-2.75-.13l2.39 2.89c.053.067.08.143.08.23a.4.4 0 0 1-.08.24l-2.5 3.17c-.16.207-.313.31-.46.31a.382.382 0 0 1-.275-.1.33.33 0 0 1-.105-.25c0-.1.037-.197.11-.29l2.49-3.08-2.33-2.75a.442.442 0 0 1-.12-.29.36.36 0 0 1 .37-.36c.14 0 .283.093.43.28zm13.79 6.61l-2.76-3.18a.478.478 0 0 1 .01-.62l2.62-2.87c.127-.147.257-.22.39-.22.107 0 .195.033.265.1a.32.32 0 0 1 .105.24c0 .12-.05.23-.15.33l-2.53 2.67 2.71 3.06c.1.107.15.223.15.35a.35.35 0 0 1-.11.265.39.39 0 0 1-.28.105c-.147 0-.287-.077-.42-.23zm-4.05-6.48c0-.113.042-.21.125-.29a.424.424 0 0 1 .305-.12c.113 0 .212.04.295.12.083.08.125.177.125.29v6.29a.403.403 0 0 1-.125.295.403.403 0 0 1-.295.125.415.415 0 0 1-.305-.125.403.403 0 0 1-.125-.295V1.36zm8.2 5.84h2.81c.107 0 .198.04.275.12.077.08.115.173.115.28 0 .107-.038.2-.115.28a.368.368 0 0 1-.275.12h-3.24a.403.403 0 0 1-.295-.125.403.403 0 0 1-.125-.295V1.42c0-.113.042-.212.125-.295A.403.403 0 0 1 133.37 1h3.14c.107 0 .198.04.275.12.077.08.115.173.115.28 0 .107-.038.2-.115.28a.368.368 0 0 1-.275.12h-2.71v2.26h2.41c.107 0 .198.04.275.12.077.08.115.173.115.28 0 .107-.038.2-.115.28a.368.368 0 0 1-.275.12h-2.41V7.2z"/>
    </g>
</svg>
