<svg xmlns="http://www.w3.org/2000/svg" width="214" height="37" viewBox="0 0 214 37">
    <g fill="#7EA8AD" fill-rule="evenodd" opacity=".7">
        <path d="M17.824 35.96h-5.142l-6.238-7.78v7.78H2.022V18.822h4.422v7.54l5.895-7.54h5.279l-6.89 8.466 7.096 8.672zm8.776.48c-2.536 0-4.678-.874-6.427-2.622-1.748-1.748-2.622-3.89-2.622-6.427 0-2.536.874-4.679 2.622-6.427 1.749-1.748 3.89-2.622 6.427-2.622 2.537 0 4.685.874 6.444 2.622 1.76 1.748 2.64 3.89 2.64 6.427 0 2.536-.88 4.679-2.64 6.427-1.76 1.748-3.907 2.622-6.444 2.622zm0-4.319c1.326 0 2.434-.445 3.325-1.337.891-.89 1.337-2.022 1.337-3.393s-.446-2.502-1.337-3.393c-.891-.892-2-1.337-3.325-1.337-1.325 0-2.428.445-3.307 1.337-.88.89-1.32 2.022-1.32 3.393s.44 2.502 1.32 3.393c.88.892 1.982 1.337 3.307 1.337zm23.104-13.299h4.422V35.96h-4.422v-6.512h-6.82v6.512h-4.422V18.822h4.421V25.3h6.821v-6.478zM65.987 36.44c-2.582 0-4.735-.868-6.46-2.605-1.726-1.737-2.589-3.885-2.589-6.444 0-2.56.863-4.707 2.588-6.444 1.726-1.737 3.88-2.605 6.461-2.605 1.668 0 3.188.4 4.56 1.2 1.37.8 2.41 1.874 3.118 3.222l-3.804 2.228a3.879 3.879 0 0 0-1.56-1.68c-.697-.411-1.48-.617-2.348-.617-1.325 0-2.422.44-3.29 1.32-.869.88-1.303 2.005-1.303 3.376 0 1.348.434 2.462 1.303 3.342.868.88 1.965 1.32 3.29 1.32.891 0 1.685-.2 2.382-.6a3.778 3.778 0 0 0 1.56-1.663l3.839 2.194c-.754 1.348-1.817 2.428-3.188 3.24-1.371.81-2.89 1.216-4.559 1.216zm23.139-17.618v4.25h-5.347V35.96h-4.422V23.072h-5.416v-4.25h15.185zm11.998-.48c2.308 0 4.28.874 5.913 2.622 1.634 1.748 2.45 3.89 2.45 6.427 0 2.536-.816 4.679-2.45 6.427-1.634 1.748-3.605 2.622-5.913 2.622-2.399 0-4.25-.834-5.552-2.502v8.877H91.15V18.822h4.422v2.022c1.302-1.668 3.153-2.502 5.552-2.502zm-.822 13.882c1.37 0 2.508-.451 3.41-1.354.903-.903 1.354-2.062 1.354-3.479 0-1.417-.451-2.576-1.354-3.479-.902-.903-2.04-1.354-3.41-1.354-1.371 0-2.502.451-3.394 1.354-.89.903-1.336 2.062-1.336 3.479 0 1.417.445 2.576 1.336 3.479.892.903 2.023 1.354 3.394 1.354zm22.452-13.402h4.73l-6.238 17.138c-1.736 4.822-4.753 7.107-9.049 6.855v-4.113c1.166.023 2.086-.194 2.76-.651.674-.457 1.216-1.223 1.628-2.297l-6.924-16.932h4.696l4.593 11.517 3.804-11.517zm22.282 17.138h-5.142l-6.238-7.78v7.78h-4.421V18.822h4.421v7.54l5.896-7.54h5.278l-6.89 8.466 7.096 8.672zm15.358-17.138v4.25h-5.347V35.96h-4.422V23.072h-5.416v-4.25h15.185zm9.496 17.618c-2.536 0-4.679-.874-6.427-2.622-1.748-1.748-2.622-3.89-2.622-6.427 0-2.536.874-4.679 2.622-6.427 1.748-1.748 3.89-2.622 6.427-2.622 2.536 0 4.684.874 6.444 2.622 1.76 1.748 2.64 3.89 2.64 6.427 0 2.536-.88 4.679-2.64 6.427-1.76 1.748-3.908 2.622-6.444 2.622zm0-4.319c1.325 0 2.434-.445 3.325-1.337.891-.89 1.337-2.022 1.337-3.393s-.446-2.502-1.337-3.393c-.891-.892-2-1.337-3.325-1.337-1.325 0-2.428.445-3.308 1.337-.88.89-1.32 2.022-1.32 3.393s.44 2.502 1.32 3.393c.88.892 1.983 1.337 3.308 1.337zm21.836-13.779c2.308 0 4.279.874 5.912 2.622 1.634 1.748 2.451 3.89 2.451 6.427 0 2.536-.817 4.679-2.45 6.427-1.634 1.748-3.605 2.622-5.913 2.622-2.4 0-4.25-.834-5.553-2.502v8.877h-4.421V18.822h4.421v2.022c1.303-1.668 3.154-2.502 5.553-2.502zm-.823 13.882c1.371 0 2.508-.451 3.41-1.354.903-.903 1.355-2.062 1.355-3.479 0-1.417-.452-2.576-1.354-3.479-.903-.903-2.04-1.354-3.41-1.354-1.372 0-2.503.451-3.394 1.354s-1.337 2.062-1.337 3.479c0 1.417.446 2.576 1.337 3.479s2.022 1.354 3.393 1.354zM203.283 17.334v5.507h-1.818V8.484c0-1.145.154-2.04.462-2.688.308-.647.838-1.182 1.59-1.605.752-.423 1.588-.635 2.51-.635 1.361 0 2.393.391 3.094 1.173.7.783 1.051 1.638 1.051 2.566 0 .908-.282 1.64-.848 2.195-.566.555-1.214.897-1.946 1.026 1.179.115 2.088.539 2.728 1.27.64.732.96 1.633.96 2.703 0 1.152-.377 2.183-1.132 3.094-.756.911-1.848 1.367-3.277 1.367-1.463 0-2.588-.539-3.374-1.616zm1.616-7.407c1.246 0 2.154-.217 2.723-.65.569-.434.853-1.06.853-1.88 0-.664-.242-1.22-.726-1.667-.484-.447-1.089-.67-1.814-.67-.63 0-1.177.166-1.64.498-.465.331-.75.7-.854 1.107-.105.407-.158 1.118-.158 2.134v4.095c0 1.165.082 2.022.244 2.57.163.55.512 1.044 1.047 1.484.535.44 1.151.66 1.849.66.847 0 1.516-.29 2.007-.868.49-.58.736-1.296.736-2.15 0-.704-.18-1.336-.543-1.894-.363-.56-.81-.939-1.341-1.138-.532-.2-1.238-.3-2.119-.3h-.264V9.927z"/>
    </g>
</svg>
