<?xml version="1.0" encoding="UTF-8" standalone="no"?>
<svg width="177px" height="33px" viewBox="0 0 177 33" version="1.1" xmlns="http://www.w3.org/2000/svg" xmlns:xlink="http://www.w3.org/1999/xlink">
    <!-- Generator: Sketch 50.2 (55047) - http://www.bohemiancoding.com/sketch -->
    <title>logo/color</title>
    <desc>Created with Sketch.</desc>
    <defs></defs>
    <g id="1440" stroke="none" stroke-width="1" fill="none" fill-rule="evenodd" opacity="0.7">
        <g id="Main_1440" transform="translate(-251.000000, -717.000000)" fill="#7EA8AD">
            <g id="1">
                <g id="Partners" transform="translate(136.000000, 694.000000)">
                    <g id="oldshit/logo/color" transform="translate(114.000000, 21.000000)">
                        <g id="Group-20" stroke-width="1" transform="translate(1.682243, 14.594595)">
                            <path d="M13.3095031,14.562161 L8.98496093,14.562161 L3.73784981,8.25352416 L3.73784981,14.562161 L0.0187435799,14.562161 L0.0187435799,0.666485117 L3.73784981,0.666485117 L3.73784981,6.78058252 L8.69665812,0.666485117 L13.1365214,0.666485117 L7.34163492,7.53094902 L13.3095031,14.562161 Z M20.6917533,14.95124 C18.5583018,14.95124 16.7564273,14.2425676 15.2860756,12.8252015 C13.815724,11.4078355 13.0805592,9.67089339 13.0805592,7.61432307 C13.0805592,5.55775275 13.815724,3.82081063 15.2860756,2.40344461 C16.7564273,0.986078576 18.5583018,0.277406191 20.6917533,0.277406191 C22.8252047,0.277406191 24.6318843,0.986078576 26.1118461,2.40344461 C27.5918079,3.82081063 28.3317777,5.55775275 28.3317777,7.61432307 C28.3317777,9.67089339 27.5918079,11.4078355 26.1118461,12.8252015 C24.6318843,14.2425676 22.8252047,14.95124 20.6917533,14.95124 Z M20.6917533,11.4495296 C21.8065297,11.4495296 22.7386995,11.0882457 23.4882905,10.3656669 C24.2378816,9.64308814 24.6126715,8.7259827 24.6126715,7.61432307 C24.6126715,6.50266344 24.2378816,5.585558 23.4882905,4.86297924 C22.7386995,4.14040048 21.8065297,3.77911652 20.6917533,3.77911652 C19.5769769,3.77911652 18.6496121,4.14040048 17.9096312,4.86297924 C17.1696503,5.585558 16.7996654,6.50266344 16.7996654,7.61432307 C16.7996654,8.7259827 17.1696503,9.64308814 17.9096312,10.3656669 C18.6496121,11.0882457 19.5769769,11.4495296 20.6917533,11.4495296 Z M40.1250609,0.666485117 L43.8441672,0.666485117 L43.8441672,14.562161 L40.1250609,14.562161 L40.1250609,9.28180418 L34.387835,9.28180418 L34.387835,14.562161 L30.6687288,14.562161 L30.6687288,0.666485117 L34.387835,0.666485117 L34.387835,5.91905061 L40.1250609,5.91905061 L40.1250609,0.666485117 Z M53.8211427,14.95124 C51.6492507,14.95124 49.8377661,14.2471994 48.3866347,12.8390972 C46.9355034,11.430995 46.2099485,9.68942105 46.2099485,7.61432307 C46.2099485,5.53922509 46.9355034,3.79765113 48.3866347,2.38954893 C49.8377661,0.98144673 51.6492507,0.277406191 53.8211427,0.277406191 C55.2242234,0.277406191 56.502353,0.601635387 57.65557,1.2501035 C58.808787,1.89857162 59.6832968,2.76935861 60.2791256,3.86249058 L57.0789644,5.66892844 C56.7906602,5.09457097 56.3534053,4.64065009 55.7671866,4.3071522 C55.180968,3.97365432 54.5226832,3.80690787 53.7923124,3.80690787 C52.677536,3.80690787 51.7549762,4.16355999 51.0246054,4.87687492 C50.2942347,5.59018985 49.9290548,6.50266344 49.9290548,7.61432307 C49.9290548,8.70745504 50.2942347,9.61066494 51.0246054,10.3239799 C51.7549762,11.0372948 52.677536,11.3939469 53.7923124,11.3939469 C54.5419035,11.3939469 55.2097983,11.2318323 55.7960169,10.9075983 C56.3822356,10.5833642 56.8194905,10.1340752 57.1077947,9.5597177 L60.3367862,11.3383642 C59.7025168,12.4314962 58.808787,13.306915 57.65557,13.964647 C56.502353,14.6223789 55.2242234,14.95124 53.8211427,14.95124 Z M73.2832806,0.666485117 L73.2832806,4.11261274 L68.7857568,4.11261274 L68.7857568,14.562161 L65.0666506,14.562161 L65.0666506,4.11261274 L60.5114662,4.11261274 L60.5114662,0.666485117 L73.2832806,0.666485117 Z M83.3755773,0.277406191 C85.3168259,0.277406191 86.9745504,0.986078576 88.3488007,2.40344461 C89.723051,3.82081063 90.4101658,5.55775275 90.4101658,7.61432307 C90.4101658,9.67089339 89.723051,11.4078355 88.3488007,12.8252015 C86.9745504,14.2425676 85.3168259,14.95124 83.3755773,14.95124 C81.3574475,14.95124 79.8006279,14.2749905 78.7050718,12.9224713 L78.7050718,20.1204314 L74.9859655,20.1204314 L74.9859655,0.666485117 L78.7050718,0.666485117 L78.7050718,2.30617487 C79.8006279,0.953655656 81.3574475,0.277406191 83.3755773,0.277406191 Z M82.6836505,11.5329037 C83.8368675,11.5329037 84.7930623,11.1669879 85.5522635,10.4351453 C86.3114647,9.70330269 86.6910596,8.76303802 86.6910596,7.61432307 C86.6910596,6.46560812 86.3114647,5.52534345 85.5522635,4.79350086 C84.7930623,4.06165827 83.8368675,3.69574246 82.6836505,3.69574246 C81.5304335,3.69574246 80.5790438,4.06165827 79.8294527,4.79350086 C79.0798617,5.52534345 78.7050718,6.46560812 78.7050718,7.61432307 C78.7050718,8.76303802 79.0798617,9.70330269 79.8294527,10.4351453 C80.5790438,11.1669879 81.5304335,11.5329037 82.6836505,11.5329037 Z M101.569183,0.666485117 L105.547762,0.666485117 L100.30065,14.562161 C98.8399089,18.4714974 96.3028696,20.3242357 92.6894563,20.1204314 L92.6894563,16.7854692 C93.6696908,16.8039968 94.4432956,16.6279867 95.0102939,16.2574335 C95.5772923,15.8868803 96.0337672,15.266213 96.3797323,14.3954129 L90.5560155,0.666485117 L94.505764,0.666485117 L98.3690216,10.0043793 L101.569183,0.666485117 Z M120.310564,14.562161 L115.986022,14.562161 L110.73891,8.25352416 L110.73891,14.562161 L107.019804,14.562161 L107.019804,0.666485117 L110.73891,0.666485117 L110.73891,6.78058252 L115.697719,0.666485117 L120.137582,0.666485117 L114.342696,7.53094902 L120.310564,14.562161 Z M133.228228,0.666485117 L133.228228,4.11261274 L128.730704,4.11261274 L128.730704,14.562161 L125.011598,14.562161 L125.011598,4.11261274 L120.456413,4.11261274 L120.456413,0.666485117 L133.228228,0.666485117 Z M141.215914,14.95124 C139.082463,14.95124 137.280588,14.2425676 135.810236,12.8252015 C134.339885,11.4078355 133.60472,9.67089339 133.60472,7.61432307 C133.60472,5.55775275 134.339885,3.82081063 135.810236,2.40344461 C137.280588,0.986078576 139.082463,0.277406191 141.215914,0.277406191 C143.349365,0.277406191 145.156045,0.986078576 146.636007,2.40344461 C148.115969,3.82081063 148.855938,5.55775275 148.855938,7.61432307 C148.855938,9.67089339 148.115969,11.4078355 146.636007,12.8252015 C145.156045,14.2425676 143.349365,14.95124 141.215914,14.95124 Z M141.215914,11.4495296 C142.33069,11.4495296 143.26286,11.0882457 144.012451,10.3656669 C144.762042,9.64308814 145.136832,8.7259827 145.136832,7.61432307 C145.136832,6.50266344 144.762042,5.585558 144.012451,4.86297924 C143.26286,4.14040048 142.33069,3.77911652 141.215914,3.77911652 C140.101138,3.77911652 139.173773,4.14040048 138.433792,4.86297924 C137.693811,5.585558 137.323826,6.50266344 137.323826,7.61432307 C137.323826,8.7259827 137.693811,9.64308814 138.433792,10.3656669 C139.173773,11.0882457 140.101138,11.4495296 141.215914,11.4495296 Z M159.582501,0.277406191 C161.52375,0.277406191 163.181474,0.986078576 164.555725,2.40344461 C165.929975,3.82081063 166.61709,5.55775275 166.61709,7.61432307 C166.61709,9.67089339 165.929975,11.4078355 164.555725,12.8252015 C163.181474,14.2425676 161.52375,14.95124 159.582501,14.95124 C157.564372,14.95124 156.007552,14.2749905 154.911996,12.9224713 L154.911996,20.1204314 L151.19289,20.1204314 L151.19289,0.666485117 L154.911996,0.666485117 L154.911996,2.30617487 C156.007552,0.953655656 157.564372,0.277406191 159.582501,0.277406191 Z M158.890575,11.5329037 C160.043792,11.5329037 160.999986,11.1669879 161.759187,10.4351453 C162.518389,9.70330269 162.897984,8.76303802 162.897984,7.61432307 C162.897984,6.46560812 162.518389,5.52534345 161.759187,4.79350086 C160.999986,4.06165827 160.043792,3.69574246 158.890575,3.69574246 C157.737358,3.69574246 156.785968,4.06165827 156.036377,4.79350086 C155.286786,5.52534345 154.911996,6.46560812 154.911996,7.61432307 C154.911996,8.76303802 155.286786,9.70330269 156.036377,10.4351453 C156.785968,11.1669879 157.737358,11.5329037 158.890575,11.5329037 Z" id="конструктор"></path>
                        </g>
                        <path d="M170.985946,14.0545681 L170.985946,18.5198364 L169.456126,18.5198364 L169.456126,6.87883262 C169.456126,5.95062339 169.585746,5.22426936 169.844991,4.69974876 C170.104235,4.17522816 170.550072,3.74133804 171.182515,3.39806539 C171.814958,3.05479275 172.518612,2.883159 173.293497,2.883159 C174.438731,2.883159 175.306191,3.20033817 175.895901,3.83470602 C176.485611,4.46907387 176.780462,5.16247421 176.780462,5.91492785 C176.780462,6.6509044 176.542587,7.24407064 176.066831,7.69444435 C175.591074,8.14481806 175.045529,8.4221782 174.430179,8.52653309 C175.421576,8.61990325 176.186479,8.96317074 176.72491,9.55634588 C177.263341,10.149521 177.532553,10.8799942 177.532553,11.7477875 C177.532553,12.6814891 177.214912,13.5176887 176.57962,14.2564114 C175.944328,14.9951342 175.02559,15.36449 173.823379,15.36449 C172.592679,15.36449 171.646878,14.9278538 170.985946,14.0545681 Z M172.344837,8.04869995 C173.393211,8.04869995 174.156689,7.87294699 174.635295,7.5214358 C175.1139,7.16992461 175.353199,6.66188872 175.353199,5.99731287 C175.353199,5.45906136 175.14951,5.00869441 174.742126,4.64619849 C174.334741,4.28370258 173.826231,4.10245734 173.216578,4.10245734 C172.686694,4.10245734 172.226613,4.2370182 171.836321,4.50614395 C171.44603,4.77526971 171.206731,5.07459897 171.118417,5.40414071 C171.030103,5.73368245 170.985946,6.31037184 170.985946,7.13422619 L170.985946,10.4543426 C170.985946,11.399029 171.054317,12.0938024 171.191062,12.5386837 C171.327806,12.9835651 171.621233,13.3845015 172.07135,13.7415051 C172.521467,14.0985086 173.039948,14.2770077 173.62681,14.2770077 C174.33902,14.2770077 174.901658,14.0422127 175.31474,13.5726158 C175.727822,13.1030188 175.93436,12.5222102 175.93436,11.8301725 C175.93436,11.2589668 175.78195,10.7468117 175.477123,10.2936918 C175.172297,9.84057194 174.796256,9.53300426 174.348988,9.37097957 C173.901719,9.20895488 173.307745,9.12794376 172.567046,9.12794376 L172.344837,9.12794376 L172.344837,8.04869995 Z" id="text--head--dark"></path>
                    </g>
                </g>
            </g>
        </g>
    </g>
</svg>