<?xml version="1.0" encoding="UTF-8" standalone="no"?>
<svg width="188px" height="202px" viewBox="0 0 188 202" version="1.1" xmlns="http://www.w3.org/2000/svg" xmlns:xlink="http://www.w3.org/1999/xlink">
    <!-- Generator: Sketch 50.2 (55047) - http://www.bohemiancoding.com/sketch -->
    <title>Parents</title>
    <desc>Created with Sketch.</desc>
    <defs>
        <path d="M11.557965,63.0624348 C11.5379774,62.8753334 11.5186551,62.6878548 11.5,62.5 C11.3214712,60.7022362 12.7920841,60.4078101 13.5991534,59.5542552 C13.7355905,59.3311169 13.8729419,59.1085985 14.0112022,58.886705 C14.130422,58.5312587 14.1467227,58.0868908 14,57.5 C13.5,55.5 12.8307314,53.6996448 13,52 C13.2493627,49.4961224 14,46.5 17,44.5 C17.3866274,44.2422484 14.4114729,40.325426 15,36.5 C15.2117541,35.1235981 15.9296924,32.0545265 17.5,30 C18.6741317,28.4638139 21,27.5 21.5,26.5 C22,25.5 21.4282897,23.2644396 22,22 C22.7300968,20.3852603 25.2633591,20.5626551 26,19 C27.0121461,16.8529088 26.2882453,15.0997418 27,13 C28.2043695,9.44699907 33.2361186,6.83734678 35,6 C36.0694793,5.49229857 38.0841452,6.44550738 39.5,6 C40.826357,5.58265363 40.9254661,3.88578015 42.5,3.5 C44.0061542,3.13097371 45.7831446,5.81941599 47.5,5.5 C49.8721623,5.05866604 49.5,2 54.5,1.5 C59.5,1 61.202083,4.76422396 63.5,4.5 C66.2420919,4.18470298 66.2910007,2.42706881 69,2 C72.6609969,1.42285051 77,4.5 79.5,9 C80.1705168,10.2069302 79.5,8.5 83.5,8.5 C87.5,8.5 91,15 93,15 C96.8577264,15 97,9.01425964 97,3.5 C97,3 110.781114,2 112.5,2 C117.602137,2 121.237148,1.13584521 125,1 C135.445636,0.622895179 142.684186,4.06957862 148.5,8 C155.348552,12.6283628 159,22.5 158,35 C157.828447,37.1444101 157.828073,39.3063072 157.998876,41.4856913 C175.275832,58.3714441 186,81.9333403 186,108 C186,159.362482 144.362482,201 93,201 C41.6375183,201 -3.51718654e-13,159.362482 -3.51718654e-13,108 C-3.51718654e-13,91.7017099 4.19253722,76.3826392 11.557965,63.0624348 Z" id="path-1"></path>
        <polygon id="path-3" points="0.397434555 0.345602094 28.0781015 0.345602094 28.0781015 49.2146597 0.397434555 49.2146597"></polygon>
        <polygon id="path-5" points="0 199.953927 144.471728 199.953927 144.471728 -5.68434189e-14 0 -5.68434189e-14"></polygon>
        <polygon id="path-7" points="0.216091091 0.237475634 20.0832583 0.237475634 20.0832583 20.2507212 0.216091091 20.2507212"></polygon>
    </defs>
    <g id="1440" stroke="none" stroke-width="1" fill="none" fill-rule="evenodd">
        <g id="Main_1440" transform="translate(-934.000000, -2685.000000)">
            <g id="3" transform="translate(0.000000, 2378.000000)">
                <g id="Parents" transform="translate(935.000000, 307.000000)">
                    <g>
                        <mask id="mask-2" fill="white">
                            <use xlink:href="#path-1"></use>
                        </mask>
                        <use id="Mask" stroke="#9DC286" fill="#B1D798" xlink:href="#path-1"></use>
                        <g mask="url(#mask-2)">
                            <g transform="translate(0.000000, 1.000000)">
                                <g id="Father" transform="translate(54.000000, 0.000000)">
                                    <path d="M114.539319,189.264241 C113.391152,198.599319 112.416283,198.22445 99.4094764,198.22445 L46.7916754,198.22445 C33.7853927,198.22445 32.236178,201.212932 31.0880105,188.517644 L26.4937696,116.450628 C26.4937696,104.07733 4.48539267,91.4343979 50.044555,94.0469634 L95.3791099,94.0469634 C141.463927,90.5474869 118.929372,104.07733 118.929372,116.450628 L114.539319,189.264241 Z" id="Fill-1" fill="#2471AA"></path>
                                    <path d="M105.915654,95.1687958 C105.915654,95.1687958 131.35911,88.0892147 135.554921,105.573508 C138.694712,118.657801 143.777958,170.422199 143.777958,170.422199 L124.500471,180.324817 L110.340262,114.131099 L105.915654,95.1687958 Z" id="Fill-3" fill="#2471AA"></path>
                                    <path d="M37.4025131,94.4216754 C37.4025131,94.4216754 13.6417801,90.5012565 10.806178,105.96199 C8.06167539,120.923246 0.197277487,164.650471 0.197277487,164.650471 L24.2663874,167.144188 L36.6433508,113.708586 L37.4025131,94.4216754 Z" id="Fill-5" fill="#2471AA"></path>
                                    <path d="M50.0443979,94.046911 L74.5297382,132.508168 L97.1124607,93.6746597 C97.1124607,93.6746597 90.6056545,94.0484817 74.9124607,94.0484817 C59.2197906,94.0484817 50.0443979,94.046911 50.0443979,94.046911" id="Fill-7" fill="#FCFCD0"></path>
                                    <path d="M82.217801,96.8487435 C82.217801,96.8487435 81.9324607,100.474398 73.8162304,100.769162 C66.1151832,101.049267 64.2947644,97.1288482 64.2947644,97.1288482 L64.2712042,77.0586911 L82.1942408,77.0586911 L82.217801,96.8487435 Z" id="Fill-9" fill="#F7CAB2"></path>
                                    <path d="M81.2842932,96.9420942 C81.2842932,96.9420942 80.9989529,100.567749 72.8827225,100.862513 C65.1816754,101.142618 63.3612565,97.222199 63.3612565,97.222199 L63.3376963,77.1520419 L81.260733,77.1520419 L81.2842932,96.9420942 Z" id="Stroke-11" stroke="#256D77" stroke-width="1.391"></path>
                                    <path d="M45.322356,60.3760209 C43.496178,61.4027225 41.4710471,61.254555 39.9516754,59.7624084 C38.4328272,58.2697382 38.1888482,55.4252356 37.8537696,53.2760209 C37.5951309,51.615288 37.5155497,49.5760209 38.2008901,48.0524607 C38.8857068,46.5294241 40.4998429,46.0969634 42.0972251,45.8707853" id="Fill-13" fill="#F9C6AA"></path>
                                    <path d="M44.9912565,61.6052356 C42.9949215,62.7277487 40.7813089,62.565445 39.1205759,60.9340314 C37.4598429,59.3026178 37.1933508,56.1937173 36.8273822,53.8439791 C36.5446597,52.0287958 36.4577487,49.7994764 37.2064398,48.1340314 C37.9556545,46.4691099 39.7195288,45.9968586 41.4656021,45.7492147" id="Stroke-15" stroke="#256D77" stroke-width="1.826"></path>
                                    <path d="M41.8254974,51.3870157 C41.109267,51.4707853 40.7281152,52.3571728 40.665288,53.1309948 C40.6213089,53.6728796 40.6731414,54.2519372 40.9642408,54.6959162 C41.2558639,55.1404188 41.8391099,55.3917277 42.2883246,55.1451309" id="Stroke-17" stroke="#256D77" stroke-width="1.698"></path>
                                    <path d="M98.2723037,62.0763351 C100.309476,63.2548691 102.566545,63.0805236 104.258168,61.3595812 C105.949267,59.6381152 106.21733,56.3627225 106.587487,53.8868063 C106.873874,51.9742408 106.959738,49.6255497 106.19377,47.8731937 C105.427801,46.1208377 103.628325,45.6255497 101.847696,45.3684817" id="Fill-19" fill="#F9C6AA"></path>
                                    <path d="M99.1091623,22.6887958 C99.1091623,22.6887958 103.558377,46.0034555 97.545288,67.6442932 C93.5740838,81.9374869 85.732199,89.6757068 75.2049738,89.8751832 C62.8253927,90.1097382 54.2866492,88.551623 46.3751309,71.8270157 C38.5353403,55.2531937 40.6609948,24.3893194 40.6609948,24.3893194 C40.6609948,24.3893194 47.0327225,13.5139267 74.9201571,15.981466 C95.5531414,17.807644 99.1091623,22.6887958 99.1091623,22.6887958" id="Fill-21" fill="#FFD6BB"></path>
                                    <path d="M99.6557592,24.5117801 C99.6557592,24.5117801 103.800262,47.9693717 98.0306283,69.6044503 C96.584555,75.0264398 94.6934555,78.4039267 92.2945026,81.8034031 C88.6735602,86.9358639 82.4646597,90.8426702 76.7698953,91.2924084 C70.6808901,91.7730366 65.3787958,91.8463351 57.7002618,86.7709424 C53.510733,84.0018325 48.7599476,77.602356 46.3777487,69.9170157 C40.8473822,52.0746073 43.1730366,20.3772251 43.1730366,20.3772251 C43.1730366,20.3772251 48.2719895,11.1751309 76.0327225,15.1138743 C103.793979,19.0520942 99.6557592,24.5117801 99.6557592,24.5117801 Z" id="Stroke-23" stroke="#256D77" stroke-width="1.738"></path>
                                    <path d="M98.9012042,61.5265445 C100.75356,62.5982723 102.805916,62.4396335 104.343613,60.874712 C105.881309,59.3097906 106.124764,56.3317801 106.461414,54.0804712 C106.721623,52.3417277 106.799634,50.2066492 106.103298,48.6129319 C105.406963,47.0197382 103.770838,46.5694764 102.15199,46.335445" id="Stroke-25" stroke="#256D77" stroke-width="1.721"></path>
                                    <path d="M102.339895,51.680733 C103.156649,52.3210471 103.617906,53.5665969 103.494869,54.8011518 C103.447749,55.2739267 103.311623,55.7597906 103.034136,56.1095288 C102.756126,56.4597906 102.315812,56.6398953 101.974974,56.4540314" id="Stroke-27" stroke="#256D77" stroke-width="2.107"></path>
                                    <path d="M95.873822,58.7286911 L91.8565445,60.3443979 C90.6089005,60.8464921 89.1780105,60.2360209 88.6764398,58.9889005 C88.1743455,57.7417801 88.7848168,56.3103665 90.0319372,55.8087958 L94.0492147,54.193089 C95.2968586,53.6909948 96.7277487,54.301466 97.2293194,55.5485864 C97.7314136,56.7957068 97.1209424,58.2271204 95.873822,58.7286911" id="Fill-29" fill="#F9C6AA"></path>
                                    <path d="M54.3430366,60.5365445 L49.8341361,59.2318325 C48.4341361,58.8271204 47.62,57.3501571 48.0252356,55.9501571 C48.4299476,54.5501571 49.906911,53.7360209 51.306911,54.1412565 L55.8158115,55.4459686 C57.2158115,55.8506806 58.0299476,57.327644 57.624712,58.727644 C57.22,60.127644 55.7430366,60.9417801 54.3430366,60.5365445" id="Fill-31" fill="#F9C6AA"></path>
                                    <path d="M90.1524607,44.97 C90.1524607,46.5296859 88.8880628,47.7935602 87.3289005,47.7935602 C85.7692147,47.7935602 84.5048168,46.5296859 84.5048168,44.97 C84.5048168,43.4103141 85.7692147,42.1464398 87.3289005,42.1464398 C88.8880628,42.1464398 90.1524607,43.4103141 90.1524607,44.97" id="Fill-33" fill="#256D77"></path>
                                    <path d="M87.6290576,45.0701571 C87.6290576,45.3356021 87.4138743,45.5507853 87.1484293,45.5507853 C86.8829843,45.5507853 86.667801,45.3356021 86.667801,45.0701571 C86.667801,44.804712 86.8829843,44.5895288 87.1484293,44.5895288 C87.4138743,44.5895288 87.6290576,44.804712 87.6290576,45.0701571" id="Fill-35" fill="#FFFFFF"></path>
                                    <path d="M56.0523037,44.97 C56.0523037,46.4778534 57.2748168,47.7003665 58.7826702,47.7003665 C60.2905236,47.7003665 61.5130366,46.4778534 61.5130366,44.97 C61.5130366,43.4621466 60.2905236,42.2396335 58.7826702,42.2396335 C57.2748168,42.2396335 56.0523037,43.4621466 56.0523037,44.97" id="Fill-37" fill="#256D77"></path>
                                    <path d="M58.4922513,45.0668063 C58.4922513,45.3233508 58.7001047,45.5317277 58.9571728,45.5317277 C59.2137173,45.5317277 59.4215707,45.3233508 59.4215707,45.0668063 C59.4215707,44.8102618 59.2137173,44.6018848 58.9571728,44.6018848 C58.7001047,44.6018848 58.4922513,44.8102618 58.4922513,45.0668063" id="Fill-39" fill="#FFFFFF"></path>
                                    <path d="M71.1689529,41.5486911 L70.2375393,56.8602094 C70.2375393,56.8602094 67.7595288,62.5790576 76.7338743,61.573822" id="Stroke-41" stroke="#256D77" stroke-width="2.14"></path>
                                    <path d="M81.4827749,70.2743455 C77.6832984,73.7633508 69.6356545,73.7837696 65.7079058,70.4560209 C65.0387958,69.8895288 64.0649738,70.8539267 64.7387958,71.4251309 C69.2749215,75.2675393 78.0534555,75.282199 82.4513613,71.2429319 C83.1021466,70.6455497 82.131466,69.678534 81.4827749,70.2743455" id="Fill-43" fill="#256D77"></path>
                                    <path d="M76.6219372,75.9431414 C75.1617277,76.3148691 73.6067539,76.4038743 72.0989005,76.2012565" id="Stroke-45" stroke="#256D77" stroke-width="0.872"></path>
                                    <g id="Group-49" transform="translate(115.706806, 150.739267)">
                                        <mask id="mask-4" fill="white">
                                            <use xlink:href="#path-3"></use>
                                        </mask>
                                        <g id="Clip-48"></g>
                                        <path d="M5.15816754,9.96968586 C5.15816754,9.96968586 3.57963351,33.344555 2.07753927,39.6545026 C0.575968586,45.9644503 0.397434555,47.6827749 0.397434555,47.6827749 L21.9162827,49.214712 C21.9162827,49.214712 28.1461257,30.1450785 28.0775393,22.5785864 C27.9450785,7.93931937 24.4168063,0.345602094 24.4168063,0.345602094 L5.15816754,9.96968586 Z" id="Fill-47" fill="#2471AA" mask="url(#mask-4)"></path>
                                    </g>
                                    <path d="M25.9290052,158.095183 C25.9290052,158.095183 23.6886911,178.258534 26.0934031,188.786806 C27.6431414,195.570576 26.826911,198.105131 26.826911,198.105131 L6.05989529,199.204084 C6.05989529,199.204084 -0.187225131,178.629215 0.00439790576,170.501466 C0.375602094,154.776335 4.20492147,146.667958 4.20492147,146.667958 L25.9290052,158.095183 Z" id="Fill-50" fill="#2471AA"></path>
                                    <mask id="mask-6" fill="white">
                                        <use xlink:href="#path-5"></use>
                                    </mask>
                                    <g id="Clip-53"></g>
                                    <polygon id="Fill-52" fill="#17618E" mask="url(#mask-6)" points="73.752356 198.050785 74.5418848 198.050785 74.5418848 132.274869 73.752356 132.274869"></polygon>
                                    <path d="M71.5634031,147.817277 C71.5634031,148.9 70.6639267,149.777487 69.5539791,149.777487 C68.4440314,149.777487 67.544555,148.9 67.544555,147.817277 C67.544555,146.734555 68.4440314,145.857068 69.5539791,145.857068 C70.6639267,145.857068 71.5634031,146.734555 71.5634031,147.817277" id="Fill-54" fill="#17618E" mask="url(#mask-6)"></path>
                                    <path d="M71.5634031,164.900157 C71.5634031,165.98288 70.6639267,166.860366 69.5539791,166.860366 C68.4440314,166.860366 67.544555,165.98288 67.544555,164.900157 C67.544555,163.817435 68.4440314,162.939948 69.5539791,162.939948 C70.6639267,162.939948 71.5634031,163.817435 71.5634031,164.900157" id="Fill-55" fill="#17618E" mask="url(#mask-6)"></path>
                                    <path d="M71.5634031,184.503455 C71.5634031,185.586178 70.6639267,186.463665 69.5539791,186.463665 C68.4440314,186.463665 67.544555,185.586178 67.544555,184.503455 C67.544555,183.420733 68.4440314,182.543246 69.5539791,182.543246 C70.6639267,182.543246 71.5634031,183.420733 71.5634031,184.503455" id="Fill-56" fill="#17618E" mask="url(#mask-6)"></path>
                                    <polyline id="Stroke-57" stroke="#185B60" stroke-width="1.826" mask="url(#mask-6)" points="30.8956545 131.761257 29.8789005 145.294764 33.1919895 139.042408"></polyline>
                                    <polyline id="Stroke-58" stroke="#185B60" stroke-width="1.826" mask="url(#mask-6)" points="114.654241 130.267696 115.670995 143.801204 112.357906 137.548848"></polyline>
                                    <path d="M28.9818848,94.2349738 C28.9818848,94.2349738 31.948377,94.6082723 32.8096335,100.209319 C33.6708901,105.810366 33.3834555,110.851204 33.3834555,110.851204" id="Stroke-59" stroke="#185B60" stroke-width="1.826" mask="url(#mask-6)"></path>
                                    <path d="M115.531832,93.9497382 C115.531832,93.9497382 112.56534,94.3167539 111.704084,99.8251309 C110.842827,105.333508 111.130262,110.291099 111.130262,110.291099" id="Stroke-60" stroke="#185B60" stroke-width="1.826" mask="url(#mask-6)"></path>
                                    <path d="M94.0185864,38.491623 C93.9007853,39.5 92.9876963,40.2219895 91.9793194,40.1036649 L85.0232984,39.2900524 C84.0149215,39.1722513 83.2929319,38.2591623 83.4112565,37.2507853 C83.5290576,36.2424084 84.4421466,35.5204188 85.4505236,35.6382199 L92.4065445,36.452356 C93.4149215,36.5701571 94.1363874,37.4832461 94.0185864,38.491623" id="Fill-61" fill="#256D77" mask="url(#mask-6)"></path>
                                    <path d="M62.9926702,36.821466 C63.1565445,37.8235602 62.4774869,38.7685864 61.4753927,38.9329843 L54.5643979,40.0643979 C53.5623037,40.2287958 52.6172775,39.5492147 52.4534031,38.547644 C52.2890052,37.5455497 52.9685864,36.6005236 53.9701571,36.4361257 L60.8811518,35.3041885 C61.8832461,35.1403141 62.8287958,35.8193717 62.9926702,36.821466" id="Fill-62" fill="#256D77" mask="url(#mask-6)"></path>
                                    <path d="M40.9115183,46.0296859 L44.9722513,44.6333508 C44.9722513,44.6333508 44.7853403,30.4610995 50.3863874,25.4380628 C55.9874346,20.4150262 68.3094241,18.8008901 79.5115183,20.0563874 C90.713089,21.3124084 95.3806283,23.4647644 96.6874346,26.8731414 C97.9942408,30.2820419 99.8612565,45.591466 99.8612565,45.591466 L103.22199,46.7296859 C103.22199,46.7296859 104.411518,30.4689529 103.968586,21.6186911 C103.408901,10.4171204 89.4062827,-2.18811518 64.3890052,0.323403141 C39.3712042,2.83492147 42.5492147,2.6778534 42.5492147,2.6778534 L44.4162304,5.36842932 L42.3623037,6.26581152 L43.2958115,8.23910995 C43.2958115,8.23910995 37.317801,17.0312565 38.6246073,28.1532461 C39.9314136,39.2757592 40.9115183,46.0296859 40.9115183,46.0296859" id="Fill-63" fill="#256D77" mask="url(#mask-6)"></path>
                                    <path d="M74.0971204,80.6154974 C64.9489529,80.6154974 63.0819372,73.3343455 63.0819372,73.3343455 C63.0819372,73.3343455 64.3887435,68.6668063 73.3505236,68.6668063 C81.7704188,68.6668063 83.9918848,72.5872251 83.9918848,72.5872251 C83.9918848,72.5872251 83.245288,80.6154974 74.0971204,80.6154974 M72.9767016,64.0924607 C56.1740838,64.2327749 48.7060209,75.7615707 48.7060209,75.7615707 C48.7060209,75.7615707 53.1871728,90.3238743 73.536911,91.2573822 C93.8871728,92.1908901 97.2479058,73.3343455 97.2479058,73.3343455 C97.2479058,73.3343455 88.2960733,63.9652356 72.9767016,64.0924607" id="Fill-64" fill="#256D77" mask="url(#mask-6)"></path>
                                    <path d="M29.0095288,148.946963 L32.6503665,191.794084" id="Stroke-65" stroke="#185B60" stroke-width="1.826" mask="url(#mask-6)"></path>
                                    <path d="M116.11089,148.946963 L112.470052,191.794084" id="Stroke-66" stroke="#185B60" stroke-width="1.826" mask="url(#mask-6)"></path>
                                    <path d="M26.2090576,94.706911 C26.2090576,94.706911 16.4074869,95.5393717 12.4865445,104.976021 C8.56612565,114.41267 1.28497382,161.87288 1.28497382,161.87288 C1.28497382,161.87288 -0.39565445,171.309529 1.84518325,179.35822 C4.08549738,187.406911 6.88602094,197.676021 6.88602094,197.676021" id="Stroke-67" stroke="#185B60" stroke-width="1.818" mask="url(#mask-6)"></path>
                                    <path d="M118.466597,94.706911 C118.466597,94.706911 129.546178,94.3294241 133.46712,103.766073 C137.387539,113.202723 143.390681,161.87288 143.390681,161.87288 C143.390681,161.87288 145.071309,171.309529 142.830471,179.35822 C140.590157,187.406911 137.789634,197.676021 137.789634,197.676021" id="Stroke-68" stroke="#185B60" stroke-width="1.818" mask="url(#mask-6)"></path>
                                    <path d="M61.5080628,99.9387435 C61.5080628,99.9387435 66.513822,104.559686 73.1384293,104.139267 C79.7635602,103.719372 83.8855497,99.9387435 83.8855497,99.9387435" id="Stroke-69" stroke="#A9DBDB" stroke-width="1.433" mask="url(#mask-6)"></path>
                                </g>
                                <g id="Mom">
                                    <path d="M107.407407,43.9814815 C107.407407,49.8625332 102.640084,54.6296296 96.7589868,54.6296296 C90.8784344,54.6296296 86.1111111,49.8625332 86.1111111,43.9814815 C86.1111111,38.1004298 90.8784344,33.3333333 96.7589868,33.3333333 C102.640084,33.3333333 107.407407,38.1004298 107.407407,43.9814815" id="Fill-1" fill="#256D77"></path>
                                    <path d="M103.703704,31.9444444 C103.703704,34.2455183 101.838122,36.1111111 99.5367637,36.1111111 C97.2359522,36.1111111 95.3703704,34.2455183 95.3703704,31.9444444 C95.3703704,29.6433705 97.2359522,27.7777778 99.5367637,27.7777778 C101.838122,27.7777778 103.703704,29.6433705 103.703704,31.9444444" id="Fill-3" fill="#256D77"></path>
                                    <path d="M97.2222222,18.0555556 C97.2222222,20.3566295 95.3566403,22.2222222 93.0552822,22.2222222 C90.7544708,22.2222222 88.8888889,20.3566295 88.8888889,18.0555556 C88.8888889,15.7544817 90.7544708,13.8888889 93.0552822,13.8888889 C95.3566403,13.8888889 97.2222222,15.7544817 97.2222222,18.0555556" id="Fill-5" fill="#256D77"></path>
                                    <path d="M30.5555556,23.1481481 C30.5555556,25.7052837 28.4825468,27.7777778 25.9259259,27.7777778 C23.3687659,27.7777778 21.2962963,25.7052837 21.2962963,23.1481481 C21.2962963,20.5910126 23.3687659,18.5185185 25.9259259,18.5185185 C28.4825468,18.5185185 30.5555556,20.5910126 30.5555556,23.1481481" id="Fill-7" fill="#256D77"></path>
                                    <path d="M48.1481481,7.40740741 C48.1481481,9.964543 46.0751394,12.037037 43.5185185,12.037037 C40.9613585,12.037037 38.8888889,9.964543 38.8888889,7.40740741 C38.8888889,4.85027182 40.9613585,2.77777778 43.5185185,2.77777778 C46.0751394,2.77777778 48.1481481,4.85027182 48.1481481,7.40740741" id="Fill-9" fill="#256D77"></path>
                                    <path d="M107.407407,81.0185185 C107.407407,83.3195924 105.541826,85.1851852 103.240467,85.1851852 C100.939656,85.1851852 99.0740741,83.3195924 99.0740741,81.0185185 C99.0740741,78.7174446 100.939656,76.8518519 103.240467,76.8518519 C105.541826,76.8518519 107.407407,78.7174446 107.407407,81.0185185" id="Fill-11" fill="#256D77"></path>
                                    <path d="M109.259259,70.8333333 C109.259259,76.714385 104.491936,81.4814815 98.6108387,81.4814815 C92.7302863,81.4814815 87.962963,76.714385 87.962963,70.8333333 C87.962963,64.9522816 92.7302863,60.1851852 98.6108387,60.1851852 C104.491936,60.1851852 109.259259,64.9522816 109.259259,70.8333333" id="Fill-13" fill="#256D77"></path>
                                    <path d="M32.4074074,64.3518519 C32.4074074,70.2329036 27.6400841,75 21.7589868,75 C15.8784344,75 11.1111111,70.2329036 11.1111111,64.3518519 C11.1111111,58.4708002 15.8784344,53.7037037 21.7589868,53.7037037 C27.6400841,53.7037037 32.4074074,58.4708002 32.4074074,64.3518519" id="Fill-15" fill="#256D77"></path>
                                    <path d="M98.1481481,85.6481481 C98.1481481,91.5291998 93.3808249,96.2962963 87.4997276,96.2962963 C81.6191751,96.2962963 76.8518519,91.5291998 76.8518519,85.6481481 C76.8518519,79.7670964 81.6191751,75 87.4997276,75 C93.3808249,75 98.1481481,79.7670964 98.1481481,85.6481481" id="Fill-17" fill="#256D77"></path>
                                    <path d="M86.1111111,93.0555556 C86.1111111,98.9366073 81.3437878,103.703704 75.4626905,103.703704 C69.5821381,103.703704 64.8148148,98.9366073 64.8148148,93.0555556 C64.8148148,87.1745039 69.5821381,82.4074074 75.4626905,82.4074074 C81.3437878,82.4074074 86.1111111,87.1745039 86.1111111,93.0555556" id="Fill-19" fill="#256D77"></path>
                                    <path d="M89.8148148,77.3148148 C89.8148148,83.1958665 85.0474915,87.962963 79.1663942,87.962963 C73.2858418,87.962963 68.5185185,83.1958665 68.5185185,77.3148148 C68.5185185,71.4337631 73.2858418,66.6666667 79.1663942,66.6666667 C85.0474915,66.6666667 89.8148148,71.4337631 89.8148148,77.3148148" id="Fill-21" fill="#256D77"></path>
                                    <path d="M98.1481481,53.2407407 C98.1481481,59.1217924 93.3808249,63.8888889 87.4997276,63.8888889 C81.6191751,63.8888889 76.8518519,59.1217924 76.8518519,53.2407407 C76.8518519,47.359689 81.6191751,42.5925926 87.4997276,42.5925926 C93.3808249,42.5925926 98.1481481,47.359689 98.1481481,53.2407407" id="Fill-23" fill="#256D77"></path>
                                    <path d="M92.5925926,17.5925926 C92.5925926,23.2174425 88.2398735,27.7777778 82.8703704,27.7777778 C77.5008673,27.7777778 73.1481481,23.2174425 73.1481481,17.5925926 C73.1481481,11.9677426 77.5008673,7.40740741 82.8703704,7.40740741 C88.2398735,7.40740741 92.5925926,11.9677426 92.5925926,17.5925926" id="Fill-25" fill="#256D77"></path>
                                    <g id="Group-29" transform="translate(45.370370, 0.000000)">
                                        <mask id="mask-8" fill="white">
                                            <use xlink:href="#path-7"></use>
                                        </mask>
                                        <g id="Clip-28"></g>
                                        <path d="M20.0832583,10.2440448 C20.0832583,15.7703119 15.6359109,20.2507212 10.1496747,20.2507212 C4.66343844,20.2507212 0.216091091,15.7703119 0.216091091,10.2440448 C0.216091091,4.71777778 4.66343844,0.237368421 10.1496747,0.237368421 C15.6359109,0.237368421 20.0832583,4.71777778 20.0832583,10.2440448" id="Fill-27" fill="#256D77" mask="url(#mask-8)"></path>
                                    </g>
                                    <path d="M52.7777778,18.5185185 C52.7777778,26.1890476 46.7670278,32.4074074 39.3518519,32.4074074 C31.9372135,32.4074074 25.9259259,26.1890476 25.9259259,18.5185185 C25.9259259,10.8479894 31.9372135,4.62962963 39.3518519,4.62962963 C46.7670278,4.62962963 52.7777778,10.8479894 52.7777778,18.5185185" id="Fill-30" fill="#256D77"></path>
                                    <path d="M38.8888889,36.5740741 C38.8888889,43.4777517 33.4999731,49.0740741 26.8521206,49.0740741 C20.2042681,49.0740741 14.8148148,43.4777517 14.8148148,36.5740741 C14.8148148,29.6703964 20.2042681,24.0740741 26.8521206,24.0740741 C33.4999731,24.0740741 38.8888889,29.6703964 38.8888889,36.5740741" id="Fill-32" fill="#256D77"></path>
                                    <path d="M60.1851852,86.5740741 C60.1851852,96.54554 52.5159116,104.62963 43.0555556,104.62963 C33.5951996,104.62963 25.9259259,96.54554 25.9259259,86.5740741 C25.9259259,76.6026081 33.5951996,68.5185185 43.0555556,68.5185185 C52.5159116,68.5185185 60.1851852,76.6026081 60.1851852,86.5740741" id="Fill-34" fill="#256D77"></path>
                                    <path d="M79.6296296,11.1111111 C79.6296296,16.7359611 75.2769105,21.2962963 69.9074074,21.2962963 C64.5379043,21.2962963 60.1851852,16.7359611 60.1851852,11.1111111 C60.1851852,5.48626116 64.5379043,0.925925926 69.9074074,0.925925926 C75.2769105,0.925925926 79.6296296,5.48626116 79.6296296,11.1111111" id="Fill-36" fill="#256D77"></path>
                                    <path d="M100,25.9259259 C100,31.0397322 96.0617871,35.1851852 91.2037037,35.1851852 C86.3456203,35.1851852 82.4074074,31.0397322 82.4074074,25.9259259 C82.4074074,20.8121197 86.3456203,16.6666667 91.2037037,16.6666667 C96.0617871,16.6666667 100,20.8121197 100,25.9259259" id="Fill-38" fill="#256D77"></path>
                                    <path d="M30.5555556,51.8518519 C30.5555556,56.9656581 26.6173427,61.1111111 21.7592593,61.1111111 C16.9011758,61.1111111 12.962963,56.9656581 12.962963,51.8518519 C12.962963,46.7380456 16.9011758,42.5925926 21.7592593,42.5925926 C26.6173427,42.5925926 30.5555556,46.7380456 30.5555556,51.8518519" id="Fill-40" fill="#256D77"></path>
                                    <path d="M108.333333,58.3333333 C108.333333,63.4472316 104.188025,67.5925926 99.0740741,67.5925926 C93.9601232,67.5925926 89.8148148,63.4472316 89.8148148,58.3333333 C89.8148148,53.219435 93.9601232,49.0740741 99.0740741,49.0740741 C104.188025,49.0740741 108.333333,53.219435 108.333333,58.3333333" id="Fill-42" fill="#256D77"></path>
                                    <path d="M36.1111111,74.0740741 C36.1111111,78.1653046 33.0022455,81.4814815 29.1666667,81.4814815 C25.3316194,81.4814815 22.2222222,78.1653046 22.2222222,74.0740741 C22.2222222,69.9828436 25.3316194,66.6666667 29.1666667,66.6666667 C33.0022455,66.6666667 36.1111111,69.9828436 36.1111111,74.0740741" id="Fill-44" fill="#256D77"></path>
                                    <path d="M25,79.6296296 C25,83.7208601 21.8911344,87.037037 18.0555556,87.037037 C14.2205083,87.037037 11.1111111,83.7208601 11.1111111,79.6296296 C11.1111111,75.5383991 14.2205083,72.2222222 18.0555556,72.2222222 C21.8911344,72.2222222 25,75.5383991 25,79.6296296" id="Fill-46" fill="#256D77"></path>
                                    <path d="M37.037037,89.3518519 C37.037037,95.7438684 31.854943,100.925926 25.4626889,100.925926 C19.0704348,100.925926 13.8888889,95.7438684 13.8888889,89.3518519 C13.8888889,82.9598353 19.0704348,77.7777778 25.4626889,77.7777778 C31.854943,77.7777778 37.037037,82.9598353 37.037037,89.3518519" id="Fill-48" fill="#256D77"></path>
                                    <path d="M100.925926,82.8703704 C100.925926,86.1942548 98.2311666,88.8888889 94.9076858,88.8888889 C91.5836482,88.8888889 88.8888889,86.1942548 88.8888889,82.8703704 C88.8888889,79.5464859 91.5836482,76.8518519 94.9076858,76.8518519 C98.2311666,76.8518519 100.925926,79.5464859 100.925926,82.8703704" id="Fill-50" fill="#256D77"></path>
                                    <path d="M108.333333,87.5 C108.333333,93.3812002 103.773286,98.1481481 98.1484181,98.1481481 C92.5230101,98.1481481 87.962963,93.3812002 87.962963,87.5 C87.962963,81.6187998 92.5230101,76.8518519 98.1484181,76.8518519 C103.773286,76.8518519 108.333333,81.6187998 108.333333,87.5" id="Fill-52" fill="#256D77"></path>
                                    <path d="M97.2222222,96.7592593 C97.2222222,100.083144 94.5274629,102.777778 91.2039821,102.777778 C87.8799445,102.777778 85.1851852,100.083144 85.1851852,96.7592593 C85.1851852,93.4353748 87.8799445,90.7407407 91.2039821,90.7407407 C94.5274629,90.7407407 97.2222222,93.4353748 97.2222222,96.7592593" id="Fill-54" fill="#256D77"></path>
                                    <path d="M97.2222222,71.2962963 C97.2222222,75.3875268 94.1133566,78.7037037 90.2777778,78.7037037 C86.4427305,78.7037037 83.3333333,75.3875268 83.3333333,71.2962963 C83.3333333,67.2050658 86.4427305,63.8888889 90.2777778,63.8888889 C94.1133566,63.8888889 97.2222222,67.2050658 97.2222222,71.2962963" id="Fill-56" fill="#256D77"></path>
                                    <path d="M90.9115546,190.170888 C89.933278,199.139964 89.10303,198.779953 78.0228667,198.779953 L39.4040003,198.779953 C28.323837,198.779953 27.0044507,201.650897 26.026174,189.453556 L19.3418197,120.212417 C19.3418197,108.323965 0.593662078,96.1766703 39.4040003,98.6870645 L78.0228667,98.6870645 C117.281582,95.3248044 98.0850473,108.323965 98.0850473,120.212417 L90.9115546,190.170888 Z" id="Fill-58" fill="#30C48E"></path>
                                    <path d="M92.5925926,101.456644 C92.5925926,101.456644 111.816357,97.0969207 113.322519,113.368635 C114.449634,125.545553 113.546358,173.118286 113.546358,173.118286 L98.5765924,180.555556 L94.1341258,119.093829 L92.5925926,101.456644 Z" id="Fill-60" fill="#FFD6BB"></path>
                                    <path d="M23.6233028,98.3460987 C23.6233028,98.3460987 6.63141774,95.6047312 5.41920125,110.525394 C4.2454848,124.963875 0.925925926,167.156204 0.925925926,167.156204 L18.0627208,168.518519 L24.0740741,116.840745 L23.6233028,98.3460987 Z" id="Fill-62" fill="#FFD6BB"></path>
                                    <path d="M67.5925926,101.716218 C67.5925926,101.716218 67.3272906,105.253589 59.7901322,105.541585 C52.6382805,105.814825 50.9474514,101.989459 50.9474514,101.989459 L50.9259259,82.4074074 L67.5710671,82.4074074 L67.5925926,101.716218 Z" id="Fill-64" fill="#F7CAB2"></path>
                                    <path d="M66.6666667,101.716218 C66.6666667,101.716218 66.4013647,105.253589 58.8642063,105.541585 C51.7123546,105.814825 50.0215255,101.989459 50.0215255,101.989459 L50,82.4074074 L66.6451412,82.4074074 L66.6666667,101.716218 Z" id="Stroke-66" stroke="#256D77" stroke-width="1.278"></path>
                                    <path d="M32.4074074,65.1366654 C30.6405069,66.0772066 28.6814473,65.9414856 27.2116174,64.5742419 C25.7417874,63.2075263 25.5057368,60.6024227 25.1819032,58.6336763 C24.9314005,57.1127563 24.8543227,55.2448765 25.5175126,53.8501717 C26.1801671,52.4549389 27.7415269,52.058866 29.2868289,51.8518519" id="Fill-68" fill="#F9C6AA"></path>
                                    <path d="M32.4074074,65.9822257 C30.4198275,67.0477029 28.2152002,66.8943968 26.5620053,65.3449104 C24.9082594,63.7959714 24.6427346,60.8437343 24.278602,58.6125833 C23.9971017,56.8884374 23.9100624,54.7717185 24.6559558,53.1910233 C25.4018491,51.6097806 27.1580589,51.1608127 28.8966405,50.9259259" id="Stroke-70" stroke="#256D77" stroke-width="1.693"></path>
                                    <path d="M29.1058139,56.4814815 C28.2959961,56.5618044 27.8648025,57.4137812 27.7934585,58.1566296 C27.7433925,58.6773436 27.80222,59.2340645 28.1314041,59.6606068 C28.461214,60.0871492 29.1208337,60.3292258 29.6296296,60.0921347" id="Stroke-72" stroke="#256D77" stroke-width="1.574"></path>
                                    <path d="M83.3333333,66.8721995 C85.3254119,67.9970678 87.532821,67.830869 89.1867547,66.1881431 C90.8412295,64.5448668 91.1030888,61.4190098 91.465039,59.0559059 C91.7447524,57.2304714 91.8286123,54.9889898 91.0798245,53.3165462 C90.3310367,51.6435523 88.5710607,51.1713717 86.8294798,50.9259259" id="Fill-74" fill="#F9C6AA"></path>
                                    <path d="M84.6120966,29.7420716 C84.6120966,29.7420716 88.8371558,51.5382745 83.1007411,71.7747946 C79.3124621,85.1407314 71.8422922,92.3806139 61.8182684,92.5725417 C50.0305511,92.7989734 41.9006668,91.3465761 34.3759663,75.7141662 C26.9191618,60.2224674 28.9587165,31.3642926 28.9587165,31.3642926 C28.9587165,31.3642926 35.0308692,21.1926594 61.5835726,23.4844712 C81.2285208,25.1800129 84.6120966,29.7420716 84.6120966,29.7420716" id="Fill-76" fill="#FFD6BB"></path>
                                    <path d="M85.618427,31.9444683 C85.618427,31.9444683 89.6949967,53.9189094 84.0270939,74.186472 C82.6067261,79.265516 81.6851423,80.0719621 79.3279938,83.2566951 C75.7692043,88.0645831 68.5208234,92.9329681 62.9234777,93.3542862 C56.9391536,93.8053127 51.3461498,93.6254422 43.7987155,88.8710292 C39.6808971,86.277222 35.6032418,81.6789127 33.2607475,74.4792341 C27.8229692,57.7647877 30.1046759,28.0715824 30.1046759,28.0715824 C30.1046759,28.0715824 35.1147699,19.4507654 62.3997272,23.1405399 C89.6846846,26.8297743 85.618427,31.9444683 85.618427,31.9444683 Z" id="Stroke-78" stroke="#256D77" stroke-width="1.612"></path>
                                    <path d="M84.2592593,66.0261553 C86.0301626,67.0263462 87.9920147,66.878389 89.462478,65.4181856 C90.9329414,63.9574441 91.1656766,61.1785381 91.4872744,59.0786214 C91.7358779,57.455934 91.8109879,55.4636226 91.1450478,53.9765178 C90.4791077,52.4899511 88.9150213,52.0702905 87.3668033,51.8518519" id="Stroke-80" stroke="#256D77" stroke-width="1.595"></path>
                                    <path d="M77.7777778,45.3703704 C75.1409127,43.6137408 71.627332,43.0598395 68.5185185,43.9111409" id="Stroke-82" stroke="#256D77" stroke-width="1.721"></path>
                                    <path d="M87.4762399,56.4814815 C88.4591226,57.0933052 89.0134498,58.2828096 88.8650525,59.4613 C88.8084885,59.9134218 88.6454511,60.3771082 88.3113907,60.711381 C87.9766649,61.0456537 87.4476251,61.217471 87.037037,61.0401467" id="Stroke-84" stroke="#256D77" stroke-width="1.953"></path>
                                    <path d="M80.048308,64.880962 L76.2886603,66.4914662 C75.1211251,66.9916436 73.7822285,66.3837271 73.3126115,65.1405407 C72.8429945,63.8973543 73.4140184,62.4710672 74.5810113,61.9708898 L78.3412013,60.3603857 C79.5081942,59.8602083 80.8476331,60.4681248 81.3172501,61.7113112 C81.7863249,62.9544976 81.2158432,64.3807846 80.048308,64.880962" id="Fill-86" fill="#F9C6AA"></path>
                                    <path d="M42.1737156,66.5645677 L37.9171867,65.2841514 C36.5955348,64.8866671 35.8269416,63.4369213 36.2093236,62.063044 C36.5917055,60.6886169 37.9855669,59.8897998 39.3072188,60.2872842 L43.5642948,61.5677005 C44.8859467,61.9651848 45.6545398,63.4149305 45.2721579,64.7888079 C44.889776,66.163235 43.4953676,66.962052 42.1737156,66.5645677" id="Fill-88" fill="#F9C6AA"></path>
                                    <path d="M75.9259259,51.8518519 C75.9259259,53.8972908 74.267543,55.5555556 72.2222222,55.5555556 C70.1769014,55.5555556 68.5185185,53.8972908 68.5185185,51.8518519 C68.5185185,49.8064129 70.1769014,48.1481481 72.2222222,48.1481481 C74.267543,48.1481481 75.9259259,49.8064129 75.9259259,51.8518519" id="Fill-90" fill="#256D77"></path>
                                    <path d="M72.1284626,51.6694036 C71.9522521,51.8953835 71.650612,51.9140736 71.4545968,51.7107483 C71.2585815,51.5074231 71.2423316,51.1591082 71.4185422,50.9331283 L74.1678336,47.4046704 C74.3440442,47.1786905 74.6456843,47.1600005 74.8416995,47.3633257 C75.0377148,47.566651 75.0539647,47.9149659 74.8777541,48.1409458 L72.1284626,51.6694036 Z" id="Fill-92" fill="#256D77"></path>
                                    <path d="M73.0262227,52.6812362 C72.7951282,52.8502992 72.4764897,52.7915663 72.3144517,52.5500477 C72.1529574,52.3085291 72.2089638,51.9753432 72.4400583,51.806829 L76.0478513,49.1704339 C76.2789458,49.0013708 76.5975844,49.0606527 76.7596224,49.3021713 C76.9211167,49.5436899 76.8651102,49.8763269 76.6340157,50.0453899 L73.0262227,52.6812362 Z" id="Fill-94" fill="#256D77"></path>
                                    <path d="M72.2222222,51.3888889 C72.2222222,51.6445435 72.0148596,51.8518519 71.7590591,51.8518519 C71.5032586,51.8518519 71.2962963,51.6445435 71.2962963,51.3888889 C71.2962963,51.1332343 71.5032586,50.9259259 71.7590591,50.9259259 C72.0148596,50.9259259 72.2222222,51.1332343 72.2222222,51.3888889" id="Fill-96" fill="#FFFFFF"></path>
                                    <path d="M40.7407407,46.2962963 C43.3776058,44.5396668 46.8911865,43.9857655 50,44.8370668" id="Stroke-98" stroke="#256D77" stroke-width="1.721"></path>
                                    <path d="M42.5925926,51.8518519 C42.5925926,53.896975 44.2510575,55.5555556 46.2962963,55.5555556 C48.3420838,55.5555556 50,53.896975 50,51.8518519 C50,49.8067287 48.3420838,48.1481481 46.2962963,48.1481481 C44.2510575,48.1481481 42.5925926,49.8067287 42.5925926,51.8518519" id="Fill-100" fill="#256D77"></path>
                                    <path d="M46.3900381,52.5951998 C46.5663982,52.8215361 46.8679994,52.8397799 47.0642959,52.6368183 C47.2600811,52.4332866 47.275928,52.0849452 47.1000791,51.8586089 L44.3509067,48.3307261 C44.1745466,48.1043898 43.8729454,48.086146 43.6766489,48.2891076 C43.4808637,48.4926393 43.4645057,48.8409807 43.6408657,49.0667469 L46.3900381,52.5951998 Z" id="Fill-102" fill="#256D77"></path>
                                    <path d="M45.4922548,53.6072701 C45.7237851,53.7763589 46.0423446,53.7172331 46.2038137,53.4757567 C46.3658302,53.2342803 46.3094528,52.9016286 46.0779225,52.7325398 L42.4708665,50.0961923 C42.2393362,49.9276561 41.9207768,49.9862293 41.7587603,50.2277057 C41.5972912,50.4691821 41.6536685,50.8018338 41.8846515,50.9709225 L45.4922548,53.6072701 Z" id="Fill-104" fill="#256D77"></path>
                                    <path d="M46.2962963,52.3148148 C46.2962963,52.570632 46.5034007,52.7777778 46.7592593,52.7777778 C47.0151178,52.7777778 47.2222222,52.570632 47.2222222,52.3148148 C47.2222222,52.0589976 47.0151178,51.8518519 46.7592593,51.8518519 C46.5034007,51.8518519 46.2962963,52.0589976 46.2962963,52.3148148" id="Fill-106" fill="#FFFFFF"></path>
                                    <path d="M57.0495235,59.2592593 L55.6961163,66.2310429 C55.6961163,66.2310429 54.3190797,70.2762267 60.1851852,69.289332" id="Stroke-108" stroke="#256D77" stroke-width="1.966"></path>
                                    <path d="M50.9259259,75.2603795 C50.9259259,75.2603795 52.7927453,74.0740741 58.7925544,74.0740741 C64.7928938,74.0740741 67.5925926,75.534186 67.5925926,75.534186 C67.5925926,75.534186 67.4594756,80.6454317 59.192966,80.5543526 C50.9259259,80.4627043 50.9259259,75.2603795 50.9259259,75.2603795" id="Fill-110" fill="#F4B79F"></path>
                                    <path d="M67.7994596,74.1667672 C62.8337267,77.7640987 55.8475985,77.436421 50.7365559,74.2621116 C50.1896336,73.9223788 49.6904329,74.7991085 50.2357466,75.1377454 C55.6427707,78.49562 63.0444526,78.8495996 68.3002688,75.041853 C68.8166278,74.6675991 68.3217167,73.7881296 67.7994596,74.1667672" id="Fill-112" fill="#256D77"></path>
                                    <path d="M62.962963,80.5555556 C61.1603906,81.4601852 59.2501074,81.6435185 57.4074074,81.0907407" id="Stroke-114" stroke="#256D77" stroke-width="1.152"></path>
                                    <path d="M97.3783041,166.480071 C97.3783041,166.480071 95.5526956,183.930452 93.9363787,189.586167 C92.3200618,195.241343 92.6133954,197.437439 92.6133954,197.437439 L106.844683,200 C106.844683,200 112.958059,183.027475 113.53822,176.114158 C114.660587,162.737936 112.72979,155.555556 112.72979,155.555556 L97.3783041,166.480071 Z" id="Fill-116" fill="#FFD6BB"></path>
                                    <path d="M18.5383476,162.264386 C18.5383476,162.264386 20.7820277,181.89672 22.5452975,188.257756 C24.309097,194.618251 24.062271,197.089761 24.062271,197.089761 L9.72570625,200 C9.72570625,200 3.15621527,180.913099 2.41202961,173.135129 C0.972387868,158.086164 2.76214116,150 2.76214116,150 L18.5383476,162.264386 Z" id="Fill-118" fill="#FFD6BB"></path>
                                    <path d="M26.8518519,147.222222 C26.8518519,147.222222 29.801369,152.141254 37.223519,153.291332 C42.8453775,154.162326 46.2962963,153.382931 46.2962963,153.382931" id="Stroke-120" stroke="#256D77" stroke-width="1.255"></path>
                                    <path d="M89.8148148,148.148148 C89.8148148,148.148148 86.6488338,152.979795 79.2920517,153.588236 C73.719393,154.049261 70.3703704,152.980899 70.3703704,152.980899" id="Stroke-122" stroke="#256D77" stroke-width="1.255"></path>
                                    <path d="M48.1481481,34.7222222 C48.1481481,41.1143791 43.1735728,46.2962963 37.037037,46.2962963 C30.9005013,46.2962963 25.9259259,41.1143791 25.9259259,34.7222222 C25.9259259,28.3300654 30.9005013,23.1481481 37.037037,23.1481481 C43.1735728,23.1481481 48.1481481,28.3300654 48.1481481,34.7222222" id="Fill-124" fill="#256D77"></path>
                                    <path d="M59.2592593,23.6111111 C59.2592593,29.4920833 54.6992004,34.2592593 49.0738106,34.2592593 C43.4489477,34.2592593 38.8888889,29.4920833 38.8888889,23.6111111 C38.8888889,17.7301389 43.4489477,12.962963 49.0738106,12.962963 C54.6992004,12.962963 59.2592593,17.7301389 59.2592593,23.6111111" id="Fill-126" fill="#256D77"></path>
                                    <path d="M74.0740741,28.2407407 C74.0740741,32.5872329 70.7576832,36.1111111 66.6669279,36.1111111 C62.5756501,36.1111111 59.2592593,32.5872329 59.2592593,28.2407407 C59.2592593,23.8942486 62.5756501,20.3703704 66.6669279,20.3703704 C70.7576832,20.3703704 74.0740741,23.8942486 74.0740741,28.2407407" id="Fill-128" fill="#256D77"></path>
                                    <path d="M79.6296296,20.8333333 C79.6296296,25.1798255 76.3132388,28.7037037 72.2224835,28.7037037 C68.1312057,28.7037037 64.8148148,25.1798255 64.8148148,20.8333333 C64.8148148,16.4868412 68.1312057,12.962963 72.2224835,12.962963 C76.3132388,12.962963 79.6296296,16.4868412 79.6296296,20.8333333" id="Fill-130" fill="#256D77"></path>
                                    <path d="M69.4444444,21.7592593 C69.4444444,26.1057514 66.1280536,29.6296296 62.0372983,29.6296296 C57.9460205,29.6296296 54.6296296,26.1057514 54.6296296,21.7592593 C54.6296296,17.4127671 57.9460205,13.8888889 62.0372983,13.8888889 C66.1280536,13.8888889 69.4444444,17.4127671 69.4444444,21.7592593" id="Fill-132" fill="#256D77"></path>
                                    <path d="M93.5185185,28.7037037 C93.5185185,34.3285537 89.1657994,38.8888889 83.7962963,38.8888889 C78.4267932,38.8888889 74.0740741,34.3285537 74.0740741,28.7037037 C74.0740741,23.0788538 78.4267932,18.5185185 83.7962963,18.5185185 C89.1657994,18.5185185 93.5185185,23.0788538 93.5185185,28.7037037" id="Fill-134" fill="#256D77"></path>
                                    <path d="M94.4444444,43.5185185 C94.4444444,47.0982882 91.5427238,50 87.9626929,50 C84.3832021,50 81.4814815,47.0982882 81.4814815,43.5185185 C81.4814815,39.9387488 84.3832021,37.037037 87.9626929,37.037037 C91.5427238,37.037037 94.4444444,39.9387488 94.4444444,43.5185185" id="Fill-136" fill="#256D77"></path>
                                    <path d="M34.2592593,44.4444444 C34.2592593,48.0242141 31.3575386,50.9259259 27.7775077,50.9259259 C24.1980169,50.9259259 21.2962963,48.0242141 21.2962963,44.4444444 C21.2962963,40.8646748 24.1980169,37.962963 27.7775077,37.962963 C31.3575386,37.962963 34.2592593,40.8646748 34.2592593,44.4444444" id="Fill-138" fill="#256D77"></path>
                                    <path d="M35.1851852,50.9259259 C35.1851852,56.039673 31.2468502,60.1851852 26.3891579,60.1851852 C21.5309276,60.1851852 17.5925926,56.039673 17.5925926,50.9259259 C17.5925926,45.8121789 21.5309276,41.6666667 26.3891579,41.6666667 C31.2468502,41.6666667 35.1851852,45.8121789 35.1851852,50.9259259" id="Fill-140" fill="#256D77"></path>
                                    <path d="M101.851852,47.6851852 C101.851852,53.5661119 97.291705,58.3333333 91.6669346,58.3333333 C86.0416283,58.3333333 81.4814815,53.5661119 81.4814815,47.6851852 C81.4814815,41.8042585 86.0416283,37.037037 91.6669346,37.037037 C97.291705,37.037037 101.851852,41.8042585 101.851852,47.6851852" id="Fill-142" fill="#256D77"></path>
                                    <path d="M41.6666667,98.4106807 C41.6666667,98.4106807 44.7098926,116.000363 62.2078982,115.737831 C77.4218528,115.509428 81.4814815,98.1481481 81.4814815,98.1481481 L56.8822527,99.1982785 L41.6666667,98.4106807 Z" id="Fill-144" fill="#FFD6BB"></path>
                                    <path d="M30.5555556,97.6406626 C30.5555556,97.6406626 11.744681,91.1756508 5.21318746,100.065042 C-1.31830604,108.954433 1.55563774,130.504472 1.55563774,130.504472 L1.29407474,138.046986 L22.4563087,140.740741 L25.5918154,133.198227 L30.5555556,97.6406626 Z" id="Fill-146" fill="#30C48E"></path>
                                    <path d="M86.1111111,98.4063346 C86.1111111,98.4063346 106.474437,92.1838766 113.489437,101.110105 C121.350692,111.114057 115.498069,131.753021 115.498069,131.753021 L116.197124,139.323579 L94.8148171,141.666667 L91.445553,134.096109 L86.1111111,98.4063346 Z" id="Fill-148" fill="#30C48E"></path>
                                    <polyline id="Stroke-150" stroke="#256D77" stroke-width="1.255" points="22.8760262 130.555556 22.2222222 143.7134 27.7777778 198.148148"></polyline>
                                    <polyline id="Stroke-152" stroke="#256D77" stroke-width="1.3" points="95.3703704 131.481481 94.5634151 148.433016 89.8148148 197.222222"></polyline>
                                    <path d="M39.8148148,98.1481481 C39.8148148,98.1481481 44.4652458,117.690561 62.0610003,116.624591 C79.6567548,115.558622 83.3333333,98.4141075 83.3333333,98.4141075" id="Stroke-154" stroke="#256D77" stroke-width="1.3"></path>
                                    <path d="M21.2962963,140.740741 L1.85185185,137.962963" id="Stroke-156" stroke="#256D77" stroke-width="1.255"></path>
                                    <path d="M97.2222222,141.666667 L116.666667,138.888889" id="Stroke-158" stroke="#256D77" stroke-width="1.255"></path>
                                    <path d="M95.3703704,134.259259 L114.814815,131.481481" id="Stroke-160" stroke="#256D77" stroke-width="1.255"></path>
                                    <path d="M22.2222222,135.185185 L2.77777778,132.407407" id="Stroke-162" stroke="#256D77" stroke-width="1.255"></path>
                                    <path d="M20.2784673,142.592593 L18.5185185,165.234388 C18.5185185,165.234388 23.150592,192.964528 23.7011988,194.17642 C24.252304,195.388848 24.0295698,196.296296 24.0295698,196.296296" id="Stroke-164" stroke="#256D77" stroke-width="1.255"></path>
                                    <path d="M97.449445,143.518519 L99.0740741,166.044424 C99.0740741,166.044424 95.2246455,193.868312 94.7569579,195.096512 C94.2892703,196.324712 94.4851395,197.222222 94.4851395,197.222222" id="Stroke-166" stroke="#256D77" stroke-width="1.087"></path>
                                    <path d="M2.56026625,139.814815 C2.56026625,139.814815 1.99547679,163.079111 1.86067968,165.969714 C1.72588257,168.860856 3.15170165,177.206881 4.98034468,184.08068 C6.8089877,190.954479 10.1851852,200 10.1851852,200" id="Stroke-168" stroke="#256D77" stroke-width="1.255"></path>
                                    <path d="M27.7777778,98.4556336 C27.7777778,98.4556336 13.0195144,90.4473911 4.43880608,100.235065 C-3.21297466,108.964049 1.35002854,130.844703 1.35002854,130.844703 L0.492064425,137.962963" id="Stroke-170" stroke="#256D77" stroke-width="1.255"></path>
                                    <path d="M115.365378,139.814815 C115.365378,139.814815 115.634253,163.132723 115.736183,166.030802 C115.838113,168.92942 114.217149,177.269694 112.192873,184.129362 C110.168045,190.988491 106.481481,200 106.481481,200" id="Stroke-172" stroke="#256D77" stroke-width="1.255"></path>
                                    <path d="M90.7407407,98.0615385 C90.7407407,98.0615385 106.087987,90.5153455 114.521582,100.695648 C122.042775,109.77414 116.640889,131.678358 116.640889,131.678358 L117.276244,138.888889" id="Stroke-174" stroke="#256D77" stroke-width="1.255"></path>
                                    <path d="M61.112063,24.0740741 C61.112063,24.0740741 60.9158648,30.8660299 66.1568581,32.114889 C70.0451999,33.0409911 71.2962963,31.472078 71.2962963,31.472078" id="Stroke-176" stroke="#417D82" stroke-width="1.889"></path>
                                    <path d="M86.112063,44.4444444 C86.112063,44.4444444 85.9158648,51.2364002 91.1568581,52.4852594 C95.0451999,53.4113615 96.2962963,51.8424483 96.2962963,51.8424483" id="Stroke-178" stroke="#417D82" stroke-width="1.889"></path>
                                    <path d="M88.941665,76.8518519 C88.941665,76.8518519 88.2080656,82.3035321 92.2110228,83.784162 C95.1811424,84.8826066 96.2962963,83.732267 96.2962963,83.732267" id="Stroke-180" stroke="#417D82" stroke-width="1.53"></path>
                                    <path d="M26.7990757,77.7777778 C26.7990757,77.7777778 27.5326751,83.229458 23.529718,84.7100879 C20.5595983,85.8085326 19.4444444,84.6581929 19.4444444,84.6581929" id="Stroke-182" stroke="#417D82" stroke-width="1.53"></path>
                                    <path d="M55.1233352,19.4444444 C55.1233352,19.4444444 57.2450222,25.9747116 52.0868487,29.2094731 C47.4329877,32.1279274 42.5925926,29.3917055 42.5925926,29.3917055" id="Stroke-184" stroke="#417D82" stroke-width="1.974"></path>
                                    <path d="M42.5925926,34.2592593 C42.5925926,34.2592593 41.7048233,40.0865508 36.3268216,40.6887459 C31.4747029,41.2321267 28.7037037,37.3373766 28.7037037,37.3373766" id="Stroke-186" stroke="#417D82" stroke-width="1.783"></path>
                                    <path d="M27.0839822,73.1481481 C27.0839822,73.1481481 32.8034086,78.4728874 29.5599126,84.4802578 C26.6334664,89.9007385 20.3703704,89.8148148 20.3703704,89.8148148" id="Stroke-188" stroke="#417D82" stroke-width="2.269"></path>
                                    <path d="M87.7308326,72.2222222 C87.7308326,72.2222222 82.0114062,77.5469615 85.2549022,83.5543319 C88.1813484,88.9748126 94.4444444,88.8888889 94.4444444,88.8888889" id="Stroke-190" stroke="#417D82" stroke-width="2.269"></path>
                                    <path d="M49.0740741,19.4444444 C49.0740741,19.4444444 48.3346986,23.6848355 44.4004975,24.0480292 C40.8499604,24.3762604 38.8888889,21.4936711 38.8888889,21.4936711" id="Stroke-192" stroke="#417D82" stroke-width="1.298"></path>
                                </g>
                            </g>
                        </g>
                    </g>
                </g>
            </g>
        </g>
    </g>
</svg>