<?xml version="1.0" encoding="UTF-8" standalone="no"?>
<svg width="188px" height="61px" viewBox="0 0 188 61" version="1.1" xmlns="http://www.w3.org/2000/svg" xmlns:xlink="http://www.w3.org/1999/xlink">
    <!-- Generator: Sketch 50.2 (55047) - http://www.bohemiancoding.com/sketch -->
    <title>Logo</title>
    <desc>Created with Sketch.</desc>
    <defs>
        <polygon id="path-1" points="0.0145766224 0.0649174277 20.9666154 0.0649174277 20.9666154 24.4642012 0.0145766224 24.4642012"></polygon>
        <polygon id="path-3" points="0 59 84 59 84 0 0 0"></polygon>
        <polygon id="path-5" points="0 0.0213766307 10.8801221 0.0213766307 10.8801221 11.7523252 0 11.7523252"></polygon>
        <polygon id="path-7" points="0.00965991039 0.0213766307 12.6341771 0.0213766307 12.6341771 11.7523348 0.00965991039 11.7523348"></polygon>
        <polygon id="path-9" points="0.0220797952 0.0213766307 12.646597 0.0213766307 12.646597 11.7523348 0.0220797952 11.7523348"></polygon>
        <polygon id="path-11" points="0.0339772562 0.0213766307 12.6583959 0.0213766307 12.6583959 11.7523348 0.0339772562 11.7523348"></polygon>
        <polygon id="path-13" points="0.0748234485 0.0730428767 9.95957987 0.0730428767 9.95957987 11.7000579 0.0748234485 11.7000579"></polygon>
    </defs>
    <g id="1440" stroke="none" stroke-width="1" fill="none" fill-rule="evenodd">
        <g id="Main_1440" transform="translate(-135.000000, -38.000000)">
            <g id="Logo" transform="translate(135.000000, 38.000000)">
                <g id="Group">
                    <path d="M76.0973775,59 L10.6417529,59 C8.29425167,59 6.39130435,57.171297 6.39130435,54.9153846 C6.39130435,52.6594722 8.29425167,50.8307692 10.6417529,50.8307692 L76.0973775,50.8307692 C78.4448788,50.8307692 80.3478261,52.6594722 80.3478261,54.9153846 C80.3478261,57.171297 78.4448788,59 76.0973775,59" id="Fill-1" fill="#F9C06B"></path>
                    <path d="M52.4757175,45.3846154 C52.4534645,45.3846154 52.4307502,45.3833581 52.4081512,45.3808434 C49.788516,45.0710576 48.1927522,44.2933531 47.6647896,43.0690076 C46.7483785,40.9430627 49.5003791,38.3645771 49.6181013,38.25577 C49.7962411,38.0903833 50.1006354,38.07781 50.2973386,38.2281088 C50.4941571,38.3775372 50.5091463,38.6328711 50.3310064,38.7977743 C50.3059862,38.8212766 47.8491557,41.1263421 48.5704778,42.7956843 C48.9681504,43.7161437 50.3044873,44.3168554 52.5423614,44.5813775 C52.8055933,44.612327 52.988691,44.8165942 52.9517947,45.0375934 C52.9178963,45.238959 52.7117384,45.3846154 52.4757175,45.3846154" id="Fill-3" fill="#226368"></path>
                    <path d="M56.0712845,54.4615385 C55.916837,54.4615385 55.7635488,54.4109387 55.65702,54.3120167 C52.4838257,51.3695085 54.4844298,47.6115622 54.5711213,47.4530295 C54.6858943,47.243006 55.0014876,47.143985 55.2740572,47.2323117 C55.5477861,47.3205394 55.6768573,47.5622497 55.5625996,47.7731645 C55.5439217,47.8074257 53.7331889,51.2332556 56.484905,53.7848289 C56.6745186,53.9605912 56.6427017,54.2207194 56.4141864,54.3663793 C56.3138406,54.4306439 56.1922405,54.4615385 56.0712845,54.4615385" id="Fill-5" fill="#226368"></path>
                    <path d="M57.5220632,30.7094882 C57.5220632,30.7094882 61.8005117,23.1167614 61.6635215,19.0615385 C63.170306,21.1535768 62.9936241,22.6353936 62.9936241,22.6353936 C62.9936241,22.6353936 60.0965557,30.8479796 58.9939833,31.7692308 C57.4615601,31.1542951 57.5220632,30.7094882 57.5220632,30.7094882" id="Fill-7" fill="#7AB396"></path>
                    <path d="M54.8363166,17.0207161 C54.8363166,17.0207161 53.8529134,21.1266188 50.2173913,24.2517557 C51.0964333,25.8446144 51.5668848,25.3392111 51.5668848,25.3392111 C51.5668848,25.3392111 56.7219006,19.2886435 56.6067964,16.3384615 C55.314914,16.7260971 54.8363166,17.0207161 54.8363166,17.0207161" id="Fill-9" fill="#7AB396"></path>
                    <path d="M46.5652174,19.4022122 C46.5652174,19.4022122 47.1196238,27.5421863 50.5617547,31.7598319 C50.2543288,35.5243572 50.133234,47.152189 55.7715849,48.2647006 C61.4100378,49.3772122 66.8165961,49.9921318 68.793663,44.5838928 C69.6825072,42.1523935 69.9803516,37.922554 71.3648896,32.6990675 C73.0598096,26.3041495 75.7826087,19.0107786 75.7826087,19.0107786 L71.4440905,17.634408 C71.4440905,17.634408 68.7534,27.6622805 68.1139825,29.5904496 C67.5589645,31.2642892 65.5042257,30.7949788 66.093085,29.0426475 C66.6819443,27.2904186 68.9585884,20.0673419 68.9585884,20.0673419 L66.4262997,19.5015052 C66.4262997,19.5015052 62.9775432,28.2074184 62.4966295,28.8731629 C62.0157158,29.5389074 59.3346068,30.9996105 58.5941751,28.1362021 C59.2288017,25.5882974 63.6007535,16.5629866 63.6007535,16.5629866 L60.1383381,16.1002342 C60.1383381,16.1002342 55.2823128,27.8851517 54.7131263,28.0483857 C54.1439398,28.2116197 49.7060383,19.9116907 49.4489666,16.4547788 C49.1918949,12.9977645 46.5652174,19.4022122 46.5652174,19.4022122" id="Fill-11" fill="#A4D1B1"></path>
                    <path d="M45.9764258,19.5429603 C46.0230207,20.1400089 46.6737385,27.6914833 49.8832487,31.6290668 L49.9242079,31.6794032 L49.9189748,31.744324 C49.8693608,32.3531211 48.7739288,46.6699307 54.9343124,47.8867147 C57.001997,48.2952802 59.1869235,48.6937177 61.1748031,48.6937177 C64.7164148,48.6937177 66.8450853,47.381325 67.874097,44.5637013 C68.2569196,43.5148404 68.5465524,41.7501289 68.8816731,39.7069973 C69.2423555,37.5078937 69.6513437,35.015583 70.2963252,32.602575 C71.9399261,26.4541394 74.0732259,20.3172497 74.4514191,19.2411444 L71.5176539,18.4701972 C71.127988,19.8773885 68.4002264,29.6903553 67.8471263,30.6011709 C67.5678591,31.0609844 67.1255602,31.3138818 66.6016448,31.3138818 C66.0433116,31.3138818 65.4884,31.0223965 65.1536819,30.5529614 C64.8315434,30.1014529 64.7566695,29.5478537 64.9426464,28.9942544 C65.4672663,27.4311924 67.3751396,21.3808976 67.7179086,20.2929424 L65.5192955,19.8013269 C65.0894756,20.8485673 62.1116314,28.1136204 61.9151883,28.8272429 C61.6721503,29.7095986 60.5096942,30.513462 59.4763551,30.513462 L59.4759525,30.513462 C59.0447236,30.513462 58.6762922,30.3684283 58.4106109,30.0940594 C58.0680431,29.7406918 57.9038038,29.1927642 57.9225222,28.4651651 C58.5062159,26.1025947 61.8201871,18.2218574 62.4038808,16.8420118 L59.317852,16.4290912 C57.586999,20.8653798 54.6454847,28.1570698 54.011372,28.1570698 C52.697558,28.1570698 48.7876154,20.4629924 48.5019074,16.6155486 C48.4545074,15.9781904 48.3257929,15.7522336 48.2296847,15.7522336 C47.7939272,15.7522336 46.7455932,17.6732209 45.9764258,19.5429603 M61.1748031,49.0153846 C59.1584433,49.0153846 56.9558047,48.6135036 54.8728233,48.2023047 C48.5836245,46.9596942 49.5026401,33.0032407 49.5956286,31.7829118 C46.240195,27.6078256 45.6602249,19.6084888 45.6547905,19.5278695 L45.6521739,19.4903957 L45.666565,19.4555552 C45.9418067,18.7835591 47.3594779,15.4307692 48.2296847,15.4307692 C48.6820473,15.4307692 48.7834893,16.0933463 48.8203224,16.5914438 C49.0339744,19.4638602 52.686186,27.8353016 54.011372,27.8353016 C54.4963409,27.5332831 57.3748565,20.5335849 59.0660587,16.194323 L59.1118484,16.0770401 L62.8626842,16.5789863 L62.7799607,16.7735462 C62.7407123,16.8658127 58.8533124,26.0306856 58.2372136,28.508108 C58.2256404,29.1108283 58.3593867,29.5807698 58.6392578,29.8696218 C58.8463684,30.0835263 59.1279503,30.1922002 59.4759525,30.1922002 L59.4761538,30.1922002 C60.3502854,30.1917951 61.4058652,29.4733112 61.6072396,28.741357 C61.8233069,27.9571421 65.134259,19.8964292 65.2751506,19.553696 L65.326576,19.4288172 L68.1278025,20.0553384 L68.0750688,20.2228563 C68.0526268,20.2940565 65.8205016,27.383388 65.2453621,29.0968516 C65.0930985,29.5500818 65.1527762,30.0006788 65.4132243,30.365795 C65.6848431,30.746711 66.1512949,30.9926201 66.6014435,30.9926201 C67.0102304,30.9926201 67.355616,30.794009 67.5744005,30.4337542 C68.0228383,29.6951155 70.1761648,22.129158 71.2519726,18.2316816 L71.2942401,18.0791532 L74.8695652,19.0187324 L74.810592,19.1842247 C74.7868417,19.2510699 72.4020505,25.9623212 70.6047771,32.6858275 C69.9638211,35.0835422 69.5563425,37.5675479 69.1968677,39.7596631 C68.8590298,41.8188983 68.5672836,43.5971815 68.1739948,44.6746035 C67.0925513,47.6359441 64.8683764,49.0153846 61.1748031,49.0153846" id="Fill-13" fill="#266D76"></path>
                    <g id="Group-17" transform="translate(63.000000, 0.907692)">
                        <mask id="mask-2" fill="white">
                            <use xlink:href="#path-1"></use>
                        </mask>
                        <g id="Clip-16"></g>
                        <path d="M20.9646231,15.5145129 C20.9127154,14.0224029 19.8587308,12.7863983 18.4357923,12.3660914 C19.5341462,11.8198762 20.2663462,10.7122306 20.2227308,9.45815158 C20.1619923,7.71167215 18.6196231,6.34250908 16.7777615,6.40020427 C16.6979615,6.40265504 16.6192385,6.40867985 16.5410538,6.41644062 C16.6798692,6.00440504 16.7485769,5.56347081 16.7327462,5.10650446 C16.6581154,2.96310254 14.7652077,1.282896 12.5047462,1.35355985 C11.2344077,1.39328273 10.1183923,1.97758696 9.39771538,2.86221254 C9.40159231,2.78807677 9.4031,2.71343042 9.40051538,2.63786504 C9.34946923,1.16924158 8.05242308,0.0178906154 6.50359231,0.0663954231 C4.95476154,0.114798115 3.74063846,1.34467581 3.79168462,2.81329927 C3.80406923,3.16866081 3.8899,3.50523312 4.0341,3.81086446 C1.65991538,4.35861138 -0.0662846154,6.42389504 0.0175,8.83116312 C0.0996692308,11.1924793 1.89705385,13.1156183 4.23753077,13.5639048 C3.94762308,14.265846 3.79954615,15.0335495 3.82743846,15.8347468 C3.93534615,18.9344593 6.62657692,21.3743022 9.87597692,21.3612314 C9.73220769,21.6596125 9.65671538,21.9931214 9.66888462,22.343275 C9.71099231,23.5538529 10.7801615,24.5029133 12.0568538,24.4629862 C13.3288077,24.4231612 14.3265769,23.416712 14.2924385,22.2121589 C14.6803462,22.4413058 15.1414846,22.5677247 15.6324538,22.5524073 C16.9511462,22.5111527 17.9847769,21.4640616 17.9412692,20.2137608 C17.9260846,19.7782387 17.7819923,19.3756998 17.5452846,19.0374937 C19.5037769,18.9446708 21.0295615,17.380161 20.9646231,15.5145129" id="Fill-15" fill="#5EA260" mask="url(#mask-2)"></path>
                    </g>
                    <path d="M69.6607184,0.321286906 L69.5734159,0.322602826 C68.1413162,0.367749001 67.0147749,1.51512993 67.0618248,2.87994132 C67.0730827,3.2023417 67.14849,3.51472084 67.2865595,3.8082722 L67.3690826,3.98440302 L67.1723866,4.03015655 C64.8736349,4.56330656 63.2619386,6.58810239 63.3397885,8.8452087 C63.4172137,11.0760978 65.0731985,12.9428821 67.3666398,13.3844238 L67.5635482,13.4222818 L67.4902652,13.6006396 C67.2033991,14.2986845 67.0710648,15.0344861 67.0971918,15.7877997 C67.2006378,18.7725085 69.7355945,21.1107969 72.8683924,21.1107969 L73.1308308,21.1107969 L73.0472456,21.3381474 C72.9108754,21.6224873 72.8472572,21.925655 72.8580903,22.2395525 C72.8960064,23.3312599 73.8226654,24.1864054 74.9678991,24.1864054 L75.0391643,24.1852919 C76.1960808,24.1489523 77.1121191,23.2221398 77.0808942,22.1192977 L77.0723976,21.8206851 L77.3385532,21.978393 C77.6848953,22.183879 78.0835977,22.292493 78.4915401,22.292493 L78.5655666,22.2913795 C79.7708075,22.2535215 80.7190266,21.28794 80.6795175,20.1391419 C80.6662415,19.7522614 80.5407045,19.3781353 80.3168194,19.0568484 L80.1529415,18.8215012 L80.4487289,18.8073297 C82.2806993,18.7198717 83.7215081,17.2275173 83.6610761,15.4806842 C83.6134952,14.1103055 82.6590099,12.9156526 81.2855365,12.5078187 L80.8967115,12.3924226 L81.2572854,12.2121416 C82.3124553,11.6848626 82.9686043,10.6113757 82.92952,9.47715393 C82.8736549,7.86363368 81.5036864,6.59974322 79.8109538,6.59974322 L79.706021,6.60126159 C79.631251,6.60369098 79.5573307,6.60935956 79.4839414,6.61664773 L79.2279818,6.64134654 L79.3062566,6.40792259 C79.4412461,6.005656 79.5021029,5.58709224 79.4876587,5.16346726 C79.4168184,3.12217181 77.6588745,1.53365404 75.4919262,1.59874146 C74.334691,1.63487864 73.2644396,2.15729885 72.5553994,3.03177824 L72.2264753,3.43758769 L72.2536644,2.9254924 C72.2572754,2.85676089 72.2588685,2.78701713 72.2564258,2.71696971 C72.2099069,1.37331426 71.0697711,0.321286906 69.6607184,0.321286906 Z M74.9678991,24.5076923 C73.6396702,24.5076923 72.5650643,23.516096 72.5210944,22.2499786 C72.5112172,21.9670559 72.5538063,21.6912188 72.6477998,21.4275287 C69.4214332,21.3089947 66.8669343,18.8791992 66.7603021,15.798327 C66.7348124,15.0640437 66.8515342,14.345349 67.1076001,13.6588437 C64.7603117,13.122657 63.0830854,11.1733747 63.0028989,8.85573606 C62.9217564,6.50975454 64.5519329,4.39861412 66.9040007,3.76515052 C66.7954568,3.48496081 66.7352372,3.19161189 66.7249351,2.89046868 C66.671619,1.34861545 67.9444078,0.0525355716 69.5623704,0.00151836912 L69.6607184,0 C71.1844751,0 72.4298623,1.08877188 72.5797209,2.51259722 C73.3375103,1.75715797 74.3723946,1.31227582 75.4808806,1.277657 C77.8274256,1.19768956 79.7477605,2.93379282 79.8245484,5.1529399 C79.8377181,5.53475912 79.7944917,5.91283303 79.6956127,6.28017713 L79.8109538,6.27845632 C81.6865755,6.27845632 83.204597,7.67879754 83.2664096,9.46662657 C83.306025,10.6069218 82.7105204,11.6920496 81.7264032,12.3198446 C83.0517646,12.8529946 83.9497477,14.0792295 83.9979658,15.4701569 C84.0616902,17.3037394 82.620669,18.8824384 80.7374005,19.1058411 C80.9083943,19.421257 81.0040871,19.7701782 81.0164071,20.1286145 C81.0621825,21.4544545 79.9677159,22.5687349 78.5766121,22.6125652 L78.4915401,22.6138811 C78.1155661,22.6138811 77.7462832,22.5339137 77.4090749,22.3809633 C77.3008496,23.5375557 76.2960219,24.4672025 75.0501036,24.5063764 L74.9678991,24.5076923 Z" id="Fill-18" fill="#266D76"></path>
                    <path d="M54.7810949,13.208644 C54.7434126,12.1060783 54.0087125,11.18473 52.9992457,10.824822 C53.4832538,10.4043734 53.7792692,9.78855777 53.7560318,9.11108981 C53.7144766,7.89320395 52.6582209,6.93850271 51.3969108,6.97862725 C50.9921401,6.99156413 50.6157359,7.10577252 50.2920868,7.29467116 C50.2954364,7.22533758 50.2967971,7.15549864 50.2942849,7.08495223 C50.2446699,5.6313726 48.9839878,4.49191657 47.4785801,4.53992452 C45.9731724,4.5878314 44.7930886,5.80511084 44.8428083,7.25869047 C44.8516008,7.51732697 44.8994364,7.76575548 44.9795112,7.99962999 C44.5002134,7.76676617 43.9554949,7.6429562 43.3814679,7.66124975 C41.5506317,7.71956678 40.115355,9.20003085 40.1757513,10.9679362 C40.2211794,12.2962909 41.0981302,13.4088625 42.3081505,13.8552859 C41.1313115,14.3776123 40.3321329,15.5436496 40.3774563,16.8720043 C40.4378526,18.6399096 41.9711034,20.0257728 43.8020442,19.9674558 C44.7460904,19.9373371 45.5843121,19.5285115 46.1672363,18.8977376 C46.535476,19.4795939 47.208105,19.8589073 47.9643677,19.8348528 C48.8267689,19.8073619 49.54514,19.2633055 49.8123703,18.5206478 C50.0296715,18.5886675 50.2624643,18.6222225 50.5039451,18.6145412 C51.6227952,18.5788637 52.4999553,17.6741918 52.4630057,16.5937603 C52.4548412,16.3542259 52.4021907,16.1261124 52.3132186,15.9165956 C53.7374,15.7871257 54.8289305,14.6076462 54.7810949,13.208644" id="Fill-20" fill="#6AB671"></path>
                    <path d="M42.6675837,8.10868339 L42.5648285,8.1102559 C40.8672179,8.16770485 39.5316045,9.6292985 39.587383,11.3683874 C39.628526,12.6416994 40.4059451,13.7584945 41.5681846,14.2133686 L41.9291584,14.3546846 L41.5779075,14.519798 C40.4478045,15.0522491 39.7437674,16.2189451 39.7847058,17.4924668 C39.8398702,19.2036699 41.1916542,20.5441804 42.8622456,20.5441804 L42.9654102,20.5423982 C43.8147784,20.5135689 44.5950632,20.1392072 45.1622639,19.4883986 L45.3080044,19.3211886 L45.4220177,19.5121959 C45.7557675,20.0715894 46.3357614,20.4055901 46.9736831,20.4055901 L47.035193,20.4046465 C47.7820107,20.3794864 48.4485892,19.8768081 48.6940146,19.1533496 L48.7463133,18.9995584 L48.8975805,19.0496689 C49.0785279,19.1095291 49.2669467,19.1399309 49.457617,19.1399309 L49.5183081,19.1389874 C50.0040415,19.1224236 50.4544656,18.9132801 50.7866802,18.5499259 C51.1186902,18.186467 51.2927805,17.7123034 51.2768145,17.2148668 C51.2697527,16.9915706 51.2243111,16.7747742 51.1423321,16.5699289 L51.0593296,16.3623578 L51.2774286,16.3411814 C52.5916517,16.2144373 53.5869651,15.0559183 53.5433658,13.7035615 C53.509694,12.6561665 52.8673714,11.7447409 51.9070603,11.3814916 L51.6546754,11.2859879 L51.8546592,11.1017949 C52.3111217,10.6812014 52.5613573,10.0805034 52.5411952,9.45328245 C52.5039413,8.30262603 51.5951101,7.40115969 50.4719667,7.40115969 L50.4022692,7.40231286 C50.0487666,7.41426392 49.7023259,7.51930745 49.4007127,7.70622621 L49.1409589,7.86704135 L49.1542639,7.55652346 C49.1571296,7.48869596 49.1584601,7.42044912 49.1564131,7.35146844 C49.1114833,5.96084732 48.0128006,4.8712042 46.6551829,4.8712042 L46.5709522,4.87256704 C45.9024291,4.89531599 45.2825203,5.18318976 44.8253414,5.6833521 C44.3682648,6.18361927 44.1286731,6.83600036 44.1507798,7.52087995 C44.1587628,7.76608635 44.200827,8.00909123 44.2763582,8.24297556 L44.3990709,8.62436114 L44.0488434,8.4437324 C43.6174556,8.22148462 43.1528054,8.10868339 42.6675837,8.10868339 Z M42.8622456,20.8769231 C41.0154146,20.8769231 39.5209605,19.3950965 39.4600647,17.5033695 C39.4186147,16.2146469 40.067078,15.0247826 41.1358757,14.3814173 C40.0280842,13.8115404 39.3042943,12.6680127 39.2627419,11.3792901 C39.200925,9.4568468 40.6774686,7.84125222 42.5541845,7.7777229 L42.6675837,7.77562623 C43.0875088,7.77562623 43.4937195,7.85236461 43.8792563,8.0034302 C43.8488596,7.84806642 43.8311537,7.6903963 43.8261388,7.53178267 C43.8010641,6.75821364 44.0716665,6.02091712 44.588206,5.45586263 C45.1046432,4.8910178 45.8048935,4.56571834 46.5604106,4.54003405 L46.6551829,4.53846154 C48.1717437,4.53846154 49.4024526,5.74216389 49.4789049,7.28835846 C49.7650639,7.15521946 50.0757859,7.08036808 50.3916252,7.06967503 L50.4719667,7.06831219 C51.7713497,7.06831219 52.822851,8.1111994 52.8658362,9.44237973 C52.8864077,10.0818663 52.6639079,10.6977652 52.2493048,11.1680499 C53.2058291,11.6294237 53.8327998,12.5949435 53.8680068,13.6926588 C53.9149836,15.1493253 52.8946978,16.4070171 51.5127217,16.6449899 C51.5656345,16.8258283 51.5953148,17.0129568 51.6014556,17.203964 C51.6202872,17.790195 51.4151861,18.3491691 51.0239179,18.7774154 C50.6323427,19.2057666 50.1014747,19.4523358 49.528952,19.4716252 L49.457617,19.4727784 C49.2844478,19.4727784 49.1126091,19.4513923 48.9451713,19.4094587 C48.6196091,20.1822939 47.8745313,20.7092937 47.045837,20.7371795 L46.9736831,20.7385424 C46.2919574,20.7385424 45.6665219,20.4151299 45.2625628,19.863599 C44.6504323,20.4880943 43.8463009,20.8454729 42.9760541,20.8749312 L42.8622456,20.8769231 Z" id="Fill-22" fill="#266D76"></path>
                    <path d="M71.2155287,11.0751251 C71.16544,9.47504521 70.1138804,8.15911145 68.7160167,7.77133187 C68.9215908,7.30519269 69.0300994,6.78300682 69.0129348,6.23417235 C68.9543141,4.3639052 67.4677163,2.89780864 65.6924314,2.95945998 C64.9440133,2.9854741 64.264354,3.2796663 63.7322504,3.75045842 C63.4320199,2.08513177 62.0176942,0.851999051 60.3592493,0.909631958 C58.8344076,0.962611934 57.584501,2.09052494 57.241108,3.57967467 C56.5311346,2.89569367 55.5773431,2.49141733 54.5398364,2.52747755 C52.4329027,2.60076123 50.7812835,4.4595018 50.8508455,6.67916184 C50.8716237,7.34262764 51.0446753,7.96263083 51.3321578,8.5046974 C50.6173663,9.21881671 50.1843357,10.2390778 50.2193676,11.3578964 C50.2666457,12.8665039 51.1514775,14.1374945 52.3876322,14.6935199 C52.0838885,15.0735798 51.9071229,15.5686941 51.923886,16.1044158 C51.9600221,17.2552762 52.8748669,18.157522 53.9672804,18.1195583 C54.2868839,18.1084547 54.5859098,18.0177225 54.848599,17.8667138 C55.0820782,18.960893 56.0262334,19.761726 57.1293873,19.7233394 C57.7883687,19.7004977 58.3719662,19.3826178 58.7703664,18.8943772 C59.2211639,19.5678891 59.9745006,19.9970164 60.8146642,19.9678298 C61.7943532,19.9337788 62.6170511,19.286281 62.963054,18.3873134 C63.5628124,18.8429835 64.3046056,19.1014327 65.100904,19.0737266 C67.0127029,19.0073166 68.5114464,17.3206287 68.4484091,15.3065437 C68.4416837,15.0942008 68.4169908,14.8871453 68.3776426,14.685906 C70.0317712,14.416036 71.2721418,12.8820489 71.2155287,11.0751251" id="Fill-24" fill="#77BC85"></path>
                    <path d="M58.8115987,18.4798808 L58.9275828,18.6528001 C59.3422781,19.2704875 60.0175174,19.6392917 60.7340879,19.6392917 L60.8081477,19.6379408 C61.6802536,19.6075968 62.4558543,19.038439 62.78413,18.1875601 L62.8591786,17.9930259 L63.0214377,18.1158568 C63.5785176,18.5380748 64.2354645,18.7611863 64.921185,18.7611863 L65.0303465,18.7594197 C66.8239975,18.697069 68.2350885,17.1126343 68.1760582,15.2275654 C68.1698289,15.035941 68.1475813,14.8400559 68.1095132,14.6456257 L68.0761912,14.475824 L68.2391425,14.449325 C69.8097242,14.1935833 70.9544373,12.7405006 70.9018341,11.0693985 C70.8562513,9.61808245 69.8916942,8.34644031 68.5565416,7.97680469 L68.3751001,7.92661239 L68.4542027,7.74787377 C68.6543322,7.29541566 68.7477721,6.81240572 68.7321493,6.31224934 C68.6782607,4.59625468 67.3570499,3.25176616 65.724175,3.25176616 L65.6232204,3.25353276 C64.9432348,3.27722602 64.3088322,3.53265598 63.7882383,3.99249225 L63.583066,4.17351706 L63.5330337,3.89688788 C63.2545926,2.35609863 61.9682858,1.23763133 60.4745326,1.23763133 L60.3697216,1.23939793 C58.9768242,1.28751187 57.774465,2.31473934 57.4455961,3.73727013 L57.3829073,4.00828776 L57.1871284,3.8199887 C56.4911246,3.15127765 55.587081,2.79868455 54.6373557,2.82923638 C53.6755673,2.86249008 52.783488,3.28751389 52.1257501,4.02595379 C51.4680121,4.7644976 51.1233227,5.72781563 51.1549637,6.73862408 C51.174245,7.34799807 51.3270118,7.92640456 51.6093091,8.45752844 L51.6687349,8.56955183 L51.5803378,8.65767413 C50.8832464,9.3527803 50.5015764,10.329192 50.5330197,11.3363633 C50.5760317,12.7018432 51.3768464,13.930983 52.5735695,14.4679263 L52.7685574,14.5554251 L52.6320065,14.7258502 C52.3465451,15.0824961 52.1974368,15.5351621 52.2122685,16.0009217 C52.244305,17.0224337 53.0308813,17.8228086 54.0026564,17.8228086 L54.063071,17.8216655 C54.345665,17.8117933 54.6142182,17.7348941 54.8611171,17.5932541 L55.0436463,17.4884011 L55.0894269,17.7018483 C55.2997409,18.6852224 56.1488082,19.398722 57.1082236,19.398722 L57.1779327,19.3975789 C57.7554804,19.3775228 58.3029691,19.101621 58.6804861,18.6404338 L58.8115987,18.4798808 Z M60.7340879,19.9692308 C59.9796471,19.9692308 59.2652519,19.6114418 58.7873735,19.0028991 C58.3620983,19.4450694 57.7892967,19.7065266 57.188216,19.7272062 L57.1082236,19.7285571 C56.0692112,19.7285571 55.1425246,19.0020678 54.8341234,17.9736972 C54.5940471,18.0822913 54.3390401,18.142148 54.0732555,18.1513967 L54.0026564,18.1526437 C52.8605141,18.1526437 51.9362005,17.2122915 51.8985279,16.0117291 C51.8833995,15.5360973 52.0139188,15.0718965 52.2685302,14.6835557 C51.061326,14.0575549 50.2640709,12.7699094 50.219378,11.3471708 C50.1861549,10.2880405 50.5708901,9.26008563 51.2782648,8.50699332 C51.0078329,7.96038568 50.860801,7.36982081 50.841322,6.74943153 C50.8069124,5.65050078 51.1815619,4.60321717 51.8966492,3.80065999 C52.6117365,2.99789497 53.5814352,2.53577251 54.6270724,2.49960911 C55.5764022,2.46604366 56.4804457,2.78943586 57.2087827,3.40514884 C57.6486919,1.9724341 58.9104769,0.959859044 60.3594383,0.909770664 L60.4745326,0.907692308 C62.0341387,0.907692308 63.3883748,2.01545607 63.785272,3.57692496 C64.3197088,3.17174945 64.9464978,2.94707917 65.612937,2.9239055 L65.724175,2.92193106 C67.5273182,2.92193106 68.9863652,4.40650078 69.0458899,6.30144189 C69.0612161,6.78964772 68.9823112,7.26299331 68.811153,7.71139863 C70.18823,8.17674254 71.1673221,9.52684262 71.2154758,11.0586949 C71.2715398,12.8394304 70.0910327,14.3950799 68.4458969,14.7453868 C68.4700232,14.9033419 68.4848549,15.061193 68.4896999,15.2167579 C68.5545641,17.2835791 67.0074166,19.0206691 65.0406299,19.089047 C64.3075468,19.1172087 63.6044237,18.9087496 62.9957294,18.4965077 C62.5846927,19.3647409 61.749765,19.9352496 60.818431,19.967672 L60.7340879,19.9692308 Z" id="Fill-26" fill="#266D76"></path>
                    <path d="M74.8678513,18.0366428 C74.8118434,16.3925618 73.3997109,15.1018777 71.706178,15.1377751 C71.5843215,12.7081087 69.4723518,10.814267 66.953461,10.8947826 C64.410178,10.9760081 62.4165054,13.0389936 62.5003602,15.5025292 C62.5061181,15.6688336 62.5218212,15.8325014 62.54569,15.9935327 C61.8831215,16.3631544 61.4472019,17.0654861 61.4742114,17.8573586 C61.4825864,18.1025561 61.5348256,18.3360921 61.6229726,18.5517807 C61.3271252,18.9250529 61.1578451,19.3960796 61.1751186,19.9032066 C61.2003483,20.645492 61.6195179,21.2849525 62.2315222,21.6406817 C62.2606254,22.06131 62.4517851,22.4362047 62.7438638,22.7099985 C62.7253341,22.8267158 62.7170638,22.9465766 62.7212513,23.0689726 C62.7492029,23.8902525 63.3038383,24.57423 64.0605211,24.8277427 C64.2390136,25.7046941 65.0514948,26.3524699 66.0037342,26.3220483 C66.9803657,26.2908156 67.7616501,25.5570482 67.8486455,24.638318 C68.431442,25.2635819 69.2837046,25.6456763 70.2209736,25.6157618 C71.9096909,25.5617129 73.2334669,24.1919327 73.177773,22.5561669 C73.1581964,21.9824169 72.9711195,21.4525752 72.6641751,21.008218 C73.9777964,20.6268334 74.9151701,19.4268054 74.8678513,18.0366428" id="Fill-28" fill="#6BB671"></path>
                    <path d="M67.526557,10.3001217 C67.4750992,10.3001217 67.4234233,10.3010157 67.3715294,10.3025057 C64.8225134,10.379189 62.8171842,12.331138 62.9014573,14.6533921 C62.9069083,14.8047722 62.9221713,14.9608209 62.946701,15.1172668 L62.9632721,15.2230541 L62.8617737,15.2762954 C62.2019797,15.6223638 61.8077603,16.2677158 61.8327261,16.9600513 C61.8407936,17.1766917 61.8886538,17.3877696 61.9757614,17.5872258 L62.0118473,17.6703657 L61.9521039,17.7415858 C61.6584018,18.0902368 61.5053365,18.524213 61.5211446,18.9639503 C61.5446931,19.6132756 61.9247397,20.2010157 62.5374368,20.5358598 L62.6150596,20.5781747 L62.6211648,20.6605199 C62.6473297,21.0195013 62.8183834,21.3550407 63.1021647,21.6052549 L63.166596,21.6619727 L63.1529684,21.74253 C63.1347619,21.8500059 63.1274575,21.9585744 63.1314913,22.064759 C63.1572202,22.7766627 63.6708173,23.4111876 64.4098695,23.644019 L64.5037365,23.6736195 L64.5231422,23.7624212 C64.6905982,24.5374993 65.4417517,25.1000094 66.3094485,25.1000094 L66.3710452,25.0991154 C67.2875834,25.0716008 68.0420075,24.4242622 68.1257355,23.5930623 L68.1616034,23.2346768 L68.4263059,23.501678 C68.9976841,24.0781938 69.8122878,24.4087666 70.661342,24.4087666 L70.7628404,24.4072766 C72.4232276,24.3574126 73.7295152,23.0859787 73.6750048,21.5729724 C73.6561442,21.0603263 73.4812748,20.564467 73.1689301,20.139232 L73.0387592,19.9617279 L73.2630151,19.9004408 C74.5875092,19.5389761 75.4803898,18.406208 75.4349281,17.1458992 C75.3804177,15.6387534 74.0415328,14.4580085 72.3869237,14.4580085 L72.1506756,14.4620811 L72.142499,14.308913 C72.0225761,12.0609583 69.9951157,10.3001217 67.526557,10.3001217 Z M66.3094485,25.4153846 C65.3099455,25.4153846 64.4398502,24.7879121 64.2046923,23.9109207 C63.3808219,23.6134251 62.8148948,22.8867212 62.7855682,22.0752881 C62.7818615,21.9759573 62.7863313,21.8749379 62.7990867,21.7741172 C62.5114898,21.4964877 62.3310603,21.1426715 62.2838543,20.7632279 C61.6142484,20.3668981 61.2017135,19.7039646 61.1752215,18.9742807 C61.1577781,18.4913345 61.3152042,18.0141495 61.6199174,17.6207996 C61.5397871,17.4120063 61.4948705,17.1936773 61.486912,16.9702824 C61.4587847,16.1969923 61.8787329,15.4738643 62.5891126,15.0583637 C62.5716693,14.9253598 62.5603311,14.7929519 62.5556432,14.6637225 C62.4650469,12.1677389 64.6202797,10.069873 67.3601912,9.98732912 C70.0298933,9.9039906 72.2641662,11.7501523 72.4777381,14.1438253 C74.277999,14.1861402 75.7211078,15.4850887 75.7807422,17.1356681 C75.8291474,18.470177 74.931906,19.6764499 73.5751417,20.1375434 C73.8491111,20.5706255 74.0023944,21.0592336 74.0208189,21.562642 C74.0816525,23.2493778 72.6251342,24.6667286 70.7741786,24.7223538 L70.661342,24.7240424 C69.8286409,24.7240424 69.0258115,24.4390625 68.4112611,23.9332702 C68.1751219,24.768344 67.3557214,25.3852874 66.3823834,25.4144906 L66.3094485,25.4153846 Z" id="Fill-30" fill="#266D76"></path>
                    <path d="M54.5121218,35.4406059 C54.8601617,35.6035807 54.875666,36.068738 54.5392718,36.2540941 C54.4186049,36.3205452 54.2649651,36.3256035 54.1400888,36.2670517 C53.792049,36.1040769 53.7764745,35.6389197 54.1128686,35.4536328 C54.2336057,35.3871125 54.3872456,35.3821235 54.5121218,35.4406059" id="Fill-32" fill="#266D76"></path>
                    <path d="M63.8839003,36.5981916 C64.0133195,36.958803 63.6912829,37.3008248 63.3207406,37.1962754 C63.1878065,37.1586768 63.0756104,37.0542672 63.0291432,36.9248384 C62.899724,36.564227 63.2217605,36.2222053 63.5923029,36.3268245 C63.725237,36.3643532 63.8374331,36.4687628 63.8839003,36.5981916" id="Fill-34" fill="#266D76"></path>
                    <path d="M52.9034787,37.2872129 C53.1827315,38.2921933 52.3174771,39.2111697 51.2903312,39.0003599 C50.8074734,38.9012885 50.4017387,38.5236708 50.2704282,38.0512487 C49.9911754,37.0462682 50.8565639,36.1272918 51.8837098,36.3381017 C52.3664335,36.437173 52.7721682,36.8147907 52.9034787,37.2872129" id="Fill-36" fill="#79BD87"></path>
                    <path d="M65.6860874,38.1949052 C65.9653402,39.1998856 65.1000858,40.1188621 64.0729399,39.9080522 C63.5900821,39.8089809 63.1843474,39.4313631 63.0530369,38.958941 C62.7737841,37.9539605 63.6391726,37.0349841 64.6663185,37.245794 C65.1490422,37.3448653 65.5547769,37.722483 65.6860874,38.1949052" id="Fill-38" fill="#79BD87"></path>
                    <path d="M59.694491,41.7538462 C57.9086262,41.7538462 57.5370738,39.1953405 57.5217391,39.0850828 L57.9172991,39.0307692 C57.9205672,39.0541002 58.2564224,41.3559651 59.6985132,41.3559651 C59.7138479,41.3559651 59.7288055,41.3553379 59.7440146,41.3548362 C61.2473185,41.3054146 61.6925278,39.3402183 61.6969271,39.3201487 L62.0869565,39.4043158 C62.0668454,39.4976398 61.5728668,41.69301 59.7570868,41.7533444 C59.7360958,41.7538462 59.7151049,41.7538462 59.694491,41.7538462" id="Fill-40" fill="#266D76"></path>
                    <path d="M65.2851244,45.3846154 C65.0721284,45.3846154 64.8811475,45.2455261 64.8359064,45.0434105 C64.7839508,44.8119372 64.9433401,44.5849805 65.1917804,44.5365302 C67.538259,44.0794347 68.9149729,43.3006375 69.2837257,42.2220029 C69.8215544,40.6479847 68.0684925,38.8607647 68.0505502,38.8430065 C67.8781721,38.6693245 67.8890695,38.3983315 68.0750971,38.2374806 C68.2604642,38.0766298 68.5515037,38.0864841 68.7242121,38.260166 C68.811612,38.3481361 70.8580249,40.4374518 70.1591558,42.4823205 C69.6825291,43.8768057 68.0744366,44.8502252 65.3796792,45.3752743 C65.3477573,45.3815359 65.3163858,45.3846154 65.2851244,45.3846154" id="Fill-42" fill="#226368"></path>
                    <path d="M63.3514106,55.3692308 C63.1628533,55.3692308 62.978606,55.29793 62.8722058,55.1676357 C60.4197497,52.162832 61.3329054,48.5985054 61.3727718,48.4483771 C61.4343223,48.2186076 61.7315693,48.0702084 62.0343383,48.1159792 C62.3383195,48.1618517 62.5356312,48.3854168 62.4750235,48.6151863 C62.4662691,48.6491584 61.6141251,52.0078215 63.8294031,54.722133 C63.9922358,54.9215921 63.9100787,55.1829944 63.6458292,55.3062705 C63.5539749,55.3489899 63.4520193,55.3692308 63.3514106,55.3692308" id="Fill-44" fill="#226368"></path>
                    <path d="M78.7792162,11.8 L78.5217391,11.5540285 C79.0750268,10.9450105 79.2414342,9.98408495 78.9266784,9.21707225 L79.2507406,9.07692308 C79.6175679,9.97078612 79.4236845,11.0903882 78.7792162,11.8" id="Fill-46" fill="#266D76"></path>
                    <path d="M81.4416651,17.2461538 L81.2608696,16.9616222 C81.7465756,16.6950884 81.9596321,16.0460234 81.7167791,15.5730871 L82.0377081,15.4307692 C82.3608773,16.0601719 82.0878917,16.8913996 81.4416651,17.2461538" id="Fill-48" fill="#266D76"></path>
                    <path d="M79.6177165,17.2461538 L79.4347826,16.9264593 C79.7071509,16.8213405 79.9016028,16.5849623 79.9185412,16.3384615 L80.3478261,16.3581505 C80.3220798,16.7363556 80.0352124,17.0848605 79.6177165,17.2461538" id="Fill-50" fill="#266D76"></path>
                    <path d="M75.8748419,19.9692308 L75.7826087,19.6834974 C76.3754178,19.5987811 76.9813635,19.4824803 77.3982796,19.2064156 C77.6409621,19.0456388 77.8248754,18.8251001 77.9454561,18.5510613 C78.1194131,18.1559334 78.1261889,17.7197364 77.9646771,17.3226748 L78.3883689,17.2461538 C78.5732501,17.7010436 78.565783,18.1806116 78.3667972,18.6331993 C78.2253361,18.9552134 78.0035339,19.2178339 77.7076134,19.4136943 C77.2093883,19.7439038 76.5013914,19.8797261 75.8748419,19.9692308" id="Fill-52" fill="#266D76"></path>
                    <path d="M77.6671585,15.4307692 L77.6086957,15.0877447 C77.7407564,15.0757699 77.8704431,15.0119767 77.9562084,14.9172666 C78.0418254,14.8227743 78.0713536,14.7104286 78.0354449,14.6169161 L78.4889031,14.5230769 C78.5623527,14.7151097 78.5113089,14.9284794 78.3485329,15.1083196 C78.1857568,15.2884864 77.9372154,15.4060575 77.6671585,15.4307692" id="Fill-54" fill="#266D76"></path>
                    <path d="M77.0154612,11.8 L76.7145002,11.621877 C76.9430471,11.1117641 77.1548503,10.6092465 77.2375027,10.0694872 C77.3253807,9.49150622 77.2347298,8.94464163 76.9884792,8.56977478 C76.8271206,8.32378372 76.5975072,8.1388004 76.3357926,7.93948394 C76.1424395,7.79235483 75.9675366,7.66874677 75.7826087,7.64865587 L75.8144965,7.26153846 C76.0988204,7.29228734 76.3438979,7.47923075 76.5227468,7.61545687 C76.8110167,7.83498674 77.0652659,8.04067349 77.2589389,8.33578926 C77.5612864,8.79616495 77.67508,9.45279448 77.5709914,10.1364977 C77.4802338,10.7300369 77.2563794,11.2620783 77.0154612,11.8" id="Fill-56" fill="#266D76"></path>
                    <path d="M77.6049498,5.44615385 L77.3478431,5.41132698 C77.362367,5.27604152 77.2894209,5.12220002 77.1617243,5.01909056 C77.0289688,4.91186769 76.8587611,4.86287241 76.6956522,4.82164691 L76.7524425,4.53846154 C76.9335024,4.58416609 77.1409175,4.64449609 77.3132467,4.78371214 C77.5192747,4.95007669 77.6310602,5.20382834 77.6049498,5.44615385" id="Fill-58" fill="#266D76"></path>
                    <path d="M67.5982975,20.8769231 L67.5652174,20.5408668 C68.3185326,20.4659749 68.9735616,19.8164151 69.0567921,19.0615385 L69.3913043,19.098878 C69.2913218,20.0060916 68.5036541,20.7871379 67.5982975,20.8769231" id="Fill-60" fill="#266D76"></path>
                    <path d="M64.6537449,19.9692308 C64.4015659,19.9692308 64.1500468,19.9123109 63.9130435,19.7965801 L64.0477764,19.228516 C64.5320761,19.4639487 65.0914621,19.4024904 65.5443549,19.0615385 L65.7391304,19.593484 C65.4081703,19.8419647 65.0303638,19.9692308 64.6537449,19.9692308" id="Fill-62" fill="#266D76"></path>
                    <path d="M66.4876754,9.07692308 L66.2593019,8.97739883 C66.3881919,8.44232882 66.4866926,7.88405684 66.3350484,7.42490205 C66.2181024,7.07035965 65.9681087,6.82246491 65.7391304,6.62646931 L65.8677181,6.35384615 C66.111891,6.56256213 66.4106437,6.85808197 66.5542749,7.29362774 C66.7388031,7.85230677 66.6313065,8.48079525 66.4876754,9.07692308" id="Fill-64" fill="#266D76"></path>
                    <path d="M66.6290175,5.44615385 L66.3757723,5.39569522 C66.4198399,5.24109711 66.3725718,5.06887962 66.2520218,4.94602383 C66.1318001,4.82323659 65.9409224,4.75351319 65.7487318,4.75646118 L65.7391304,4.53892691 C66.0115783,4.5306314 66.2827132,4.63374251 66.4535676,4.80808529 C66.6245861,4.9825652 66.6918775,5.22704274 66.6290175,5.44615385" id="Fill-66" fill="#266D76"></path>
                    <path d="M64.6886974,8.16923077 L64.3844508,8.01604341 C64.4767739,7.91895402 64.481087,7.77569626 64.3950587,7.67572135 C64.3087972,7.57549184 64.131728,7.5163386 63.9695797,7.53416096 L63.9130435,7.2678441 C64.2220694,7.23389676 64.5421695,7.3391335 64.7086308,7.53254846 C64.8722945,7.72273842 64.8642512,7.98447239 64.6886974,8.16923077" id="Fill-68" fill="#266D76"></path>
                    <path d="M48.0444388,15.4307692 C47.8515038,15.4307692 47.6586759,15.3914284 47.4782609,15.3088244 L47.6075262,14.9601052 C48.0925923,15.1815312 48.7184805,14.9896999 49.0320131,14.5230769 L49.3043478,14.7484252 C49.0123237,15.1835517 48.5278997,15.4307692 48.0444388,15.4307692" id="Fill-70" fill="#266D76"></path>
                    <path d="M44.8323358,17.2461538 C44.4855748,17.2461538 44.1404668,17.1086034 43.826087,16.8440428 L43.9565843,16.3384615 C44.2677551,16.6007384 44.6122797,16.7216001 44.956707,16.6817228 C45.0370279,16.6725879 45.3043432,16.6216433 45.3638546,16.3405696 L45.6521739,16.5397806 C45.5648516,16.9515535 45.3244721,17.1994253 44.9753772,17.2382486 C44.9276319,17.2435188 44.8798866,17.2461538 44.8323358,17.2461538" id="Fill-72" fill="#266D76"></path>
                    <path d="M47.5792113,11.8 L47.4782609,11.4796755 C47.6323752,11.4260754 47.7919682,11.3707737 47.9111811,11.2716561 C48.0213642,11.1799829 48.0826447,11.0511937 48.0668172,10.9434618 L48.3851916,10.8923077 C48.4185712,11.1213843 48.3135625,11.3680087 48.1113572,11.5362534 C47.9474015,11.672487 47.7517909,11.7404443 47.5792113,11.8" id="Fill-74" fill="#266D76"></path>
                    <polygon id="Fill-76" fill="#266D76" points="67.9549683 34.4923077 67.5652174 34.37363 69.0015535 31.7692308 69.3913043 31.8879085"></polygon>
                    <polygon id="Fill-78" fill="#266D76" points="67.8896919 37.2153846 67.5652174 37.1047756 68.1537864 35.4 68.4782609 35.5106091"></polygon>
                    <path d="M63.1100997,46.2923077 L63,45.8657142 C64.0480665,45.545385 64.9527594,44.6660858 65.3610402,43.5692308 L65.7391304,43.7359583 C65.2846,44.956672 64.2771303,45.9363709 63.1100997,46.2923077" id="Fill-80" fill="#266D76"></path>
                    <polygon id="Fill-82" fill="#266D76" points="52.2555972 29.9538462 52.0434783 29.0716129 52.7444028 29.0461538 52.9565217 29.9283871"></polygon>
                    <path d="M54.180073,9.98461538 C53.8243995,9.3799983 53.7716355,8.62570133 54.0354556,7.91516421 C54.2992758,7.20450913 54.8430421,6.63539531 55.5275555,6.35384615 L55.6956522,6.69531444 C55.1144737,6.93451917 54.650692,7.42283652 54.42351,8.03535633 C54.1959409,8.64822998 54.2386423,9.29389403 54.5407777,9.8069811 L54.180073,9.98461538 Z" id="Fill-84" fill="#266D76"></path>
                    <polygon id="Fill-86" fill="#266D76" points="56.2813606 31.7692308 55.6956522 31.7203526 56.0231731 29.9538462 56.6086957 30.002599"></polygon>
                    <mask id="mask-4" fill="white">
                        <use xlink:href="#path-3"></use>
                    </mask>
                    <g id="Clip-89"></g>
                    <polygon id="Fill-88" fill="#266D76" mask="url(#mask-4)" points="48.3913043 24.0538462 49.3043478 24.0538462 49.3043478 23.6 48.3913043 23.6"></polygon>
                    <polygon id="Fill-90" fill="#266D76" mask="url(#mask-4)" points="52.5181624 32.6769231 52.0434783 31.9447172 52.4741417 31.7692308 52.9565217 32.5131202"></polygon>
                    <path d="M53.739975,45.3846154 C53.4193306,45.2228533 53.1409134,44.9575007 52.9565217,44.6382928 L53.2115734,44.4769231 C53.3665937,44.7457091 53.6002502,44.9680952 53.8695652,45.1044501 L53.739975,45.3846154 Z" id="Fill-91" fill="#266D76" mask="url(#mask-4)"></path>
                    <path d="M38.790293,31.7692308 C38.6106981,31.7692308 38.4418111,31.658497 38.3755497,31.4797092 C38.2906291,31.2509161 38.4073551,30.9958993 38.6361425,30.9104337 C38.8620674,30.8259235 44.1669022,28.779844 43.840048,23.1617249 C43.8257355,22.9174311 44.0117975,22.7079607 44.2559575,22.6937341 C44.4982092,22.6737744 44.7092916,22.8658332 44.723286,23.1102331 C45.0889429,29.3913746 39.00498,31.7186946 38.9435954,31.7412023 C38.8928127,31.7599941 38.8411818,31.7692308 38.790293,31.7692308" id="Fill-92" fill="#226368" mask="url(#mask-4)"></path>
                    <path d="M34.2411131,52.6461538 L34.2306559,52.6461538 C33.9821622,52.6407103 33.7855234,52.440869 33.7911293,52.1994683 C33.9220062,46.5918734 31.23407,44.365564 31.2070106,44.3438944 C31.0161933,44.1902187 30.9881637,43.9152145 31.1451298,43.7295055 C31.3022036,43.5432731 31.5840095,43.5152178 31.7762282,43.6670093 C31.9009602,43.7653073 34.8325388,46.1515736 34.6906656,52.2193582 C34.6850597,52.4571997 34.4848633,52.6461538 34.2411131,52.6461538" id="Fill-93" fill="#226368" mask="url(#mask-4)"></path>
                    <path d="M47.0854046,19.1151046 L37.7502024,13.6179957 C36.5501222,12.9112675 35.1600309,12.6036427 33.7771332,12.738786 L3.49930769,16.2183903 C2.80677979,16.2860139 2.49139648,17.1252925 2.96513941,17.639418 L7.43014087,22.0554839 L7.67112291,44.9220922 C7.67112291,44.9220922 7.93646005,48.2328451 17.0357156,48.1040284 C25.0231653,47.9908731 34.4678113,47.2926497 39.61342,44.613845 C40.7684896,44.0124934 41.4963684,42.8146648 41.4963684,41.5028512 L41.4963684,21.3231375 L41.3595892,21.282999 L46.7851276,20.596392 C47.5355117,20.5014908 47.738471,19.4996876 47.0854046,19.1151046" id="Fill-94" fill="#FEFEFE" mask="url(#mask-4)"></path>
                    <path d="M8.38755867,33.5846154 C6.98680236,33.5846154 1.75406383,33.2159818 0.0245950689,27.8553836 C-0.0540589353,27.6119442 0.062185554,27.3446316 0.284153283,27.2583295 C0.506529603,27.1704582 0.749846276,27.3000235 0.828295984,27.5430146 C1.56927799,29.8398854 3.10068167,31.3950058 5.37980912,32.1662335 C7.1165304,32.7536487 8.65835317,32.6431371 8.67398183,32.6421283 C8.91300828,32.630472 9.11260558,32.8182072 9.12935787,33.0753205 C9.14590585,33.332882 8.9698026,33.5564831 8.73506636,33.5754248 C8.72617948,33.5758731 8.60155885,33.5846154 8.38755867,33.5846154" id="Fill-95" fill="#226368" mask="url(#mask-4)"></path>
                    <path d="M24.1551003,53.5538462 L24.1398715,53.5538462 C23.8699702,53.5466275 23.6580555,53.3592351 23.6661385,53.1341887 C23.8133893,49.1513447 21.9316946,46.8563003 21.1158991,46.0546394 C20.9413536,45.8832452 20.9668911,45.6264952 21.1727143,45.4808539 C21.3795918,45.3364808 21.6877994,45.3562834 21.8617592,45.5285556 C22.7507701,46.4021103 24.801036,48.8942046 24.6435936,53.1595515 C24.6355106,53.3799156 24.4182073,53.5538462 24.1551003,53.5538462" id="Fill-96" fill="#226368" mask="url(#mask-4)"></path>
                    <path d="M34.9920232,13.042187 C34.7825677,13.042187 34.5705096,13.0527357 34.3621993,13.0729892 L3.69258662,16.6118655 C3.42431287,16.6381317 3.20933993,16.8044846 3.11471019,17.0572314 C3.02018455,17.3098726 3.07213201,17.5787589 3.25368786,17.7764414 L8.75532967,23.2396107 C9.83144364,24.4114653 11.3468728,25.080569 12.9186217,25.080569 L12.9190382,25.080569 C13.1543112,25.080569 13.3919786,25.0654844 13.6260025,25.0358426 L47.5032405,20.7320804 C47.836891,20.6895691 48.0029355,20.4406199 48.0470752,20.221629 C48.091215,20.0027436 48.0348952,19.707802 47.7445516,19.5361748 L38.2877198,13.9454717 C37.288434,13.3544283 36.1488171,13.042187 34.9920232,13.042187 M12.9190382,25.4153846 L12.9186217,25.4153846 C11.2554703,25.4153846 9.65176165,24.7075672 8.51880737,23.4733698 L3.01716556,18.0102005 C2.74660155,17.7157864 2.66779548,17.30713 2.80594033,16.9382421 C2.94398107,16.5693542 3.27044846,16.316713 3.65792028,16.2788431 L34.3274289,12.7399668 C35.7752951,12.5989308 37.2141043,12.9229867 38.454493,13.6560155 L47.9112207,19.2467186 C48.2748529,19.4618065 48.4552636,19.8707794 48.3707319,20.2888242 C48.2865124,20.7067635 47.9621271,21.0111988 47.5442572,21.0644697 L13.6670191,25.3682319 C13.4196701,25.3996671 13.1680528,25.4153846 12.9190382,25.4153846" id="Fill-97" fill="#266D76" mask="url(#mask-4)"></path>
                    <path d="M16.397608,49.0153846 C7.90542414,49.0153846 7.55436731,45.7837645 7.54346618,45.6436466 L7.30434783,22.3510607 L7.62451812,22.3474975 L7.86323272,45.6281362 C7.8656552,45.6472098 8.25749034,48.8149018 16.8988582,48.6788711 C27.5084861,48.5241859 34.9456826,47.3440305 39.00373,45.1705784 C40.091017,44.5886227 40.7663825,43.4406409 40.7663825,42.175178 L40.7663825,21.7846154 L41.0869565,21.7846154 L41.0869565,42.175178 C41.0869565,43.5657724 40.3447711,44.827148 39.1504915,45.4662198 C35.048133,47.6633568 27.5630927,48.8561931 16.9032994,49.0117166 C16.7318085,49.0140222 16.5629418,49.0153846 16.397608,49.0153846" id="Fill-98" fill="#266D76" mask="url(#mask-4)"></path>
                    <path d="M7.42876929,21.6929795 L8.74038787,23.0852381 C9.98012979,24.5285597 11.8224255,25.252367 13.6211154,25.0089138 L19.0010153,24.2784412 C16.6507842,23.7332416 15.0520763,21.7398626 14.4209388,20.4887052 C14.0633289,19.7798101 13.562696,19.4202224 12.9321844,19.4202224 C12.1637614,19.4202224 11.2375018,19.9682463 10.324178,20.9629588 C9.76721214,21.5697278 9.12293024,21.8775746 8.40917105,21.8778006 C8.05020505,21.8778006 7.71679752,21.7995115 7.42876929,21.6929795 M12.9122592,25.4153846 C11.2456388,25.4153846 9.63858527,24.657347 8.50326793,23.3355825 L6.39130435,21.0940055 L6.61048121,20.8258116 C6.61861819,20.8329288 7.42355328,21.5191166 8.40917105,21.5191166 C9.0315457,21.5188907 9.59685717,21.2468557 10.0893531,20.710242 C11.0652691,19.6470688 12.0747762,19.0615385 12.9321844,19.0615385 C13.6823513,19.0615385 14.2974236,19.4956873 14.7116793,20.3166499 C15.4133373,21.7076658 17.3673601,24.0615363 20.2410701,24.0615363 C20.4780858,24.0615363 20.7195872,24.0451554 20.9588978,24.0127327 L21,24.3685923 C20.997705,24.3689312 20.9952013,24.3691572 20.9930105,24.3696091 L13.6622175,25.3647735 C13.4143526,25.3985519 13.1620019,25.4153846 12.9122592,25.4153846" id="Fill-99" fill="#266D76" mask="url(#mask-4)"></path>
                    <path d="M13.2545645,25.4482342 C11.4530021,25.6778001 9.65878397,25.1837253 8.2173913,24.1184317 L8.42557773,44.0152837 C8.42557773,44.0152837 8.68894734,47.325118 17.7207295,47.1963372 C25.6489501,47.0832132 35.0235616,46.3851836 40.1310142,43.7071221 C41.2776206,43.1059373 42,41.9084411 42,40.5969915 L42,21.7846154 L13.2545645,25.4482342 Z" id="Fill-108" fill="#3AA8DA" opacity="0.15" mask="url(#mask-4)"></path>
                    <path d="M18.3544289,24.5076923 C8.96050273,24.5076923 6.49721071,21.2393314 6.39130435,21.0922284 L6.65517986,20.8769231 C6.68210165,20.9132531 9.45305637,24.5448024 20.0747003,24.1189838 L20.0869565,24.4724767 C19.4849349,24.4963253 18.9075304,24.5076923 18.3544289,24.5076923" id="Fill-100" fill="#266D76" mask="url(#mask-4)"></path>
                    <path d="M16.0589363,28.1384615 C9.07624127,28.1384615 7.38065091,25.3755938 7.30434783,25.2441139 L7.57470192,25.0516497 C7.59466435,25.0857786 9.70804704,28.4677767 18.7911542,27.6546156 C28.1242478,26.8197464 36.8336421,25.2278887 40.9791391,23.6 L41.0869565,23.9346862 C36.9172411,25.57231 28.1757245,27.1713291 18.8169939,28.0091077 C17.8170486,28.0982902 16.8993849,28.1384615 16.0589363,28.1384615" id="Fill-101" fill="#266D76" mask="url(#mask-4)"></path>
                    <path d="M15.2419606,43.5692308 C9.09510655,43.5692308 7.37675734,41.2887619 7.30434783,41.1883818 L7.56675583,40.9996225 C7.58450126,41.0238276 9.40667144,43.4072191 15.8958899,43.2377832 C20.0128298,43.1326231 33.9858267,42.5181383 40.9417295,39.0307692 L41.0869565,39.3195018 C34.0712903,42.8367714 20.0380201,43.4548158 15.9042527,43.5608912 C15.6780494,43.5665865 15.4571494,43.5692308 15.2419606,43.5692308" id="Fill-102" fill="#266D76" mask="url(#mask-4)"></path>
                    <path d="M18.246629,31.120816 C18.3547473,31.8649344 17.8355108,32.5553122 17.0869804,32.6627932 C16.33845,32.770153 15.6439787,32.2540983 15.5359824,31.50998 C15.4278641,30.7658617 15.9469786,30.0754839 16.695509,29.9680028 C17.4441614,29.8605217 18.1385106,30.3766977 18.246629,31.120816" id="Fill-103" fill="#1A4C4D" mask="url(#mask-4)"></path>
                    <path d="M17.3430786,30.3428149 C17.3791259,30.5909074 17.2059875,30.8210121 16.9565792,30.8568493 C16.7070317,30.892548 16.4755774,30.7205575 16.4395301,30.472465 C16.4034828,30.2245109 16.5766212,29.9944061 16.8260295,29.958569 C17.075577,29.9227318 17.3070313,30.0947224 17.3430786,30.3428149" id="Fill-104" fill="#FEFDFD" mask="url(#mask-4)"></path>
                    <path d="M37.420542,29.3054314 C37.5286604,30.0495498 37.0094238,30.7399275 36.2608934,30.8474086 C35.512363,30.9547684 34.8178918,30.4387137 34.7098955,29.6945954 C34.6017771,28.950477 35.1208916,28.2600992 35.869422,28.1526182 C36.6180745,28.0451371 37.3124237,28.5613131 37.420542,29.3054314" id="Fill-105" fill="#1A4C4D" mask="url(#mask-4)"></path>
                    <path d="M35.6039481,29.4351226 C35.6399954,29.6832151 35.4668571,29.9133198 35.2174487,29.9491569 C34.9679012,29.9848557 34.736447,29.8128652 34.7003997,29.5647727 C34.6643524,29.3168185 34.8374908,29.0867138 35.0868991,29.0508767 C35.3364466,29.0150395 35.5679008,29.18703 35.6039481,29.4351226" id="Fill-106" fill="#FEFDFD" mask="url(#mask-4)"></path>
                    <path d="M28.3252855,39.798421 C23.2331909,40.5090508 18.8281074,38.307627 19.1953465,37.8378701 C19.5324461,37.4077757 22.9266508,39.2514369 28.1290116,38.5254216 C33.3281169,37.799806 36.0265941,35.1059466 36.4759553,35.4263444 C36.969948,35.7758148 33.4144396,39.0881909 28.3252855,39.798421" id="Fill-107" fill="#DF0A1D" mask="url(#mask-4)"></path>
                </g>
                <g id="Group" transform="translate(89.000000, 17.000000)">
                    <g id="Group-4">
                        <g id="Group-3">
                            <mask id="mask-6" fill="white">
                                <use xlink:href="#path-5"></use>
                            </mask>
                            <g id="Clip-2"></g>
                            <path d="M0.115166972,1.41945621 C1.4813817,0.647980318 3.14383546,0.0213478729 5.58012408,0.0213478729 C8.88883025,0.0213478729 10.6170713,1.33893437 10.6170713,3.1709979 L10.6170713,3.20320664 C10.6170713,4.42435865 10.0573886,5.17963432 8.64188257,5.75814538 C10.0242986,6.20810908 10.8801221,6.86704611 10.8801221,8.32928434 L10.8801221,8.3616848 C10.8801221,10.1937483 9.08599564,11.7523252 5.39906184,11.7523252 C3.02865867,11.7523252 1.38279901,11.2060229 -9.81899331e-06,10.3542168 L1.54726715,7.60621741 C2.78171098,8.31356341 4.08213846,8.69891792 5.30047915,8.69891792 C6.46913573,8.69891792 6.97903605,8.3616848 6.97903605,7.91152938 L6.97903605,7.87960822 C6.97903605,7.42945281 6.60080843,7.12414084 5.49764453,7.12414084 L2.89688778,7.12414084 L2.89688778,4.58511475 L5.46494728,4.58511475 C6.37006209,4.58511475 6.79797382,4.29590715 6.79797382,3.86195196 L6.79797382,3.82983908 C6.79797382,3.37987538 6.30417664,3.07456341 5.34977049,3.07456341 C4.06554436,3.07456341 2.60074694,3.52452711 1.59655849,4.10303817 L0.115166972,1.41945621 Z" id="Fill-1" fill="#F9C06B" mask="url(#mask-6)"></path>
                        </g>
                        <path d="M16.4657112,8.53938939 L19.9862323,8.53938939 L18.2336911,3.79138121 L16.4657112,8.53938939 Z M12.639675,8.40508733 L16.144086,0 L20.3880241,0 L23.8923392,8.40508733 L25.5321101,8.40508733 L25.5321101,14.5116279 L22.0758374,14.5116279 L22.0758374,11.8275882 L14.4561768,11.8275882 L14.4561768,14.5116279 L11,14.5116279 L11,8.40508733 L12.639675,8.40508733 Z" id="Fill-4" fill="#F9C06B"></path>
                        <g id="Group-8" transform="translate(26.000000, 0.000000)">
                            <mask id="mask-8" fill="white">
                                <use xlink:href="#path-7"></use>
                            </mask>
                            <g id="Clip-7"></g>
                            <path d="M8.73413612,5.91891106 L8.73413612,5.88679818 C8.73413612,4.5529156 7.79259057,3.34777209 6.30506294,3.34777209 C4.83458801,3.34777209 3.90930659,4.53700295 3.90930659,5.85458945 L3.90930659,5.88679818 C3.90930659,7.22077663 4.85124643,8.42592014 6.33837977,8.42592014 C7.8088547,8.42592014 8.73413612,7.23649756 8.73413612,5.91891106 M0.00965991039,5.91891106 L0.00965991039,5.88679818 C0.00965991039,2.6246093 2.76894431,0.0213574589 6.33837977,0.0213574589 C9.90771666,0.0213574589 12.6341771,2.59249643 12.6341771,5.85458945 L12.6341771,5.88679818 C12.6341771,9.14908293 9.87439983,11.7523348 6.30506294,11.7523348 C2.73612033,11.7523348 0.00965991039,9.18100408 0.00965991039,5.91891106" id="Fill-6" fill="#F9C06B" mask="url(#mask-8)"></path>
                        </g>
                        <path d="M45.1542888,5.33297503 C46.1959545,5.33297503 46.8899842,4.91310758 46.8899842,4.13579169 L46.8899842,4.10472132 C46.8899842,3.31173112 46.2479239,2.90753798 45.1717845,2.90753798 L44.0610677,2.90753798 L44.0610677,5.33297503 L45.1542888,5.33297503 Z M40,0 L45.467037,0 C48.6947307,0 50.8990826,1.29048721 50.8990826,3.87146163 L50.8990826,3.90262475 C50.8990826,6.53015836 48.660257,7.92943826 45.3800762,7.92943826 L44.0610677,7.92943826 L44.0610677,10.8837209 L40,10.8837209 L40,0 Z" id="Fill-9" fill="#F9C06B"></path>
                        <g id="Group-13" transform="translate(51.000000, 0.000000)">
                            <mask id="mask-10" fill="white">
                                <use xlink:href="#path-9"></use>
                            </mask>
                            <g id="Clip-12"></g>
                            <path d="M8.74655601,5.91891106 L8.74655601,5.88679818 C8.74655601,4.5529156 7.80501045,3.34777209 6.31748282,3.34777209 C4.84700789,3.34777209 3.92172648,4.53700295 3.92172648,5.85458945 L3.92172648,5.88679818 C3.92172648,7.22077663 4.86366631,8.42592014 6.35079966,8.42592014 C7.82127459,8.42592014 8.74655601,7.23649756 8.74655601,5.91891106 M0.0220797952,5.91891106 L0.0220797952,5.88679818 C0.0220797952,2.6246093 2.7813642,0.0213574589 6.35079966,0.0213574589 C9.92013655,0.0213574589 12.646597,2.59249643 12.646597,5.85458945 L12.646597,5.88679818 C12.646597,9.14908293 9.88681971,11.7523348 6.31748282,11.7523348 C2.74854022,11.7523348 0.0220797952,9.18100408 0.0220797952,5.91891106" id="Fill-11" fill="#F9C06B" mask="url(#mask-10)"></path>
                        </g>
                        <path d="M69.7396821,6.51448405 L67.782518,6.51448405 L67.782518,8.13172032 L69.7234532,8.13172032 C70.5692355,8.13172032 71.0004885,7.80497126 71.0004885,7.33854463 L71.0004885,7.30765975 C71.0004885,6.84123311 70.5859592,6.51448405 69.7396821,6.51448405 Z M70.7020353,3.49815338 C70.7020353,3.01623793 70.287407,2.75200061 69.4578536,2.75200061 L67.782518,2.75200061 L67.782518,4.27565476 L69.4745773,4.27565476 C70.3037349,4.27565476 70.7020353,4.01132469 70.7020353,3.5293165 L70.7020353,3.49815338 Z M64,0 L70.5028356,0 C72.1118703,0 73.1238997,0.341959633 73.8040286,0.979412457 C74.2189537,1.36811678 74.5175058,1.92784729 74.5175058,2.67427829 L74.5175058,2.70516318 C74.5175058,3.99574313 73.6879524,4.78864058 72.4437708,5.19283372 C73.9367294,5.59730509 74.8990826,6.34345786 74.8990826,7.83631988 L74.8990826,7.86720476 C74.8990826,9.60890803 73.3726766,10.8837209 70.4364357,10.8837209 L64,10.8837209 L64,0 Z" id="Fill-14" fill="#F9C06B"></path>
                        <g id="Group-18" transform="translate(75.000000, 0.000000)">
                            <mask id="mask-12" fill="white">
                                <use xlink:href="#path-11"></use>
                            </mask>
                            <g id="Clip-17"></g>
                            <path d="M8.75845347,5.91891106 L8.75845347,5.88679818 C8.75845347,4.5529156 7.81690792,3.34777209 6.32938029,3.34777209 C4.85890536,3.34777209 3.93362394,4.53700295 3.93362394,5.85458945 L3.93362394,5.88679818 C3.93362394,7.22077663 4.87556377,8.42592014 6.36269712,8.42592014 C7.83317205,8.42592014 8.75845347,7.23649756 8.75845347,5.91891106 M0.0339772562,5.91891106 L0.0339772562,5.88679818 C0.0339772562,2.6246093 2.79326166,0.0213574589 6.36269712,0.0213574589 C9.93203401,0.0213574589 12.6583959,2.59249643 12.6583959,5.85458945 L12.6583959,5.88679818 C12.6583959,9.14908293 9.89871718,11.7523348 6.32938029,11.7523348 C2.76043768,11.7523348 0.0339772562,9.18100408 0.0339772562,5.91891106" id="Fill-16" fill="#F9C06B" mask="url(#mask-12)"></path>
                        </g>
                        <g id="Group-21" transform="translate(89.000000, 0.000000)">
                            <mask id="mask-14" fill="white">
                                <use xlink:href="#path-13"></use>
                            </mask>
                            <g id="Clip-20"></g>
                            <polygon id="Fill-19" fill="#F9C06B" mask="url(#mask-14)" points="0.0748234485 0.0730428767 9.87778243 0.0730428767 9.87778243 3.26207981 3.85145351 3.26207981 3.85145351 4.44134774 9.46708114 4.44134774 9.46708114 7.24862369 3.85145351 7.24862369 3.85145351 8.51102099 9.95966802 8.51102099 9.95966802 11.7000579 0.0748234485 11.7000579"></polygon>
                        </g>
                    </g>
                    <g id="Group-2" transform="translate(0.000000, 15.000000)">
                        <polygon id="Fill-22" fill="#A4D1B1" points="0.908256881 2.51162791 11.8073394 2.51162791 11.8073394 13.3953488 8.04565572 13.3953488 8.04565572 5.68317902 4.66994061 5.68317902 4.66994061 13.3953488 0.908256881 13.3953488"></polygon>
                        <polygon id="Fill-24" fill="#A4D1B1" points="21.4845125 13.3953488 21.4845125 8.09316832 17.0144121 13.3953488 13.6238532 13.3953488 13.6238532 2.51162791 17.5709359 2.51162791 17.5709359 7.58017376 21.8554948 2.51162791 25.4311927 2.51162791 25.4311927 13.3953488"></polygon>
                        <polygon id="Fill-26" fill="#A4D1B1" points="27.9984198 5.59003282 24.5229358 5.59003282 24.5229358 2.51162791 35.4220183 2.51162791 35.4220183 5.59003282 31.9465343 5.59003282 31.9465343 13.3953488 27.9984198 13.3953488"></polygon>
                        <path d="M42.3530136,9.04703898 L41.2922711,6.20386726 L40.2315285,9.04703898 L42.3530136,9.04703898 Z M39.403222,1.60465116 L43.2481542,1.60465116 L48.1376147,13.3953488 L43.9276661,13.3953488 L43.3144938,11.8232691 L39.2538342,11.8232691 L38.6573704,13.3953488 L34.5137615,13.3953488 L39.403222,1.60465116 Z" id="Fill-28" fill="#A4D1B1"></path>
                        <polygon id="Fill-30" fill="#A4D1B1" points="49.0458716 2.51162791 52.7854781 2.51162791 52.7854781 6.35189911 56.2053476 6.35189911 56.2053476 2.51162791 59.9449541 2.51162791 59.9449541 13.3953488 56.2053476 13.3953488 56.2053476 9.49247207 52.7854781 9.49247207 52.7854781 13.3953488 49.0458716 13.3953488"></polygon>
                        <polygon id="Fill-32" fill="#A4D1B1" points="69.6221271 13.3953488 69.6221271 8.09316832 65.1520268 13.3953488 61.7614679 13.3953488 61.7614679 2.51162791 65.7085506 2.51162791 65.7085506 7.58017376 69.9931094 2.51162791 73.5688073 2.51162791 73.5688073 13.3953488"></polygon>
                        <polygon id="Fill-34" fill="#A4D1B1" points="74.4770642 2.51162791 84.3851264 2.51162791 84.3851264 5.49684634 78.2941857 5.49684634 78.2941857 6.60074461 83.9700217 6.60074461 83.9700217 9.228323 78.2941857 9.228323 78.2941857 10.4101304 84.4678899 10.4101304 84.4678899 13.3953488 74.4770642 13.3953488"></polygon>
                        <path d="M8.14784931,12.177568 L11.511151,12.177568 L11.511151,1.00838072 L1.20453864,1.00838072 L1.20453864,12.177568 L4.56765373,12.177568 L4.56765373,4.04334346 L8.14784931,4.04334346 L8.14784931,12.177568 Z M11.8073394,12.4883721 L7.85147427,12.4883721 L7.85147427,4.35404976 L4.86402877,4.35404976 L4.86402877,12.4883721 L0.908256881,12.4883721 L0.908256881,0.697674419 L11.8073394,0.697674419 L11.8073394,12.4883721 Z" id="Fill-36" fill="#266D76"></path>
                        <path d="M21.5881228,12.177568 L25.1199498,12.177568 L25.1199498,1.00838072 L21.8696814,1.00838072 L17.4669231,6.65186766 L17.4669231,1.00838072 L13.935096,1.00838072 L13.935096,12.177568 L17.0043205,12.177568 L21.5881228,6.28774649 L21.5881228,12.177568 Z M25.4311927,12.4883721 L21.27688,12.4883721 L21.27688,7.19374494 L17.1561701,12.4883721 L13.6238532,12.4883721 L13.6238532,0.697674419 L17.7781659,0.697674419 L17.7781659,5.74743449 L21.7178318,0.697674419 L25.4311927,0.697674419 L25.4311927,12.4883721 Z" id="Fill-38" fill="#266D76"></path>
                        <path d="M29.1181259,12.177568 L32.6429509,12.177568 L32.6429509,3.9451227 L36.0197472,3.9451227 L36.0197472,1.00838072 L25.7418184,1.00838072 L25.7418184,3.9451227 L29.1181259,3.9451227 L29.1181259,12.177568 Z M32.9535767,12.4883721 L28.8075001,12.4883721 L28.8075001,4.255829 L25.4311927,4.255829 L25.4311927,0.697674419 L36.3302752,0.697674419 L36.3302752,4.255829 L32.9535767,4.255829 L32.9535767,12.4883721 Z" id="Fill-40" fill="#266D76"></path>
                        <path d="M40.4873905,7.94505072 L42.0994829,7.94505072 L41.2934367,5.76865181 L40.4873905,7.94505072 Z M42.5379109,8.25371637 L40.0489625,8.25371637 L41.2934367,4.89317614 L42.5379109,8.25371637 Z M43.9439765,12.1797064 L47.6818904,12.1797064 L43.0829835,1.00624292 L39.5680104,1.00624292 L34.9694858,12.1797064 L38.6420368,12.1797064 L39.2189308,10.648717 L43.3514107,10.648717 L43.9439765,12.1797064 Z M48.1376147,12.4883721 L43.7372809,12.4883721 L43.1446195,10.9573827 L39.4274421,10.9573827 L38.8504525,12.4883721 L34.5137615,12.4883721 L39.3661883,0.697674419 L43.2848056,0.697674419 L48.1376147,12.4883721 Z" id="Fill-42" fill="#266D76"></path>
                        <path d="M56.9114692,12.177568 L60.5339769,12.177568 L60.5339769,1.00838072 L56.9114692,1.00838072 L56.9114692,5.05900871 L52.9876134,5.05900871 L52.9876134,1.00838072 L49.3650051,1.00838072 L49.3650051,12.177568 L52.9876134,12.177568 L52.9876134,8.06129642 L56.9114692,8.06129642 L56.9114692,12.177568 Z M60.853211,12.4883721 L56.5922351,12.4883721 L56.5922351,8.37210055 L53.3067469,8.37210055 L53.3067469,12.4883721 L49.0458716,12.4883721 L49.0458716,0.697674419 L53.3067469,0.697674419 L53.3067469,4.74830241 L56.5922351,4.74830241 L56.5922351,0.697674419 L60.853211,0.697674419 L60.853211,12.4883721 Z" id="Fill-44" fill="#266D76"></path>
                        <path d="M69.725865,12.177568 L73.2575749,12.177568 L73.2575749,1.00838072 L70.0069245,1.00838072 L65.6044102,6.65186766 L65.6044102,1.00838072 L62.0726024,1.00838072 L62.0726024,12.177568 L65.1422148,12.177568 L69.725865,6.28774649 L69.725865,12.177568 Z M73.5688073,12.4883721 L69.4146325,12.4883721 L69.4146325,7.19374494 L65.2940594,12.4883721 L61.7614679,12.4883721 L61.7614679,0.697674419 L65.9155448,0.697674419 L65.9155448,5.74743449 L69.8551778,0.697674419 L73.5688073,0.697674419 L73.5688073,12.4883721 Z" id="Fill-46" fill="#266D76"></path>
                        <path d="M74.7819862,12.177568 L84.1629679,12.177568 L84.1629679,9.33953589 L78.1776864,9.33953589 L78.1776864,7.78228685 L83.6802948,7.78228685 L83.6802948,5.32158293 L78.1776864,5.32158293 L78.1776864,3.8464128 L84.0828263,3.8464128 L84.0828263,1.00838072 L74.7819862,1.00838072 L74.7819862,12.177568 Z M84.4678899,12.4883721 L74.4770642,12.4883721 L74.4770642,0.697674419 L84.3876523,0.697674419 L84.3876523,4.15721693 L78.4826084,4.15721693 L78.4826084,5.0107788 L83.9852168,5.0107788 L83.9852168,8.09309098 L78.4826084,8.09309098 L78.4826084,9.02882958 L84.4678899,9.02882958 L84.4678899,12.4883721 Z" id="Fill-48" fill="#266D76"></path>
                    </g>
                    <path d="M6.44361181,36.7757305 L6.44361181,36.7442333 C6.44361181,35.8878507 5.79289292,35.2062632 4.97920311,35.2062632 C4.1494977,35.2062632 3.54760214,35.8878507 3.54760214,36.7122632 L3.54760214,36.7442333 C3.54760214,37.600143 4.19822396,38.2822035 5.01201083,38.2822035 C5.84161918,38.2822035 6.44361181,37.600143 6.44361181,36.7757305 M0,36.7757305 L0,36.7442333 C0,34.3023983 2.08270812,32.2093023 5.01201083,32.2093023 C7.92442437,32.2093023 9.99082569,34.2704282 9.99082569,36.7122632 L9.99082569,36.7442333 C9.99082569,39.1860683 7.9080205,41.2790698 4.97920311,41.2790698 C2.06678958,41.2790698 0,39.2175655 0,36.7757305" id="Fill-50" fill="#A4D1B1"></path>
                    <polygon id="Fill-52" fill="#A4D1B1" points="13.5962016 35.9268953 10.8990826 35.9268953 10.8990826 33.1162791 19.9816514 33.1162791 19.9816514 35.9268953 17.2845323 35.9268953 17.2845323 41.2790698 13.5962016 41.2790698"></polygon>
                    <path d="M32.3621879,37.8375527 L31.3014454,34.9942607 L30.2407029,37.8375527 L32.3621879,37.8375527 Z M29.4123963,30.3953488 L33.2573285,30.3953488 L38.146789,42.1860465 L33.9368404,42.1860465 L33.3236681,40.6139003 L29.2630085,40.6139003 L28.6665447,42.1860465 L24.5229358,42.1860465 L29.4123963,30.3953488 Z" id="Fill-54" fill="#F9C06B"></path>
                    <path d="M46.9005093,38.8949103 L49.3069111,38.8949103 L48.1123136,35.98196 L46.9005093,38.8949103 Z M53.2153924,38.7695438 L54.4954128,38.7695438 L54.4954128,44 L50.9623242,44 L50.9623242,41.6510123 L45.3129052,41.6510123 L45.3129052,44 L41.7798165,44 L41.7798165,38.7695438 L43.0431393,38.7695438 L45.7566157,33.1162791 L50.5019159,33.1162791 L53.2153924,38.7695438 Z" id="Fill-56" fill="#A4D1B1"></path>
                    <path d="M60.9390247,36.7757305 L60.9390247,36.7442333 C60.9390247,35.8878507 60.2883058,35.2062632 59.474616,35.2062632 C58.6449105,35.2062632 58.043015,35.8878507 58.043015,36.7122632 L58.043015,36.7442333 C58.043015,37.600143 58.6936368,38.2822035 59.5074237,38.2822035 C60.337032,38.2822035 60.9390247,37.600143 60.9390247,36.7757305 M54.4954128,36.7757305 L54.4954128,36.7442333 C54.4954128,34.3023983 56.578121,32.2093023 59.5074237,32.2093023 C62.4198372,32.2093023 64.4862385,34.2704282 64.4862385,36.7122632 L64.4862385,36.7442333 C64.4862385,39.1860683 62.4034333,41.2790698 59.474616,41.2790698 C56.5622024,41.2790698 54.4954128,39.2175655 54.4954128,36.7757305" id="Fill-58" fill="#A4D1B1"></path>
                    <path d="M74.5803782,33.4428018 C73.7214055,33.4428018 73.1644495,33.8161164 73.1644495,34.5001401 L73.1644495,34.5313965 C73.1644495,35.2310948 73.7214055,35.5730602 74.6124592,35.5730602 L76.2033147,35.5730602 L76.2033147,33.4428018 L74.5803782,33.4428018 Z M79.9266055,41.2790698 L76.2033147,41.2790698 L76.2033147,38.1693822 L75.3123559,38.1693822 L73.2757837,41.2790698 L69.0275229,41.2790698 L71.5734991,37.5319185 C69.9981147,36.832313 69.4571991,35.5108257 69.4571991,34.282551 L69.4571991,34.2512019 C69.4571991,31.8102344 71.5098117,30.3953488 74.5011249,30.3953488 L79.9266055,30.3953488 L79.9266055,41.2790698 Z" id="Fill-60" fill="#F9C06B"></path>
                    <path d="M6.34069564,33.9059067 C5.58253522,33.9059067 4.98862063,34.5400973 4.98862063,35.3499317 C4.98862063,36.2121368 5.59763474,36.8611323 6.37541428,36.8611323 C7.1335747,36.8611323 7.72728386,36.2269417 7.72728386,35.4175102 C7.72728386,34.5549022 7.11816703,33.9059067 6.34069564,33.9059067 M6.37541428,37.181098 C5.43092367,37.181098 4.66228603,36.3746879 4.66228603,35.3835699 C4.66228603,34.3609287 5.39959473,33.5859411 6.34069564,33.5859411 C7.28518624,33.5859411 8.05351574,34.3923512 8.05351574,35.3835699 C8.05351574,36.4065132 7.31630975,37.181098 6.37541428,37.181098 M6.37541428,30.7153145 C3.49263791,30.7153145 1.23459148,32.7656325 1.23459148,35.3835699 C1.23459148,38.0166141 3.47733295,40.0522281 6.34069564,40.0522281 C9.22316386,40.0522281 11.4810049,38.0014065 11.4810049,35.3835699 C11.4810049,32.7508277 9.23846882,30.7153145 6.37541428,30.7153145 M6.34069564,40.372093 C3.2945979,40.372093 0.908256881,38.1957828 0.908256881,35.4175102 C0.908256881,32.5865646 3.30969742,30.3953488 6.37541428,30.3953488 C9.42120387,30.3953488 11.8073394,32.571659 11.8073394,35.3499317 C11.8073394,38.180978 9.40610435,40.372093 6.34069564,40.372093" id="Fill-62" fill="#266D76"></path>
                    <path d="M13.8057033,40.0678425 L17.0750306,40.0678425 L17.0750306,34.32041 L19.6838177,34.32041 L19.6838177,31.6064803 L11.1969163,31.6064803 L11.1969163,34.32041 L13.8057033,34.32041 L13.8057033,40.0678425 Z M17.3728643,40.372093 L13.5078696,40.372093 L13.5078696,34.6246605 L10.8990826,34.6246605 L10.8990826,31.3023256 L19.9816514,31.3023256 L19.9816514,34.6246605 L17.3728643,34.6246605 L17.3728643,40.372093 Z" id="Fill-64" fill="#266D76"></path>
                    <path d="M48.0680695,37.3963321 L49.957944,37.3963321 L49.0198577,34.9221012 L48.0680695,37.3963321 Z M50.4134838,37.7093176 L47.6099483,37.7093176 L49.0224393,34.0395943 L50.4134838,37.7093176 Z M51.9582282,42.7800377 L55.0883266,42.7800377 L55.0883266,37.577109 L53.8949673,37.577109 L51.2484083,31.6152126 L46.8266542,31.6152126 L44.1799959,37.577109 L43.0035158,37.577109 L43.0035158,42.7800377 L46.1335149,42.7800377 L46.1335149,40.3028514 L51.9582282,40.3028514 L51.9582282,42.7800377 Z M55.4036697,43.0930233 L51.6428851,43.0930233 L51.6428851,40.6158369 L46.4489573,40.6158369 L46.4489573,43.0930233 L42.6880734,43.0930233 L42.6880734,37.2641235 L43.9746654,37.2641235 L46.6212244,31.3023256 L51.4537388,31.3023256 L54.1003971,37.2641235 L55.4036697,37.2641235 L55.4036697,43.0930233 Z" id="Fill-66" fill="#266D76"></path>
                    <path d="M59.9273892,33.9059067 C59.1694271,33.9059067 58.5755069,34.5400973 58.5755069,35.3499317 C58.5755069,36.2121368 59.1845267,36.8611323 59.9621082,36.8611323 C60.7204812,36.8611323 61.3144014,36.2269417 61.3144014,35.4175102 C61.3144014,34.5549022 60.7053815,33.9059067 59.9273892,33.9059067 M59.9621082,37.181098 C59.0178141,37.181098 58.2491692,36.3746879 58.2491692,35.3835699 C58.2491692,34.3609287 58.9862794,33.5859411 59.9273892,33.5859411 C60.8720942,33.5859411 61.640739,34.3923512 61.640739,35.3835699 C61.640739,36.4065132 60.903218,37.181098 59.9621082,37.181098 M59.9621082,30.7153145 C57.0796128,30.7153145 54.8216478,32.7656325 54.8216478,35.3835699 C54.8216478,38.0166141 57.0644104,40.0522281 59.9273892,40.0522281 C62.8102955,40.0522281 65.0682605,38.0014065 65.0682605,35.3835699 C65.0682605,32.7508277 62.8254979,30.7153145 59.9621082,30.7153145 M59.9273892,40.372093 C56.8812628,40.372093 54.4954128,38.1957828 54.4954128,35.4175102 C54.4954128,32.5865646 56.896876,30.3953488 59.9621082,30.3953488 C63.0081319,30.3953488 65.3944954,32.571659 65.3944954,35.3499317 C65.3944954,38.180978 62.9930322,40.372093 59.9273892,40.372093" id="Fill-68" fill="#266D76"></path>
                </g>
            </g>
        </g>
    </g>
</svg>