<?xml version="1.0" encoding="UTF-8" standalone="no"?>
<svg width="188px" height="202px" viewBox="0 0 188 202" version="1.1" xmlns="http://www.w3.org/2000/svg" xmlns:xlink="http://www.w3.org/1999/xlink">
    <!-- Generator: Sketch 50.2 (55047) - http://www.bohemiancoding.com/sketch -->
    <title>Teacher</title>
    <desc>Created with Sketch.</desc>
    <defs>
        <path d="M52.8456099,23.091515 C60.1454146,9.37959988 74.938686,0 92,0 C108.544283,0 122.955903,8.81972921 130.470244,21.8570012 C163.171666,36.2693277 186,68.9687423 186,107 C186,158.362482 144.362482,200 93,200 C41.6375183,200 0,158.362482 0,107 C0,70.0181336 21.5859163,38.077928 52.8456016,23.0915305 Z" id="path-1"></path>
        <polygon id="path-3" points="0.252951197 0.202226345 90.6759363 0.202226345 90.6759363 90.888742 0.252951197 90.888742"></polygon>
        <polygon id="path-5" points="0 200 132 200 132 0 0 0"></polygon>
    </defs>
    <g id="1440" stroke="none" stroke-width="1" fill="none" fill-rule="evenodd">
        <g id="Main/About_1440" transform="translate(-533.000000, -2812.000000)">
            <g id="Teacher" transform="translate(534.000000, 2813.000000)">
                <mask id="mask-2" fill="white">
                    <use xlink:href="#path-1"></use>
                </mask>
                <use id="Mask" stroke="#BFE1A9" fill="#FFFFFF" xlink:href="#path-1"></use>
                <g mask="url(#mask-2)">
                    <g transform="translate(26.000000, 0.000000)">
                        <path d="M102.448806,190.882985 C101.353234,200.067026 100.422944,199.698736 88.0129292,199.698736 L44.7579316,199.698736 C32.3479163,199.698736 30.8700718,202.639022 29.7745002,190.148262 L22.287863,119.244677 C22.287863,107.07112 1.28917524,94.6323751 44.7579316,97.2025133 L88.0129292,97.2025133 C131.983996,93.759717 110.482998,107.07112 110.482998,119.244677 L102.448806,190.882985 Z" id="Fill-1" stroke="none" fill="#256D77" fill-rule="evenodd"></path>
                        <path d="M98.5217391,98.0450658 C98.5217391,98.0450658 121.019409,91.0807293 124.729307,108.280973 C127.505575,121.152713 132,172.076841 132,172.076841 L114.954537,181.818182 L102.434155,116.69929 L98.5217391,98.0450658 Z" id="Fill-3" stroke="none" fill="#256D77" fill-rule="evenodd"></path>
                        <path d="M32.5217391,97.0862444 C32.5217391,97.0862444 11.7526619,93.2402453 9.27340322,108.40615 C6.87500513,123.08216 0,165.975282 0,165.975282 L21.0390771,168.421053 L31.858125,116.005077 L32.5217391,97.0862444 Z" id="Fill-5" stroke="none" fill="#256D77" fill-rule="evenodd"></path>
                        <path d="M44.9565217,97.0173703 L68.3434153,134.92823 L89.9130435,96.6507177 C89.9130435,96.6507177 83.698199,97.0187662 68.7089944,97.0187662 C53.720252,97.0187662 44.9565217,97.0173703 44.9565217,97.0173703" id="Fill-7" stroke="none" fill="#FFFFFF" fill-rule="evenodd"></path>
                        <path d="M75.5652174,99.5399973 C75.5652174,99.5399973 75.2912282,103.049383 67.504953,103.335434 C60.1163019,103.606406 58.3700169,99.8109694 58.3700169,99.8109694 L58.3478261,80.3827751 L75.5430265,80.3827751 L75.5652174,99.5399973 Z" id="Fill-9" stroke="none" fill="#F7CAB2" fill-rule="evenodd"></path>
                        <path d="M74.6086957,99.5399973 C74.6086957,99.5399973 74.3347064,103.049383 66.5484313,103.335434 C59.1597801,103.606406 57.4134952,99.8109694 57.4134952,99.8109694 L57.3913043,80.3827751 L74.5865048,80.3827751 L74.6086957,99.5399973 Z" id="Stroke-11" stroke="#256D77" stroke-width="1.542" fill="none"></path>
                        <g id="Group-15" stroke="none" stroke-width="1" fill="none" fill-rule="evenodd" transform="translate(20.086957, 0.000000)">
                            <mask id="mask-4" fill="white">
                                <use xlink:href="#path-3"></use>
                            </mask>
                            <g id="Clip-14"></g>
                            <path d="M61.5952659,2.66168831 C70.8994791,6.1932282 80.941258,10.040167 86.0414853,26.0508349 C97.2613397,61.2725417 84.5820371,89.6148423 84.5820371,89.6148423 C84.5820371,89.6148423 79.8388303,91.4492579 67.1595277,90.7154917 C52.4423483,89.8639147 52.3823836,85.2122449 52.3823836,85.2122449 L39.2468881,78.8833952 C39.2468881,78.8833952 32.1470691,88.891744 23.1016266,90.1649351 C9.41906864,92.0911874 2.85109027,88.5141929 2.85109027,88.5141929 C2.85109027,88.5141929 -0.979730744,58.2456401 0.661917899,44.4872913 C2.06232399,32.7521336 6.42175679,17.540167 19.5438755,8.43998145 C30.1253366,1.10231911 39.5660847,0.506307978 43.7165637,0.276716141 C50.6964533,-0.108719852 57.3303928,1.04294991 61.5952659,2.66168831" id="Fill-13" fill="#256D77" mask="url(#mask-4)"></path>
                        </g>
                        <path d="M38.2608696,62.5336345 C36.4356139,63.5055951 34.4117064,63.3652979 32.8932126,61.952666 C31.3747189,60.5400341 31.1310211,57.8477077 30.7963308,55.8131682 C30.537768,54.2409195 30.4584874,52.3107979 31.1431835,50.8687266 C31.8278796,49.4271153 33.440519,49.0177235 35.036942,48.8038278" id="Fill-16" stroke="none" fill="#F9C6AA" fill-rule="evenodd"></path>
                        <path d="M38.2608696,64.3644983 C36.2072043,65.4656871 33.9305564,65.3068756 32.2222592,63.7058835 C30.5144256,62.1048913 30.2399855,59.0536111 29.8635575,56.7477437 C29.5724284,54.9660021 29.4829572,52.7784087 30.2534294,51.1445097 C31.0239015,49.5106107 32.8383588,49.0465757 34.6342729,48.8038278" id="Stroke-18" stroke="#256D77" stroke-width="2.043" fill="none"></path>
                        <path d="M34.8503186,53.5885167 C34.0132921,53.6715137 33.5676505,54.551668 33.4944304,55.3198728 C33.4428076,55.8583882 33.5033854,56.4330941 33.8436743,56.8741363 C34.1844901,57.3151785 34.8661215,57.5651346 35.3913043,57.3200039" id="Stroke-20" stroke="#256D77" stroke-width="1.9" fill="none"></path>
                        <path d="M92.7826087,63.4115377 C94.8405746,64.5098139 97.1211832,64.3472908 98.829477,62.7437894 C100.538226,61.1402879 100.809131,58.0885649 101.182934,55.7824564 C101.472051,54.000587 101.558558,51.8130887 100.785,50.1801611 C100.011441,48.5476862 98.1934199,48.0863739 96.3945209,47.84689" id="Fill-22" stroke="none" fill="#F9C6AA" fill-rule="evenodd"></path>
                        <path d="M94.0184095,26.8374509 C94.0184095,26.8374509 98.6062434,49.0644792 92.4057895,69.6959204 C88.3105715,83.3223452 80.2251648,90.6993872 69.3694908,90.8898014 C56.6042333,91.1135727 47.7989567,89.6277865 39.6415166,73.6839615 C31.5575041,57.8832945 33.74918,28.4585192 33.74918,28.4585192 C33.74918,28.4585192 40.3190958,18.0904463 69.0757802,20.443057 C90.3512095,22.1841186 94.0184095,26.8374509 94.0184095,26.8374509" id="Fill-24" stroke="none" fill="#FFD6BB" fill-rule="evenodd"></path>
                        <path d="M94.1232695,28.0982211 C94.1232695,28.0982211 98.4895538,50.4396926 92.4647905,71.0366044 C90.9545709,76.1985579 88.9760911,79.4132679 86.4658114,82.6483389 C82.6759889,87.5326437 76.1732963,91.2466588 70.2056267,91.6696104 C63.8254092,92.1221779 58.2693665,92.1869627 50.2177779,87.3470817 C45.824328,84.7061791 40.839222,78.6076237 38.3353883,71.286951 C32.5224241,54.2911439 34.9281855,24.1088709 34.9281855,24.1088709 C34.9281855,24.1088709 40.2622997,15.350903 69.3584303,19.1269264 C98.4545609,22.9029497 94.1232695,28.0982211 94.1232695,28.0982211 Z" id="Stroke-26" stroke="#256D77" stroke-width="1.969" fill="none"></path>
                        <path d="M93.7391304,63.4530816 C95.5686122,64.4864354 97.5952862,64.3336584 99.1140677,62.8246339 C100.632849,61.3151407 100.873664,58.4433077 101.206176,56.2725619 C101.463015,54.5957638 101.540023,52.5365546 100.852298,50.9998802 C100.164573,49.4632059 98.5487534,49.0292441 96.9494035,48.8038278" id="Stroke-28" stroke="#256D77" stroke-width="1.925" fill="none"></path>
                        <path d="M54.5217391,40.6460512 C52.1503643,39.8960567 49.4586762,40.0810853 47.2304099,41.1481433 C46.3078884,41.5896071 45.437712,42.2039738 44.9565217,43.062201" id="Stroke-30" stroke="#256D77" stroke-width="2.076" fill="none"></path>
                        <path d="M86.0869565,42.1052632 C83.3633924,40.2896634 79.733387,39.7174505 76.5217391,40.5971015" id="Stroke-32" stroke="#256D77" stroke-width="2.076" fill="none"></path>
                        <path d="M97.0623498,54.5454545 C98.0771908,55.1776633 98.6501391,56.4070646 98.4972409,57.6254335 C98.4389939,58.0921551 98.2704138,58.5713482 97.9248526,58.9171923 C97.5798515,59.2625567 97.0326662,59.4400356 96.6086957,59.2568006" id="Stroke-34" stroke="#256D77" stroke-width="2.357" fill="none"></path>
                        <path d="M89.3890551,62.2694292 L85.5050074,63.9337955 C84.2993143,64.4506583 82.9156422,63.8224487 82.4305356,62.5373421 C81.9458853,61.2527216 82.5354975,59.7784713 83.7411906,59.2616085 L87.6252383,57.5972422 C88.8313878,57.0803793 90.2146034,57.7090751 90.6997101,58.9936956 C91.1848167,60.2788023 90.5947482,61.7525663 89.3890551,62.2694292" id="Fill-36" stroke="none" fill="#F9C6AA" fill-rule="evenodd"></path>
                        <path d="M48.3501439,64.0092856 L43.9526041,62.6857419 C42.5871202,62.274888 41.7934268,60.7770427 42.188432,59.3567712 C42.5834371,57.9364997 44.0235025,57.1109609 45.3889865,57.5218149 L49.7865263,58.8453585 C51.1520103,59.2562125 51.9457036,60.7540578 51.5506984,62.1743293 C51.1556933,63.5946008 49.7156279,64.4201395 48.3501439,64.0092856" id="Fill-38" stroke="none" fill="#F9C6AA" fill-rule="evenodd"></path>
                        <path d="M84.173913,49.2822967 C84.173913,51.1320652 82.6750513,52.6315789 80.826087,52.6315789 C78.9771226,52.6315789 77.4782609,51.1320652 77.4782609,49.2822967 C77.4782609,47.4325281 78.9771226,45.9330144 80.826087,45.9330144 C82.6750513,45.9330144 84.173913,47.4325281 84.173913,49.2822967" id="Fill-40" stroke="none" fill="#256D77" fill-rule="evenodd"></path>
                        <path d="M93.7391304,23.3561916 C89.7089439,28.6268323 77.8599719,35.1225384 62.1195285,41.1427014 C57.1681431,43.03611 52.2577206,43.9378429 47.206721,45.247316 C43.5293736,46.2007084 37.8173824,47.2993927 33.2611955,47.84689 C31.486759,45.4050617 30.1205546,36.4952019 30.7754949,31.8389389 C35.539289,-2.02332497 67.0643971,0.444794268 79.378856,3.65413339 C83.0403769,4.60844823 97.4942142,14.4758515 89.8727953,21.4406432" id="Fill-42" stroke="none" fill="#256D77" fill-rule="evenodd"></path>
                        <path d="M81.207478,48.6529973 C81.0254111,48.8400314 80.7139541,48.8551453 80.5114303,48.6870035 C80.3089066,48.5188617 80.2920296,48.2312259 80.4740964,48.0441918 L83.3140321,45.126743 C83.496099,44.9401812 83.8080674,44.924595 84.0105912,45.0927368 C84.213115,45.2608786 84.2294805,45.5489867 84.0474137,45.7360208 L81.207478,48.6529973 Z" id="Fill-44" stroke="none" fill="#256D77" fill-rule="evenodd"></path>
                        <path d="M81.9689198,49.6860319 C81.7779256,49.8169278 81.5146514,49.7714361 81.380605,49.5843194 C81.2469966,49.3972027 81.293431,49.1388444 81.4848633,49.0079485 L84.4658628,46.9646858 C84.656857,46.8337899 84.9201312,46.8792816 85.0541776,47.0663983 C85.187786,47.253515 85.1413516,47.5114442 84.9499193,47.6427692 L81.9689198,49.6860319 Z" id="Fill-46" stroke="none" fill="#256D77" fill-rule="evenodd"></path>
                        <path d="M81.3043478,48.3253589 C81.3043478,48.5893834 81.0903095,48.8038278 80.8258854,48.8038278 C80.5618645,48.8038278 80.3478261,48.5893834 80.3478261,48.3253589 C80.3478261,48.0613343 80.5618645,47.84689 80.8258854,47.84689 C81.0903095,47.84689 81.3043478,48.0613343 81.3043478,48.3253589" id="Fill-48" stroke="none" fill="#FFFFFF" fill-rule="evenodd"></path>
                        <path d="M46.8695652,44.0191388 C49.5931293,42.203539 53.2231347,41.6313261 56.4347826,42.5109771" id="Stroke-50" stroke="#256D77" stroke-width="2.076" fill="none"></path>
                        <path d="M49.7391304,49.2822967 C49.7391304,51.1320652 51.2379922,52.6315789 53.0869565,52.6315789 C54.9359209,52.6315789 56.4347826,51.1320652 56.4347826,49.2822967 C56.4347826,47.4325281 54.9359209,45.9330144 53.0869565,45.9330144 C51.2379922,45.9330144 49.7391304,47.4325281 49.7391304,49.2822967" id="Fill-52" stroke="none" fill="#256D77" fill-rule="evenodd"></path>
                        <path d="M52.7055655,48.6529973 C52.8876323,48.8400314 53.1996008,48.8551453 53.4016131,48.6870035 C53.6041369,48.5188617 53.6210139,48.2312259 53.4389471,48.0441918 L50.5990113,45.126743 C50.4169445,44.9401812 50.104976,44.924595 49.9024523,45.0927368 C49.6999285,45.2608786 49.6835629,45.5489867 49.8656298,45.7360208 L52.7055655,48.6529973 Z" id="Fill-54" stroke="none" fill="#256D77" fill-rule="evenodd"></path>
                        <path d="M51.9441237,49.6860319 C52.1351179,49.8169278 52.3983921,49.7714361 52.5324385,49.5843194 C52.6660468,49.3972027 52.6196125,49.1388444 52.4281802,49.0079485 L49.4471807,46.9646858 C49.2561864,46.8337899 48.9929123,46.8792816 48.8588659,47.0663983 C48.7252575,47.253515 48.7716919,47.5114442 48.9631242,47.6427692 L51.9441237,49.6860319 Z" id="Fill-56" stroke="none" fill="#256D77" fill-rule="evenodd"></path>
                        <path d="M52.6086957,48.3253589 C52.6086957,48.5893834 52.822734,48.8038278 53.0871581,48.8038278 C53.351179,48.8038278 53.5652174,48.5893834 53.5652174,48.3253589 C53.5652174,48.0613343 53.351179,47.84689 53.0871581,47.84689 C52.822734,47.84689 52.6086957,48.0613343 52.6086957,48.3253589" id="Fill-58" stroke="none" fill="#FFFFFF" fill-rule="evenodd"></path>
                        <path d="M90.8695652,48.8038278 C90.8695652,51.4463426 88.7877449,53.5885167 86.2196805,53.5885167 L75.4324934,53.5885167 C72.8644291,53.5885167 70.7826087,51.4463426 70.7826087,48.8038278 C70.7826087,46.1613129 72.8644291,44.0191388 75.4324934,44.0191388 L86.2196805,44.0191388 C88.7877449,44.0191388 90.8695652,46.1613129 90.8695652,48.8038278 Z" id="Stroke-60" stroke="#256D77" stroke-width="2.373" fill="none"></path>
                        <path d="M62.173913,48.8038278 C62.173913,51.4463426 60.0920927,53.5885167 57.5240283,53.5885167 L46.7368412,53.5885167 C44.1687769,53.5885167 42.0869565,51.4463426 42.0869565,48.8038278 C42.0869565,46.1613129 44.1687769,44.0191388 46.7368412,44.0191388 L57.5240283,44.0191388 C60.0920927,44.0191388 62.173913,46.1613129 62.173913,48.8038278 Z" id="Stroke-62" stroke="#256D77" stroke-width="2.373" fill="none"></path>
                        <mask id="mask-6" fill="white">
                            <use xlink:href="#path-5"></use>
                        </mask>
                        <g id="Clip-65" stroke="none" fill="none"></g>
                        <polygon id="Fill-64" stroke="none" fill="#256D77" fill-rule="evenodd" mask="url(#mask-6)" points="62.173913 49.7607656 71.7391304 49.7607656 71.7391304 47.84689 62.173913 47.84689"></polygon>
                        <polygon id="Fill-66" stroke="none" fill="#256D77" fill-rule="evenodd" mask="url(#mask-6)" points="100.260101 49.7607656 90.8695652 48.8108346 91.0442464 46.8899522 100.434783 47.8393826"></polygon>
                        <polygon id="Fill-67" stroke="none" fill="#256D77" fill-rule="evenodd" mask="url(#mask-6)" points="33.652942 49.7607656 43.0434783 48.8108346 42.8687971 46.8899522 33.4782609 47.8393826"></polygon>
                        <path d="M64.9613248,51.6746411 L64.3073156,63.3125233 C64.3073156,63.3125233 62.5666921,67.6594755 68.8695652,66.8955918" id="Stroke-68" stroke="#256D77" stroke-width="2.373" fill="none" mask="url(#mask-6)"></path>
                        <path d="M60.2608696,72.9966573 C60.2608696,72.9966573 61.7608515,71.7703349 66.5817582,71.7703349 C71.4026648,71.7703349 73.6521739,73.279508 73.6521739,73.279508 C73.6521739,73.279508 73.5450323,78.5620907 66.9031829,78.4676481 C60.2608696,78.3732055 60.2608696,72.9966573 60.2608696,72.9966573" id="Fill-69" stroke="none" fill="#F4B79F" fill-rule="evenodd" mask="url(#mask-6)"></path>
                        <path d="M76.1256321,70.1291678 C72.2258541,74.7551292 63.1645218,75.2525392 58.7866119,71.0493516 C58.0242493,70.317231 56.8788137,71.500605 57.6440139,72.2356718 C62.6513931,77.0433131 72.7631022,76.6593303 77.2682302,71.315488 C77.9501947,70.5062762 76.811853,69.3150457 76.1256321,70.1291678" id="Fill-70" stroke="none" fill="#256D77" fill-rule="evenodd" mask="url(#mask-6)"></path>
                        <path d="M70.7826087,77.5119617 C69.2481449,78.3779795 67.6038821,78.6624947 66,78.3397843" id="Stroke-71" stroke="#256D77" stroke-width="1.139" fill="none" mask="url(#mask-6)"></path>
                        <path d="M111.435071,166.324106 C111.435071,166.324106 111.148545,185.059582 109.875451,191.238652 C108.602815,197.417722 109.168991,199.720662 109.168991,199.720662 L125.82099,200.956938 C125.82099,200.956938 131.094451,182.281081 131.043106,174.873129 C130.944541,160.541569 127.973835,153.110048 127.973835,153.110048 L111.435071,166.324106 Z" id="Fill-72" stroke="none" fill="#256D77" fill-rule="evenodd" mask="url(#mask-6)"></path>
                        <path d="M21.7589595,162.839148 C21.7589595,162.839148 21.7886076,183.064848 23.0973599,189.753662 C24.4065827,196.442011 23.7467946,198.919092 23.7467946,198.919092 L5.36402561,200 C5.36402561,200 -0.1660527,179.762692 0.0038356726,171.768246 C0.3323179,156.300769 3.72208507,148.325359 3.72208507,148.325359 L21.7589595,162.839148 Z" id="Fill-73" stroke="none" fill="#256D77" fill-rule="evenodd" mask="url(#mask-6)"></path>
                        <path d="M83.2173913,19.138756 C83.2173913,19.138756 75.6118372,25.2390738 63.6597943,30.2633186 C51.7082092,35.2871097 45.9130435,36.3636364 45.9130435,36.3636364" id="Stroke-74" stroke="#417D82" stroke-width="2.373" fill="none" mask="url(#mask-6)"></path>
                        <path d="M86.0869565,13.3971292 C86.0869565,13.3971292 77.537971,18.5684648 64.7348531,22.0505067 C51.9322033,25.5325487 45.9130435,25.8373206 45.9130435,25.8373206" id="Stroke-75" stroke="#417D82" stroke-width="2.373" fill="none" mask="url(#mask-6)"></path>
                        <polyline id="Stroke-76" stroke="#88BEBF" stroke-width="1.531" fill="none" mask="url(#mask-6)" points="52.6086957 97.6076555 59.0653786 109.090909 67.853117 105.087099 76.5515182 108.827044 81.3043478 97.6957589"></polyline>
                        <polygon id="Fill-77" stroke="none" fill="#88BEBF" fill-rule="evenodd" mask="url(#mask-6)" points="66.9565217 134.92823 67.9130435 134.92823 67.9130435 105.263158 66.9565217 105.263158"></polygon>
                        <polyline id="Stroke-78" stroke="#5B8D99" stroke-width="1.187" fill="none" mask="url(#mask-6)" points="42.0869565 96.6507177 49.115411 123.077938 55.3328023 120.600545 52.0890054 127.207234 66.9565217 136.842105"></polyline>
                        <polyline id="Stroke-79" stroke="#5B8D99" stroke-width="1.165" fill="none" mask="url(#mask-6)" points="92.7826087 97.6076555 85.7541424 123.405808 79.536867 120.987044 82.7807032 127.436466 67.9130435 136.842105"></polyline>
                        <polygon id="Fill-80" stroke="none" fill="#5B8D99" fill-rule="evenodd" mask="url(#mask-6)" points="66.9565217 198.086124 67.9130435 198.086124 67.9130435 133.971292 66.9565217 133.971292"></polygon>
                        <path d="M65.0434783,149.282297 C65.0434783,150.339468 64.187146,151.196172 63.1304348,151.196172 C62.0741842,151.196172 61.2173913,150.339468 61.2173913,149.282297 C61.2173913,148.225126 62.0741842,147.368421 63.1304348,147.368421 C64.187146,147.368421 65.0434783,148.225126 65.0434783,149.282297" id="Fill-81" stroke="none" fill="#5B8D99" fill-rule="evenodd" mask="url(#mask-6)"></path>
                        <path d="M65.0434783,166.507177 C65.0434783,167.564348 64.187146,168.421053 63.1304348,168.421053 C62.0741842,168.421053 61.2173913,167.564348 61.2173913,166.507177 C61.2173913,165.450006 62.0741842,164.593301 63.1304348,164.593301 C64.187146,164.593301 65.0434783,165.450006 65.0434783,166.507177" id="Fill-82" stroke="none" fill="#5B8D99" fill-rule="evenodd" mask="url(#mask-6)"></path>
                        <path d="M65.0434783,185.645933 C65.0434783,186.703104 64.187146,187.559809 63.1304348,187.559809 C62.0741842,187.559809 61.2173913,186.703104 61.2173913,185.645933 C61.2173913,184.588762 62.0741842,183.732057 63.1304348,183.732057 C64.187146,183.732057 65.0434783,184.588762 65.0434783,185.645933" id="Fill-83" stroke="none" fill="#5B8D99" fill-rule="evenodd" mask="url(#mask-6)"></path>
                        <path d="M33.4782609,145.454545 C33.4782609,145.454545 36.3074736,149.946042 44.0403524,151.412896 C49.8981398,152.523962 53.5652174,152.054727 53.5652174,152.054727" id="Stroke-84" stroke="#5B8D99" stroke-width="1.246" fill="none" mask="url(#mask-6)"></path>
                        <path d="M99.4782609,145.454545 C99.4782609,145.454545 96.6490481,149.946042 88.9161693,151.412896 C83.0583819,152.523962 79.3913043,152.054727 79.3913043,152.054727" id="Stroke-85" stroke="#5B8D99" stroke-width="1.246" fill="none" mask="url(#mask-6)"></path>
                        <polyline id="Stroke-86" stroke="#5B8D99" stroke-width="1.246" fill="none" mask="url(#mask-6)" points="26.7066122 133.971292 25.826087 147.368421 28.6956522 141.1792"></polyline>
                        <polyline id="Stroke-87" stroke="#5B8D99" stroke-width="1.246" fill="none" mask="url(#mask-6)" points="106.24991 132.057416 107.130435 145.454545 104.26087 139.265324"></polyline>
                        <path d="M24.8695652,96.6507177 C24.8695652,96.6507177 27.4211734,97.0162843 28.1620972,102.499783 C28.9030209,107.983281 28.6561851,112.91866 28.6561851,112.91866" id="Stroke-88" stroke="#5B8D99" stroke-width="1.246" fill="none" mask="url(#mask-6)"></path>
                        <path d="M107.130435,96.6507177 C107.130435,96.6507177 104.578827,97.0163211 103.837903,102.499903 C103.096979,107.983484 103.343815,112.91866 103.343815,112.91866" id="Stroke-89" stroke="#5B8D99" stroke-width="1.236" fill="none" mask="url(#mask-6)"></path>
                    </g>
                </g>
            </g>
        </g>
    </g>
</svg>